/* XPM */
static char * FaktorIpsIcon_xpm[] = {
"48 48 518 2",
"  	c None",
". 	c #FFFFFF",
"+ 	c #C8CFED",
"@ 	c #C5CCEB",
"# 	c #C5CDEB",
"$ 	c #C4CCEC",
"% 	c #C3CBEB",
"& 	c #C1C9EA",
"* 	c #BFC6E9",
"= 	c #BBC4E8",
"- 	c #B7C0E6",
"; 	c #B2BCE5",
"> 	c #ACB7E3",
", 	c #ACB6E3",
"' 	c #DDDDDD",
") 	c #B2B2B2",
"! 	c #F1F1F1",
"~ 	c #CFD5EF",
"{ 	c #CED5EF",
"] 	c #D0D6EF",
"^ 	c #D0D7EF",
"/ 	c #D0D5EF",
"( 	c #D2D9F1",
"_ 	c #D1D7F0",
": 	c #CCD3EE",
"< 	c #C9D1ED",
"[ 	c #C6CEEC",
"} 	c #C0C8EA",
"| 	c #B7C0E7",
"1 	c #ADB8E3",
"2 	c #A7B2E0",
"3 	c #A4B0DF",
"4 	c #909090",
"5 	c #000000",
"6 	c #0F0F0F",
"7 	c #F0F0F0",
"8 	c #D4D9F0",
"9 	c #D7DCF1",
"0 	c #D7DDF2",
"a 	c #DBE0F4",
"b 	c #DADFF3",
"c 	c #D8DDF2",
"d 	c #DCE1F4",
"e 	c #DADFF4",
"f 	c #D8DDF3",
"g 	c #D5DAF2",
"h 	c #D2D8F1",
"i 	c #D0D6F0",
"j 	c #C4CCEB",
"k 	c #BFC8EA",
"l 	c #BCC4E9",
"m 	c #B9C2E7",
"n 	c #AEB9E3",
"o 	c #AAB5E2",
"p 	c #A2AEDF",
"q 	c #040404",
"r 	c #FDFDFD",
"s 	c #E1E5F5",
"t 	c #FEFEFF",
"u 	c #F3F3F3",
"v 	c #2E2E2E",
"w 	c #3B3B3B",
"x 	c #E6E9F7",
"y 	c #9A9A9A",
"z 	c #363636",
"A 	c #B5B5B5",
"B 	c #292929",
"C 	c #A0A0A0",
"D 	c #E8E8E8",
"E 	c #F4F4F4",
"F 	c #BCC4E5",
"G 	c #7081C9",
"H 	c #5B6FC0",
"I 	c #6B7DC7",
"J 	c #ADB7E0",
"K 	c #FDFDFE",
"L 	c #B7C0E3",
"M 	c #CCD2EB",
"N 	c #0B0B0B",
"O 	c #BDBDBD",
"P 	c #F0F3FA",
"Q 	c #878787",
"R 	c #101010",
"S 	c #CCCCCC",
"T 	c #0C0C0C",
"U 	c #696969",
"V 	c #FEFEFE",
"W 	c #F5F5F5",
"X 	c #9E9E9E",
"Y 	c #232323",
"Z 	c #404040",
"` 	c #A1A1A1",
" .	c #BEC5E6",
"..	c #5A6DC0",
"+.	c #B0BAE1",
"@.	c #DADEF1",
"#.	c #BBC3E5",
"$.	c #5E71C2",
"%.	c #9EAADA",
"&.	c #B2BBE2",
"*.	c #596DC0",
"=.	c #5A6EC0",
"-.	c #9CA8D9",
";.	c #F9F9FC",
">.	c #1F1F1F",
",.	c #B8B8B8",
"'.	c #424242",
").	c #666666",
"!.	c #323232",
"~.	c #606060",
"{.	c #DFDFDF",
"].	c #181818",
"^.	c #585858",
"/.	c #383838",
"(.	c #676767",
"_.	c #6E7FC8",
":.	c #94A1D6",
"<.	c #A9B4DE",
"[.	c #F0F2F9",
"}.	c #6274C3",
"|.	c #E0E4F3",
"1.	c #8C9AD3",
"2.	c #B7BFE3",
"3.	c #030303",
"4.	c #A7A7A7",
"5.	c #A8A8A8",
"6.	c #E4E4E4",
"7.	c #E1E1E1",
"8.	c #020202",
"9.	c #C0C0C0",
"0.	c #898989",
"a.	c #0D0D0D",
"b.	c #0A0A0A",
"c.	c #484848",
"d.	c #F9F9F9",
"e.	c #DFE3F5",
"f.	c #DBE0F5",
"g.	c #F3F5FA",
"h.	c #576BBF",
"i.	c #B3BCE2",
"j.	c #B8C2E8",
"k.	c #CED4EC",
"l.	c #D1D7ED",
"m.	c #858585",
"n.	c #151515",
"o.	c #C4C4C4",
"p.	c #A4A4A4",
"q.	c #262626",
"r.	c #FBFBFB",
"s.	c #E1E5F7",
"t.	c #DFE3F6",
"u.	c #EEF0F9",
"v.	c #B4BDE2",
"w.	c #BEC7EC",
"x.	c #D6DAEF",
"y.	c #CBD1EB",
"z.	c #D0D6EE",
"A.	c #272727",
"B.	c #474747",
"C.	c #D2D2D2",
"D.	c #6D6D6D",
"E.	c #DFE2F6",
"F.	c #DCE0F5",
"G.	c #FCFDFE",
"H.	c #5F72C2",
"I.	c #9FAADA",
"J.	c #C8CFEA",
"K.	c #D2D8F0",
"L.	c #C8C8C8",
"M.	c #BBBBBB",
"N.	c #7E7E7E",
"O.	c #E6E6E6",
"P.	c #A3A3A3",
"Q.	c #9B9B9B",
"R.	c #99A5D8",
"S.	c #687AC5",
"T.	c #F3F4FA",
"U.	c #8B99D3",
"V.	c #FBFBFD",
"W.	c #D7DCF2",
"X.	c #282828",
"Y.	c #E0E0E0",
"Z.	c #8C8C8C",
"`.	c #6A6A6A",
" +	c #060606",
".+	c #C3C3C3",
"++	c #DAE0F5",
"@+	c #CCD2F0",
"#+	c #F4F5FB",
"$+	c #7888CB",
"%+	c #6376C4",
"&+	c #8694D1",
"*+	c #7081C8",
"=+	c #6073C2",
"-+	c #D5DAEF",
";+	c #6B7CC6",
">+	c #586CBF",
",+	c #6678C4",
"'+	c #DCDCDC",
")+	c #B1B1B1",
"!+	c #D6DCF1",
"~+	c #CFCFCF",
"{+	c #F1F4FB",
"]+	c #BABABA",
"^+	c #DADADA",
"/+	c #B0B0B0",
"(+	c #DADEF4",
"_+	c #C1C1C1",
":+	c #D0D0D0",
"<+	c #CBD2F0",
"[+	c #FBFCFE",
"}+	c #CBD2EB",
"|+	c #B5BEE3",
"1+	c #C1C8E7",
"2+	c #C7CDE9",
"3+	c #E3E6F4",
"4+	c #EEF1FA",
"5+	c #F0F2FB",
"6+	c #CAD1F0",
"7+	c #C7CFEF",
"8+	c #BCC4E7",
"9+	c #C7CEEB",
"0+	c #DDE2F5",
"a+	c #E5E8F7",
"b+	c #E7EAF9",
"c+	c #E9ECF9",
"d+	c #EBEDF9",
"e+	c #ECEEF9",
"f+	c #EDEFFA",
"g+	c #ECEFF9",
"h+	c #EBEEF9",
"i+	c #EAECF9",
"j+	c #E8EBF8",
"k+	c #E6E9F8",
"l+	c #E4E7F7",
"m+	c #E2E5F7",
"n+	c #DCE2F5",
"o+	c #D8DCF4",
"p+	c #D5DBF3",
"q+	c #D2D8F2",
"r+	c #CFD5F1",
"s+	c #CCD3F0",
"t+	c #C9D1F0",
"u+	c #C7CEEF",
"v+	c #C4CCED",
"w+	c #C1C9ED",
"x+	c #BCC4EB",
"y+	c #B8C2EA",
"z+	c #B5BFEA",
"A+	c #B2BDE8",
"B+	c #B0BAE8",
"C+	c #ADB8E7",
"D+	c #A2AFE3",
"E+	c #94A1DC",
"F+	c #8B9AD7",
"G+	c #8292D3",
"H+	c #BEC6E8",
"I+	c #CBD1ED",
"J+	c #E3E7F7",
"K+	c #E5E9F8",
"L+	c #E7EAF8",
"M+	c #E8ECF8",
"N+	c #E9EDF9",
"O+	c #EAEDF9",
"P+	c #E7EBF8",
"Q+	c #E4E8F7",
"R+	c #E2E6F6",
"S+	c #DFE4F6",
"T+	c #D8DDF4",
"U+	c #D6DCF3",
"V+	c #D3D9F3",
"W+	c #D1D7F2",
"X+	c #CED5F0",
"Y+	c #C8D0EF",
"Z+	c #C6CDEE",
"`+	c #C3CBED",
" @	c #C0C9ED",
".@	c #BEC6EC",
"+@	c #BAC4EB",
"@@	c #B7C1EA",
"#@	c #B5BFE9",
"$@	c #B2BCE8",
"%@	c #AFB9E8",
"&@	c #ACB7E7",
"*@	c #A3AFE3",
"=@	c #96A4DD",
"-@	c #93A1DB",
";@	c #8796D5",
">@	c #E2E7F7",
",@	c #E5E9F7",
"'@	c #D7DCF3",
")@	c #D4DAF2",
"!@	c #CFD6F1",
"~@	c #CDD4F0",
"{@	c #C4CCEE",
"]@	c #C1CAED",
"^@	c #93A1DC",
"/@	c #8998D7",
"(@	c #8392D4",
"_@	c #F4F6FB",
":@	c #F9FAFD",
"<@	c #E0E4F6",
"[@	c #E2E5F6",
"}@	c #E2E6F7",
"|@	c #F7F8FC",
"1@	c #F5F6FB",
"2@	c #F6F7FC",
"3@	c #D0D7F2",
"4@	c #CED4F1",
"5@	c #C9D0EF",
"6@	c #C6CEEF",
"7@	c #FAFAFD",
"8@	c #EBEDF7",
"9@	c #D2D7EE",
"0@	c #C5CBE9",
"a@	c #CAD0EB",
"b@	c #F1F2F9",
"c@	c #FAFBFD",
"d@	c #808FD2",
"e@	c #C7CEEA",
"f@	c #6174C3",
"g@	c #A3AEDC",
"h@	c #DEE2F5",
"i@	c #DEE3F6",
"j@	c #7B8BCD",
"k@	c #97A4D7",
"l@	c #BDC5E6",
"m@	c #7C8CCD",
"n@	c #5C6FC1",
"o@	c #7F8ECE",
"p@	c #B9C1E4",
"q@	c #EDEFF8",
"r@	c #DCE1F5",
"s@	c #8B98D3",
"t@	c #919ED5",
"u@	c #F1F3FA",
"v@	c #6C7DC7",
"w@	c #C3CAE8",
"x@	c #D8DEF3",
"y@	c #D9DEF4",
"z@	c #DADEF5",
"A@	c #5D70C1",
"B@	c #8291CF",
"C@	c #C5CEEF",
"D@	c #7D8CCD",
"E@	c #AFB8E0",
"F@	c #D7DDF4",
"G@	c #D1D7EE",
"H@	c #E7E9F6",
"I@	c #E6E9F6",
"J@	c #E5E8F5",
"K@	c #CDD3EC",
"L@	c #8997D2",
"M@	c #596CC0",
"N@	c #AEB8E0",
"O@	c #C0C7E7",
"P@	c #F8F9FC",
"Q@	c #D8DDF0",
"R@	c #94A0D6",
"S@	c #5C70C1",
"T@	c #D3D9F2",
"U@	c #D4DAF3",
"V@	c #6476C4",
"W@	c #9AA6D9",
"X@	c #FCFCFE",
"Y@	c #7D8DCD",
"Z@	c #B7C0E4",
"`@	c #DCE1F2",
" #	c #E1E5F3",
".#	c #CFD6F2",
"+#	c #D1D7F1",
"@#	c #D0D6F1",
"##	c #CED5F1",
"$#	c #E4E7F4",
"%#	c #F9F9FD",
"&#	c #5E72C2",
"*#	c #ECEFF8",
"=#	c #AAB6E6",
"-#	c #A8B4E6",
";#	c #A9B4E5",
">#	c #CDD4F1",
",#	c #CBD2EF",
"'#	c #6779C5",
")#	c #CED3EC",
"!#	c #F6F7FB",
"~#	c #A9B5E6",
"{#	c #A8B4E5",
"]#	c #A2AEE1",
"^#	c #92A1DB",
"/#	c #8595D5",
"(#	c #CAD1EF",
"_#	c #687AC6",
":#	c #D3D8EE",
"<#	c #909DD4",
"[#	c #F2F4FA",
"}#	c #A2AEE3",
"|#	c #96A4DC",
"1#	c #92A0DB",
"2#	c #8393D4",
"3#	c #C8CFEF",
"4#	c #C6CEEE",
"5#	c #E0E3F3",
"6#	c #7485CA",
"7#	c #AFB9E1",
"8#	c #DEE2F2",
"9#	c #8A99D7",
"0#	c #8090D3",
"a#	c #C4CDEE",
"b#	c #C5CDEF",
"c#	c #BAC2E5",
"d#	c #7585CA",
"e#	c #C9D0EA",
"f#	c #6073C3",
"g#	c #7787CB",
"h#	c #A0ABDB",
"i#	c #8998D6",
"j#	c #C2CBED",
"k#	c #C1C9E7",
"l#	c #6577C4",
"m#	c #B2BBE1",
"n#	c #A4AFDC",
"o#	c #7A8ACC",
"p#	c #BFC7EC",
"q#	c #BFC8ED",
"r#	c #C0C8EC",
"s#	c #7383C9",
"t#	c #7989CC",
"u#	c #808FCF",
"v#	c #B2BDE9",
"w#	c #FDFEFE",
"x#	c #C2C9E8",
"y#	c #BBC5EB",
"z#	c #BCC6EC",
"A#	c #BCC5EC",
"B#	c #8190CF",
"C#	c #ECEEF7",
"D#	c #AEB9E7",
"E#	c #C6CDE9",
"F#	c #8F9CD4",
"G#	c #697BC6",
"H#	c #B9C2EB",
"I#	c #BAC2EA",
"J#	c #BAC3EB",
"K#	c #5B6EC0",
"L#	c #B8C0E4",
"M#	c #ADB9E7",
"N#	c #ABB7E7",
"O#	c #AAB5E6",
"P#	c #6A7CC6",
"Q#	c #B0B9E7",
"R#	c #B6C0EA",
"S#	c #BFC7E7",
"T#	c #D1D6EE",
"U#	c #D6DBEF",
"V#	c #ADB8E8",
"W#	c #ACB8E7",
"X#	c #ABB6E6",
"Y#	c #A8B5E5",
"Z#	c #EAECF7",
"`#	c #D7DCF0",
" $	c #A0ADE0",
".$	c #ADB8E6",
"+$	c #B4BEE9",
"@$	c #A9B4E6",
"#$	c #9AA7DE",
"$$	c #A9B4E4",
"%$	c #B0BBE8",
"&$	c #AFB9E7",
"*$	c #ACB7E6",
"=$	c #ABB6E7",
"-$	c #A1AEE2",
";$	c #6E7FC7",
">$	c #BEC6E6",
",$	c #9AA8DE",
"'$	c #A8B3E4",
")$	c #AAB4E6",
"!$	c #8A98D7",
"~$	c #94A2DB",
"{$	c #98A6DD",
"]$	c #FEFFFF",
"^$	c #93A0DC",
"/$	c #A8B5E6",
"($	c #6275C3",
"_$	c #6C7EC7",
":$	c #E4E7F5",
"<$	c #ABB5DF",
"[$	c #8090D2",
"}$	c #8897D6",
"|$	c #A8B2DD",
"1$	c #7B8ACD",
"2$	c #96A2D7",
"3$	c #909DD5",
"4$	c #8391CF",
"5$	c #586CC0",
"6$	c #ECEEF8",
"7$	c #A1ADE1",
"8$	c #A3AEE3",
"9$	c #9DA8D9",
"0$	c #6D7FC7",
"a$	c #C4CBE9",
"b$	c #FBFCFD",
"c$	c #F3F5FB",
"d$	c #97A4DD",
"e$	c #A1AEE1",
"f$	c #C2CAE8",
"g$	c #ACB6E0",
"h$	c #B6BEE3",
"i$	c #C9CFEA",
"j$	c #EAEDF7",
"k$	c #8B99D8",
"l$	c #92A0DA",
"m$	c #94A1DB",
"n$	c #8B99D7",
"o$	c #8392D3",
"p$	c #8393D3",
"q$	c #8696D5",
"r$	c #8796D6",
"s$	c #8695D5",
"                                                                                                ",
"                                                                                                ",
"  . . . . . . . . .                 + @ # $ % & * = - ; > ,                                     ",
"  . ' ) ) ) ) ) ! .           ~ { ] ^ / ( _ ~ : < [ % } | ; 1 2 3                               ",
"  . 4 5 6 6 6 6 7 .       8 8 9 0 a b c c d e f g h i j k l m n o p . . .                       ",
"  . 4 q r . . . . . . . . . . s . . . . . . . . . . . . . . . . . . . t . . . . . . . . .       ",
"  . 4 q r .       . u v w r . x . y z . . A B C D B B B B B B E . F G H I J K . . L I M . . .   ",
"  . 4 q r . . . . . C N 5 O . P . Q R . S T U V W X X Y Z X ` .  ...+.@.#.$.%.. . &.*.=.-.;..   ",
"  . 4 5 >.>.>.,.. . '.).!.~.. . . Q R {.].^.r . . . . /.(.. . . _.:.. . . <.*.[.. &.}.|.1.2..   ",
"  . 4 3.4.5.5.6.. 7.8.9.0.a.W . . Q b.B c.d.. . e.f.. /.(.. . g.h.i.. j.. k.h.l.. &.}.. . . .   ",
"  . 4 q r . . . . m.n.7.o.5 p.. . Q b.q.'.r.. s.t.f.. /.(.. . u.h.v.. w.. x.h.y.. &.}..         ",
"  . 4 q r . z.. V A.5 5 5 5 B.. . Q R C.N D.. . E.F.. /.(.. . G.H.I.. . . J.h.@.. &.}..         ",
"  . 4 q r . K.. L.5 M.D D N.q O.. Q R . P.5 Q.. . f.. /.(.. . . R.S.T.. t U.S.V.. &.}.. . .     ",
"  . 4 q r . W.. U X.. . . Y.8.Z.. Q R . . `. +.+. ++. /.(.. @+. #+$+%+&+*+=+-+. ;+H.>+,+i..     ",
"  . '+)+V . !+. O ~+. {+. . ]+L.. ^+A . . d./+o.. (+. _+:+. <+. . [+}+|+1+[.. . J.2+2+2+3+.     ",
"  . . . . . W.. . . . 4+5+. . . . . . . . . . . . f . . . . 6+7+. . . . . . . . . . . . . .     ",
"      8+9+i 0+a+b+c+d+e+f+f+f+g+h+i+j+k+l+m+t.n+e o+p+q+r+s+t+u+v+w+w.x+y+z+A+B+C+D+E+F+G+      ",
"      H+I+i d J+K+L+M+c+N+O+i+c+c+P+k+Q+R+S+0+a T+U+V+W+X+<+Y+Z+`+ @.@+@@@#@$@%@&@*@=@-@;@      ",
"  . . . . . . . >@l+,@. . . . . . . . . . . . . '@)@h !@~@6+u+{@]@. . . . . . . . . . ^@/@(@    ",
"  . V._@_@_@:@. <@[@}@. |@_@_@_@_@_@_@1@2@:@t . . . 3@4@<+5@6@. . . 7@8@9@0@a@@.b@c@. . . d@    ",
"  . e@f@f@f@g@. h@i@<@. 1.f@f@f@f@f@f@%+;+j@k@9@V.. . s+5@7+. . |@l@m@*.h.h.h.h.n@o@p@q@. . .   ",
"  . a@h.h.h.%.. a d r@. s@h.h.h.h.h.h.h.h.h.h.h.t@u@. . 7+. . 8@&+>+h.h.h.h.h.h.h.h.h.v@w@t .   ",
"  . a@h.h.h.%.. x@y@z@. s@h.h.h.n@A@A@=.h.h.h.h.h.B@#+. C@. |@&+h.h.h.>+*+o@D@_.>+h.h.h.E@t .   ",
"  . a@h.h.h.%.. p+U+F@. s@h.h.f@G@H@I@J@K@L@M@h.h.>+N@. . . l@>+h.h.H.O@u@7@P@[.Q@R@S@j@#+. .   ",
"  . a@h.h.h.%.. q+T@U@. s@h.h.V@I@. . . . V.W@h.h.h.*+[.. X@Y@h.h.h.Z@. . . . . . K `@ #. .     ",
"  . a@h.h.h.%.. .#+#+#. s@h.h.V@I@. @###. . $#H.h.h.=.`@. %#&#h.h.h.*#. C+=#-#;#. . . . . ;@    ",
"  . a@h.h.h.%.. ~@>#X+. s@h.h.%+I@. >#s+,#. t '#h.h.h.)#. !#h.h.h.h.3+. . ~#-#-#-#-#{#]#^#/#    ",
"  . a@h.h.h.%.. (#<+s+. s@h.h.%+I@. (#(#Y+. . _#h.h.h.:#. :@H.h.h.h.<#[#. . . . -#-#}#|#1#2#    ",
"  . a@h.h.h.%.. 7+3#5@. s@h.h.V@I@. 7+4#6@. [.}.h.h.n@5#. K &+h.h.h.h.6#7#8#7@. . . . ^@9#0#    ",
"  . a@h.h.h.%.. v+a#b#. s@h.h.%+I@. {@. . . c#*.h.h.d#1@. . e#>+h.h.h.h.h.f#g#h#9@[+. . i#(@    ",
"  . a@h.h.h.%.. ]@]@j#. s@h.h.V@I@. . . V.k#l#h.h.h.m#. . . G.n#h.h.h.h.h.h.h.h.n@o#9@. . .     ",
"  . a@h.h.h.%.. p#q#r#. s@h.h.h.s#t#t#6#}.*.h.h.h.u#_@. v#. . w#x#_.>+h.h.h.h.h.h.h.n@&.t .     ",
"  . a@h.h.h.%.. y#z#A#. s@h.h.h.h.h.h.h.h.h.h.>+B#C#. . B+D#. . . |@E#F#G#n@h.h.h.h.h.*.w@. .   ",
"  . a@h.h.h.%.. H#I#J#. s@h.h.h.h.h.h.h.K#%+g#L#P@. . %@M#N#O#-#. . . . 1@:#n#P#h.h.h.h.*+!#.   ",
"  . a@h.h.h.%.. Q#R#@@. s@h.h.=+S#T#T#G@U#3+c@. . . V#W#X#~#-#-#;#{#Y#. . . . Z#o@h.h.h.h.`#.   ",
"  . a@h.h.h.%..  $.$+$. s@h.h.V@I@. . . . . . . D#W#N#~#-#-#@${#@$-#-#-#-#-#. . J@K#h.h.h.l@.   ",
"  . a@h.h.h.%.. #$$$%$. s@h.h.V@I@. %$B+&$D#C+*$=$~#{#{#{#-#-#-#{#-#-#@$-#{#-$. c@;$h.h.h.>$.   ",
"  . a@h.h.h.%.. =@,$'$. s@h.h.V@I@. M#W#*$=$=#)$-#-#;#-#. . . . . {#-#-#-#}#=@. :@l#h.h.h.-+.   ",
"  . a@h.h.h.%.. !$~${$. s@h.h.%+I@. O#O#~#-#;#-#@${#-#-#. ]$-+u@. . . . -$. . . J.h.h.h.l##+.   ",
"  . a@h.h.h.%.. 0#/@^$. s@h.h.V@I@. -#-#-#/$-#/$-#{#-#-#. [.($_$N@:$|@. . . 1@M '#h.h.h.<$t .   ",
"  . a@h.h.h.%..   [$}$. s@h.h.%+I@. ;#-#@$-#-#-#-#-#{#-#. |$h.h.h.H.1$U.2$3$g#*.h.h.h.4$g.. .   ",
"  . a@h.h.h.%..     /#. s@h.h.V@I@. ;#-#/$-#{#@$-#-#-#{#. R.A@h.h.h.h.h.h.h.h.h.h.5$s@6$. .     ",
"  . a@h.h.h.%..       . s@h.h.V@I@. 7$7$}#{#-#-#-#-#-#8$. X@@.9$0$>+h.h.h.h.h.*.j@a$%#. .       ",
"  . b$T.T.T.P@.       . 2@T.T.c$K . ^@^@d$-$e$e$-$-$e$=@. . . t |@J@f$|+g$h$i$j$:@. . .         ",
"  . . . . . . .       . . . . . . . /@k$l$-@^@^@^@m$1#1#n$/@. . . . . . . . . . . .             ",
"                                    o$0#p$/#q$r$r$;@s$(@0#(@                                    ",
"                                                                                                ",
"                                                                                                "};
