<?xml version="1.0" encoding="UTF-8" standalone="no"?>
<!-- Created with Inkscape (http://www.inkscape.org/) -->

<svg
   width="16px"
   height="16px"
   viewBox="0 0 16 16"
   version="1.1"
   id="SVGRoot"
   sodipodi:docname="ProductCmptType_dark.svg"
   inkscape:version="1.1.1 (3bf5ae0d25, 2021-09-20)"
   xmlns:inkscape="http://www.inkscape.org/namespaces/inkscape"
   xmlns:sodipodi="http://sodipodi.sourceforge.net/DTD/sodipodi-0.dtd"
   xmlns="http://www.w3.org/2000/svg"
   xmlns:svg="http://www.w3.org/2000/svg"
   xmlns:rdf="http://www.w3.org/1999/02/22-rdf-syntax-ns#"
   xmlns:cc="http://creativecommons.org/ns#"
   xmlns:dc="http://purl.org/dc/elements/1.1/">
  <defs
     id="defs4779" />
  <sodipodi:namedview
     id="base"
     pagecolor="#ffffff"
     bordercolor="#666666"
     borderopacity="1.0"
     inkscape:pageopacity="0.0"
     inkscape:pageshadow="2"
     inkscape:zoom="22.627417"
     inkscape:cx="7.5793008"
     inkscape:cy="5.1265242"
     inkscape:document-units="px"
     inkscape:current-layer="layer1"
     showgrid="false"
     inkscape:window-width="1868"
     inkscape:window-height="1043"
     inkscape:window-x="4532"
     inkscape:window-y="0"
     inkscape:window-maximized="1"
     inkscape:grid-bbox="true"
     inkscape:pagecheckerboard="0" />
  <metadata
     id="metadata4782">
    <rdf:RDF>
      <cc:Work
         rdf:about="">
        <dc:format>image/svg+xml</dc:format>
        <dc:type
           rdf:resource="http://purl.org/dc/dcmitype/StillImage" />
      </cc:Work>
    </rdf:RDF>
  </metadata>
  <g
     inkscape:label="Layer 1"
     inkscape:groupmode="layer"
     id="layer1">
    <path
       style="fill:#634fca;fill-opacity:1;stroke-width:2.07621"
       d="M 8,1 C 4.1340068,1 1,4.1340068 1,8 c 0,3.865993 3.1340068,7 7,7 3.865993,0 7,-3.134007 7,-7 C 15,4.1340068 11.865993,1 8,1 Z"
       id="path4792"
       sodipodi:nodetypes="sssss" />
    <g
       aria-label="P"
       id="text63735"
       style="font-size:9.33333px;line-height:1.25;fill:#f2f2f2;fill-opacity:1">
      <path
         d="m 8.3303868,4.7333344 q 0.8493331,0 1.4746662,0.2799999 0.634666,0.2799999 0.970666,0.8026663 0.336,0.5226665 0.336,1.241333 0,0.7093331 -0.336,1.2413329 -0.336,0.5226665 -0.970666,0.8026664 Q 9.1797199,9.3813328 8.3303868,9.3813328 H 6.8557207 V 11.266665 H 5.6423877 V 4.7333344 Z m -0.056,3.6213321 q 0.7933331,0 1.2039996,-0.3359999 0.4106666,-0.3359999 0.4106666,-0.961333 0,-0.6253332 -0.4106666,-0.961333 Q 9.0677199,5.7600007 8.2743868,5.7600007 H 6.8557207 v 2.5946658 z"
         style="font-weight:600;font-family:Montserrat;-inkscape-font-specification:'Montserrat Semi-Bold';fill:#f2f2f2;fill-opacity:1"
         id="path73670" />
    </g>
  </g>
</svg>
