<?xml version="1.0" encoding="UTF-8" standalone="no"?>
<!-- Created with Inkscape (http://www.inkscape.org/) -->

<svg
        width="40"
        height="40"
        viewBox="0 0 10.583333 10.583333"
        version="1.1"
        id="svg8"
        inkscape:version="1.1.1 (3bf5ae0d25, 2021-09-20)"
        sodipodi:docname="pluginIcon.svg"
        xmlns:inkscape="http://www.inkscape.org/namespaces/inkscape"
        xmlns:sodipodi="http://sodipodi.sourceforge.net/DTD/sodipodi-0.dtd"
        xmlns="http://www.w3.org/2000/svg"
        xmlns:svg="http://www.w3.org/2000/svg"
        xmlns:rdf="http://www.w3.org/1999/02/22-rdf-syntax-ns#"
        xmlns:cc="http://creativecommons.org/ns#"
        xmlns:dc="http://purl.org/dc/elements/1.1/">
  <title
          id="title10393">Faktor-IPS Logo</title>
  <defs
          id="defs2" />
  <sodipodi:namedview
          id="base"
          pagecolor="#ffffff"
          bordercolor="#666666"
          borderopacity="1.0"
          inkscape:pageopacity="0.0"
          inkscape:pageshadow="2"
          inkscape:zoom="11.2"
          inkscape:cx="21.026786"
          inkscape:cy="13.839286"
          inkscape:document-units="mm"
          inkscape:current-layer="layer1-3"
          showgrid="false"
          inkscape:window-width="2508"
          inkscape:window-height="1403"
          inkscape:window-x="1972"
          inkscape:window-y="0"
          inkscape:window-maximized="1"
          inkscape:pagecheckerboard="0"
          units="px" />
  <metadata
          id="metadata5">
    <rdf:RDF>
      <cc:Work
              rdf:about="">
        <dc:format>image/svg+xml</dc:format>
        <dc:type
                rdf:resource="http://purl.org/dc/dcmitype/StillImage" />
        <dc:title>Faktor-IPS Logo</dc:title>
        <dc:creator>
          <cc:Agent>
            <dc:title>Faktor Zehn GmbH</dc:title>
          </cc:Agent>
        </dc:creator>
        <dc:rights>
          <cc:Agent>
            <dc:title>All rights reserved</dc:title>
          </cc:Agent>
        </dc:rights>
        <dc:description>A light blue stylized bird (&quot;Fipsi&quot;) above the text &quot;Faktor-IPS&quot;</dc:description>
      </cc:Work>
    </rdf:RDF>
  </metadata>
  <g
          inkscape:label="Layer 1"
          inkscape:groupmode="layer"
          id="layer1"
          transform="translate(209.0456,261.26162)">
    <g
            transform="matrix(1.1235764,0,0,1.176147,-209.64152,-599.37158)"
            id="layer1-3"
            inkscape:label="Layer 1">
      <path
              style="fill:#e7e7e7;fill-opacity:1;stroke:none;stroke-width:0.392242"
              d="m 6.2608289,287.92162 c -0.6722393,0 -1.2154843,0.52043 -1.2154843,1.16114 0,0.64072 0.543245,1.16116 1.2154843,1.16116 0.6722349,0 1.21548,-0.52044 1.21548,-1.16116 0,-0.64071 -0.5432451,-1.16114 -1.21548,-1.16114 z m 0.01252,0.52671 c 0.3502056,0 0.6515997,0.2808 0.6515997,0.63443 0,0.35365 -0.3013941,0.63445 -0.6515997,0.63445 -0.3502055,0 -0.6515994,-0.2808 -0.6515994,-0.63445 0,-0.35363 0.3013939,-0.63443 0.6515994,-0.63443 z m 0.213021,0.26335 c -0.1023869,0 -0.187959,0.082 -0.187959,0.17956 0,0.0976 0.085572,0.17956 0.187959,0.17956 0.102387,0 0.1879628,-0.082 0.1879628,-0.17956 0,-0.0976 -0.085576,-0.17956 -0.1879628,-0.17956 z m -2.1552867,1.90333 c -0.7236794,0.004 -1.5108466,0.0872 -2.1427537,0.20351 -0.05561,0.0102 -0.1099276,0.0133 -0.162901,0.0239 -0.2466469,0.0497 -0.4671,0.11043 -0.6390667,0.16758 -0.092177,0.0306 -0.1015481,0.0416 -0.1629006,0.0718 0.1454396,0.12773 0.3122373,0.28556 0.6515994,0.45489 0.046834,0.0233 0.1010266,0.0487 0.1503679,0.0718 0.09349,0.0435 0.199958,0.0901 0.3007397,0.13169 0.06549,0.027 0.1323851,0.0461 0.2004921,0.0718 0.037482,0.0142 0.0746,0.034 0.1127768,0.0479 0.082775,0.0298 0.1649838,0.0563 0.2506119,0.0838 0.060599,0.0195 0.1262891,0.0417 0.1879627,0.0598 0.1247522,0.0367 0.247775,0.0656 0.3759221,0.0957 0.143389,0.0337 0.2819824,0.0612 0.4260457,0.0838 0.00202,2.2e-4 0.010554,-2.3e-4 0.01252,0 0.1418882,0.0221 0.2743735,0.0383 0.413517,0.0479 0.00202,1.2e-4 0.010554,-1.1e-4 0.01252,0 0.068388,0.005 0.1333845,0.0108 0.2004918,0.012 0.2055045,0.004 0.4156155,-0.006 0.6014756,-0.0359 0.1878067,-0.0303 0.3541187,-0.0752 0.5137607,-0.14364 0.1064243,-0.0456 0.2089034,-0.10189 0.3007359,-0.1676 0.045915,-0.0329 0.095882,-0.0693 0.137839,-0.10773 0.083493,-0.0769 0.1587231,-0.16274 0.2255537,-0.26335 0.030941,-0.0466 0.057139,-0.0931 0.075186,-0.13168 0.00123,-0.003 -0.00123,-0.009 0,-0.012 0.055092,-0.12092 0.04876,-0.19768 0.025042,-0.26335 -0.00791,-0.0219 -0.02167,-0.0499 -0.037563,-0.0718 -0.015933,-0.0219 -0.037764,-0.0383 -0.062653,-0.0598 -0.025843,-0.0229 -0.051027,-0.0495 -0.087715,-0.0718 -0.034874,-0.0211 -0.066983,-0.0396 -0.112777,-0.0598 -0.092992,-0.0411 -0.2104524,-0.0768 -0.3383307,-0.10775 -0.062709,-0.0153 -0.1182388,-0.0231 -0.187959,-0.0359 -0.069776,-0.0127 -0.1497176,-0.0257 -0.2255537,-0.0359 -0.3031598,-0.0409 -0.6531567,-0.0614 -1.0149925,-0.0598 z"
              id="path6614-2"
              inkscape:connector-curvature="0"
              sodipodi:nodetypes="ssssssssssssssscccccccccccccccccccccccccccccccccc" />
      <path
              inkscape:connector-curvature="0"
              id="path6616-9"
              d="m 3.5547603,287.68786 c -0.8449721,0 -1.5239335,0.65048 -1.5239335,1.45581 v 1.31896 c -0.2919629,0.0563 -0.5536191,0.11523 -0.7684899,0.18664 -0.2365978,0.0787 -0.42190808,0.14882 -0.54705742,0.28618 l -0.0976758,0.11199 0.0911739,0.12443 c 0.17531349,0.238 0.51458742,0.46289 0.98339292,0.69681 0.1194868,0.0596 0.2514706,0.12337 0.3842408,0.18041 0.167171,0.6289 0.7640676,1.08876 1.4783484,1.08876 h 2.6701434 c 0.8449764,0 1.5239413,-0.64425 1.5239413,-1.44959 v -2.54459 c 0,-0.80533 -0.6789649,-1.45581 -1.5239413,-1.45581 z m 2.7027056,0.23641 c 0.6722391,0 1.2178517,0.51648 1.2178517,1.15719 0,0.64073 -0.5456126,1.16342 -1.2178517,1.16342 -0.6722351,0 -1.217844,-0.52269 -1.217844,-1.16342 0,-0.64071 0.5456089,-1.15719 1.217844,-1.15719 z m 0.013043,0.52882 c -0.3502098,0 -0.6512547,0.27473 -0.6512547,0.62837 0,0.35365 0.3010449,0.6346 0.6512547,0.6346 0.3502056,0 0.6512503,-0.28095 0.6512503,-0.6346 0,-0.35364 -0.3010447,-0.62837 -0.6512503,-0.62837 z m 0.214915,0.2613 c 0.1023829,0 0.1888656,0.0766 0.1888656,0.17421 0,0.0976 -0.086483,0.18042 -0.1888656,0.18042 -0.1023869,0 -0.1823527,-0.0829 -0.1823527,-0.18042 0,-0.0976 0.079966,-0.17421 0.1823527,-0.17421 z m 1.5890623,0.15554 c -0.084047,2.3e-4 -0.1562992,0.10452 -0.1562992,0.19909 v 1.3625 c 0,0.10808 0.089621,0.19287 0.1953747,0.19287 0.9844166,-0.27067 0.4507629,-0.64792 1.2829696,-0.71546 -0.1619738,-0.8806 -1.2829696,-1.03278 -1.2829696,-1.03278 -0.01244,-0.005 -0.027089,-0.006 -0.039046,-0.006 z m -3.7382049,1.74201 c 0.3618356,-0.002 0.7062905,0.0214 1.0094502,0.0622 0.00202,2.2e-4 0.00434,-2.3e-4 0.0065,0 0.075836,0.0102 0.1451386,0.0183 0.2149149,0.0311 0.06972,0.0128 0.1326621,0.0283 0.1953751,0.0436 0.1278744,0.031 0.2391465,0.0646 0.3321388,0.10577 0.04579,0.0202 0.082357,0.0411 0.1172274,0.0622 0.03668,0.0223 0.065309,0.0454 0.091174,0.0685 0.024881,0.0217 0.042692,0.0403 0.058616,0.0622 0.015933,0.0219 0.031142,0.0465 0.039048,0.0685 0.023718,0.0657 0.029056,0.1466 -0.026046,0.26753 -0.00123,0.003 -0.0053,0.004 -0.00654,0.006 -0.01806,0.0385 -0.040701,0.0841 -0.071643,0.13066 -0.066831,0.1006 -0.1444446,0.19067 -0.2279379,0.26752 -0.041957,0.0384 -0.084335,0.0729 -0.1302459,0.10576 -0.091837,0.0657 -0.1931559,0.12237 -0.29958,0.16798 -0.1596382,0.0684 -0.3331938,0.11275 -0.5210044,0.14309 -0.18586,0.03 -0.3871346,0.0413 -0.5926388,0.0373 -0.00202,-4e-5 -0.00433,6e-5 -0.00654,0 -0.067107,-9.8e-4 -0.1335049,-0.002 -0.2018925,-0.006 -0.00202,-1.2e-4 -0.00441,10e-5 -0.00654,0 -0.1391432,-0.01 -0.2814287,-0.0277 -0.4233171,-0.0498 -0.00202,-2.3e-4 -0.00445,2.3e-4 -0.00654,0 -0.144063,-0.0226 -0.2864409,-0.0534 -0.429826,-0.0871 -0.128147,-0.0301 -0.2529795,-0.0629 -0.3777318,-0.0995 -0.061674,-0.0181 -0.121754,-0.0365 -0.1823523,-0.056 -0.085628,-0.0275 -0.1712163,-0.0573 -0.253991,-0.0871 -0.038165,-0.0138 -0.073216,-0.0293 -0.1107102,-0.0435 -0.068107,-0.0258 -0.1363981,-0.0477 -0.2018925,-0.0746 -0.1007774,-0.0415 -0.1995728,-0.0871 -0.2930627,-0.13066 -0.049342,-0.0231 -0.1029569,-0.045 -0.14979,-0.0685 -0.3393621,-0.16933 -0.5123399,-0.32645 -0.6577797,-0.45418 0.061353,-0.0302 0.070647,-0.044 0.1628246,-0.0746 0.1719664,-0.0572 0.3980943,-0.11202 0.6447451,-0.16174 0.052974,-0.0106 0.1006895,-0.0209 0.1562996,-0.0311 0.6319071,-0.11632 1.4254631,-0.20188 2.1491424,-0.20531 z m 0.9833931,2.61301 a 0.19943769,0.19052337 0 0 0 -0.084661,0.35463 l 1.2829691,0.73413 a 0.19943769,0.19052337 0 1 0 0.2084016,-0.31729 l -1.2894784,-0.74036 a 0.19943769,0.19052337 0 0 0 -0.071639,-0.0249 0.19943769,0.19052337 0 0 0 -0.045593,-0.006 z m -1.1722549,0.006 a 0.19943769,0.19052337 0 0 0 -0.04559,0.35461 l 1.2959958,0.73413 a 0.19946755,0.19055188 0 1 0 0.2018924,-0.3235 l -1.2959998,-0.74036 a 0.19943769,0.19052337 0 0 0 -0.091174,-0.0249 0.19943769,0.19052337 0 0 0 -0.065125,0 z"
              style="fill:#009fe3;fill-opacity:1;stroke:#009fe3;stroke-width:0;stroke-miterlimit:4;stroke-dasharray:none;stroke-opacity:1" />
      <g
              aria-label="Faktor-IPS"
              transform="scale(1.0231269,0.97739587)"
              id="text3544-0-6-6-0"
              style="font-size:4.7069px;line-height:0%;font-family:OpenSymbol;-inkscape-font-specification:OpenSymbol;letter-spacing:-0.000920016px;word-spacing:0px;fill:#009fe3;stroke-width:0.392242">
        <path
                d="m 1.2704602,301.98273 0.02576,-0.17296 H 0.62276967 v 1.2733 h 0.21160345 v -0.58329 H 1.1894989 v -0.17112 H 0.83437312 v -0.34593 z"
                style="font-weight:bold;font-size:1.84003px;line-height:1.25;font-family:MetaMediumLF-Caps;-inkscape-font-specification:'MetaMediumLF-Caps Bold';text-align:end;letter-spacing:0px;text-anchor:end;fill:#585858"
                id="path6553" />
        <path
                d="M 1.9365463,303.08307 H 2.1591899 L 1.8059041,302.08393 H 1.5795805 l -0.3698461,0.99914 h 0.2152835 l 0.084641,-0.23921 h 0.3404056 z m -0.2520841,-0.82065 0.1214419,0.4232 h -0.246564 z"
                style="font-weight:bold;font-size:1.84003px;line-height:1.25;font-family:MetaMediumLF-Caps;-inkscape-font-specification:'MetaMediumLF-Caps Bold';text-align:end;letter-spacing:0px;text-anchor:end;fill:#585858"
                id="path6555" />
        <path
                d="M 2.8841601,303.08307 H 3.1583246 L 2.7645581,302.54762 3.125204,302.08761 H 2.8675998 l -0.3330454,0.46553 z m -0.5630492,0 h 0.2116035 v -0.99546 H 2.3211109 Z"
                style="font-weight:bold;font-size:1.84003px;line-height:1.25;font-family:MetaMediumLF-Caps;-inkscape-font-specification:'MetaMediumLF-Caps Bold';text-align:end;letter-spacing:0px;text-anchor:end;fill:#585858"
                id="path6557" />
        <path
                d="m 3.9752919,302.25506 0.034961,-0.16745 H 3.2227197 v 0.16745 h 0.2741644 v 0.82801 h 0.2079234 v -0.82801 z"
                style="font-weight:bold;font-size:1.84003px;line-height:1.25;font-family:MetaMediumLF-Caps;-inkscape-font-specification:'MetaMediumLF-Caps Bold';text-align:end;letter-spacing:0px;text-anchor:end;fill:#585858"
                id="path6559" />
        <path
                d="m 5.0185876,302.58258 q 0,-0.11224 -0.02944,-0.20424 -0.029441,-0.0938 -0.090162,-0.16193 -0.058881,-0.0681 -0.1472024,-0.10488 -0.088321,-0.0386 -0.2060833,-0.0386 -0.2226437,0 -0.3477657,0.13616 -0.123282,0.13433 -0.123282,0.37905 0,0.11408 0.031281,0.20792 0.03312,0.092 0.093841,0.16009 0.060721,0.0681 0.1490425,0.10488 0.090161,0.0368 0.2060833,0.0368 0.121442,0 0.2079234,-0.0368 0.088321,-0.0386 0.1435223,-0.10672 0.057041,-0.0699 0.084641,-0.16377 0.027601,-0.0938 0.027601,-0.20792 z m -0.2355239,0.007 q 0,0.0607 -0.00736,0.12512 -0.00736,0.0644 -0.031281,0.11592 -0.02392,0.0515 -0.069921,0.0847 -0.046001,0.0331 -0.1251221,0.0331 -0.082801,0 -0.1324821,-0.0313 -0.047841,-0.0313 -0.073601,-0.0828 -0.02392,-0.0515 -0.031281,-0.11592 -0.00736,-0.0662 -0.00736,-0.13432 0,-0.0607 0.00736,-0.12328 0.00736,-0.0644 0.031281,-0.11592 0.02576,-0.0515 0.071761,-0.0846 0.047841,-0.0331 0.1251221,-0.0331 0.080961,0 0.1288021,0.0331 0.049681,0.0313 0.073601,0.0828 0.02576,0.0515 0.03312,0.11776 0.00736,0.0644 0.00736,0.1288 z"
                style="font-weight:bold;font-size:1.84003px;line-height:1.25;font-family:MetaMediumLF-Caps;-inkscape-font-specification:'MetaMediumLF-Caps Bold';text-align:end;letter-spacing:0px;text-anchor:end;fill:#585858"
                id="path6561" />
        <path
                d="m 5.8355596,303.08307 h 0.248404 l -0.1361622,-0.20056 q -0.034961,-0.0515 -0.071761,-0.0994 -0.034961,-0.0478 -0.058881,-0.0791 -0.02208,-0.0331 -0.044161,-0.0478 0.1067217,-0.011 0.1748028,-0.0846 0.069921,-0.0754 0.069921,-0.1932 0,-0.13432 -0.1030417,-0.22081 -0.047841,-0.0386 -0.1177619,-0.0534 -0.068081,-0.0166 -0.1674428,-0.0166 H 5.2945908 v 0.99546 h 0.2042433 v -0.41401 q 0.034961,0 0.057041,0.0147 0.02208,0.0147 0.040481,0.035 0.02024,0.0239 0.049681,0.0699 0.031281,0.0442 0.090161,0.13433 z m -0.03312,-0.70105 q 0,0.0497 -0.0184,0.0773 -0.0184,0.0276 -0.049681,0.0423 -0.029441,0.0129 -0.068081,0.0166 -0.038641,0.002 -0.077281,0.002 h -0.090161 v -0.27416 h 0.099362 q 0.034961,0 0.071761,0.004 0.036801,0.004 0.066241,0.0184 0.02944,0.0129 0.047841,0.0405 0.0184,0.0276 0.0184,0.0736 z"
                style="font-weight:bold;font-size:1.84003px;line-height:1.25;font-family:MetaMediumLF-Caps;-inkscape-font-specification:'MetaMediumLF-Caps Bold';text-align:end;letter-spacing:0px;text-anchor:end;fill:#585858"
                id="path6563" />
        <path
                d="m 6.2127651,302.67642 h 0.4029666 v -0.18768 H 6.2127651 Z"
                style="font-weight:bold;font-size:1.84003px;line-height:1.25;font-family:MetaMediumLF-Caps;-inkscape-font-specification:'MetaMediumLF-Caps Bold';text-align:end;letter-spacing:0px;text-anchor:end;fill:#585858"
                id="path6565" />
        <path
                d="m 6.8733328,303.08307 h 0.2171236 v -1.2733 H 6.8733328 Z"
                style="fill:#009fe3"
                id="path6567" />
        <path
                d="m 8.2588725,302.19065 q 0,-0.10488 -0.046001,-0.18768 -0.044161,-0.0828 -0.1288021,-0.13248 -0.02576,-0.0166 -0.053361,-0.0276 -0.027601,-0.0129 -0.064401,-0.0184 -0.036801,-0.007 -0.086481,-0.011 -0.049681,-0.004 -0.119602,-0.004 H 7.4216588 v 1.2733 h 0.2097634 v -0.48577 h 0.2152836 q 0.086481,0 0.1619226,-0.0276 0.075441,-0.0294 0.1306421,-0.081 0.055201,-0.0534 0.086481,-0.1288 0.033121,-0.0754 0.033121,-0.16929 z m -0.2336838,0.0129 q 0,0.11593 -0.055201,0.17113 -0.055201,0.0534 -0.1729629,0.0534 H 7.6314222 v -0.44713 h 0.1656027 q 0.119602,0 0.1766429,0.0626 0.051521,0.0515 0.051521,0.16008 z"
                style="fill:#009fe3"
                id="path6569" />
        <path
                d="m 9.2929667,302.6985 q 0,-0.14352 -0.088321,-0.23184 -0.086481,-0.0902 -0.2244836,-0.13064 l -0.1508825,-0.0442 q -0.093842,-0.0276 -0.1324821,-0.0626 -0.036801,-0.035 -0.036801,-0.0938 0,-0.0791 0.057041,-0.12512 0.057041,-0.0478 0.1508825,-0.0478 0.075441,0 0.1435223,0.0239 0.068081,0.0221 0.1564025,0.0736 l 0.095682,-0.14904 q -0.084641,-0.0589 -0.1895231,-0.0902 -0.1030417,-0.0313 -0.2134435,-0.0313 -0.097522,0 -0.1766428,0.0276 -0.079121,0.0276 -0.1361622,0.0773 -0.057041,0.0497 -0.088321,0.1196 -0.03128,0.0681 -0.03128,0.15272 0,0.10489 0.053361,0.18585 0.036801,0.0534 0.097522,0.0902 0.060721,0.0368 0.1490424,0.0626 l 0.1361622,0.0386 q 0.099362,0.0276 0.1435223,0.0736 0.046001,0.046 0.046001,0.11592 0,0.0957 -0.066241,0.14905 -0.066241,0.0534 -0.184003,0.0534 -0.099362,0 -0.1784829,-0.0276 -0.077281,-0.0276 -0.1656027,-0.0773 l -0.080961,0.16193 q 0.093841,0.057 0.2005633,0.0865 0.1067217,0.0276 0.2171235,0.0276 0.121442,0 0.2134435,-0.0331 0.093841,-0.035 0.1564025,-0.092 0.062561,-0.057 0.093841,-0.13064 0.033121,-0.0736 0.033121,-0.15273 z"
                style="fill:#009fe3"
                id="path6571" />
      </g>
      <g
              aria-label="Ⓡ"
              transform="scale(1.0231269,0.97739587)"
              id="text4218-3-3"
              style="font-size:0.413891px;line-height:0%;font-family:OpenSymbol;-inkscape-font-specification:OpenSymbol;letter-spacing:-0.000147453px;word-spacing:0px;fill:#585858;stroke-width:0.034491">
        <path
                d="m 9.4832497,301.87887 h 0.017989 c 0.019758,0 0.030964,0.006 0.030964,0.0212 0,0.0145 -0.010321,0.023 -0.03067,0.023 h -0.018284 z m -0.038337,-0.0298 v 0.15482 h 0.038337 v -0.0546 h 0.020938 l 0.031554,0.0546 h 0.040106 l -0.037157,-0.0613 c 0.017694,-0.008 0.02949,-0.023 0.02949,-0.0448 0,-0.0374 -0.0289,-0.0487 -0.063993,-0.0487 z m 0.055441,0.20702 c -0.070776,0 -0.1282815,-0.0575 -0.1282815,-0.12829 0,-0.0702 0.056916,-0.12828 0.1282815,-0.12828 0.070776,0 0.1282815,0.0575 0.1282815,0.12828 0,0.0708 -0.057505,0.12829 -0.1282815,0.12829 z m 0,-0.26748 c -0.076674,0 -0.1391928,0.0625 -0.1391928,0.13919 0,0.0767 0.062519,0.1392 0.1391928,0.1392 0.076084,0 0.1391928,-0.0619 0.1391928,-0.1392 0,-0.0767 -0.062519,-0.13919 -0.1391928,-0.13919 z"
                style="font-weight:bold;font-size:0.2949px;line-height:1.25;font-family:MetaMediumLF-Caps;-inkscape-font-specification:'MetaMediumLF-Caps Bold';text-align:end;letter-spacing:0px;text-anchor:end"
                id="path10417" />
      </g>
    </g>
  </g>
</svg>
