/* XPM */
static char * FaktorIpsIcon_xpm[] = {
"48 48 902 2",
"  	c None",
". 	c #94A0D0",
"+ 	c #8E9ACD",
"@ 	c #8895CA",
"# 	c #8C99CB",
"$ 	c #929ECE",
"% 	c #8693C8",
"& 	c #6C7CBC",
"* 	c #5C6DB3",
"= 	c #5B6DB3",
"- 	c #5D6EB3",
"; 	c #5E6FB4",
"> 	c #5E70B4",
", 	c #5D6FB4",
"' 	c #596BB2",
") 	c #586AB1",
"! 	c #6273B7",
"~ 	c #7B89C3",
"{ 	c #9EA9D5",
"] 	c #9EA8D4",
"^ 	c #6E7DBD",
"/ 	c #6071B5",
"( 	c #6172B5",
"_ 	c #6676B8",
": 	c #6979BA",
"< 	c #6D7DBD",
"[ 	c #6E7EBD",
"} 	c #6B7BBC",
"| 	c #6979BB",
"1 	c #6576B9",
"2 	c #6172B7",
"3 	c #5C6EB4",
"4 	c #5769B1",
"5 	c #5E6FB5",
"6 	c #8A96CB",
"7 	c #CECECE",
"8 	c #292929",
"9 	c #999999",
"0 	c #6F7EBD",
"a 	c #5E6EB3",
"b 	c #6575B7",
"c 	c #7180BE",
"d 	c #7584C1",
"e 	c #7987C2",
"f 	c #7B89C4",
"g 	c #7C8BC5",
"h 	c #7D8BC5",
"i 	c #7B8AC5",
"j 	c #7988C4",
"k 	c #7786C2",
"l 	c #7382C1",
"m 	c #6F7FBE",
"n 	c #6A7ABC",
"o 	c #6575B9",
"p 	c #5E70B5",
"q 	c #586AB2",
"r 	c #5D6EB5",
"s 	c #C4C4C4",
"t 	c #000000",
"u 	c #0D0D0D",
"v 	c #323232",
"w 	c #AFAFAF",
"x 	c #B9C0DF",
"y 	c #7F8CC3",
"z 	c #7280BC",
"A 	c #6D7CBB",
"B 	c #7483C0",
"C 	c #8794C9",
"D 	c #96A2D0",
"E 	c #9AA5D2",
"F 	c #8C99CC",
"G 	c #8A97CC",
"H 	c #9BA6D3",
"I 	c #9FAAD5",
"J 	c #9CA7D4",
"K 	c #9AA5D3",
"L 	c #97A2D1",
"M 	c #939FCF",
"N 	c #8F9BCD",
"O 	c #8996CA",
"P 	c #6475B9",
"Q 	c #6A7ABB",
"R 	c #7483BF",
"S 	c #8E9ACC",
"T 	c #363636",
"U 	c #EAEAEA",
"V 	c #C6CCE3",
"W 	c #5D5F64",
"X 	c #56575C",
"Y 	c #ACB0C3",
"Z 	c #7886BE",
"` 	c #8290C7",
" .	c #BAC1DE",
"..	c #6B6C70",
"+.	c #68696D",
"@.	c #BAC0D9",
"#.	c #B1B9DB",
"$.	c #86888D",
"%.	c #5F6064",
"&.	c #989A9F",
"*.	c #727377",
"=.	c #5F6063",
"-.	c #5E5F63",
";.	c #909299",
">.	c #929DC9",
",.	c #B2BBDD",
"'.	c #A6B0DB",
").	c #909CD3",
"!.	c #97A3D5",
"~.	c #BEC5E2",
"{.	c #BEC5E5",
"].	c #929ED5",
"^.	c #D3D7EA",
"/.	c #E8E8E8",
"(.	c #7382BF",
"_.	c #999DAB",
":.	c #707276",
"<.	c #949EC8",
"[.	c #8F9CCE",
"}.	c #C3C9E1",
"|.	c #151515",
"1.	c #0F1010",
"2.	c #CBCFDF",
"3.	c #A2A4AB",
"4.	c #020202",
"5.	c #1D1E1E",
"6.	c #D1D3DB",
"7.	c #2B2B2C",
"8.	c #0C0C0C",
"9.	c #040404",
"0.	c #0A0A0A",
"a.	c #808288",
"b.	c #C6CBE2",
"c.	c #7383C9",
"d.	c #576BBF",
"e.	c #6577C4",
"f.	c #5B6EC0",
"g.	c #ADB6DC",
"h.	c #9CA7D9",
"i.	c #5E71C2",
"j.	c #B0B9DE",
"k.	c #131313",
"l.	c #4D4D4D",
"m.	c #8D8E8E",
"n.	c #818DBD",
"o.	c #8794C7",
"p.	c #535458",
"q.	c #1A1A1B",
"r.	c #252526",
"s.	c #B8BFD8",
"t.	c #CBD0E5",
"u.	c #101010",
"v.	c #CDCFD5",
"w.	c #161617",
"x.	c #090909",
"y.	c #B0B2BA",
"z.	c #B7BDDA",
"A.	c #CDD2E6",
"B.	c #D4D8E9",
"C.	c #525355",
"D.	c #B1B3BC",
"E.	c #C1C7E0",
"F.	c #C7CDE3",
"G.	c #9AA6D7",
"H.	c #919ED3",
"I.	c #B2B9D7",
"J.	c #BBC2DF",
"K.	c #5D71C1",
"L.	c #6174C3",
"M.	c #B0B8D7",
"N.	c #C2C8DF",
"O.	c #6A7CC6",
"P.	c #586CBF",
"Q.	c #A1ABD9",
"R.	c #050505",
"S.	c #161616",
"T.	c #66676D",
"U.	c #7986B8",
"V.	c #AFB6D1",
"W.	c #47474A",
"X.	c #ADAFB9",
"Y.	c #A2ACD3",
"Z.	c #D1D6E8",
"`.	c #0E0E0E",
" +	c #414142",
".+	c #010101",
"++	c #8D8E92",
"@+	c #B9BFDA",
"#+	c #B1BADE",
"$+	c #B1BAE0",
"%+	c #C0C8E6",
"&+	c #535356",
"*+	c #AAADB9",
"=+	c #949FCE",
"-+	c #BCC4E3",
";+	c #7282C9",
">+	c #B6BEDE",
",+	c #7483BC",
"'+	c #7D8CCD",
")+	c #ABB4DA",
"!+	c #707EB7",
"~+	c #9DA9D9",
"{+	c #BBC2E2",
"]+	c #C5CBE5",
"^+	c #CCD1E7",
"/+	c #373737",
"(+	c #EFEFEF",
"_+	c #C2C7DD",
":+	c #9CA6CB",
"<+	c #7683B8",
"[+	c #8A8C95",
"}+	c #888A8F",
"|+	c #A0A2A8",
"1+	c #67686B",
"2+	c #B8BFDA",
"3+	c #D7DBEB",
"4+	c #060606",
"5+	c #0B0B0B",
"6+	c #080808",
"7+	c #C4C6CE",
"8+	c #BCC4E5",
"9+	c #B8C0E4",
"0+	c #C6CDE9",
"a+	c #535456",
"b+	c #ACAEB9",
"c+	c #9AA4D1",
"d+	c #C5CCE8",
"e+	c #6678C5",
"f+	c #7B89C2",
"g+	c #9AA5D4",
"h+	c #8896D1",
"i+	c #A4AFD9",
"j+	c #727FB7",
"k+	c #95A1D5",
"l+	c #B8C0E0",
"m+	c #D5D7DF",
"n+	c #5F70B3",
"o+	c #6575B6",
"p+	c #A0AAD3",
"q+	c #3C3D3F",
"r+	c #272728",
"s+	c #2C2D2D",
"t+	c #191919",
"u+	c #CFD3E3",
"v+	c #DADDEA",
"w+	c #868689",
"x+	c #373738",
"y+	c #D3D6E4",
"z+	c #BFC6E5",
"A+	c #BDC5E6",
"B+	c #CAD0EB",
"C+	c #ADAFBA",
"D+	c #9DA8D3",
"E+	c #6E7FC7",
"F+	c #BAC1DF",
"G+	c #818EC6",
"H+	c #808FCE",
"I+	c #ABB5DB",
"J+	c #95A2D5",
"K+	c #97A0C7",
"L+	c #5E6FB3",
"M+	c #AFB4C8",
"N+	c #19191A",
"O+	c #4C4D4F",
"P+	c #4D4D4F",
"Q+	c #1E1E1F",
"R+	c #AAABB1",
"S+	c #DDE0EA",
"T+	c #E6E7EC",
"U+	c #3E3E3F",
"V+	c #6F7072",
"W+	c #CDD1E6",
"X+	c #BFC7E6",
"Y+	c #CCD2EC",
"Z+	c #545456",
"`+	c #ADB0BA",
" @	c #A0AAD4",
".@	c #B7BFE3",
"+@	c #93A0D5",
"@@	c #A3AEDA",
"#@	c #ABB3D8",
"$@	c #C4CBE6",
"%@	c #6275C3",
"&@	c #C5CBE3",
"*@	c #B0B8D8",
"=@	c #96A2D5",
"-@	c #B9C1E2",
";@	c #ECECEF",
">@	c #39393A",
",@	c #8A94C0",
"'@	c #6676B7",
")@	c #8895C9",
"!@	c #75777D",
"~@	c #828387",
"{@	c #B8BED9",
"]@	c #C0C6DF",
"^@	c #929398",
"/@	c #5B5C5D",
"(@	c #EAEBF0",
"_@	c #DBDCE5",
":@	c #CACCD2",
"<@	c #030303",
"[@	c #A7A9AD",
"}@	c #C2C9E3",
"|@	c #CDD3EC",
"1@	c #AEB0BA",
"2@	c #A1ABD5",
"3@	c #A4AFDD",
"4@	c #C9CFE9",
"5@	c #6678C4",
"6@	c #5B6FC1",
"7@	c #8190CE",
"8@	c #6D7FC7",
"9@	c #C6CBE1",
"0@	c #7686CA",
"a@	c #5C70C1",
"b@	c #6B7DC6",
"c@	c #D8D8D8",
"d@	c #585858",
"e@	c #7B7C81",
"f@	c #8893BF",
"g@	c #6C7BBA",
"h@	c #A7B0D7",
"i@	c #5C5D60",
"j@	c #BFC2D0",
"k@	c #A3ACD3",
"l@	c #B5BDE2",
"m@	c #D0D3E1",
"n@	c #626264",
"o@	c #6F6F71",
"p@	c #F1F1F5",
"q@	c #6E6E70",
"r@	c #6B6B6C",
"s@	c #DCDEE7",
"t@	c #DBDEEE",
"u@	c #9FA0A3",
"v@	c #606062",
"w@	c #77787A",
"x@	c #D5D8E7",
"y@	c #C8CEE7",
"z@	c #919296",
"A@	c #5E5E61",
"B@	c #BEC1CD",
"C@	c #A2ACD5",
"D@	c #A4AFDC",
"E@	c #A8B3DE",
"F@	c #C5CCE7",
"G@	c #929ED4",
"H@	c #7585CA",
"I@	c #7E8DCD",
"J@	c #AAB3DC",
"K@	c #A5AED1",
"L@	c #A1AAD2",
"M@	c #8B98D1",
"N@	c #8A98D0",
"O@	c #8A98D1",
"P@	c #97A3D6",
"Q@	c #8490C1",
"R@	c #6B79B4",
"S@	c #ABB3D7",
"T@	c #B5BCDB",
"U@	c #B2BAD9",
"V@	c #BDC4E3",
"W@	c #CAD0EA",
"X@	c #D6DBEF",
"Y@	c #E0E3F0",
"Z@	c #E5E7F1",
"`@	c #EDEEF5",
" #	c #EEF0F6",
".#	c #E7E9F1",
"+#	c #E7EAF5",
"@#	c #E3E5F1",
"##	c #DFE2EF",
"$#	c #D5D9EA",
"%#	c #D2D7EC",
"&#	c #D6DBED",
"*#	c #D2D7EA",
"=#	c #BAC2E5",
"-#	c #B5BDE3",
";#	c #BEC5E3",
">#	c #C5CBE4",
",#	c #BCC3DF",
"'#	c #9FA9D2",
")#	c #8C99CF",
"!#	c #9AA5D0",
"~#	c #949FCB",
"{#	c #8C98C6",
"]#	c #8490C2",
"^#	c #CBCFE0",
"/#	c #DFE2F1",
"(#	c #95A0CD",
"_#	c #B0B9DC",
":#	c #BCC3E2",
"<#	c #C5CCE6",
"[#	c #CFD4EB",
"}#	c #D8DDEF",
"|#	c #E0E4F3",
"1#	c #E6E9F5",
"2#	c #EBEDF7",
"3#	c #EFF1F9",
"4#	c #F2F3FA",
"5#	c #F7F8FC",
"6#	c #F6F7FC",
"7#	c #F5F6FB",
"8#	c #F4F5FB",
"9#	c #F0F1F9",
"0#	c #EDEFF8",
"a#	c #EAECF7",
"b#	c #E6E9F6",
"c#	c #E3E7F5",
"d#	c #E1E4F3",
"e#	c #DEE2F3",
"f#	c #DADFF1",
"g#	c #D7DCF0",
"h#	c #D4D9EF",
"i#	c #D0D6ED",
"j#	c #C9CFEA",
"k#	c #C5CCE9",
"l#	c #C1C9E7",
"m#	c #BDC5E5",
"n#	c #B8C1E3",
"o#	c #B3BBE0",
"p#	c #A7B0D9",
"q#	c #9FAAD4",
"r#	c #97A2D0",
"s#	c #BFC6E3",
"t#	c #9EA8D3",
"u#	c #717FBD",
"v#	c #818FC6",
"w#	c #919DCE",
"x#	c #A0AAD6",
"y#	c #C4CBE7",
"z#	c #CED4EC",
"A#	c #DEE2F2",
"B#	c #E3E6F4",
"C#	c #E7EAF6",
"D#	c #E9EBF6",
"E#	c #DADEF1",
"F#	c #D6DAF0",
"G#	c #D1D7EE",
"H#	c #C7CEEA",
"I#	c #C2C9E8",
"J#	c #B7C0E4",
"K#	c #B1BBE2",
"L#	c #ACB6DF",
"M#	c #A6B0DD",
"N#	c #A0ACDB",
"O#	c #9CA8D9",
"P#	c #9BA7D8",
"Q#	c #99A5D6",
"R#	c #919ED1",
"S#	c #8592CB",
"T#	c #6F7EBF",
"U#	c #6475B8",
"V#	c #7887C2",
"W#	c #FCFCFC",
"X#	c #D1D5E8",
"Y#	c #BFC5DF",
"Z#	c #C5CAE2",
"`#	c #CACFE5",
" $	c #C2C8E2",
".$	c #939ECB",
"+$	c #9DA8D5",
"@$	c #AAB4DD",
"#$	c #D3D8ED",
"$$	c #E2E5F2",
"%$	c #E5E8F3",
"&$	c #E8EAF4",
"*$	c #EBEDF5",
"=$	c #F1F3F8",
"-$	c #EFF0F7",
";$	c #ECEEF5",
">$	c #ECEDF5",
",$	c #EAECF4",
"'$	c #DEE1EF",
")$	c #D1D6EA",
"!$	c #C0C6E4",
"~$	c #B9C1E3",
"{$	c #B6BFE3",
"]$	c #B1BAE2",
"^$	c #ACB6E0",
"/$	c #A7B2DE",
"($	c #A2ADDC",
"_$	c #9CA8DA",
":$	c #9AA6D9",
"<$	c #B0BAE1",
"[$	c #CBD1EA",
"}$	c #DEE2F1",
"|$	c #DFE2F0",
"1$	c #DEE1F0",
"2$	c #D8DCEC",
"3$	c #A9B2D5",
"4$	c #909CCA",
"5$	c #FDFDFD",
"6$	c #A9B3DE",
"7$	c #8A98D2",
"8$	c #D8DCED",
"9$	c #9EA7CB",
"0$	c #97A2CD",
"a$	c #AEB7DF",
"b$	c #EBEDF6",
"c$	c #909DD4",
"d$	c #8B99D2",
"e$	c #8C9AD3",
"f$	c #8C99D3",
"g$	c #8D9AD3",
"h$	c #96A2D6",
"i$	c #ABB5DE",
"j$	c #CFD5EB",
"k$	c #E9EBF3",
"l$	c #CFD4E7",
"m$	c #B0B8DB",
"n$	c #ADB7DF",
"o$	c #AAB4DF",
"p$	c #A5B0DD",
"q$	c #D8DCEF",
"r$	c #D1D7EC",
"s$	c #9AA6D8",
"t$	c #7384C9",
"u$	c #5D70C1",
"v$	c #6476C4",
"w$	c #7081C8",
"x$	c #8694D0",
"y$	c #9FAAD9",
"z$	c #BAC2E2",
"A$	c #EFF0F6",
"B$	c #8291CF",
"C$	c #D0D5EA",
"D$	c #9FA7CB",
"E$	c #95A0CB",
"F$	c #ADB6DE",
"G$	c #E9EBF5",
"H$	c #7484CA",
"I$	c #CBD1E9",
"J$	c #D9DDEB",
"K$	c #A7AFD5",
"L$	c #A5AFDB",
"M$	c #A3AEDC",
"N$	c #DFE3F2",
"O$	c #5A6EC0",
"P$	c #B7C0E2",
"Q$	c #949ECA",
"R$	c #ABB5DD",
"S$	c #E8EBF5",
"T$	c #5B6FC0",
"U$	c #C2C9E6",
"V$	c #CBD0E4",
"W$	c #9BA6D0",
"X$	c #D0D5ED",
"Y$	c #AFB8E0",
"Z$	c #B7BFE2",
"`$	c #9DA6CB",
" %	c #929CC9",
".%	c #A8B2DD",
"+%	c #E8EAF5",
"@%	c #596CC0",
"#%	c #697BC6",
"$%	c #5F72C2",
"%%	c #A3ACD0",
"&%	c #A0AAD5",
"*%	c #E4E7F4",
"=%	c #6376C4",
"-%	c #7787CB",
";%	c #95A1D6",
">%	c #95A2D6",
",%	c #6375C3",
"'%	c #9BA4CA",
")%	c #8F9AC8",
"!%	c #A5B0DB",
"~%	c #F0F1F6",
"{%	c #E7E9F3",
"]%	c #B8C0E2",
"^%	c #B3BCE0",
"/%	c #BAC0DB",
"(%	c #ADB5D7",
"_%	c #C8CEE9",
":%	c #D6DAEA",
"<%	c #B8BFDB",
"[%	c #AFB7D7",
"}%	c #B3BAD8",
"|%	c #C4CAE1",
"1%	c #D7DBEA",
"2%	c #C2C8E4",
"3%	c #94A1D5",
"4%	c #C0C7E5",
"5%	c #CFD4EA",
"6%	c #99A2C9",
"7%	c #8C97C7",
"8%	c #A2ADDA",
"9%	c #E6E9F4",
"0%	c #A5ADCE",
"a%	c #A5ADD1",
"b%	c #ABB3D4",
"c%	c #D9DCEB",
"d%	c #C7CCE2",
"e%	c #B1B9D8",
"f%	c #B6BFE2",
"g%	c #D7DCED",
"h%	c #8F9AC7",
"i%	c #6F7EBA",
"j%	c #6F7FBC",
"k%	c #6D7CBA",
"l%	c #6777B6",
"m%	c #6877B4",
"n%	c #828EBF",
"o%	c #AFB6D5",
"p%	c #EFF0F3",
"q%	c #CFD4E9",
"r%	c #96A0C8",
"s%	c #8894C5",
"t%	c #9EAAD8",
"u%	c #E6E8F4",
"v%	c #E8EAF3",
"w%	c #9FA8CC",
"x%	c #A5AED6",
"y%	c #A9B3DC",
"z%	c #B3BCE1",
"A%	c #CCD1E5",
"B%	c #ADB5D6",
"C%	c #A6B1DC",
"D%	c #C3C9E3",
"E%	c #A9B3D8",
"F%	c #6374B8",
"G%	c #5A6BB1",
"H%	c #5264AC",
"I%	c #CED4E9",
"J%	c #939DC7",
"K%	c #8491C4",
"L%	c #E7E9F2",
"M%	c #A0ABD5",
"N%	c #DADEF0",
"O%	c #9EA9D9",
"P%	c #C4C9E1",
"Q%	c #9CA6CE",
"R%	c #6D7EC7",
"S%	c #CDD2E9",
"T%	c #DEE1EE",
"U%	c #C7CCE3",
"V%	c #96A1CB",
"W%	c #7280BB",
"X%	c #CED3E9",
"Y%	c #909AC5",
"Z%	c #808DC1",
"`%	c #E4E7F3",
" &	c #E1E4EF",
".&	c #E4E6F2",
"+&	c #C4CBE8",
"@&	c #8490C3",
"#&	c #DADEEE",
"$&	c #7B8BCC",
"%&	c #6073C2",
"&&	c #E5E7F0",
"*&	c #CDD2E8",
"=&	c #8C97C3",
"-&	c #7C89BF",
";&	c #919ED2",
">&	c #E3E6F3",
",&	c #5E71C1",
"'&	c #5A6DC0",
")&	c #7788CB",
"!&	c #6A7BC6",
"~&	c #D9DDED",
"{&	c #919CC8",
"]&	c #7E8CC3",
"^&	c #A7B1DA",
"/&	c #D1D6EB",
"(&	c #CCD2E8",
"_&	c #8893C1",
":&	c #7684BC",
"<&	c #8C99D0",
"[&	c #596DC0",
"}&	c #B5BDE1",
"|&	c #BEC4DE",
"1&	c #7B87BD",
"2&	c #7E8CC6",
"3&	c #ABB4DB",
"4&	c #D5DAEC",
"5&	c #98A4D7",
"6&	c #6173C3",
"7&	c #7586CA",
"8&	c #F2F3F5",
"9&	c #CCD1E8",
"0&	c #848FBE",
"a&	c #717FBA",
"b&	c #8795CD",
"c&	c #E1E4F2",
"d&	c #697AC5",
"e&	c #BBC3E3",
"f&	c #7F8CC0",
"g&	c #7987C1",
"h&	c #7D8DCB",
"i&	c #7C8CCE",
"j&	c #7989CA",
"k&	c #8C99CD",
"l&	c #BEC5E1",
"m&	c #9DA8D8",
"n&	c #C1C8E5",
"o&	c #CBD0E7",
"p&	c #7F8BBC",
"q&	c #6B7AB6",
"r&	c #818FCA",
"s&	c #E0E4F1",
"t&	c #8795D1",
"u&	c #BCC3E3",
"v&	c #DBDFEE",
"w&	c #7B88BE",
"x&	c #7785C0",
"y&	c #7B8AC8",
"z&	c #7B8BCD",
"A&	c #798ACC",
"B&	c #7989CC",
"C&	c #7889CB",
"D&	c #7686C5",
"E&	c #7D8BC3",
"F&	c #95A0CC",
"G&	c #ADB5D5",
"H&	c #C7CDE2",
"I&	c #DADEEC",
"J&	c #6F80C8",
"K&	c #9DA8D9",
"L&	c #E7E7E7",
"M&	c #CACFE7",
"N&	c #7A87B9",
"O&	c #6574B3",
"P&	c #7B8AC7",
"Q&	c #DFE3F1",
"R&	c #E5E8F2",
"S&	c #CED2E6",
"T&	c #C3C8E1",
"U&	c #B5BCDA",
"V&	c #9EA8D0",
"W&	c #7D8BC0",
"X&	c #7584BE",
"Y&	c #7989C9",
"Z&	c #7A8ACC",
"`&	c #8190CF",
" *	c #C7CDE9",
".*	c #B9C1E1",
"+*	c #8A98CC",
"@*	c #7787C7",
"#*	c #7686C7",
"$*	c #7282C2",
"%*	c #6676B5",
"&*	c #6C7AB6",
"**	c #9EA7CD",
"=*	c #C5CCE5",
"-*	c #929FD5",
";*	c #EBEBEB",
">*	c #C9CFE6",
",*	c #7582B6",
"'*	c #5E6EAF",
")*	c #7484C3",
"!*	c #7C89BE",
"~*	c #7A88C1",
"{*	c #7886C1",
"]*	c #7886C2",
"^*	c #7988C5",
"/*	c #7A89C8",
"(*	c #7A8ACB",
"_*	c #97A4D7",
":*	c #AFB9DF",
"<*	c #DCE0EE",
"[*	c #8492C9",
"}*	c #7382C2",
"|*	c #6A7BBE",
"1*	c #6778BA",
"2*	c #929DCB",
"3*	c #CBD1E8",
"4*	c #E6E6E6",
"5*	c #CACFE6",
"6*	c #707DB3",
"7*	c #5868AB",
"8*	c #6E7EBF",
"9*	c #DDE0EF",
"0*	c #7885BC",
"a*	c #7A89C4",
"b*	c #7E8ECC",
"c*	c #7D8DCC",
"d*	c #7C8CCD",
"e*	c #98A5D7",
"f*	c #C7CEE8",
"g*	c #C2C9E5",
"h*	c #6F7CB2",
"i*	c #5162A7",
"j*	c #6878BB",
"k*	c #DBDFEF",
"l*	c #DDE0ED",
"m*	c #7481B9",
"n*	c #7685C2",
"o*	c #7B8BCB",
"p*	c #7A8BCB",
"q*	c #798ACB",
"r*	c #7989CB",
"s*	c #97A4D6",
"t*	c #5C6FC1",
"u*	c #687AC5",
"v*	c #AFB4CA",
"w*	c #6071B6",
"x*	c #DCDFED",
"y*	c #7282C0",
"z*	c #7888C9",
"A*	c #7888CA",
"B*	c #7988CA",
"C*	c #7787C8",
"D*	c #95A2D4",
"E*	c #C7CDE8",
"F*	c #B0B9E0",
"G*	c #6676B9",
"H*	c #DBDEEC",
"I*	c #6D7BB5",
"J*	c #7585C7",
"K*	c #7586C7",
"L*	c #7686C8",
"M*	c #7484C6",
"N*	c #7383C5",
"O*	c #8B99CF",
"P*	c #6578C4",
"Q*	c #F2F2F2",
"R*	c #ECEEF4",
"S*	c #DFE3F0",
"T*	c #AFB8DE",
"U*	c #B7BFE1",
"V*	c #D0D5E6",
"W*	c #6574AF",
"X*	c #6A79BA",
"Y*	c #7080C3",
"Z*	c #7181C4",
"`*	c #7182C4",
" =	c #7282C4",
".=	c #7081C3",
"+=	c #6F80C3",
"@=	c #6D7EC1",
"#=	c #6C7CC0",
"$=	c #8E9ACA",
"%=	c #B3BBD8",
"&=	c #D4D8E8",
"*=	c #ABB5DC",
"==	c #99A5D7",
"-=	c #8C99D2",
";=	c #EEEFF4",
">=	c #E5E5E5",
",=	c #BFC4D8",
"'=	c #8792BE",
")=	c #848FBD",
"!=	c #8792BF",
"~=	c #919BC4",
"{=	c #717EB4",
"]=	c #5C6BAB",
"^=	c #6474B7",
"/=	c #697ABE",
"(=	c #6A7BBF",
"_=	c #6B7CBF",
":=	c #6B7CC0",
"<=	c #6B7BBF",
"[=	c #6A7ABF",
"}=	c #6879BE",
"|=	c #6677BC",
"1=	c #6475BB",
"2=	c #5F71B7",
"3=	c #596AAF",
"4=	c #5A6AAC",
"5=	c #6F7CB5",
"6=	c #B0B6D2",
"7=	c #E1E2E5",
"8=	c #EEEEEE",
"9=	c #E2E2E2",
"0=	c #7482B9",
"a=	c #5062AA",
"b=	c #5B6CAF",
"c=	c #5667AC",
"d=	c #5E6FB6",
"e=	c #6072B8",
"f=	c #6273B9",
"g=	c #6374BA",
"h=	c #6274BA",
"i=	c #6173B9",
"j=	c #5F71B8",
"k=	c #5D6FB6",
"l=	c #5A6CB4",
"m=	c #5769B2",
"n=	c #5365B0",
"o=	c #6B7ABC",
"p=	c #909CCD",
"q=	c #6374B9",
"r=	c #5466B0",
"s=	c #5668B2",
"t=	c #5869B3",
"u=	c #596AB3",
"v=	c #596BB4",
"w=	c #596BB3",
"x=	c #586AB3",
"y=	c #5567B1",
"z=	c #5B6DB5",
"A=	c #7C8AC4",
"B=	c #939FD0",
"C=	c #8390C7",
"D=	c #6F7EBE",
"E=	c #6C7CBD",
"F=	c #6E7EBE",
"G=	c #7181BF",
"H=	c #7F8DC6",
"I=	c #8D99CD",
"                                                                                                ",
"                                                                                                ",
"                                                                                                ",
"                                        . + @ # $                                               ",
"                                % & * = - ; > , * ' ) ! ~ {                                     ",
"                          ] ^ / ( _ : & < [ [ < } | 1 2 3 4 5 6                                 ",
"  7 8 8 8 8 8 9         0 a b c c d e f g h h i j k l m n o p q r .                             ",
"  s t u v v v w     x y z A B C D E F G H I { ] J K L M N O & P Q R S                           ",
"  s t T U         V W X Y Z `  ...+.@.#.$.%.&.*.%.%.=.-.-.;.>.,.'.).!.~.      {.].^.            ",
"  s t T /.      (._.t t :.<.[.}.|.1.2.3.4.5.6.7.8.9.t 0.8.a.b.c.d.e.f.f.g.    h.d.i.j.          ",
"  s t k.l.l.m.n.o.p.8.q.r.s.E t.|.u.v.w.x.y.z.A.B.C.t D.E.F.G.d.H.I.J.K.L.M.N.h.d.O.P.Q.        ",
"  s t R.S.S.T.U.V.u W.=.t X.Y.Z.|.`. +.+++@+#+$+%+&+t *+=+-+;+d.>+,+I '+d.)+!+~+d.{+]+^+        ",
"  s t /+(+_+:+<+[+t }+|+t 1+2+3+|.4+5+6+7+ .8+9+0+a+t b+c+d+e+d. .f+g+h+d.i+j+k+d.l+            ",
"  s t T m+n+o+p+q+t r+s+t t+u+v+|.u.w+t x+y+z+A+B+a+t C+D+d+E+d.F+G+i+H+d.I+j+J+d.l+            ",
"  s t /+K+L+[ M+R.N+O+P+Q+t R+S+|.u.T+U+t V+W+X+Y+Z+t `+ @.@+@d.@@#@$@%@f.&@*@=@d.-@;@          ",
"  s t >@,@'@)@!@t ~@{@]@^@t /@(@|.u._@:@8.<@[@}@|@Z+t 1@2@3@4@5@6@7@8@d.=@9@0@f.d.a@b@          ",
"  c@d@e@f@g@h@e@i@j@k@l@m@n@o@p@q@r@s@t@u@v@w@x@y@z@A@B@C@D@E@F@G@H@I@J@K@L@G.M@N@O@P@          ",
"      Q@R@~ N S@T@U@V@W@X@Y@Z@`@ #`@.#+#+#@###$#%#&#*#&@-+=#-#$+;#>#,#'#F )#!#~#{#]#^#          ",
"    /#(#C@_#:#<#[#}#|#1#2#3#4#5#6#7#8#4#9#0#a#b#c#d#e#f#g#h#i#|@j#k#l#m#n#o#g.p#q#r#s#          ",
"    t#u#v#w#x#g.-@y#z#g#A#B#C#9#0#a#D#b#B#e#E#F#G#Y+H#I#A+J#K#L#M#N#O#P#Q#R#S#j T#U#V#          ",
"  W#X#Y#Z#`# $.$+$@$#$$$%$&$*$=$-$;$>$,$%$'$)$!$~${$]$^$/$($_$:$<$[$}$$$|$1$##2$Z#3$4$          ",
"5$6$7$7$7$7$8$9$0$a$b$c$d$d$d$e$f$f$f$g$h$i$j$k$l$m$n$o$p$N#6$q$r$s$t$%@u$i.v$w$x$y$z$A$        ",
"5$B$d.d.d.d.C$D$E$F$G$i.d.d.d.d.d.d.d.d.d.d.d.H$I$J$K$L$M$E@N$D@O$d.d.d.d.d.d.d.d.d.d.P$        ",
"5$B$d.d.d.d.C$9$Q$R$S$i.d.d.d.d.d.d.d.d.d.d.d.d.T$U$V$W$y$X$Y$d.d.d.d.d.d.d.d.d.d.d.d.Z$        ",
"5$B$d.d.d.d.C$`$ %.%+%i.d.d.d.@%O.O.#%$%d.d.d.d.d.v$Y@%%&%*%=%d.d.d.P.-%;%P#>%7@,%d.d.Z$        ",
"5$B$d.d.d.d.C$'%)%!%+#i.d.d.d.e.~%.#.#{%]%a@d.d.d.d.^%/%(%_%d.d.d.d.@$:%<%[%}%|%1%2%3%4%        ",
"5$B$d.d.d.d.5%6%7%8%9%i.d.d.d.e.k$0%a%b%c%s$d.d.d.d.;%d%e%f%d.d.d.P.g%h%i%j%k%l%m%n%o%p%        ",
"5$B$d.d.d.d.q%r%s%t%u%i.d.d.d.e.v%w%x%y%4@z%d.d.d.d.d$A%B%n#d.d.d.d.C%'$D%E%M k F%G%H%          ",
"5$B$d.d.d.d.I%J%K%G.%$i.d.d.d.e.L%'%M%L#N%O%d.d.d.d.+@P%Q%j$d.d.d.d.d.R%h$o#S%T%U%V%W%          ",
"5$B$d.d.d.d.X%Y%Z%=@`%i.d.d.d.e.;$ &.&G$+&$%d.d.d.d.a$e%@&#&$&d.d.d.d.d.d.d.d.%&h+-@&&          ",
"5$B$d.d.d.d.*&=&-&;&>&,&d.d.d.'&)&)&-%!&d.d.d.d.d.%&~&{&]&^&/&O.d.d.d.d.d.d.d.d.d.d.$&.&        ",
"5$B$d.d.d.d.(&_&:&<&$$,&d.d.d.d.d.d.d.d.d.d.d.d.[&}&|&1&2&7@3&4&5&6&d.d.d.d.d.d.d.d.d.7&8&      ",
"5$B$d.d.d.d.9&0&a&b&c&,&d.d.d.d.d.d.d.d.d.d.d.d&e&`#f&g&h&i&j&k&l&~&-+m&I@i.d.d.d.d.d.d.n&      ",
"5$B$d.d.d.d.o&p&q&r&s&,&d.d.d.O$'+'+'+I@t&P#u&v&*@w&x&y&z&A&B&C&D&E&F&G&H&I&z$J&d.d.d.d.K&L&    ",
"5$B$d.d.d.d.M&N&O&P&Q&,&d.d.d.e.R&S&W+`#T&U&V&W&X&k Y&Z&`& *.*+*@*#*$*< %*&***=*d.d.d.d.-*;*    ",
"5$B$d.d.d.d.>*,*'*)*1$,&d.d.d.e.##!*~*~*g&{*]*^*/*(*Z&B&_*r$:*<*>#q#[*}*|*1*2*3*d.d.d.d.s$4*    ",
"5$B$d.d.d.d.5*6*7*8*9*,&d.d.d.e.T%0*a*b*c*c*d*z&Z&A&A&A&e*f*d.e.5&g*#&<*$#I&C$`&d.d.d.d.}&      ",
"5$B$d.d.d.d.g%h*i*j*k*,&d.d.d.e.l*m*n*o*p*(*(*q*q*q*r*r*s*f*d.d.d.d.t*u*;+#%'&d.d.d.d.,&L%      ",
"5$B$d.d.d.d.k*v*i*w*#&,&d.d.d.e.x*!+y*z*A*j&j&j&B*A*z*C*D*E*d.d.d.d.d.d.d.d.d.d.d.d.d.F*U       ",
"5$B$d.d.d.d.k*    G*~&,&d.d.d.e.H*I*0 J*K*L*L*L*#*J*M*N*O*4&c$P*d.d.d.d.d.d.d.d.d.P*P$Q*        ",
"5$I$~$~$~$~$R*      S*#+T*j.j.U*V*W*X*Y*Z*`* = =`*.=+=@=#=$=%=&=]+*===g$t&t&-=y$n&;=>=          ",
"                      ,='=)=!=~={=]=^=/=(=_=:=:=<=[=}=|=1=2=3=4=5=6=7=;*8=8=;*9=                ",
"                          0=a=b=c=3=d=e=f=g=g=g=h=i=j=k=l=m=n=o=                                ",
"                              p=q=n=r=s=t=u=v=w=x=m=y=n=z=A=                                    ",
"                                    B=C=d D=E=F=G=H=I=                                          ",
"                                                                                                ",
"                                                                                                ",
"                                                                                                "};
