<?xml version="1.0" encoding="UTF-8"?>
<svg id="Ebene_1" data-name="Ebene 1" xmlns="http://www.w3.org/2000/svg" xmlns:xlink="http://www.w3.org/1999/xlink" viewBox="0 0 16 16">
  <defs>
    <style>
      .cls-1 {
        fill: #cacaca;
      }

      .cls-2 {
        fill: #b1b1b1;
      }

      .cls-3 {
        fill: #fff;
      }

      .cls-4 {
        fill: #a17d18;
      }

      .cls-5 {
        fill: url(#Unbenannter_Verlauf_10);
      }

      .cls-6 {
        fill: #9cb108;
      }

      .cls-7 {
        fill: url(#Unbenannter_Verlauf_14);
      }

      .cls-8 {
        fill: #e4e4e4;
      }

      .cls-9 {
        fill: #b8c445;
      }

      .cls-10 {
        fill: url(#Unbenannter_Verlauf_13);
      }
    </style>
    <linearGradient id="Unbenannter_Verlauf_10" data-name="Unbenannter Verlauf 10" x1="13.61" y1="-936.02" x2="13.61" y2="-937.79" gradientTransform="translate(0 -932.22) scale(1 -1)" gradientUnits="userSpaceOnUse">
      <stop offset="0" stop-color="#fff"/>
      <stop offset="1" stop-color="#fff" stop-opacity="0"/>
    </linearGradient>
    <radialGradient id="Unbenannter_Verlauf_13" data-name="Unbenannter Verlauf 13" cx="-1649.47" cy="1141.58" fx="-1649.47" fy="1141.58" r="3.1" gradientTransform="translate(2038.2669 -3048.778) rotate(-90.0003) scale(1.8508 -1.7751)" gradientUnits="userSpaceOnUse">
      <stop offset="0" stop-color="#dfc476"/>
      <stop offset="1" stop-color="#9d7916"/>
    </radialGradient>
    <linearGradient id="Unbenannter_Verlauf_14" data-name="Unbenannter Verlauf 14" x1="-308.33" y1="309.55" x2="-308.33" y2="307.14" gradientTransform="translate(727.8228 719.4219) scale(2.32 -2.32)" gradientUnits="userSpaceOnUse">
      <stop offset="0" stop-color="#f6f8fa"/>
      <stop offset="1" stop-color="#ffd580"/>
    </linearGradient>
  </defs>
  <g>
    <rect class="cls-3" x="7.5" y="5.45" width="7.5" height="9"/>
    <rect class="cls-8" y="5.44" width="7.5" height="9"/>
    <rect class="cls-9" y="1.54" width="15" height="4.05"/>
    <rect class="cls-6" y="1.54" width="7.5" height="4.05"/>
    <path class="cls-1" d="M.02,5.57v8.89h14.95V5.57H.02ZM.59,6.13h13.83v2.22H.59v-2.22ZM14.41,13.9H.59v-2.21h13.83v2.21ZM14.41,11.12H.59v-2.22h13.83v2.22Z"/>
    <rect class="cls-1" x="9.62" y="5.85" width=".75" height="8.3"/>
    <rect class="cls-2" x="4.8" y="5.85" width=".75" height="8.3"/>
    <polygon class="cls-2" points="7.5 14.44 7.5 13.9 .59 13.9 .59 11.69 7.5 11.69 7.5 11.12 .59 11.12 .59 8.9 7.5 8.9 7.5 8.35 .59 8.35 .59 6.13 7.5 6.13 7.5 5.57 .02 5.57 .02 14.46 14.98 14.46 14.98 14.44 7.5 14.44"/>
  </g>
  <g id="g6432">
    <path id="path5581-1-1-79" class="cls-5" d="M13.82,4.25h-.42l.42.43h0v-.43Z"/>
    <g id="g4514">
      <g id="g4522">
        <g>
          <rect id="rect3910" class="cls-10" x="10.51" y="1.46" width="3.97" height="4.09" transform="translate(1.19 9.86) rotate(-45)"/>
          <path class="cls-4" d="M12.54,7l-3.54-3.54,3.46-3.46,3.54,3.54-3.46,3.46ZM10.3,3.46l2.24,2.24,2.16-2.16-2.24-2.24-2.16,2.16Z"/>
        </g>
        <path id="path5581-5-5" class="cls-7" d="M12.05,1.17h.89v1.74h1.77v.91h-1.77v1.82h-.89v-1.82h-1.77v-.91h1.77v-1.74Z"/>
      </g>
    </g>
  </g>
</svg>