<?xml version="1.0" encoding="UTF-8" standalone="no"?>
<!-- Created with Inkscape (http://www.inkscape.org/) -->

<svg
   xmlns:dc="http://purl.org/dc/elements/1.1/"
   xmlns:cc="http://creativecommons.org/ns#"
   xmlns:rdf="http://www.w3.org/1999/02/22-rdf-syntax-ns#"
   xmlns:svg="http://www.w3.org/2000/svg"
   xmlns="http://www.w3.org/2000/svg"
   xmlns:xlink="http://www.w3.org/1999/xlink"
   xmlns:sodipodi="http://sodipodi.sourceforge.net/DTD/sodipodi-0.dtd"
   xmlns:inkscape="http://www.inkscape.org/namespaces/inkscape"
   width="132"
   height="250"
   viewBox="0 0 34.924999 66.145835"
   version="1.1"
   id="svg8507"
   inkscape:version="0.92.4 (5da689c313, 2019-01-14)"
   sodipodi:docname="about.svg">
  <defs
     id="defs8501">
    <linearGradient
       inkscape:collect="always"
       xlink:href="#linearGradient3283"
       id="linearGradient4300"
       x1="72.375"
       y1="185.34039"
       x2="476.65625"
       y2="185.34039"
       gradientUnits="userSpaceOnUse"
       gradientTransform="matrix(1.1629034,0,0,1.1222193,-84.165139,-53.935635)" />
    <linearGradient
       id="linearGradient3283">
      <stop
         style="stop-color:#ffffff;stop-opacity:0.24267782;"
         offset="0"
         id="stop3285" />
      <stop
         style="stop-color:#f0f0f0;stop-opacity:1;"
         offset="1"
         id="stop3287" />
    </linearGradient>
    <clipPath
       clipPathUnits="userSpaceOnUse"
       id="clipPath20">
      <path
         d="M 149,555 V 993 H 2247 V 555 Z"
         id="path18"
         inkscape:connector-curvature="0" />
    </clipPath>
    <linearGradient
       gradientTransform="matrix(0.3088132,0,0,0.3088132,-22.758448,29.063713)"
       inkscape:collect="always"
       xlink:href="#linearGradient6701"
       id="linearGradient6707"
       x1="73.696487"
       y1="760.53534"
       x2="186.45062"
       y2="760.53534"
       gradientUnits="userSpaceOnUse" />
    <linearGradient
       id="linearGradient6701">
      <stop
         style="stop-color:#e6e8ed;stop-opacity:1;"
         offset="0"
         id="stop6703" />
      <stop
         id="stop6709"
         offset="0.73563218"
         style="stop-color:#e6e8ed;stop-opacity:0.49803922;" />
      <stop
         style="stop-color:#e6e8ed;stop-opacity:0;"
         offset="1"
         id="stop6705" />
    </linearGradient>
  </defs>
  <sodipodi:namedview
     id="base"
     pagecolor="#ffffff"
     bordercolor="#666666"
     borderopacity="1.0"
     inkscape:pageopacity="0.0"
     inkscape:pageshadow="2"
     inkscape:zoom="2.8"
     inkscape:cx="133.67589"
     inkscape:cy="152.42495"
     inkscape:document-units="mm"
     inkscape:current-layer="layer1"
     showgrid="false"
     units="px"
     inkscape:window-width="1866"
     inkscape:window-height="1016"
     inkscape:window-x="3638"
     inkscape:window-y="27"
     inkscape:window-maximized="1" />
  <metadata
     id="metadata8504">
    <rdf:RDF>
      <cc:Work
         rdf:about="">
        <dc:format>image/svg+xml</dc:format>
        <dc:type
           rdf:resource="http://purl.org/dc/dcmitype/StillImage" />
        <dc:title></dc:title>
      </cc:Work>
    </rdf:RDF>
  </metadata>
  <g
     inkscape:label="Layer 1"
     inkscape:groupmode="layer"
     id="layer1"
     transform="translate(0,-230.85415)">
    <rect
       inkscape:export-ydpi="105.04512"
       inkscape:export-xdpi="105.04512"
       inkscape:export-filename="/home/dirmeier/Bilder/fips/fips_about.png"
       y="230.85416"
       x="0"
       height="66.145836"
       width="34.819969"
       id="rect6639"
       style="color:#000000;display:inline;overflow:visible;visibility:visible;fill:url(#linearGradient6707);fill-opacity:1;stroke:none;stroke-width:0.30881318;marker:none;enable-background:accumulate" />
    <path
       style="fill:url(#linearGradient4300);fill-opacity:1;fill-rule:evenodd;stroke:none;stroke-width:1.16726565"
       d="M 131.60352 82.701172 C 126.16954 85.286028 121.01673 88.464428 116.29102 92.199219 C 106.20964 100.17402 98.164188 110.5826 93.033203 122.32227 C 63.49818 112.08216 30.993352 109.62123 0 115.66016 L 0 127.05664 C 14.265928 123.69747 29.065259 122.29503 43.826172 122.81445 C 41.025081 134.68145 39.673628 146.81845 39.830078 158.90039 C 39.897996 169.96103 41.549779 181.56079 46.988281 191.79492 C 49.734357 196.90488 53.472369 201.53393 58.072266 205.22656 C 62.679578 208.91905 68.124293 211.59024 73.917969 212.87305 C 79.715443 214.1497 85.784455 213.99951 91.433594 212.52148 C 97.079906 211.0381 102.22382 208.26038 106.55078 204.63086 C 110.87418 201.00059 114.33994 196.57366 117.12695 191.86523 C 119.91403 187.15764 122.05248 182.17454 124.14062 177.20703 L 126.53906 171.52539 L 123.77734 177.06641 C 121.36231 181.89267 118.9193 186.70939 115.89062 191.12891 C 112.86213 195.54729 109.23385 199.56231 104.95117 202.70117 C 100.67247 205.84045 95.712976 208.11511 90.560547 209.11914 C 85.411077 210.12843 80.063523 209.91082 75.117188 208.48828 C 70.166838 207.07171 65.611896 204.44248 61.888672 201.05273 C 58.157647 197.66288 55.213757 193.45766 53.130859 188.91992 C 48.912249 179.86036 48.32059 169.43824 48.804688 159.07617 C 49.454759 146.99094 51.708214 135.0401 55.419922 123.58594 C 76.556155 125.76544 97.299801 131.89736 116 141.75195 C 121.26043 144.51727 126.41313 147.60453 131.60352 150.75586 L 131.60352 141.20703 C 127.90108 138.88067 124.13826 136.58862 120.25195 134.42188 C 114.87517 131.43106 109.33255 128.75139 103.64453 126.35547 C 107.41973 116.0239 113.85637 106.47486 122.32227 98.931641 C 125.19318 96.371037 128.30601 94.037543 131.60352 91.955078 L 131.60352 82.701172 z "
       transform="matrix(0.26458333,0,0,0.26458333,0,230.85415)"
       id="path4183" />
    <text
       xml:space="preserve"
       style="font-style:normal;font-variant:normal;font-weight:normal;font-stretch:normal;font-size:3.70606899px;line-height:0%;font-family:MetaMedium-Caps;-inkscape-font-specification:MetaMedium-Caps;text-align:start;letter-spacing:0px;word-spacing:0px;writing-mode:lr-tb;text-anchor:start;fill:#009fe3;fill-opacity:1;stroke:none;stroke-width:0.30883902"
       x="0.8693558"
       y="295.04129"
       id="text4452"
       inkscape:export-filename="/home/dirmeier/Bilder/fips/splash.png"
       inkscape:export-xdpi="121.85231"
       inkscape:export-ydpi="121.85231"
       transform="scale(1.0000832,0.99991681)"><tspan
         sodipodi:role="line"
         id="tspan4456"
         x="0.8693558"
         y="295.04129"
         style="font-style:normal;font-variant:normal;font-weight:normal;font-stretch:normal;font-size:3.08839059px;line-height:1.25;font-family:Montserrat;-inkscape-font-specification:Montserrat;stroke-width:0.30883902">© Faktor Zehn GmbH</tspan></text>
    <rect
       style="opacity:1;fill:#009fe3;fill-opacity:1;stroke-width:0.01948304"
       id="rect4155"
       width="18.254021"
       height="18.205343"
       x="6.8191123"
       y="239.58629"
       ry="4.6243515" />
    <path
       style="opacity:1;fill:#ffffff;fill-opacity:1;fill-rule:evenodd;stroke:#009fe3;stroke-width:1.02221692;stroke-linecap:butt;stroke-linejoin:round;stroke-miterlimit:4;stroke-dasharray:none;stroke-opacity:1"
       d="m 2.8275665,250.84293 c 0.7078828,-0.88368 4.3648708,-1.63056 5.9143019,-1.91058 3.4492826,-0.45992 6.3477556,-0.9858 9.6137836,-0.21904 1.670949,0.31913 3.416335,0.64954 3.492603,2.32434 -0.494478,3.5846 -4.237629,4.68827 -7.033882,4.49049 -3.924221,-0.4295 -9.8429047,-1.93868 -11.9868065,-4.68521 z"
       id="path4175"
       inkscape:connector-curvature="0"
       sodipodi:nodetypes="cccccc" />
    <path
       style="opacity:1;fill:none;fill-rule:evenodd;stroke:#009fe3;stroke-width:1.36296678;stroke-linecap:round;stroke-linejoin:miter;stroke-miterlimit:4;stroke-dasharray:none;stroke-opacity:1"
       d="m 13.828656,258.78952 4.040221,2.43387"
       id="path4177"
       inkscape:connector-curvature="0"
       sodipodi:nodetypes="cc" />
    <path
       sodipodi:nodetypes="cc"
       inkscape:connector-curvature="0"
       id="path4179"
       d="m 17.45512,258.78952 4.040224,2.43387"
       style="opacity:1;fill:none;fill-rule:evenodd;stroke:#009fe3;stroke-width:1.36296678;stroke-linecap:round;stroke-linejoin:miter;stroke-miterlimit:4;stroke-dasharray:none;stroke-opacity:1" />
    <path
       style="opacity:1;fill:#009fe3;fill-opacity:1;fill-rule:evenodd;stroke:none;stroke-width:0.01948304px;stroke-linecap:butt;stroke-linejoin:miter;stroke-opacity:1"
       d="m 25.705937,244.01593 c 0,1.90612 0.0044,1.89687 0.0078,4.71129 4.56e-4,0.43675 0.298749,0.61368 0.554749,0.59684 0.804316,-0.0529 0.994852,-0.33737 1.541689,-0.86704 0.565754,-0.548 0.05797,-0.0859 0.938896,-0.98399 0.259557,-0.26462 0.668301,-0.52716 0.992412,-0.53291 0.258849,-0.004 0.316564,7e-4 0.522109,0.0329 -0.0679,-0.57343 -0.322048,-1.04214 -0.696547,-1.48925 -0.225898,-0.2697 -0.464417,-0.51021 -0.71454,-0.75555 -0.852941,-0.71079 -1.801144,-1.13769 -2.620584,-1.19914 -0.2581,0.0215 -0.495838,0.1194 -0.52603,0.48679 z"
       id="path4171"
       inkscape:connector-curvature="0"
       sodipodi:nodetypes="cssssscsccc" />
    <circle
       r="3.6508036"
       cy="244.25932"
       cx="20.351433"
       id="circle4163"
       style="opacity:1;fill:#ffffff;fill-opacity:1;stroke-width:0.01948304" />
    <circle
       r="2.1418052"
       cy="244.25932"
       cx="20.351433"
       id="circle4165"
       style="opacity:1;fill:#009fe3;fill-opacity:1;stroke-width:0.01948304" />
    <circle
       style="opacity:1;fill:#ffffff;fill-opacity:1;stroke-width:0.01948304"
       id="path4161"
       cx="21.081589"
       cy="243.62651"
       r="0.68148327" />
  </g>
</svg>
