<?xml version="1.0" encoding="UTF-8" standalone="no"?>
<svg
   width="16"
   height="16"
   viewBox="0 0 15 14.999998"
   id="svg2"
   version="1.1"
   inkscape:version="1.4.3 (0d15f75, 2025-12-25)"
   sodipodi:docname="fipsModelerIcon.svg"
   inkscape:export-filename="fips_512.png"
   inkscape:export-xdpi="3072"
   inkscape:export-ydpi="3072"
   xmlns:inkscape="http://www.inkscape.org/namespaces/inkscape"
   xmlns:sodipodi="http://sodipodi.sourceforge.net/DTD/sodipodi-0.dtd"
   xmlns="http://www.w3.org/2000/svg"
   xmlns:svg="http://www.w3.org/2000/svg"
   xmlns:rdf="http://www.w3.org/1999/02/22-rdf-syntax-ns#"
   xmlns:cc="http://creativecommons.org/ns#"
   xmlns:dc="http://purl.org/dc/elements/1.1/">
  <title
     id="title868">Fipsi</title>
  <defs
     id="defs4" />
  <sodipodi:namedview
     id="base"
     pagecolor="#ffffff"
     bordercolor="#666666"
     borderopacity="1.0"
     inkscape:pageopacity="0.0"
     inkscape:pageshadow="2"
     inkscape:zoom="59.882426"
     inkscape:cx="4.8177741"
     inkscape:cy="9.5604009"
     inkscape:document-units="px"
     inkscape:current-layer="g6"
     showgrid="false"
     showguides="true"
     inkscape:guide-bbox="true"
     inkscape:window-width="2510"
     inkscape:window-height="1371"
     inkscape:window-x="1970"
     inkscape:window-y="32"
     inkscape:window-maximized="1"
     inkscape:document-rotation="0"
     inkscape:pagecheckerboard="0"
     fit-margin-top="0"
     lock-margins="true"
     fit-margin-left="0"
     fit-margin-right="0"
     fit-margin-bottom="0"
     inkscape:showpageshadow="2"
     inkscape:deskcolor="#d1d1d1" />
  <metadata
     id="metadata7">
    <rdf:RDF>
      <cc:Work
         rdf:about="">
        <dc:format>image/svg+xml</dc:format>
        <dc:type
           rdf:resource="http://purl.org/dc/dcmitype/StillImage" />
        <dc:title>Fipsi</dc:title>
        <dc:rights>
          <cc:Agent>
            <dc:title>Faktor Zehn GmbH</dc:title>
          </cc:Agent>
        </dc:rights>
        <dc:subject>
          <rdf:Bag>
            <rdf:li>Faktor-IPS</rdf:li>
            <rdf:li>Logo</rdf:li>
            <rdf:li>Fipsi</rdf:li>
          </rdf:Bag>
        </dc:subject>
      </cc:Work>
    </rdf:RDF>
  </metadata>
  <g
     inkscape:label="Layer 1"
     inkscape:groupmode="layer"
     id="layer1"
     style="opacity:1"
     transform="translate(-18.750118,105.21038)">
    <g
       id="g6"
       transform="matrix(0.94139054,0,0,0.94139054,1.5397695,-5.7794917)">
      <g
         id="path1"
         style="opacity:1">
        <path
           style="baseline-shift:baseline;display:inline;overflow:visible;vector-effect:none;fill:#009fe3;fill-rule:evenodd;stroke-linecap:round;enable-background:accumulate;stop-color:#000000;stop-opacity:1"
           d="m 23.628047,-103.60455 c -1.351267,0 -2.438964,1.0877 -2.438964,2.43897 v 2.473754 c -0.267877,0.05957 -0.550791,0.128478 -0.825806,0.206909 -0.328717,0.09375 -0.64419,0.200147 -0.911865,0.316773 -0.267675,0.116626 -0.489652,0.228763 -0.6427,0.419311 -0.0782,0.09734 -0.07886,0.236817 -0.0018,0.335083 0.550753,0.703681 1.429865,1.281411 2.451782,1.712036 0.260788,1.066848 1.219951,1.853028 2.369384,1.853028 h 4.87793 c 1.351267,0 2.438964,-1.087698 2.438964,-2.438965 v -4.877929 c 0,-1.35127 -1.087697,-2.43897 -2.438964,-2.43897 z m 7.891846,2.10755 c -0.138505,0 -0.281983,0.0645 -0.281983,0.26184 v 2.519531 c 0,0.23373 0.165123,0.329445 0.302124,0.320434 0.43044,-0.02831 0.531328,-0.179797 0.823975,-0.463257 0.302771,-0.293267 0.0321,-0.04671 0.50354,-0.527343 0.138903,-0.141617 0.357555,-0.282566 0.531006,-0.285645 0.138526,-0.0025 0.16832,0.001 0.27832,0.01831 -0.03634,-0.306874 -0.171284,-0.55723 -0.371704,-0.79651 -0.12089,-0.14434 -0.241008,-0.28186 -0.382691,-0.40466 -0.448989,-0.38918 -0.963125,-0.62638 -1.402587,-0.6427 z m -6.373901,7.770994 a 0.36586651,0.36586651 0 0 0 -0.320435,0.179444 0.36586651,0.36586651 0 0 0 0.128174,0.501709 l 2.171631,1.290893 a 0.36586651,0.36586651 0 0 0 0.499877,-0.126343 0.36586651,0.36586651 0 0 0 -0.126342,-0.499878 l -2.171631,-1.294555 a 0.36586651,0.36586651 0 0 0 -0.181274,-0.05127 z m 1.950073,0 a 0.36586651,0.36586651 0 0 0 -0.318604,0.179444 0.36586651,0.36586651 0 0 0 0.126343,0.501709 l 2.171631,1.290893 a 0.36586651,0.36586651 0 0 0 0.499878,-0.126343 0.36586651,0.36586651 0 0 0 -0.126343,-0.499878 l -2.1698,-1.294555 a 0.36586651,0.36586651 0 0 0 -0.183105,-0.05127 z"
           id="path2" />
        <path
           style="baseline-shift:baseline;display:inline;overflow:visible;vector-effect:none;fill:#f2f2f2;fill-rule:evenodd;stroke-linecap:round;enable-background:accumulate;stop-color:#000000;stop-opacity:1"
           d="m 23.628906,-104.07422 c -1.602813,0 -2.908203,1.30539 -2.908203,2.9082 v 2.109379 c -0.162376,0.03971 -0.322862,0.07448 -0.486328,0.121094 -0.342603,0.09771 -0.675094,0.209094 -0.970703,0.337891 -0.281547,0.12267 -0.584919,0.261617 -0.820313,0.554687 -0.214318,0.266775 -0.21663,0.649196 -0.0059,0.917969 0.594223,0.759221 1.50566,1.325123 2.515625,1.769531 0.399974,1.129574 1.413512,1.97461 2.675781,1.97461 h 0.896485 c 0.0079,0.277852 -0.06311,0.587867 0.189453,0.738281 l 2.171875,1.291016 v 0.002 c 0.390055,0.230814 0.907082,0.09936 1.140625,-0.289063 v -0.002 h 0.002 c 0.04544,-0.07679 -0.07486,-0.141132 -0.05664,-0.224609 l 0.863281,0.513672 v 0.002 c 0.390056,0.230815 0.907082,0.09937 1.140625,-0.289063 l 0.002,-0.002 c 0.230815,-0.390056 0.101319,-0.907082 -0.28711,-1.140625 l -0.002,-0.002 -1.076172,-0.642578 c 1.545,-0.06585 2.800781,-1.30047 2.800781,-2.861328 v -1.695313 c 0.05443,0.0082 0.101882,0.05826 0.15625,0.05469 0.267462,-0.01759 0.510079,-0.09107 0.69336,-0.212891 0.183281,-0.121824 0.290096,-0.249434 0.425781,-0.380859 0.154373,-0.149527 0.20109,-0.20211 0.224609,-0.230469 0.02352,-0.02836 0.05669,-0.06778 0.289063,-0.304688 0.07558,-0.07706 0.276507,-0.147787 0.203125,-0.146484 0.129422,-0.0023 0.09052,-0.0031 0.197266,0.01367 l 0.611328,0.0957 -0.07227,-0.615234 c -0.04877,-0.411886 -0.241254,-0.757756 -0.478516,-1.041016 -0.124926,-0.14916 -0.262064,-0.30862 -0.435546,-0.45898 -0.511239,-0.44273 -1.097741,-0.73382 -1.691407,-0.75586 h -0.0078 -0.0098 c -0.114766,0 -0.252627,0.0495 -0.386719,0.12304 -0.335915,-1.23451 -1.287793,-2.23242 -2.626953,-2.23242 z m 0,0.9375 h 4.876953 c 1.099721,0 1.970704,0.87098 1.970703,1.9707 v 4.878911 c 0,1.099721 -0.870981,1.96875 -1.970703,1.96875 h -4.876953 c -0.935691,0 -1.703614,-0.633226 -1.914062,-1.494141 l -0.05664,-0.230469 -0.216797,-0.08984 c -0.891098,-0.3755 -1.587561,-0.889521 -2.076172,-1.439454 0.07957,-0.05298 0.124281,-0.101028 0.273438,-0.166015 0.239741,-0.104455 0.538684,-0.205132 0.853515,-0.294922 0.263116,-0.07504 0.537456,-0.143048 0.798829,-0.201172 l 0.367187,-0.08203 v -2.849614 c 0,-1.09972 0.870983,-1.9707 1.970703,-1.9707 z m 8.078125,2.20508 c 0.273595,0.0599 0.593011,0.15843 0.908203,0.43164 0.109884,0.0952 0.213225,0.21204 0.330078,0.35156 0.05515,0.0658 0.05293,0.12576 0.08984,0.185549 -0.171155,0.08261 -0.383681,0.127464 -0.501953,0.248047 -0.239065,0.243727 -0.307099,0.321444 -0.341797,0.363282 -0.0347,0.04184 -0.0059,0.01251 -0.154297,0.15625 -0.156962,0.152034 -0.245033,0.241575 -0.292968,0.273437 -0.0076,0.0051 -0.03005,0.0055 -0.03711,0.0098 z m -2.394531,8.773437 c 5.8e-4,3.23e-4 0.0014,-3.38e-4 0.002,0 v 0.002 z"
           id="path3" />
      </g>
      <rect
         style="fill:#009fe3;fill-opacity:1;stroke-width:0.0104273"
         id="rect4155"
         width="9.7564402"
         height="9.7564402"
         x="21.189226"
         y="-103.60428"
         ry="2.43911"
         inkscape:label="body" />
      <path
         style="baseline-shift:baseline;display:inline;overflow:visible;vector-effect:none;fill:#009fe3;fill-rule:evenodd;stroke-linecap:round;enable-background:accumulate;stop-color:#000000;stop-opacity:1;opacity:1"
         d="m 25.328125,-93.673828 a 0.36586651,0.36586651 0 0 0 -0.501953,0.126953 0.36586651,0.36586651 0 0 0 0.126953,0.501953 l 2.171875,1.291016 a 0.36586651,0.36586651 0 0 0 0.5,-0.126953 0.36586651,0.36586651 0 0 0 -0.126953,-0.5 z"
         id="path4177" />
      <path
         style="baseline-shift:baseline;display:inline;overflow:visible;vector-effect:none;fill:#009fe3;fill-rule:evenodd;stroke-linecap:round;enable-background:accumulate;stop-color:#000000;stop-opacity:1;opacity:1"
         d="m 27.279297,-93.673828 a 0.36586651,0.36586651 0 0 0 -0.501953,0.126953 0.36586651,0.36586651 0 0 0 0.126953,0.501953 l 2.171875,1.291016 a 0.36586651,0.36586651 0 0 0 0.5,-0.126953 0.36586651,0.36586651 0 0 0 -0.126953,-0.5 z"
         id="path4179" />
      <path
         style="fill:#009fe3;fill-opacity:1;fill-rule:evenodd;stroke:none;stroke-width:0.0104266px;stroke-linecap:butt;stroke-linejoin:miter;stroke-opacity:1"
         d="m 31.23836,-101.23606 v 2.521297 c 0,0.23373 0.164077,0.328422 0.301078,0.319411 0.43044,-0.02831 0.532408,-0.180546 0.825055,-0.464006 0.302771,-0.293267 0.03102,-0.04596 0.502462,-0.526593 0.138903,-0.141617 0.35765,-0.28212 0.531101,-0.285199 0.138526,-0.0025 0.169413,3.84e-4 0.279413,0.01765 -0.03634,-0.306874 -0.172347,-0.55771 -0.372767,-0.79699 -0.12089,-0.14434 -0.24071,-0.28154 -0.382393,-0.40434 -0.448989,-0.38918 -0.962977,-0.62541 -1.402439,-0.64173 -0.138505,0 -0.281511,0.0632 -0.281511,0.26051 z"
         id="path4171"
         inkscape:connector-curvature="0"
         sodipodi:nodetypes="sssssscssss"
         inkscape:label="beak" />
      <g
         id="g3648"
         transform="matrix(0.01040687,0,0,0.01040687,18.63416,-102.58516)">
        <circle
           cy="136.44769"
           cx="948.64215"
           id="circle4163"
           style="fill:#f2f2f2;fill-opacity:1;stroke-width:1.00025"
           inkscape:label="eyeball"
           r="187.5" />
        <circle
           cy="136.44769"
           cx="948.64215"
           id="circle4165"
           style="fill:#009fe3;fill-opacity:1;stroke-width:1.01496"
           inkscape:label="iris"
           r="111.32812" />
        <circle
           style="fill:#f2f2f2;fill-opacity:1;stroke-width:1.00671"
           id="path4161"
           cx="983.7984"
           cy="101.29144"
           inkscape:label="pupil"
           r="35.156246" />
      </g>
      <g
         id="path4"
         inkscape:label="wing"
         style="opacity:1">
        <path
           style="baseline-shift:baseline;display:inline;overflow:visible;vector-effect:none;fill:#f2f2f2;fill-rule:evenodd;stroke-linejoin:round;enable-background:accumulate;stop-color:#000000;stop-opacity:1"
           d="m 19.018726,-97.579581 c 0.379065,-0.471943 2.342938,-0.907467 3.176996,-1.030602 1.843319,-0.272135 3.393552,-0.501869 5.148089,-0.116985 0.889684,0.195165 1.937798,0.352577 1.866636,1.245135 -0.153595,1.926448 -2.044181,2.431349 -3.762957,2.394412 -2.380463,-0.05116 -5.280725,-1.025146 -6.428764,-2.49196 z"
           id="path5" />
      </g>
      <g
         id="path4175"
         inkscape:label="wing"
         style="opacity:1">
        <path
           style="baseline-shift:baseline;display:inline;overflow:visible;vector-effect:none;fill:#f2f2f2;fill-rule:evenodd;stroke-linejoin:round;enable-background:accumulate;stop-color:#000000;stop-opacity:1"
           d="m 19.018726,-97.579581 c 0.379065,-0.471943 2.342938,-0.907467 3.176996,-1.030602 1.843319,-0.272135 3.393552,-0.501869 5.148089,-0.116985 0.889684,0.195165 1.937798,0.352577 1.866636,1.245135 -0.153595,1.926448 -2.044181,2.431349 -3.762957,2.394412 -2.380463,-0.05116 -5.280725,-1.025146 -6.428764,-2.49196 z"
           id="path7" />
        <path
           style="baseline-shift:baseline;display:inline;overflow:visible;vector-effect:none;fill:#009fe3;fill-rule:evenodd;stroke-linejoin:round;enable-background:accumulate;stop-color:#000000;stop-opacity:1"
           d="m 24.791016,-99.183594 c -0.854723,0.04399 -1.713147,0.172533 -2.634766,0.308594 -0.432161,0.0638 -1.135535,0.203131 -1.792969,0.390625 -0.328717,0.09375 -0.644434,0.19978 -0.912109,0.316406 -0.267675,0.116626 -0.48953,0.229374 -0.642578,0.419922 a 0.26864336,0.26864336 0 0 0 -0.002,0.333985 c 1.2478,1.594276 4.185768,2.54307 6.634765,2.595703 0.887788,0.01908 1.829236,-0.09616 2.597656,-0.490235 0.768421,-0.39407 1.355864,-1.103932 1.439454,-2.152343 0.02199,-0.275838 -0.04774,-0.527364 -0.185547,-0.720704 -0.137805,-0.193339 -0.330824,-0.325578 -0.539063,-0.425781 -0.416478,-0.200405 -0.913521,-0.286722 -1.351562,-0.382812 -0.904368,-0.198387 -1.756606,-0.237348 -2.611328,-0.19336 z m 0.02344,0.53711 c 0.819858,-0.04269 1.622487,-0.0049 2.472656,0.18164 0.451643,0.09907 0.922166,0.189612 1.234375,0.339844 0.156105,0.07512 0.26748,0.162554 0.333985,0.255859 0.0665,0.09331 0.101479,0.194793 0.08789,0.365235 -0.07001,0.878036 -0.505425,1.386038 -1.15039,1.716797 -0.644966,0.330758 -1.508855,0.449498 -2.339844,0.43164 -2.194338,-0.04716 -4.790733,-0.981793 -5.955078,-2.21875 0.06645,-0.03879 0.07835,-0.06252 0.167969,-0.101562 0.233227,-0.101617 0.529858,-0.201497 0.84375,-0.291016 0.627783,-0.179038 1.322712,-0.31762 1.724609,-0.376953 0.9217,-0.136074 1.76022,-0.260043 2.580078,-0.302734 z"
           id="path8" />
      </g>
    </g>
  </g>
</svg>
