/* XPM */
static char * fips_48_final_xpm[] = {
"48 48 97 2",
"  	c None",
". 	c #0752A6",
"+ 	c #0853A6",
"@ 	c #165CAB",
"# 	c #3973B5",
"$ 	c #2163AD",
"% 	c #0954A7",
"& 	c #0753A6",
"* 	c #2D6CB1",
"= 	c #D8DDE3",
"- 	c #E7E7E7",
"; 	c #E5E6E6",
"> 	c #6590C2",
", 	c #0852A6",
"' 	c #4F81BA",
") 	c #A9BED5",
"! 	c #0752A7",
"~ 	c #0752A5",
"{ 	c #1158A8",
"] 	c #E3E4E6",
"^ 	c #D5DAE2",
"/ 	c #5788BD",
"( 	c #0C55A7",
"_ 	c #2A6AB0",
": 	c #ACBFD5",
"< 	c #467BB8",
"[ 	c #618DC1",
"} 	c #316EB2",
"| 	c #4A7EBA",
"1 	c #0B55A7",
"2 	c #D9DFE3",
"3 	c #BECBDB",
"4 	c #A2B9D3",
"5 	c #D6DBE2",
"6 	c #84A6CB",
"7 	c #1058A9",
"8 	c #6892C3",
"9 	c #5386BD",
"0 	c #0A54A7",
"a 	c #2968B0",
"b 	c #ACC0D5",
"c 	c #306DB1",
"d 	c #DAE0E4",
"e 	c #E6E6E7",
"f 	c #6A94C2",
"g 	c #0652A7",
"h 	c #1A5EAB",
"i 	c #4179B6",
"j 	c #2666AF",
"k 	c #0851A6",
"l 	c #0852A5",
"m 	c #145BAB",
"n 	c #2667AF",
"o 	c #3D76B6",
"p 	c #5A89BE",
"q 	c #7B9EC8",
"r 	c #9BB5D1",
"s 	c #9FB7D2",
"t 	c #89A8CB",
"u 	c #7399C5",
"v 	c #5D8CBF",
"w 	c #487DB9",
"x 	c #0953A6",
"y 	c #0751A5",
"z 	c #3370B3",
"A 	c #80A2CA",
"B 	c #BBCADA",
"C 	c #D8DDE2",
"D 	c #A6BCD4",
"E 	c #1B60AC",
"F 	c #E4E5E6",
"G 	c #0F58A9",
"H 	c #739AC5",
"I 	c #1159A9",
"J 	c #0651A6",
"K 	c #2565AF",
"L 	c #CAD4DF",
"M 	c #AEC1D6",
"N 	c #2E6CB1",
"O 	c #ADC0D5",
"P 	c #CED6E0",
"Q 	c #0F57A8",
"R 	c #5A8ABE",
"S 	c #BECCDC",
"T 	c #8DABCD",
"U 	c #0751A6",
"V 	c #0A54A6",
"W 	c #2C6AB1",
"X 	c #6792C2",
"Y 	c #9BB4D1",
"Z 	c #C3CFDD",
"` 	c #D5DBE1",
" .	c #CCD5DF",
"..	c #B7C8D9",
"+.	c #9AB4D1",
"@.	c #477DB8",
"#.	c #0652A5",
"                                                                                                ",
"                                                                                                ",
"                                                                                                ",
"                                                                                                ",
"                                                                                                ",
"                                                                                                ",
"                                                                                                ",
"                                                                                                ",
"                                                                                                ",
"                                                                                                ",
"                            . . . . . . . . . . . . . + @ # $ % &                               ",
"                          . . . . . . . . . . . . . * = - - - ; > ,                             ",
"                        . . . . . . . . . . . . . ' - - - - - - - ) !                           ",
"                      ~ . . . . . . . . . . . . { ] - ^ / ( _ : - - < .                         ",
"                      . . . . . . . . . . . . . [ - - } . . | 1 2 - 3 .                         ",
"                      . . . . . . . . . . . . . 4 - 5 , . . 6 7 8 - ; +     &                   ",
"                      . . . . . . . . . . . . . 4 - 5 , . . . . 8 - ; +   . . . .               ",
"                      . . . . . . . . . . . . . [ - - } . . . , 2 - 3 .   . . . . .             ",
"                      . . . . . . . . . . . . . { ] - ^ 9 0 a b - - < .   . . . . . .           ",
"                      . . . . . . . . . . . . . . ' - - - - - - - ) . .   . . . . . .           ",
"                      . . . . . . . . . . . . . . . c d - - - e f , . .   . . . . g             ",
"                      . . . . . . . . . . . . . . . . , h i j 0 . . . .   . . . .               ",
"                    k . . . . . . . . . . . . . . . . . . . . . . . . .   l .                   ",
"              . . . . . . . 1 m n o p q r s t u v w n x . . . . . . . .                         ",
"          y . . 1 z A B C - - - - - - - - - - - - - - ; D E . . . . . .                         ",
"          . . 6 - - - - - - - - - - - - - - - - - - - - - F G . . . . .                         ",
"          . . , H - - - - - - - - - - - - - - - - - - - - - I . . . . .                         ",
"            J . . K L - - - - - - - - - - - - - - - - - - M . . . . . .                         ",
"                & . . N O - - - - - - - - - - - - - - - P 0 . . . . . .                         ",
"                    . . . Q R S - - - - - - - - - - - T 0 . . . . . . .                         ",
"                      U . . . . V W X Y Z `  ...+.@.Q . . . . . . . . .                         ",
"                        . . . . . . . . . . . . . . . . . . . . . . .                           ",
"                        U . . . . . . . . . . . . . . . . . . . . . ~                           ",
"                          U . . . . . . . . . . . . . . . . . . . .                             ",
"                              U . . . . . . . . . . . . . . . U                                 ",
"                                                                                                ",
"                                        . U       . .                                           ",
"                                        #.. . .     . . y                                       ",
"                                            & . .     . . .                                     ",
"                                                + . U     . . !                                 ",
"                                                    ,         .                                 ",
"                                                                                                ",
"                                                                                                ",
"                                                                                                ",
"                                                                                                ",
"                                                                                                ",
"                                                                                                ",
"                                                                                                "};
