<?xml version="1.0" encoding="UTF-8" standalone="no"?>
<!-- Created with Inkscape (http://www.inkscape.org/) -->

<svg
   xmlns:dc="http://purl.org/dc/elements/1.1/"
   xmlns:cc="http://creativecommons.org/ns#"
   xmlns:rdf="http://www.w3.org/1999/02/22-rdf-syntax-ns#"
   xmlns:svg="http://www.w3.org/2000/svg"
   xmlns="http://www.w3.org/2000/svg"
   xmlns:xlink="http://www.w3.org/1999/xlink"
   xmlns:sodipodi="http://sodipodi.sourceforge.net/DTD/sodipodi-0.dtd"
   xmlns:inkscape="http://www.inkscape.org/namespaces/inkscape"
   width="551"
   height="290"
   viewBox="0 0 145.78541 76.729167"
   version="1.1"
   id="svg7778"
   sodipodi:docname="splash.svg"
   inkscape:version="0.92.4 (5da689c313, 2019-01-14)">
  <defs
     id="defs7772">
    <linearGradient
       inkscape:collect="always"
       xlink:href="#linearGradient3283"
       id="linearGradient4300"
       x1="72.375"
       y1="185.34039"
       x2="476.65625"
       y2="185.34039"
       gradientUnits="userSpaceOnUse"
       gradientTransform="matrix(0.35691442,0,0,0.3444278,-25.831686,203.71709)" />
    <linearGradient
       id="linearGradient3283">
      <stop
         style="stop-color:#ffffff;stop-opacity:0.24267782;"
         offset="0"
         id="stop3285" />
      <stop
         style="stop-color:#f0f0f0;stop-opacity:1;"
         offset="1"
         id="stop3287" />
    </linearGradient>
    <clipPath
       clipPathUnits="userSpaceOnUse"
       id="clipPath20">
      <path
         d="M 149,555 V 993 H 2247 V 555 Z"
         id="path18"
         inkscape:connector-curvature="0" />
    </clipPath>
  </defs>
  <sodipodi:namedview
     id="base"
     pagecolor="#ffffff"
     bordercolor="#666666"
     borderopacity="1.0"
     inkscape:pageopacity="0.0"
     inkscape:pageshadow="2"
     inkscape:zoom="1.4"
     inkscape:cx="371.21744"
     inkscape:cy="155.86719"
     inkscape:document-units="mm"
     inkscape:current-layer="layer1"
     showgrid="false"
     units="px"
     inkscape:window-width="1866"
     inkscape:window-height="1016"
     inkscape:window-x="3638"
     inkscape:window-y="27"
     inkscape:window-maximized="1" />
  <metadata
     id="metadata7775">
    <rdf:RDF>
      <cc:Work
         rdf:about="">
        <dc:format>image/svg+xml</dc:format>
        <dc:type
           rdf:resource="http://purl.org/dc/dcmitype/StillImage" />
        <dc:title></dc:title>
      </cc:Work>
    </rdf:RDF>
  </metadata>
  <g
     inkscape:label="Layer 1"
     inkscape:groupmode="layer"
     id="layer1"
     transform="translate(0,-220.27083)">
    <rect
       style="color:#000000;display:inline;overflow:visible;visibility:visible;fill:#e6e8ed;fill-opacity:1;stroke:none;stroke-width:0.35825327;marker:none;enable-background:accumulate"
       id="rect3863-5-8-6"
       width="145.71674"
       height="76.729164"
       x="0.068684749"
       y="220.27083"
       inkscape:export-filename="/home/dirmeier/Bilder/fips/splash.png"
       inkscape:export-xdpi="121.85231"
       inkscape:export-ydpi="121.85231" />
    <path
       style="fill:url(#linearGradient4300);fill-opacity:1;fill-rule:evenodd;stroke:none;stroke-width:0.35825327"
       d="m 50.882608,243.21867 c -1.088229,0.0109 -2.174791,0.0937 -3.256843,0.24755 -4.327982,0.61671 -8.496757,2.38508 -11.934323,5.10184 -3.094144,2.44759 -5.563513,5.64265 -7.138297,9.24575 C 19.488354,254.67095 9.5123751,253.91531 0,255.76876 v 3.4981 c 4.3784502,-1.03098 8.9208326,-1.46178 13.451203,-1.30237 -0.859702,3.64219 -1.274909,7.36736 -1.226891,11.07551 0.02085,3.3947 0.528088,6.95502 2.197255,10.09605 0.842817,1.56833 1.990059,2.98901 3.401844,4.12234 1.414061,1.13328 3.084772,1.95273 4.862947,2.34644 1.779341,0.39183 3.642218,0.34599 5.376033,-0.10764 1.732947,-0.45528 3.311862,-1.30781 4.639881,-2.42177 1.326922,-1.11419 2.390315,-2.47277 3.245698,-3.91786 0.855396,-1.44484 1.511761,-2.97446 2.152649,-4.49908 l 0.736125,-1.74367 -0.847665,1.70061 c -0.741216,1.48127 -1.490787,2.95969 -2.420337,4.31611 -0.929494,1.35608 -2.042801,2.58854 -3.357224,3.55191 -1.313206,0.96349 -2.835448,1.66155 -4.416814,1.9697 -1.580458,0.30977 -3.22215,0.24286 -4.740263,-0.19374 -1.519345,-0.43477 -2.917197,-1.24147 -4.059916,-2.28184 -1.145114,-1.0404 -2.048732,-2.33142 -2.688008,-3.72413 -1.294761,-2.78053 -1.47585,-5.97933 -1.327273,-9.15962 0.199518,-3.70915 0.890766,-7.37706 2.029951,-10.89254 6.487062,0.66893 12.853606,2.5509 18.593008,5.57544 3.112884,1.63639 6.101513,3.63726 9.290933,5.44627 3.185887,1.81867 6.628247,3.42297 10.372824,4.16542 1.082404,0.20666 2.171444,0.33055 3.256841,0.39823 5.150176,1.48883 10.446854,5.34765 13.172373,9.70857 1.019234,1.63599 1.879669,3.54974 3.268001,5.231 0.696813,0.83954 1.532982,1.59355 2.509561,2.16343 0.979138,0.57032 2.10126,0.92498 3.245685,0.99023 1.146185,0.063 2.294279,-0.18246 3.290304,-0.69961 0.994696,-0.51945 1.80756,-1.29654 2.375717,-2.20648 0.566206,-0.90997 0.888316,-1.9295 1.026127,-2.94918 0.137824,-1.01915 0.105893,-2.0233 0.0669,-3.02451 l -0.13379,-3.62725 -0.145001,3.62725 c -0.039,1.00006 -0.08274,1.99499 -0.289989,2.94917 -0.207306,0.95352 -0.570879,1.87099 -1.137668,2.63702 -0.564757,0.76593 -1.334342,1.38486 -2.197255,1.75443 -0.861572,0.37188 -1.824907,0.50478 -2.743772,0.38749 -0.920775,-0.11508 -1.814928,-0.48382 -2.576483,-1.00101 -0.764249,-0.51767 -1.403688,-1.20877 -1.951871,-1.96968 -1.101715,-1.51972 -1.758474,-3.39526 -2.743787,-5.2633 -2.28002,-4.33277 -6.25713,-7.01924 -10.952815,-8.71834 2.403965,-0.15854 4.78063,-0.55504 7.093678,-1.04403 4.651458,-0.9705 9.170766,-2.26781 13.752365,-3.0891 4.578321,-0.82059 9.254872,-1.15106 13.886194,-0.75341 4.630435,0.39326 9.199685,1.53594 13.730065,2.76617 l 33.22651,9.04123 -33.00345,-9.79467 c -4.50867,-1.339 -9.08533,-2.60332 -13.830427,-3.12136 -4.744121,-0.51368 -9.559986,-0.28417 -14.26542,0.45206 -4.703336,0.73573 -9.270269,1.94064 -13.852748,2.7877 -4.579241,0.83351 -9.257417,1.31979 -13.618507,0.34442 -3.372215,-0.72661 -6.535541,-2.32339 -9.580935,-4.13312 -3.041969,-1.81948 -6.002228,-3.90212 -9.235156,-5.70458 -1.650223,-0.91793 -3.351443,-1.74023 -5.097188,-2.47558 1.15867,-3.17093 3.134619,-6.10184 5.732944,-8.41698 2.880865,-2.56948 6.543775,-4.40194 10.450902,-5.18793 3.906885,-0.78737 8.077582,-0.53261 11.91202,0.75344 3.834763,1.2852 7.334971,3.60644 9.982452,6.66253 2.143861,2.47439 3.738551,5.41934 4.606419,8.57841 -0.672845,-3.20304 -2.096738,-6.27225 -4.137968,-8.93361 -2.521761,-3.28731 -5.994116,-5.92938 -9.971308,-7.52358 -2.983144,-1.19502 -6.238158,-1.79745 -9.50284,-1.7652 z"
       id="path4183"
       inkscape:connector-curvature="0"
       inkscape:export-filename="/home/dirmeier/Bilder/fips/splash.png"
       inkscape:export-xdpi="121.85231"
       inkscape:export-ydpi="121.85231" />
    <text
       xml:space="preserve"
       style="font-style:normal;font-variant:normal;font-weight:normal;font-stretch:normal;font-size:4.29903984px;line-height:0%;font-family:MetaMedium-Caps;-inkscape-font-specification:MetaMedium-Caps;text-align:start;letter-spacing:0px;word-spacing:0px;writing-mode:lr-tb;text-anchor:start;fill:#009fe3;fill-opacity:1;stroke:none;stroke-width:0.35825327"
       x="7.0535865"
       y="285.57727"
       id="text4452"
       inkscape:export-filename="/home/dirmeier/Bilder/fips/splash.png"
       inkscape:export-xdpi="121.85231"
       inkscape:export-ydpi="121.85231"
       transform="scale(1.0000832,0.99991681)"><tspan
         sodipodi:role="line"
         id="tspan4456"
         x="7.0535865"
         y="285.57727"
         style="font-style:normal;font-variant:normal;font-weight:normal;font-stretch:normal;font-size:3.58253288px;line-height:1.25;font-family:Montserrat;-inkscape-font-specification:Montserrat;stroke-width:0.35825327">© Faktor Zehn GmbH - www.faktorzehn.org</tspan></text>
    <g
       transform="matrix(0.02713257,0,0,-0.02713257,79.657836,283.94995)"
       id="g14">
      <g
         id="g16"
         clip-path="url(#clipPath20)">
        <path
           d="m 1591.56,841.902 v -216.64 h 173.99 v 45.121 h -117.44 v 40.793 l 103.23,0.308 v 44.813 h -103.23 v 40.484 h 114.35 v 45.121 z m 198.71,0 v -216.64 h 56.56 v 83.133 h 87.46 v -83.133 h 56.55 v 216.64 h -56.55 v -88.386 h -87.46 v 88.386 z m 228.75,0 v -216.64 h 52.85 v 129.801 l 98.28,-129.801 h 49.45 v 216.64 h -52.54 V 711.484 l -98.28,130.418 h -49.76"
           style="fill:#009fe3;fill-opacity:1;fill-rule:nonzero;stroke:none"
           id="path22"
           inkscape:connector-curvature="0" />
        <path
           d="m 1114.6,843.449 c -62.12,0 -96.11,-39.25 -96.11,-109.711 0,-70.773 33.99,-110.023 96.11,-110.023 61.81,0 96.12,39.25 96.12,110.023 0,70.461 -34.31,109.711 -96.12,109.711 z m 0,-42.031 c 26.58,0 38.01,-19.16 38.01,-67.68 0,-48.523 -11.43,-67.992 -38.01,-67.992 -26.58,0 -38.32,19.469 -38.32,67.992 0,48.52 11.74,67.68 38.32,67.68"
           style="fill:#55ccff;fill-opacity:1;fill-rule:nonzero;stroke:none"
           id="path24"
           inkscape:connector-curvature="0" />
        <path
           d="m 514.27,625.262 h 60.261 l -90.859,216.64 H 425.57 l -93.023,-216.64 h 58.101 l 15.145,38.32 h 93.641 z m -91.481,81.586 30.285,77.265 29.668,-77.265 z M 802.301,625.262 717,752.281 l 80.355,89.621 h -65.519 l -81.277,-90.859 v 90.859 H 594 v -216.64 h 56.559 v 52.843 l 27.812,30.907 56.246,-83.75 z m 10.262,216.64 V 795.238 H 876.84 V 625.262 h 56.558 v 169.976 h 64.899 v 46.664 H 812.563"
           style="fill:#009fe3;fill-opacity:1;fill-rule:nonzero;stroke:none"
           id="path26"
           inkscape:connector-curvature="0" />
        <path
           d="m 1324.66,841.156 v -46.355 h -39.57 V 624.512 h -56.55 v 216.644 h 96.12"
           style="fill:#55ccff;fill-opacity:1;fill-rule:nonzero;stroke:none"
           id="path28"
           inkscape:connector-curvature="0" />
        <path
           d="M 368.891,901.121 H 174.215 V 625.262 h 67.988 v 99.558 h 116.656 v 57.457 H 242.203 v 61.391 H 368.52"
           style="fill:#009fe3;fill-opacity:1;fill-rule:nonzero;stroke:none"
           id="path30"
           inkscape:connector-curvature="0" />
        <path
           d="m 1349.53,901.121 v -58.172 h 128.7 l -133.39,-172.14 v -47.094 h 223.88 v 58.172 h -135.55 l 133.39,171.746 v 47.488 h -217.03"
           style="fill:#009fe3;fill-opacity:1;fill-rule:nonzero;stroke:none"
           id="path32"
           inkscape:connector-curvature="0" />
      </g>
    </g>
    <g
       id="g34"
       transform="matrix(0.45818028,0,0,-0.45818028,29.899577,264.09513)"
       style="fill:#000000;fill-opacity:1">
      <text
         transform="matrix(1,0,0,-1,14.173,28.8738)"
         style="font-variant:normal;font-weight:bold;font-size:39px;font-family:Montserrat;-inkscape-font-specification:Montserrat-Bold;writing-mode:lr-tb;fill:#000000;fill-opacity:1;fill-rule:nonzero;stroke:none"
         id="text38">
        <tspan
           x="0"
           y="0"
           id="tspan36"
           style="fill:#000000;fill-opacity:1">F</tspan>
      </text>
      <text
         transform="matrix(1,0,0,-1,35.1937,28.8738)"
         style="font-variant:normal;font-weight:bold;font-size:31px;font-family:Montserrat;-inkscape-font-specification:Montserrat-Bold;writing-mode:lr-tb;fill:#000000;fill-opacity:1;fill-rule:nonzero;stroke:none"
         id="text42">
        <tspan
           x="0 23.746 45.198002 64.046097 90.210098"
           y="0"
           sodipodi:role="line"
           id="tspan40">AKTOR</tspan>
      </text>
      <text
         transform="matrix(1,0,0,-1,148.1877,28.8738)"
         style="font-variant:normal;font-weight:bold;font-size:39px;font-family:Montserrat;-inkscape-font-specification:Montserrat-Bold;writing-mode:lr-tb;fill:#000000;fill-opacity:1;fill-rule:nonzero;stroke:none"
         id="text46">
        <tspan
           x="15.834 28.625999 57.174"
           sodipodi:role="line"
           id="tspan44">IPS</tspan>
      </text>
      <text
         transform="matrix(1,0,0,-1,230.242,41.8605)"
         style="font-variant:normal;font-weight:bold;font-size:22.73699951px;font-family:Montserrat;-inkscape-font-specification:Montserrat-Bold;writing-mode:lr-tb;fill:#000000;fill-opacity:1;fill-rule:nonzero;stroke:none"
         id="text50">
        <tspan
           x="0"
           y="0"
           id="tspan48"
           style="fill:#000000;fill-opacity:1">®</tspan>
      </text>
      <text
         id="text1824"
         style="font-variant:normal;font-weight:bold;font-size:39px;font-family:Montserrat;-inkscape-font-specification:Montserrat-Bold;writing-mode:lr-tb;fill:#000000;fill-opacity:1;fill-rule:nonzero;stroke:none"
         transform="scale(1,-1)"
         x="148.1877"
         y="-32.169926">
        <tspan
           id="tspan1822"
           sodipodi:role="line"
           y="-32.169926"
           x="148.1877">-</tspan>
      </text>
    </g>
    <rect
       style="opacity:1;fill:#009fe3;fill-opacity:1;stroke-width:0.02260033"
       id="rect4155"
       width="21.174664"
       height="21.118195"
       x="7.9101701"
       y="230.40012"
       ry="5.3642473" />
    <path
       style="opacity:1;fill:#ffffff;fill-opacity:1;fill-rule:evenodd;stroke:#009fe3;stroke-width:1.18577158;stroke-linecap:butt;stroke-linejoin:round;stroke-miterlimit:4;stroke-dasharray:none;stroke-opacity:1"
       d="m 3.2799767,243.45782 c 0.821144,-1.02507 5.06325,-1.89145 6.8605903,-2.21628 4.001168,-0.53351 7.363396,-1.14353 11.151989,-0.25409 1.9383,0.3702 3.962948,0.75347 4.051419,2.69624 -0.573595,4.15813 -4.91565,5.43839 -8.159303,5.20897 -4.552096,-0.49822 -11.4177693,-2.24887 -13.9046953,-5.43484 z"
       id="path4175"
       inkscape:connector-curvature="0"
       sodipodi:nodetypes="cccccc" />
    <path
       style="opacity:1;fill:none;fill-rule:evenodd;stroke:#009fe3;stroke-width:1.58104146;stroke-linecap:round;stroke-linejoin:miter;stroke-miterlimit:4;stroke-dasharray:none;stroke-opacity:1"
       d="m 16.04124,252.67586 4.686657,2.82329"
       id="path4177"
       inkscape:connector-curvature="0"
       sodipodi:nodetypes="cc" />
    <path
       sodipodi:nodetypes="cc"
       inkscape:connector-curvature="0"
       id="path4179"
       d="m 20.247939,252.67586 4.686659,2.82329"
       style="opacity:1;fill:none;fill-rule:evenodd;stroke:#009fe3;stroke-width:1.58104146;stroke-linecap:round;stroke-linejoin:miter;stroke-miterlimit:4;stroke-dasharray:none;stroke-opacity:1" />
    <path
       style="opacity:1;fill:#009fe3;fill-opacity:1;fill-rule:evenodd;stroke:none;stroke-width:0.02260033px;stroke-linecap:butt;stroke-linejoin:miter;stroke-opacity:1"
       d="m 29.818884,235.5385 c 0,2.21109 0.0051,2.20036 0.0091,5.46509 6.59e-4,0.50663 0.346549,0.71187 0.643508,0.69234 0.933007,-0.0614 1.15403,-0.39135 1.788361,-1.00577 0.656273,-0.63568 0.06725,-0.0996 1.089118,-1.14143 0.301085,-0.30696 0.77523,-0.61151 1.151198,-0.61818 0.300264,-0.005 0.367215,8.2e-4 0.605646,0.0382 -0.07877,-0.66517 -0.373574,-1.20888 -0.807995,-1.72753 -0.262041,-0.31285 -0.538723,-0.59184 -0.828864,-0.87644 -0.989412,-0.82451 -2.089328,-1.31971 -3.039879,-1.391 -0.299397,0.0249 -0.575171,0.13851 -0.610195,0.56468 z"
       id="path4171"
       inkscape:connector-curvature="0"
       sodipodi:nodetypes="cssssscsccc" />
    <circle
       r="4.2349319"
       cy="235.82083"
       cx="23.607656"
       id="circle4163"
       style="opacity:1;fill:#ffffff;fill-opacity:1;stroke-width:0.02260033" />
    <circle
       r="2.4844937"
       cy="235.82083"
       cx="23.607656"
       id="circle4165"
       style="opacity:1;fill:#009fe3;fill-opacity:1;stroke-width:0.02260033" />
    <circle
       style="opacity:1;fill:#ffffff;fill-opacity:1;stroke-width:0.02260033"
       id="path4161"
       cx="24.454641"
       cy="235.08678"
       r="0.79052055" />
  </g>
</svg>
