<?xml version="1.0" encoding="UTF-8" standalone="no"?>
<!-- Created with Inkscape (http://www.inkscape.org/) -->

<svg
   xmlns:dc="http://purl.org/dc/elements/1.1/"
   xmlns:cc="http://creativecommons.org/ns#"
   xmlns:rdf="http://www.w3.org/1999/02/22-rdf-syntax-ns#"
   xmlns:svg="http://www.w3.org/2000/svg"
   xmlns="http://www.w3.org/2000/svg"
   xmlns:xlink="http://www.w3.org/1999/xlink"
   xmlns:sodipodi="http://sodipodi.sourceforge.net/DTD/sodipodi-0.dtd"
   xmlns:inkscape="http://www.inkscape.org/namespaces/inkscape"
   width="500"
   height="330"
   id="svg2"
   sodipodi:version="0.32"
   inkscape:version="0.47 r22583"
   version="1.0"
   sodipodi:docname="splash.svg"
   inkscape:export-filename="C:\ws\fips\org.faktorips.devtools.core\splash.png"
   inkscape:export-xdpi="90"
   inkscape:export-ydpi="90"
   inkscape:output_extension="org.inkscape.output.svg.inkscape">
  <defs
     id="defs4">
    <inkscape:perspective
       sodipodi:type="inkscape:persp3d"
       inkscape:vp_x="0 : 165 : 1"
       inkscape:vp_y="0 : 1000 : 0"
       inkscape:vp_z="500 : 165 : 1"
       inkscape:persp3d-origin="250 : 110 : 1"
       id="perspective141" />
    <linearGradient
       inkscape:collect="always"
       id="linearGradient22014">
      <stop
         style="stop-color:white;stop-opacity:1;"
         offset="0"
         id="stop22016" />
      <stop
         style="stop-color:white;stop-opacity:0;"
         offset="1"
         id="stop22018" />
    </linearGradient>
    <linearGradient
       id="linearGradient21092">
      <stop
         style="stop-color:white;stop-opacity:1;"
         offset="0"
         id="stop21094" />
      <stop
         style="stop-color:white;stop-opacity:0;"
         offset="1"
         id="stop21096" />
    </linearGradient>
    <linearGradient
       id="linearGradient4756">
      <stop
         style="stop-color:#e3e6f5;stop-opacity:0;"
         offset="0"
         id="stop4758" />
      <stop
         style="stop-color:#3c50a0;stop-opacity:0.76774192;"
         offset="1"
         id="stop4762" />
    </linearGradient>
    <linearGradient
       id="linearGradient4740">
      <stop
         id="stop4742"
         offset="0"
         style="stop-color:#e3e6f5;stop-opacity:0;" />
      <stop
         style="stop-color:#acb6e0;stop-opacity:0;"
         offset="0.5321101"
         id="stop4746" />
      <stop
         id="stop4744"
         offset="1"
         style="stop-color:#3c50a0;stop-opacity:0.76774192;" />
    </linearGradient>
    <linearGradient
       id="linearGradient4669">
      <stop
         style="stop-color:#e3e6f5;stop-opacity:1;"
         offset="0"
         id="stop4671" />
      <stop
         style="stop-color:#7586cb;stop-opacity:1;"
         offset="1"
         id="stop4673" />
    </linearGradient>
    <linearGradient
       id="linearGradient4661">
      <stop
         style="stop-color:#e8eaf6;stop-opacity:1;"
         offset="0"
         id="stop4663" />
      <stop
         style="stop-color:#a0abdb;stop-opacity:1;"
         offset="1"
         id="stop4665" />
    </linearGradient>
    <radialGradient
       inkscape:collect="always"
       xlink:href="#linearGradient4669"
       id="radialGradient16539"
       gradientUnits="userSpaceOnUse"
       cx="213.65384"
       cy="112.82052"
       fx="213.65384"
       fy="112.82052"
       r="113.67308" />
    <radialGradient
       inkscape:collect="always"
       xlink:href="#linearGradient4740"
       id="radialGradient16541"
       gradientUnits="userSpaceOnUse"
       cx="241.15384"
       cy="150.54488"
       fx="241.15384"
       fy="150.54488"
       r="113.67308" />
    <linearGradient
       inkscape:collect="always"
       xlink:href="#linearGradient21092"
       id="linearGradient21098"
       x1="160"
       y1="127.5"
       x2="163.46794"
       y2="90.21154"
       gradientUnits="userSpaceOnUse"
       gradientTransform="translate(0.499999,4.66e-3)" />
    <linearGradient
       inkscape:collect="always"
       xlink:href="#linearGradient21092"
       id="linearGradient21102"
       gradientUnits="userSpaceOnUse"
       x1="160"
       y1="127.5"
       x2="163.46794"
       y2="90.21154"
       gradientTransform="matrix(0.996979,0,0,-1,0.983388,255.0378)" />
    <linearGradient
       inkscape:collect="always"
       xlink:href="#linearGradient21092"
       id="linearGradient21106"
       gradientUnits="userSpaceOnUse"
       gradientTransform="matrix(0.487915,0,0,-1,82.43354,255.0378)"
       x1="160"
       y1="127.5"
       x2="163.46794"
       y2="90.21154" />
    <linearGradient
       inkscape:collect="always"
       xlink:href="#linearGradient21092"
       id="linearGradient21121"
       gradientUnits="userSpaceOnUse"
       gradientTransform="translate(0.499999,4.66e-3)"
       x1="160"
       y1="127.5"
       x2="163.46794"
       y2="90.21154" />
    <linearGradient
       inkscape:collect="always"
       xlink:href="#linearGradient21092"
       id="linearGradient21123"
       gradientUnits="userSpaceOnUse"
       gradientTransform="matrix(0.996979,0,0,-1,0.983388,255.0378)"
       x1="160"
       y1="127.5"
       x2="163.46794"
       y2="90.21154" />
    <linearGradient
       inkscape:collect="always"
       xlink:href="#linearGradient21092"
       id="linearGradient21125"
       gradientUnits="userSpaceOnUse"
       gradientTransform="matrix(0.487915,0,0,-1,82.43354,255.0378)"
       x1="160"
       y1="127.5"
       x2="163.46794"
       y2="90.21154" />
    <radialGradient
       inkscape:collect="always"
       xlink:href="#linearGradient22014"
       id="radialGradient22020"
       cx="160.41667"
       cy="127.6282"
       fx="160.41667"
       fy="127.6282"
       r="42.307693"
       gradientTransform="matrix(1,0,0,0.2,0,102.1026)"
       gradientUnits="userSpaceOnUse" />
    <linearGradient
       inkscape:collect="always"
       xlink:href="#linearGradient21092"
       id="linearGradient22053"
       gradientUnits="userSpaceOnUse"
       gradientTransform="translate(0.499999,4.66e-3)"
       x1="160"
       y1="127.5"
       x2="163.46794"
       y2="90.21154" />
    <linearGradient
       inkscape:collect="always"
       xlink:href="#linearGradient21092"
       id="linearGradient22055"
       gradientUnits="userSpaceOnUse"
       gradientTransform="matrix(0.996979,0,0,-1,0.983388,255.0378)"
       x1="160"
       y1="127.5"
       x2="163.46794"
       y2="90.21154" />
    <linearGradient
       inkscape:collect="always"
       xlink:href="#linearGradient21092"
       id="linearGradient22057"
       gradientUnits="userSpaceOnUse"
       gradientTransform="matrix(0.487915,0,0,-1,82.43354,255.0378)"
       x1="160"
       y1="127.5"
       x2="163.46794"
       y2="90.21154" />
    <linearGradient
       inkscape:collect="always"
       xlink:href="#linearGradient21092"
       id="linearGradient22059"
       gradientUnits="userSpaceOnUse"
       gradientTransform="translate(0.499999,4.66e-3)"
       x1="160"
       y1="127.5"
       x2="163.46794"
       y2="90.21154" />
    <linearGradient
       inkscape:collect="always"
       xlink:href="#linearGradient21092"
       id="linearGradient22061"
       gradientUnits="userSpaceOnUse"
       gradientTransform="matrix(0.996979,0,0,-1,0.983388,255.0378)"
       x1="160"
       y1="127.5"
       x2="163.46794"
       y2="90.21154" />
    <linearGradient
       inkscape:collect="always"
       xlink:href="#linearGradient21092"
       id="linearGradient22063"
       gradientUnits="userSpaceOnUse"
       gradientTransform="matrix(0.487915,0,0,-1,82.43354,255.0378)"
       x1="160"
       y1="127.5"
       x2="163.46794"
       y2="90.21154" />
    <radialGradient
       inkscape:collect="always"
       xlink:href="#linearGradient22014"
       id="radialGradient22065"
       gradientUnits="userSpaceOnUse"
       gradientTransform="matrix(1,0,0,0.2,0,102.1026)"
       cx="160.41667"
       cy="127.6282"
       fx="160.41667"
       fy="127.6282"
       r="42.307693" />
    <linearGradient
       inkscape:collect="always"
       xlink:href="#linearGradient21092"
       id="linearGradient22131"
       gradientUnits="userSpaceOnUse"
       gradientTransform="translate(0.499999,4.66e-3)"
       x1="160"
       y1="127.5"
       x2="163.46794"
       y2="90.21154" />
    <linearGradient
       inkscape:collect="always"
       xlink:href="#linearGradient21092"
       id="linearGradient22133"
       gradientUnits="userSpaceOnUse"
       gradientTransform="matrix(0.996979,0,0,-1,0.983388,255.0378)"
       x1="160"
       y1="127.5"
       x2="163.46794"
       y2="90.21154" />
    <linearGradient
       inkscape:collect="always"
       xlink:href="#linearGradient21092"
       id="linearGradient22135"
       gradientUnits="userSpaceOnUse"
       gradientTransform="matrix(0.487915,0,0,-1,82.43354,255.0378)"
       x1="160"
       y1="127.5"
       x2="163.46794"
       y2="90.21154" />
    <linearGradient
       inkscape:collect="always"
       xlink:href="#linearGradient21092"
       id="linearGradient22137"
       gradientUnits="userSpaceOnUse"
       gradientTransform="translate(0.499999,4.66e-3)"
       x1="160"
       y1="127.5"
       x2="163.46794"
       y2="90.21154" />
    <linearGradient
       inkscape:collect="always"
       xlink:href="#linearGradient21092"
       id="linearGradient22139"
       gradientUnits="userSpaceOnUse"
       gradientTransform="matrix(0.996979,0,0,-1,0.983388,255.0378)"
       x1="160"
       y1="127.5"
       x2="163.46794"
       y2="90.21154" />
    <linearGradient
       inkscape:collect="always"
       xlink:href="#linearGradient21092"
       id="linearGradient22141"
       gradientUnits="userSpaceOnUse"
       gradientTransform="matrix(0.487915,0,0,-1,82.43354,255.0378)"
       x1="160"
       y1="127.5"
       x2="163.46794"
       y2="90.21154" />
    <radialGradient
       inkscape:collect="always"
       xlink:href="#linearGradient22014"
       id="radialGradient22143"
       gradientUnits="userSpaceOnUse"
       gradientTransform="matrix(1,0,0,0.2,0,102.1026)"
       cx="160.41667"
       cy="127.6282"
       fx="160.41667"
       fy="127.6282"
       r="42.307693" />
    <linearGradient
       inkscape:collect="always"
       xlink:href="#linearGradient21092"
       id="linearGradient22145"
       gradientUnits="userSpaceOnUse"
       gradientTransform="translate(0.499999,4.66e-3)"
       x1="160"
       y1="127.5"
       x2="163.46794"
       y2="90.21154" />
    <linearGradient
       inkscape:collect="always"
       xlink:href="#linearGradient21092"
       id="linearGradient22147"
       gradientUnits="userSpaceOnUse"
       gradientTransform="matrix(0.996979,0,0,-1,0.983388,255.0378)"
       x1="160"
       y1="127.5"
       x2="163.46794"
       y2="90.21154" />
    <linearGradient
       inkscape:collect="always"
       xlink:href="#linearGradient21092"
       id="linearGradient22149"
       gradientUnits="userSpaceOnUse"
       gradientTransform="matrix(0.487915,0,0,-1,82.43354,255.0378)"
       x1="160"
       y1="127.5"
       x2="163.46794"
       y2="90.21154" />
    <linearGradient
       inkscape:collect="always"
       xlink:href="#linearGradient21092"
       id="linearGradient22151"
       gradientUnits="userSpaceOnUse"
       gradientTransform="translate(0.499999,4.66e-3)"
       x1="160"
       y1="127.5"
       x2="163.46794"
       y2="90.21154" />
    <linearGradient
       inkscape:collect="always"
       xlink:href="#linearGradient21092"
       id="linearGradient22153"
       gradientUnits="userSpaceOnUse"
       gradientTransform="matrix(0.996979,0,0,-1,0.983388,255.0378)"
       x1="160"
       y1="127.5"
       x2="163.46794"
       y2="90.21154" />
    <linearGradient
       inkscape:collect="always"
       xlink:href="#linearGradient21092"
       id="linearGradient22155"
       gradientUnits="userSpaceOnUse"
       gradientTransform="matrix(0.487915,0,0,-1,82.43354,255.0378)"
       x1="160"
       y1="127.5"
       x2="163.46794"
       y2="90.21154" />
    <radialGradient
       inkscape:collect="always"
       xlink:href="#linearGradient22014"
       id="radialGradient22157"
       gradientUnits="userSpaceOnUse"
       gradientTransform="matrix(1,0,0,0.2,0,102.1026)"
       cx="160.41667"
       cy="127.6282"
       fx="160.41667"
       fy="127.6282"
       r="42.307693" />
  </defs>
  <sodipodi:namedview
     id="base"
     pagecolor="#ffffff"
     bordercolor="#666666"
     borderopacity="1.0"
     inkscape:pageopacity="0.0"
     inkscape:pageshadow="2"
     inkscape:zoom="1.5553203"
     inkscape:cx="337.80272"
     inkscape:cy="139.62861"
     inkscape:document-units="px"
     inkscape:current-layer="layer1"
     width="500px"
     height="330px"
     inkscape:window-width="1920"
     inkscape:window-height="1065"
     inkscape:window-x="0"
     inkscape:window-y="66"
     showguides="true"
     inkscape:guide-bbox="true"
     borderlayer="true"
     showgrid="false"
     inkscape:window-maximized="0">
    <sodipodi:guide
       orientation="horizontal"
       position="78"
       id="guide20186" />
    <sodipodi:guide
       orientation="vertical"
       position="78"
       id="guide20188" />
    <sodipodi:guide
       orientation="vertical"
       position="322"
       id="guide20190" />
    <sodipodi:guide
       orientation="horizontal"
       position="202.49534"
       id="guide20192" />
    <sodipodi:guide
       orientation="vertical"
       position="160.5"
       id="guide20194" />
    <sodipodi:guide
       orientation="horizontal"
       position="211.5"
       id="guide20196" />
    <sodipodi:guide
       orientation="horizontal"
       position="193.51249"
       id="guide20198" />
    <sodipodi:guide
       orientation="vertical"
       position="11"
       id="guide20200" />
    <sodipodi:guide
       orientation="vertical"
       position="490.5"
       id="guide20202" />
    <sodipodi:guide
       orientation="1,0"
       position="159.6938,138.59686"
       id="guide3299" />
    <sodipodi:guide
       orientation="0,1"
       position="163.85291,136.52735"
       id="guide3301" />
    <sodipodi:guide
       orientation="0,1"
       position="162.00441,120.91059"
       id="guide3303" />
    <sodipodi:guide
       orientation="0,1"
       position="161.04501,169.84042"
       id="guide3305" />
  </sodipodi:namedview>
  <metadata
     id="metadata7">
    <rdf:RDF>
      <cc:Work
         rdf:about="">
        <dc:format>image/svg+xml</dc:format>
        <dc:type
           rdf:resource="http://purl.org/dc/dcmitype/StillImage" />
        <dc:title />
      </cc:Work>
    </rdf:RDF>
  </metadata>
  <g
     inkscape:label="Ebene 1"
     inkscape:groupmode="layer"
     id="layer1">
    <rect
       style="fill:white;fill-opacity:1;stroke:white;stroke-width:32;stroke-miterlimit:4;stroke-dasharray:none;stroke-opacity:1"
       id="rect12628"
       width="499.58334"
       height="330.35257"
       x="-0.3525641"
       y="5.6843419e-014" />
    <image
       sodipodi:absref="C:\ws\fips\org.faktorips.devtools.core\icons\splashbg.jpg"
       xlink:href="icons\splashbg.jpg"
       y="0.0023006205"
       x="-0.0020940709"
       id="image18403"
       height="330"
       width="500" />
    <g
       id="g16535"
       transform="translate(-42.30769,7.75641)"
       style="stroke:white;stroke-opacity:0.33000001;stroke-linejoin:round;stroke-linecap:round;stroke-width:5;stroke-miterlimit:4;stroke-dasharray:none">
      <path
         d="m 354.32692,150.54488 c 0,62.50376 -50.66931,113.17308 -113.17308,113.17308 -62.50377,0 -113.17308,-50.66932 -113.17308,-113.17308 0,-62.50377 50.66931,-113.173084 113.17308,-113.173084 62.50377,0 113.17308,50.669314 113.17308,113.173084 z"
         sodipodi:ry="113.17308"
         sodipodi:rx="113.17308"
         sodipodi:cy="150.54488"
         sodipodi:cx="241.15384"
         id="path3774"
         style="opacity:1;fill:url(#radialGradient16539);fill-opacity:1;fill-rule:nonzero;stroke:white;stroke-opacity:0.33000001;stroke-linejoin:round;stroke-linecap:round;stroke-width:5;stroke-miterlimit:4;stroke-dasharray:none"
         sodipodi:type="arc" />
      <path
         sodipodi:type="arc"
         style="opacity:1;fill:url(#radialGradient16541);fill-opacity:1;fill-rule:nonzero;stroke:white;stroke-opacity:0.33000001;stroke-linejoin:round;stroke-linecap:round;stroke-width:5;stroke-miterlimit:4;stroke-dasharray:none"
         id="path4748"
         sodipodi:cx="241.15384"
         sodipodi:cy="150.54488"
         sodipodi:rx="113.17308"
         sodipodi:ry="113.17308"
         d="m 354.32692,150.54488 c 0,62.50376 -50.66931,113.17308 -113.17308,113.17308 -62.50377,0 -113.17308,-50.66932 -113.17308,-113.17308 0,-62.50377 50.66931,-113.173084 113.17308,-113.173084 62.50377,0 113.17308,50.669314 113.17308,113.173084 z" />
    </g>
    <g
       style="stroke:#576bbf;stroke-opacity:0.5;stroke-linejoin:round;stroke-linecap:round;stroke-width:1;stroke-miterlimit:4;stroke-dasharray:none"
       transform="translate(-42.30769,7.75641)"
       id="g17428">
      <path
         sodipodi:type="arc"
         style="opacity:1;fill:url(#radialGradient16539);fill-opacity:1;fill-rule:nonzero;stroke:#576bbf;stroke-opacity:0.5;stroke-linejoin:round;stroke-linecap:round;stroke-width:1;stroke-miterlimit:4;stroke-dasharray:none"
         id="path17430"
         sodipodi:cx="241.15384"
         sodipodi:cy="150.54488"
         sodipodi:rx="113.17308"
         sodipodi:ry="113.17308"
         d="m 354.32692,150.54488 c 0,62.50376 -50.66931,113.17308 -113.17308,113.17308 -62.50377,0 -113.17308,-50.66932 -113.17308,-113.17308 0,-62.50377 50.66931,-113.173084 113.17308,-113.173084 62.50377,0 113.17308,50.669314 113.17308,113.173084 z" />
      <path
         d="m 354.32692,150.54488 c 0,62.50376 -50.66931,113.17308 -113.17308,113.17308 -62.50377,0 -113.17308,-50.66932 -113.17308,-113.17308 0,-62.50377 50.66931,-113.173084 113.17308,-113.173084 62.50377,0 113.17308,50.669314 113.17308,113.173084 z"
         sodipodi:ry="113.17308"
         sodipodi:rx="113.17308"
         sodipodi:cy="150.54488"
         sodipodi:cx="241.15384"
         id="path17432"
         style="opacity:1;fill:url(#radialGradient16541);fill-opacity:1;fill-rule:nonzero;stroke:#576bbf;stroke-opacity:0.5;stroke-linejoin:round;stroke-linecap:round;stroke-width:1;stroke-miterlimit:4;stroke-dasharray:none"
         sodipodi:type="arc" />
    </g>
    <text
       xml:space="preserve"
       style="font-size:12px;font-style:normal;font-weight:normal;fill:#000000;fill-opacity:1;stroke:none;font-family:Bitstream Vera Sans"
       x="71"
       y="300"
       id="text19291"><tspan
         sodipodi:role="line"
         id="tspan19293"
         x="71"
         y="300"
         style="font-size:12px;font-family:MetaMedium-Caps">Copyright (c) 2005-2010 Faktor Zehn AG and others. All rights reserved.</tspan><tspan
         sodipodi:role="line"
         x="71"
         y="315"
         id="tspan19295"
         style="font-size:12px;font-family:MetaMedium-Caps">Visit http://www.faktorzehn.org or http://www.faktorips.org</tspan></text>
    <text
       xml:space="preserve"
       style="font-size:12px;font-style:normal;font-variant:normal;font-weight:normal;font-stretch:normal;text-align:end;line-height:125%;writing-mode:lr-tb;text-anchor:end;fill:#ffffff;fill-opacity:1;stroke:none;font-family:Bitstream Vera Sans"
       x="491.30273"
       y="252"
       id="text19297"
       sodipodi:linespacing="125%"><tspan
         sodipodi:role="line"
         id="tspan2003"
         x="491.30273"
         y="252">Version 2.6</tspan></text>
    <path
       style="font-size:12px;font-style:normal;font-weight:normal;opacity:0.09899998;fill:black;fill-opacity:1;stroke:black;stroke-width:8;stroke-linecap:round;stroke-linejoin:round;stroke-miterlimit:4;stroke-opacity:0.5;font-family:Bitstream Vera Sans"
       d="M 282.43429,138.15144 C 268.88723,138.15156 257.63166,141.19018 249.46554,147.99519 C 241.28672,154.81098 237.18427,164.94203 237.18429,176.71394 C 237.18428,186.24763 240.16009,194.69583 246.21554,200.83894 C 252.25917,206.97024 261.06795,210.81853 272.24679,213.21394 L 282.65304,215.55769 C 288.60623,216.87094 292.68786,218.87799 292.90304,219.05769 C 293.73936,219.75618 293.93425,219.9585 293.93429,222.05769 C 293.93426,224.17911 293.90873,224.25374 292.02804,225.43269 C 290.35012,226.48452 286.87386,227.46396 281.65304,227.46394 C 276.47436,227.46397 270.97646,226.63437 265.18429,224.96394 C 259.38372,223.29114 253.32291,220.79683 246.93429,217.40144 C 245.17646,216.4689 242.86443,216.45104 241.05929,217.52644 C 239.25411,218.60186 238.14026,220.47159 238.12179,222.65144 C 238.12175,222.66186 238.12175,222.67227 238.12179,222.68269 L 238.12179,245.55769 C 238.11129,248.03564 239.65319,250.2608 241.96554,251.15144 C 241.98628,251.16204 242.00712,251.17246 242.02804,251.18269 C 249.04036,253.78169 256.05278,255.72889 263.09054,257.05769 C 270.14766,258.39017 277.2084,259.05769 284.24679,259.05769 C 299.14812,259.0577 311.10956,256.16951 319.52804,249.24519 C 327.97071,242.30082 332.02793,231.53079 332.02804,218.74519 C 332.02794,208.79462 329.06271,200.13262 322.80929,194.05769 C 316.5648,187.99177 307.20883,184.27254 294.93429,181.80769 L 283.40304,179.46394 C 278.35195,178.42789 274.92728,176.87406 274.46554,176.52644 C 273.59819,175.87353 273.74676,176.27531 273.74679,174.74519 C 273.74678,172.42629 273.66595,172.63363 275.37179,171.65144 C 276.82422,170.81522 280.82304,169.77652 286.71554,169.77644 C 291.05615,169.77651 295.74979,170.33949 300.84054,171.55769 C 305.92269,172.77402 311.21977,174.61432 316.68429,177.05769 C 318.57585,177.89838 320.68401,177.70789 322.37179,176.62019 C 324.0596,175.5325 325.10666,173.5975 325.12179,171.62019 C 325.12183,171.60977 325.12183,171.59936 325.12179,171.58894 L 325.12179,149.37019 C 325.13418,146.67923 323.30976,144.30389 320.71554,143.58894 C 320.70518,143.57847 320.69476,143.56805 320.68429,143.55769 C 313.96562,141.76939 307.41733,140.40011 301.05929,139.49519 C 294.70129,138.59052 288.49686,138.15155 282.43429,138.15144 z M 86.465545,140.05769 C 86.392354,140.06609 86.31941,140.07651 86.246795,140.08894 C 83.225741,140.4216 80.885096,143.04966 80.903045,146.08894 L 80.903045,251.02644 C 80.903367,254.29245 83.637053,257.02611 86.903045,257.02644 L 113.96554,257.02644 C 117.2316,257.02614 119.96522,254.29246 119.96554,251.02644 L 119.96554,146.05769 C 119.96522,142.79167 117.23156,140.05802 113.96554,140.05769 L 87.121795,140.05769 C 87.048937,140.0537 86.975972,140.05902 86.903045,140.05769 C 86.75719,140.05503 86.611262,140.04971 86.465545,140.05769 z M 140.18429,140.05769 C 140.1111,140.06609 140.03816,140.07651 139.96554,140.08894 C 136.94449,140.4216 134.60385,143.04966 134.62179,146.08894 L 134.62179,251.02644 C 134.62212,254.29244 137.3558,257.02611 140.62179,257.02644 L 167.68429,257.02644 C 170.95036,257.02614 173.68397,254.29246 173.68429,251.02644 L 173.68429,220.62019 L 185.52804,220.62019 C 199.77975,220.62023 211.59285,217.43965 220.15304,210.33894 C 228.72782,203.22605 233.02792,192.64592 233.02804,180.30769 C 233.02793,168.01062 228.72821,157.42107 220.15304,150.30769 C 211.58788,143.20302 199.77362,140.0578 185.52804,140.05769 L 140.84054,140.05769 C 140.76768,140.0537 140.69472,140.05902 140.62179,140.05769 C 140.47594,140.05503 140.33001,140.04971 140.18429,140.05769 z M 173.68429,171.68269 L 182.65304,171.68269 C 186.95794,171.68276 189.34614,172.6411 190.84054,173.96394 C 192.37667,175.32386 193.12174,176.78961 193.12179,180.30769 C 193.12174,183.82939 192.40822,185.28206 190.84054,186.68269 C 189.32806,188.03401 186.93197,188.99523 182.65304,188.99519 L 173.68429,188.99519 L 173.68429,171.68269 z "
       id="path23103" />
    <path
       style="font-size:81.34132385px;font-style:normal;font-weight:bold;opacity:0.09917357;fill:black;fill-opacity:1;stroke:#020202;stroke-width:5;stroke-linecap:round;stroke-linejoin:round;stroke-miterlimit:4;stroke-opacity:0.5;font-family:MetaMedium-Caps"
       d="M 87.153045,58.575321 C 85.870845,58.704288 84.896705,59.786671 84.903045,61.075321 L 84.903045,61.575321 L 84.903045,117.88782 L 84.903045,118.38782 C 84.903185,119.76848 86.022395,120.88768 87.403045,120.88782 L 87.903045,120.88782 L 97.278045,120.88782 L 97.778045,120.88782 C 99.158695,120.88768 100.2779,119.76848 100.27804,118.38782 L 100.27804,117.88782 L 100.27804,95.075321 L 112.96554,95.075321 L 113.46554,95.075321 C 114.84619,95.075183 115.9654,93.955976 115.96554,92.575321 L 115.96554,92.075321 L 115.96554,84.512821 L 115.96554,84.012821 C 115.9654,82.632166 114.84619,81.512959 113.46554,81.512821 L 112.96554,81.512821 L 100.27804,81.512821 L 100.27804,72.231571 L 116.52804,72.231571 L 116.96554,72.231571 C 118.21053,72.227725 119.263,71.30848 119.43429,70.075321 L 119.49679,69.637821 L 120.65304,62.044071 C 120.66453,62.002679 120.67495,61.960999 120.68429,61.919071 L 120.74679,61.325321 C 120.81759,60.620164 120.59852,59.912218 120.12179,59.387821 C 119.64507,58.863423 118.95548,58.571846 118.24679,58.575321 L 117.68429,58.575321 L 87.903045,58.575321 L 87.403045,58.575321 C 87.319765,58.571152 87.236325,58.571152 87.153045,58.575321 z M 132.87179,70.700321 C 131.91287,70.802428 131.09815,71.446907 130.77804,72.356571 L 130.65304,72.700321 L 114.30929,116.82532 C 114.30922,116.83574 114.30922,116.84615 114.30929,116.85657 L 114.05929,117.54407 C 113.78541,118.30829 113.90583,119.16055 114.37179,119.82532 C 114.83776,120.49009 115.59123,120.8846 116.40304,120.88782 L 117.12179,120.88782 L 126.65304,120.88782 L 126.99679,120.88782 C 128.04866,120.88372 128.98547,120.22171 129.34054,119.23157 L 129.46554,118.88782 L 132.49679,110.29407 L 143.34054,110.29407 L 146.43429,118.88782 L 146.55929,119.23157 C 146.91436,120.22171 147.85117,120.88372 148.90304,120.88782 L 149.24679,120.88782 L 159.09054,120.88782 L 159.80929,120.88782 C 160.6211,120.8846 161.37458,120.49009 161.84054,119.82532 C 162.30649,119.16055 162.42692,118.30829 162.15304,117.54407 L 161.90304,116.85657 L 146.30929,72.700321 L 146.18429,72.356571 C 145.82922,71.366435 144.89241,70.704421 143.84054,70.700321 L 143.46554,70.700321 L 133.46554,70.700321 L 133.12179,70.700321 C 133.03851,70.696152 132.95507,70.696152 132.87179,70.700321 z M 263.12179,70.700321 C 259.6959,70.70037 256.50572,71.301268 253.62179,72.575321 C 250.77942,73.831152 248.31147,75.646247 246.34054,77.950321 C 244.37892,80.243692 242.89067,82.983999 241.87179,86.106571 C 240.92356,89.012925 240.50463,92.1805 240.43429,95.544071 C 240.39223,95.728601 240.37127,95.91731 240.37179,96.106571 L 240.37179,96.450321 C 240.37182,100.1497 240.87447,103.61461 241.93429,106.76282 C 242.98692,109.88944 244.53212,112.62616 246.55929,114.91907 C 248.57811,117.20245 251.01578,118.98276 253.80929,120.23157 C 256.63923,121.49665 259.77894,122.13782 263.12179,122.13782 C 266.54718,122.13782 269.7502,121.52914 272.62179,120.29407 C 275.47454,119.06713 277.95328,117.26749 279.93429,114.95032 C 281.90442,112.6459 283.35728,109.90049 284.37179,106.79407 C 285.39664,103.656 285.90305,100.19861 285.90304,96.450321 C 285.90303,92.701714 285.40233,89.227322 284.34054,86.075321 C 283.28725,82.948595 281.74281,80.21208 279.71554,77.919071 C 277.70522,75.645307 275.27498,73.831295 272.46554,72.575321 C 269.61264,71.300015 266.44743,70.700371 263.12179,70.700321 z M 294.52804,70.731571 C 293.24584,70.860537 292.2717,71.94292 292.27804,73.231571 L 292.27804,73.731571 L 292.27804,107.35657 L 288.02804,107.35657 L 287.52804,107.35657 C 286.14739,107.35671 285.02818,108.47592 285.02804,109.85657 L 285.02804,110.35657 L 285.02804,117.98157 L 285.02804,118.48157 C 285.02818,119.86223 286.14739,120.98143 287.52804,120.98157 L 288.02804,120.98157 L 313.18429,120.98157 L 313.68429,120.98157 C 315.06494,120.98143 316.18415,119.86223 316.18429,118.48157 L 316.18429,117.98157 L 316.18429,110.35657 L 316.18429,109.85657 C 316.18415,108.47592 315.06494,107.35671 313.68429,107.35657 L 313.18429,107.35657 L 307.37179,107.35657 L 307.37179,89.700321 C 307.72833,89.884361 308.07781,90.121542 308.43429,90.294071 C 310.26081,91.178134 312.18766,92.020295 314.15304,92.794071 C 314.17373,92.804778 314.19456,92.815196 314.21554,92.825321 L 314.65304,92.981571 C 315.89496,93.439825 317.27883,92.850653 317.80929,91.637821 L 317.99679,91.200321 L 320.24679,86.325321 C 320.26832,86.294544 320.28916,86.263287 320.30929,86.231571 L 320.46554,85.856571 C 320.88949,84.828817 320.58388,83.64458 319.71554,82.950321 L 319.40304,82.700321 C 319.37262,82.668248 319.34136,82.636987 319.30929,82.606571 L 303.65304,71.294071 C 303.59245,71.249607 303.52989,71.207898 303.46554,71.169071 L 303.30929,71.075321 C 302.92095,70.847461 302.47828,70.728698 302.02804,70.731571 L 301.87179,70.731571 L 295.27804,70.731571 L 294.77804,70.731571 C 294.69476,70.727402 294.61132,70.727402 294.52804,70.731571 z M 165.49679,70.856571 C 164.21459,70.985537 163.24045,72.06792 163.24679,73.356571 L 163.24679,73.856571 L 163.24679,117.88782 L 163.24679,118.38782 C 163.24693,119.76848 164.36614,120.88768 165.74679,120.88782 L 166.24679,120.88782 L 175.59054,120.88782 L 176.09054,120.88782 C 177.47119,120.88768 178.5904,119.76848 178.59054,118.38782 L 178.59054,117.88782 L 178.59054,104.32532 L 188.46554,119.26282 L 188.49679,119.32532 L 188.59054,119.51282 C 189.01825,120.36154 189.89016,120.89438 190.84054,120.88782 L 191.12179,120.88782 L 203.24679,120.88782 L 204.24679,120.88782 C 205.18812,120.89072 206.03666,120.35078 206.46554,119.51282 C 206.89442,118.67486 206.83093,117.68093 206.27804,116.91907 L 205.68429,116.10657 C 205.67387,116.10651 205.66346,116.10651 205.65304,116.10657 L 189.59054,94.262821 L 202.24679,78.137821 L 202.24679,81.262821 L 202.24679,81.762821 C 202.24693,83.143476 203.36614,84.262683 204.74679,84.262821 L 205.24679,84.262821 L 214.37179,84.262821 L 214.37179,117.88782 L 214.37179,118.38782 C 214.37193,119.76848 215.49114,120.88768 216.87179,120.88782 L 217.37179,120.88782 L 226.55929,120.88782 L 227.05929,120.88782 C 228.43994,120.88768 229.55915,119.76848 229.55929,118.38782 L 229.55929,117.88782 L 229.55929,84.262821 L 238.52804,84.262821 L 238.93429,84.262821 C 240.16903,84.26125 241.21773,83.358573 241.40304,82.137821 L 241.43429,81.887821 L 241.46554,81.762821 L 241.46554,81.731571 L 242.99679,74.512821 C 242.99686,74.502404 242.99686,74.491987 242.99679,74.481571 L 243.12179,73.856571 C 243.27143,73.123086 243.09385,72.375064 242.62179,71.794071 C 242.14973,71.213077 241.43287,70.86025 240.68429,70.856571 L 240.05929,70.856571 L 205.24679,70.856571 L 204.74679,70.856571 C 204.41462,70.854097 204.0853,70.917839 203.77804,71.044071 C 203.47078,70.917839 203.14146,70.854097 202.80929,70.856571 L 201.77804,70.856571 L 190.40304,70.856571 L 190.12179,70.856571 C 189.23179,70.859763 188.41058,71.335826 187.96554,72.106571 L 178.59054,85.200321 L 178.59054,73.856571 L 178.59054,73.356571 C 178.5904,71.975916 177.47119,70.856709 176.09054,70.856571 L 175.59054,70.856571 L 166.24679,70.856571 L 165.74679,70.856571 C 165.66351,70.852402 165.58007,70.852402 165.49679,70.856571 z M 263.21554,83.700321 C 265.76282,83.70035 266.74631,84.280007 267.77804,86.106571 C 268.86655,88.033686 269.6218,91.315376 269.62179,95.856571 C 269.62179,98.860174 269.42616,101.2881 269.05929,103.07532 C 268.68514,104.89813 268.12407,106.23426 267.59054,107.04407 C 267.01668,107.91514 266.49664,108.346 265.90304,108.60657 C 265.17669,108.92544 264.27791,109.10657 263.05929,109.10657 C 260.49493,109.10658 259.48857,108.52183 258.46554,106.73157 C 257.38083,104.83331 256.62184,101.57417 256.62179,97.044071 C 256.62181,94.05703 256.84116,91.643294 257.21554,89.794071 C 257.59045,87.94255 258.1532,86.599391 258.68429,85.794071 C 259.2762,84.896604 259.76383,84.484955 260.34054,84.231571 C 261.08542,83.904361 262.03202,83.700352 263.21554,83.700321 z M 138.05929,92.356571 L 139.49679,97.294071 L 136.59054,97.294071 L 138.05929,92.356571 z "
       id="path22163" />
    <g
       id="g22067">
      <g
         style="opacity:0.5"
         id="g22022">
        <g
           id="g21108">
          <path
             sodipodi:nodetypes="cccc"
             id="rect20204"
             d="M 160.5,118.50466 L 491.5,127.50466 L 160.5,127.50466 L 160.5,118.50466 z "
             style="fill:url(#linearGradient21098);fill-opacity:1;fill-rule:nonzero;stroke:none;stroke-width:1;stroke-linecap:round;stroke-linejoin:round;stroke-miterlimit:4;stroke-opacity:0.5" />
          <path
             style="fill:url(#linearGradient21102);fill-opacity:1;fill-rule:nonzero;stroke:none;stroke-width:1;stroke-linecap:round;stroke-linejoin:round;stroke-miterlimit:4;stroke-opacity:0.5;opacity:0.5"
             d="M 160.5,136.53781 L 490.5,127.53781 L 160.5,127.53781 L 160.5,136.53781 z "
             id="path21100"
             sodipodi:nodetypes="cccc" />
          <path
             sodipodi:nodetypes="cccc"
             id="path21104"
             d="M 160.5,136.53781 L 322,127.53781 L 160.5,127.53781 L 160.5,136.53781 z "
             style="opacity:0.5;fill:url(#linearGradient21106);fill-opacity:1;fill-rule:nonzero;stroke:none;stroke-width:1;stroke-linecap:round;stroke-linejoin:round;stroke-miterlimit:4;stroke-opacity:0.5" />
        </g>
        <g
           id="g21113"
           transform="matrix(-0.451662,0,0,-1,232.9918,255.0424)">
          <path
             style="fill:url(#linearGradient21121);fill-opacity:1;fill-rule:nonzero;stroke:none;stroke-width:1;stroke-linecap:round;stroke-linejoin:round;stroke-miterlimit:4;stroke-opacity:0.5"
             d="M 160.5,118.50466 L 491.5,127.50466 L 160.5,127.50466 L 160.5,118.50466 z "
             id="path21115"
             sodipodi:nodetypes="cccc" />
          <path
             sodipodi:nodetypes="cccc"
             id="path21117"
             d="M 160.5,136.53781 L 490.5,127.53781 L 160.5,127.53781 L 160.5,136.53781 z "
             style="opacity:0.5;fill:url(#linearGradient21123);fill-opacity:1;fill-rule:nonzero;stroke:none;stroke-width:1;stroke-linecap:round;stroke-linejoin:round;stroke-miterlimit:4;stroke-opacity:0.5" />
          <path
             style="opacity:0.5;fill:url(#linearGradient21125);fill-opacity:1;fill-rule:nonzero;stroke:none;stroke-width:1;stroke-linecap:round;stroke-linejoin:round;stroke-miterlimit:4;stroke-opacity:0.5"
             d="M 160.5,136.53781 L 322,127.53781 L 160.5,127.53781 L 160.5,136.53781 z "
             id="path21119"
             sodipodi:nodetypes="cccc" />
        </g>
        <path
           sodipodi:type="arc"
           style="opacity:1;fill:url(#radialGradient22020);fill-opacity:1.0;fill-rule:nonzero;stroke:none;stroke-width:1;stroke-linecap:round;stroke-linejoin:round;stroke-miterlimit:4;stroke-dasharray:none;stroke-opacity:0.5"
           id="path21127"
           sodipodi:cx="160.41667"
           sodipodi:cy="127.6282"
           sodipodi:rx="42.307693"
           sodipodi:ry="8.4615383"
           d="M 202.72437 127.6282 A 42.307693 8.4615383 0 1 1  118.10898,127.6282 A 42.307693 8.4615383 0 1 1  202.72437 127.6282 z" />
      </g>
      <g
         transform="matrix(1,0,0,-0.491678,0,190.2205)"
         id="g22033"
         style="opacity:0.5">
        <g
           id="g22035">
          <path
             style="fill:url(#linearGradient22053);fill-opacity:1;fill-rule:nonzero;stroke:none;stroke-width:1;stroke-linecap:round;stroke-linejoin:round;stroke-miterlimit:4;stroke-opacity:0.5"
             d="M 160.5,118.50466 L 491.5,127.50466 L 160.5,127.50466 L 160.5,118.50466 z "
             id="path22037"
             sodipodi:nodetypes="cccc" />
          <path
             sodipodi:nodetypes="cccc"
             id="path22039"
             d="M 160.5,136.53781 L 490.5,127.53781 L 160.5,127.53781 L 160.5,136.53781 z "
             style="opacity:0.5;fill:url(#linearGradient22055);fill-opacity:1;fill-rule:nonzero;stroke:none;stroke-width:1;stroke-linecap:round;stroke-linejoin:round;stroke-miterlimit:4;stroke-opacity:0.5" />
          <path
             style="opacity:0.5;fill:url(#linearGradient22057);fill-opacity:1;fill-rule:nonzero;stroke:none;stroke-width:1;stroke-linecap:round;stroke-linejoin:round;stroke-miterlimit:4;stroke-opacity:0.5"
             d="M 160.5,136.53781 L 322,127.53781 L 160.5,127.53781 L 160.5,136.53781 z "
             id="path22041"
             sodipodi:nodetypes="cccc" />
        </g>
        <g
           transform="matrix(-0.451662,0,0,-1,232.9918,255.0424)"
           id="g22043">
          <path
             sodipodi:nodetypes="cccc"
             id="path22045"
             d="M 160.5,118.50466 L 491.5,127.50466 L 160.5,127.50466 L 160.5,118.50466 z "
             style="fill:url(#linearGradient22059);fill-opacity:1;fill-rule:nonzero;stroke:none;stroke-width:1;stroke-linecap:round;stroke-linejoin:round;stroke-miterlimit:4;stroke-opacity:0.5" />
          <path
             style="opacity:0.5;fill:url(#linearGradient22061);fill-opacity:1;fill-rule:nonzero;stroke:none;stroke-width:1;stroke-linecap:round;stroke-linejoin:round;stroke-miterlimit:4;stroke-opacity:0.5"
             d="M 160.5,136.53781 L 490.5,127.53781 L 160.5,127.53781 L 160.5,136.53781 z "
             id="path22047"
             sodipodi:nodetypes="cccc" />
          <path
             sodipodi:nodetypes="cccc"
             id="path22049"
             d="M 160.5,136.53781 L 322,127.53781 L 160.5,127.53781 L 160.5,136.53781 z "
             style="opacity:0.5;fill:url(#linearGradient22063);fill-opacity:1;fill-rule:nonzero;stroke:none;stroke-width:1;stroke-linecap:round;stroke-linejoin:round;stroke-miterlimit:4;stroke-opacity:0.5" />
        </g>
        <path
           d="m 202.72437,127.6282 c 0,4.67318 -18.9418,8.46154 -42.3077,8.46154 -23.36589,0 -42.30769,-3.78836 -42.30769,-8.46154 0,-4.67318 18.9418,-8.46154 42.30769,-8.46154 23.3659,0 42.3077,3.78836 42.3077,8.46154 z"
           sodipodi:ry="8.4615383"
           sodipodi:rx="42.307693"
           sodipodi:cy="127.6282"
           sodipodi:cx="160.41667"
           id="path22051"
           style="opacity:1;fill:url(#radialGradient22065);fill-opacity:1;fill-rule:nonzero;stroke:none;stroke-width:1;stroke-linecap:round;stroke-linejoin:round;stroke-miterlimit:4;stroke-dasharray:none;stroke-opacity:0.5"
           sodipodi:type="arc" />
      </g>
    </g>
    <g
       id="g22089"
       transform="matrix(0,0.585265,-0.585265,0,235.0799,33.57032)"
       style="opacity:0.5">
      <g
         id="g22091"
         style="opacity:0.5">
        <g
           id="g22093">
          <path
             style="fill:url(#linearGradient22131);fill-opacity:1;fill-rule:nonzero;stroke:none;stroke-width:1;stroke-linecap:round;stroke-linejoin:round;stroke-miterlimit:4;stroke-opacity:0.5"
             d="M 160.5,118.50466 L 491.5,127.50466 L 160.5,127.50466 L 160.5,118.50466 z "
             id="path22095"
             sodipodi:nodetypes="cccc" />
          <path
             sodipodi:nodetypes="cccc"
             id="path22097"
             d="M 160.5,136.53781 L 490.5,127.53781 L 160.5,127.53781 L 160.5,136.53781 z "
             style="opacity:0.5;fill:url(#linearGradient22133);fill-opacity:1;fill-rule:nonzero;stroke:none;stroke-width:1;stroke-linecap:round;stroke-linejoin:round;stroke-miterlimit:4;stroke-opacity:0.5" />
          <path
             style="opacity:0.5;fill:url(#linearGradient22135);fill-opacity:1;fill-rule:nonzero;stroke:none;stroke-width:1;stroke-linecap:round;stroke-linejoin:round;stroke-miterlimit:4;stroke-opacity:0.5"
             d="M 160.5,136.53781 L 322,127.53781 L 160.5,127.53781 L 160.5,136.53781 z "
             id="path22099"
             sodipodi:nodetypes="cccc" />
        </g>
        <g
           transform="matrix(-0.451662,0,0,-1,232.9918,255.0424)"
           id="g22101">
          <path
             sodipodi:nodetypes="cccc"
             id="path22103"
             d="M 160.5,118.50466 L 491.5,127.50466 L 160.5,127.50466 L 160.5,118.50466 z "
             style="fill:url(#linearGradient22137);fill-opacity:1;fill-rule:nonzero;stroke:none;stroke-width:1;stroke-linecap:round;stroke-linejoin:round;stroke-miterlimit:4;stroke-opacity:0.5" />
          <path
             style="opacity:0.5;fill:url(#linearGradient22139);fill-opacity:1;fill-rule:nonzero;stroke:none;stroke-width:1;stroke-linecap:round;stroke-linejoin:round;stroke-miterlimit:4;stroke-opacity:0.5"
             d="M 160.5,136.53781 L 490.5,127.53781 L 160.5,127.53781 L 160.5,136.53781 z "
             id="path22105"
             sodipodi:nodetypes="cccc" />
          <path
             sodipodi:nodetypes="cccc"
             id="path22107"
             d="M 160.5,136.53781 L 322,127.53781 L 160.5,127.53781 L 160.5,136.53781 z "
             style="opacity:0.5;fill:url(#linearGradient22141);fill-opacity:1;fill-rule:nonzero;stroke:none;stroke-width:1;stroke-linecap:round;stroke-linejoin:round;stroke-miterlimit:4;stroke-opacity:0.5" />
        </g>
        <path
           d="m 202.72437,127.6282 c 0,4.67318 -18.9418,8.46154 -42.3077,8.46154 -23.36589,0 -42.30769,-3.78836 -42.30769,-8.46154 0,-4.67318 18.9418,-8.46154 42.30769,-8.46154 23.3659,0 42.3077,3.78836 42.3077,8.46154 z"
           sodipodi:ry="8.4615383"
           sodipodi:rx="42.307693"
           sodipodi:cy="127.6282"
           sodipodi:cx="160.41667"
           id="path22109"
           style="opacity:1;fill:url(#radialGradient22143);fill-opacity:1;fill-rule:nonzero;stroke:none;stroke-width:1;stroke-linecap:round;stroke-linejoin:round;stroke-miterlimit:4;stroke-dasharray:none;stroke-opacity:0.5"
           sodipodi:type="arc" />
      </g>
      <g
         style="opacity:0.5"
         id="g22111"
         transform="matrix(1,0,0,-0.491678,0,190.2205)">
        <g
           id="g22113">
          <path
             sodipodi:nodetypes="cccc"
             id="path22115"
             d="M 160.5,118.50466 L 491.5,127.50466 L 160.5,127.50466 L 160.5,118.50466 z "
             style="fill:url(#linearGradient22145);fill-opacity:1;fill-rule:nonzero;stroke:none;stroke-width:1;stroke-linecap:round;stroke-linejoin:round;stroke-miterlimit:4;stroke-opacity:0.5" />
          <path
             style="opacity:0.5;fill:url(#linearGradient22147);fill-opacity:1;fill-rule:nonzero;stroke:none;stroke-width:1;stroke-linecap:round;stroke-linejoin:round;stroke-miterlimit:4;stroke-opacity:0.5"
             d="M 160.5,136.53781 L 490.5,127.53781 L 160.5,127.53781 L 160.5,136.53781 z "
             id="path22117"
             sodipodi:nodetypes="cccc" />
          <path
             sodipodi:nodetypes="cccc"
             id="path22119"
             d="M 160.5,136.53781 L 322,127.53781 L 160.5,127.53781 L 160.5,136.53781 z "
             style="opacity:0.5;fill:url(#linearGradient22149);fill-opacity:1;fill-rule:nonzero;stroke:none;stroke-width:1;stroke-linecap:round;stroke-linejoin:round;stroke-miterlimit:4;stroke-opacity:0.5" />
        </g>
        <g
           id="g22121"
           transform="matrix(-0.451662,0,0,-1,232.9918,255.0424)">
          <path
             style="fill:url(#linearGradient22151);fill-opacity:1;fill-rule:nonzero;stroke:none;stroke-width:1;stroke-linecap:round;stroke-linejoin:round;stroke-miterlimit:4;stroke-opacity:0.5"
             d="M 160.5,118.50466 L 491.5,127.50466 L 160.5,127.50466 L 160.5,118.50466 z "
             id="path22123"
             sodipodi:nodetypes="cccc" />
          <path
             sodipodi:nodetypes="cccc"
             id="path22125"
             d="M 160.5,136.53781 L 490.5,127.53781 L 160.5,127.53781 L 160.5,136.53781 z "
             style="opacity:0.5;fill:url(#linearGradient22153);fill-opacity:1;fill-rule:nonzero;stroke:none;stroke-width:1;stroke-linecap:round;stroke-linejoin:round;stroke-miterlimit:4;stroke-opacity:0.5" />
          <path
             style="opacity:0.5;fill:url(#linearGradient22155);fill-opacity:1;fill-rule:nonzero;stroke:none;stroke-width:1;stroke-linecap:round;stroke-linejoin:round;stroke-miterlimit:4;stroke-opacity:0.5"
             d="M 160.5,136.53781 L 322,127.53781 L 160.5,127.53781 L 160.5,136.53781 z "
             id="path22127"
             sodipodi:nodetypes="cccc" />
        </g>
        <path
           sodipodi:type="arc"
           style="opacity:1;fill:url(#radialGradient22157);fill-opacity:1;fill-rule:nonzero;stroke:none;stroke-width:1;stroke-linecap:round;stroke-linejoin:round;stroke-miterlimit:4;stroke-dasharray:none;stroke-opacity:0.5"
           id="path22129"
           sodipodi:cx="160.41667"
           sodipodi:cy="127.6282"
           sodipodi:rx="42.307693"
           sodipodi:ry="8.4615383"
           d="m 202.72437,127.6282 c 0,4.67318 -18.9418,8.46154 -42.3077,8.46154 -23.36589,0 -42.30769,-3.78836 -42.30769,-8.46154 0,-4.67318 18.9418,-8.46154 42.30769,-8.46154 23.3659,0 42.3077,3.78836 42.3077,8.46154 z" />
      </g>
    </g>
    <path
       style="font-size:12px;font-style:normal;font-weight:normal;fill:#ffffff;fill-opacity:0.75;stroke:#ffffff;stroke-width:8;stroke-linecap:round;stroke-linejoin:round;stroke-miterlimit:4;stroke-dasharray:none;stroke-opacity:0.5;font-family:Bitstream Vera Sans"
       d="M 276.45593,138.62258 C 263.50336,138.62269 253.27191,141.51038 246.04968,147.52883 C 238.83161,153.54397 235.20591,162.30154 235.20593,173.18508 C 235.20592,181.91653 237.83269,189.17336 243.08093,194.49758 C 248.3319,199.82473 256.3817,203.4795 267.11218,205.77883 L 277.54968,208.12258 C 283.79698,209.50071 287.90799,211.14752 289.48718,212.46633 C 291.15621,213.86031 291.95587,215.68092 291.95593,218.52883 C 291.95587,221.61248 290.84315,223.60604 288.17468,225.27883 C 285.51203,226.94794 281.35864,227.9351 275.67468,227.93508 C 270.06913,227.9351 264.21153,227.03785 258.11218,225.27883 C 252.00833,223.51857 245.67986,220.91099 239.08093,217.40383 C 238.46363,217.07635 237.72018,217.09477 237.11985,217.45241 C 236.51952,217.81005 236.14935,218.45507 236.14343,219.15383 L 236.14343,242.02883 C 236.13991,242.85919 236.6498,243.60537 237.42468,243.90383 C 244.22772,246.42525 251.04401,248.30399 257.86218,249.59133 C 264.68386,250.87935 271.48537,251.52883 278.26843,251.52883 C 292.64463,251.52883 303.63217,248.69789 311.01843,242.62258 C 318.4033,236.54827 322.04958,227.18988 322.04968,215.21633 C 322.04958,206.03154 319.41193,198.61303 314.04968,193.40383 C 308.67814,188.18591 300.05064,184.56989 288.17468,182.18508 L 276.64343,179.87258 C 271.28957,178.77443 267.67726,177.38689 266.08093,176.18508 C 264.45336,174.95991 263.76839,173.53445 263.76843,171.21633 C 263.7684,168.01643 264.82556,166.13235 267.39343,164.65383 C 269.96478,163.17341 274.45193,162.24766 280.73718,162.24758 C 285.43266,162.24766 290.44566,162.87263 295.79968,164.15383 C 301.15001,165.43435 306.66547,167.33936 312.33093,169.87258 C 312.94718,170.14647 313.65995,170.09139 314.2268,169.72608 C 314.79365,169.36078 315.13827,168.73443 315.14343,168.06008 L 315.14343,145.84133 C 315.14758,144.93791 314.54564,144.14386 313.67468,143.90383 C 307.0893,142.15101 300.69776,140.81456 294.51843,139.93508 C 288.33754,139.05561 282.32174,138.62269 276.45593,138.62258 z M 80.70593,140.52883 C 79.68761,140.64096 78.91863,141.50437 78.92468,142.52883 L 78.92468,247.49758 C 78.92479,248.6021 79.82016,249.49747 80.92468,249.49758 L 107.98718,249.49758 C 109.0917,249.49747 109.98707,248.6021 109.98718,247.49758 L 109.98718,142.52883 C 109.98707,141.42431 109.0917,140.52894 107.98718,140.52883 L 80.92468,140.52883 C 80.85182,140.52484 80.77879,140.52484 80.70593,140.52883 L 80.70593,140.52883 z M 134.42468,140.52883 C 133.40636,140.64096 132.63738,141.50437 132.64343,142.52883 L 132.64343,247.49758 C 132.64354,248.6021 133.53891,249.49747 134.64343,249.49758 L 161.70593,249.49758 C 162.81045,249.49747 163.70582,248.6021 163.70593,247.49758 L 163.70593,213.09133 L 179.54968,213.09133 C 193.20489,213.09137 203.99245,210.03692 211.61218,203.71633 C 219.22892,197.39815 223.04957,188.22713 223.04968,176.77883 C 223.04958,165.37569 219.2269,156.18924 211.61218,149.87258 C 203.99246,143.55214 193.20488,140.52894 179.54968,140.52883 L 134.64343,140.52883 C 134.57057,140.52484 134.49754,140.52484 134.42468,140.52883 L 134.42468,140.52883 z M 276.45593,142.62258 C 282.12125,142.62269 287.9492,143.04914 293.95593,143.90383 C 299.49044,144.69154 305.23718,145.88597 311.14343,147.40383 L 311.14343,165.09133 C 306.26215,163.06638 301.44467,161.4055 296.73718,160.27883 C 291.1223,158.93521 285.79159,158.24767 280.73718,158.24758 C 274.08482,158.24767 269.00949,159.10318 265.39343,161.18508 C 261.77371,163.26923 259.76839,166.91639 259.76843,171.21633 C 259.76838,174.52335 261.1303,177.45727 263.67468,179.37258 C 266.25013,181.31153 270.21595,182.62712 275.83093,183.77883 L 287.36218,186.12258 C 298.82981,188.42539 306.79606,191.93437 311.26843,196.27883 C 315.74973,200.63222 318.04959,206.7762 318.04968,215.21633 C 318.04958,226.39907 314.8365,234.30629 308.48718,239.52883 C 302.13889,244.75039 292.11085,247.52883 278.26843,247.52883 C 271.73889,247.52883 265.19667,246.92831 258.61218,245.68508 C 252.46155,244.52378 246.30697,242.80132 240.14343,240.59133 L 240.14343,222.34133 C 245.90189,225.20827 251.5473,227.54479 257.01843,229.12258 C 263.43462,230.97297 269.65515,231.9351 275.67468,231.93508 C 281.8031,231.9351 286.68096,230.92226 290.29968,228.65383 C 293.91232,226.38916 295.95585,222.75773 295.95593,218.52883 C 295.95585,214.8143 294.64615,211.57242 292.04968,209.40383 C 289.36311,207.16022 284.92726,205.65078 278.42468,204.21633 L 267.95593,201.87258 C 267.94551,201.8725 267.9351,201.8725 267.92468,201.87258 C 257.65509,199.67201 250.37679,196.20178 245.92468,191.68508 C 241.46975,187.16566 239.20592,181.14126 239.20593,173.18508 C 239.20591,163.16254 242.33022,155.82637 248.61218,150.59133 C 254.88988,145.35999 264.09593,142.62268 276.45593,142.62258 z M 82.92468,144.52883 L 105.98718,144.52883 L 105.98718,245.49758 L 82.92468,245.49758 L 82.92468,144.52883 z M 136.64343,144.52883 L 179.54968,144.52883 C 192.61308,144.52893 202.37236,147.4276 209.04968,152.96633 C 215.73163,158.50922 219.04958,166.24463 219.04968,176.77883 C 219.04958,187.3619 215.72962,195.11274 209.04968,200.65383 C 202.37235,206.19269 192.61307,209.09137 179.54968,209.09133 L 161.70593,209.09133 C 160.60141,209.09144 159.70604,209.98681 159.70593,211.09133 L 159.70593,245.49758 L 136.64343,245.49758 L 136.64343,144.52883 z M 161.48718,160.15383 C 160.46886,160.26596 159.69988,161.12937 159.70593,162.15383 L 159.70593,191.46633 C 159.70604,192.57085 160.60141,193.46622 161.70593,193.46633 L 176.67468,193.46633 C 182.24903,193.46639 186.86174,192.08251 190.17468,189.12258 C 193.4872,186.16302 195.14335,181.87304 195.14343,176.77883 C 195.14334,171.68475 193.49274,167.37254 190.17468,164.43508 C 186.86038,161.50128 182.24603,160.15392 176.67468,160.15383 L 161.70593,160.15383 C 161.63307,160.14984 161.56004,160.14984 161.48718,160.15383 z M 163.70593,164.15383 L 176.67468,164.15383 C 181.6032,164.15391 185.11384,165.30655 187.51843,167.43508 C 189.91898,169.56028 191.14336,172.49806 191.14343,176.77883 C 191.14336,181.05975 189.9245,183.97289 187.51843,186.12258 C 185.1125,188.27214 181.60019,189.46638 176.67468,189.46633 L 163.70593,189.46633 L 163.70593,164.15383 z"
       id="text13688" />
    <g
       transform="translate(-41.602556,13.750001)"
       id="g12795"
       style="stroke:#ffffff;stroke-width:5;stroke-linecap:round;stroke-linejoin:round;stroke-miterlimit:4;stroke-dasharray:none;stroke-opacity:0.5">
      <path
         style="font-size:81.34132385px;font-style:normal;font-weight:bold;fill:#000000;fill-opacity:1;stroke:#ffffff;stroke-width:5;stroke-linecap:round;stroke-linejoin:round;stroke-miterlimit:4;stroke-dasharray:none;stroke-opacity:0.5;font-family:MetaMedium-Caps"
         d="M 125.84375,45.5625 L 125.84375,46.0625 L 125.84375,102.375 L 125.84375,102.875 L 126.34375,102.875 L 135.71875,102.875 L 136.21875,102.875 L 136.21875,102.375 L 136.21875,77.0625 L 151.40625,77.0625 L 151.90625,77.0625 L 151.90625,76.5625 L 151.90625,69 L 151.90625,68.5 L 151.40625,68.5 L 136.21875,68.5 L 136.21875,54.21875 L 154.96875,54.21875 L 155.40625,54.21875 L 155.46875,53.78125 L 156.625,46.15625 L 156.6875,45.5625 L 156.125,45.5625 L 126.34375,45.5625 L 125.84375,45.5625 z M 171.5625,57.6875 L 171.4375,58.03125 L 155.09375,102.1875 L 154.84375,102.875 L 155.5625,102.875 L 165.09375,102.875 L 165.4375,102.875 L 165.5625,102.53125 L 169.1875,92.28125 L 183.53125,92.28125 L 187.21875,102.53125 L 187.34375,102.875 L 187.6875,102.875 L 197.53125,102.875 L 198.25,102.875 L 198,102.1875 L 182.40625,58.03125 L 182.28125,57.6875 L 181.90625,57.6875 L 171.90625,57.6875 L 171.5625,57.6875 z M 204.1875,57.84375 L 204.1875,58.34375 L 204.1875,102.375 L 204.1875,102.875 L 204.6875,102.875 L 214.03125,102.875 L 214.53125,102.875 L 214.53125,102.375 L 214.53125,80.5 L 229.15625,102.625 L 229.28125,102.875 L 229.5625,102.875 L 241.6875,102.875 L 242.6875,102.875 L 242.09375,102.0625 L 224.90625,78.6875 L 240.625,58.65625 L 241.25,57.84375 L 240.21875,57.84375 L 228.84375,57.84375 L 228.5625,57.84375 L 228.4375,58.0625 L 214.53125,77.46875 L 214.53125,58.34375 L 214.53125,57.84375 L 214.03125,57.84375 L 204.6875,57.84375 L 204.1875,57.84375 z M 243.1875,57.84375 L 243.1875,58.34375 L 243.1875,65.75 L 243.1875,66.25 L 243.6875,66.25 L 255.3125,66.25 L 255.3125,102.375 L 255.3125,102.875 L 255.8125,102.875 L 265,102.875 L 265.5,102.875 L 265.5,102.375 L 265.5,66.25 L 276.96875,66.25 L 277.375,66.25 L 277.4375,65.84375 L 279,58.46875 L 279.125,57.84375 L 278.5,57.84375 L 243.6875,57.84375 L 243.1875,57.84375 z M 176.53125,67.875 L 181.25,84.28125 L 171.6875,84.28125 L 176.53125,67.875 z"
         id="path12797" />
      <path
         style="font-size:14.26249504px;font-style:normal;font-weight:normal;fill:#576bbf;fill-opacity:1;stroke:#ffffff;stroke-width:5;stroke-linecap:round;stroke-linejoin:round;stroke-miterlimit:4;stroke-dasharray:none;stroke-opacity:0.5;font-family:Bitstream Vera Sans"
         d="M 333.21875,57.71875 L 333.21875,58.21875 L 333.21875,94.34375 L 326.46875,94.34375 L 325.96875,94.34375 L 325.96875,94.84375 L 325.96875,102.46875 L 325.96875,102.96875 L 326.46875,102.96875 L 351.625,102.96875 L 352.125,102.96875 L 352.125,102.46875 L 352.125,94.84375 L 352.125,94.34375 L 351.625,94.34375 L 343.3125,94.34375 L 343.3125,69.96875 C 344.88066,70.918343 346.44048,71.79159 347.96875,72.53125 C 349.74847,73.392655 351.60483,74.222618 353.5,74.96875 L 353.9375,75.125 L 354.125,74.6875 L 356.4375,69.75 L 356.59375,69.375 L 356.28125,69.125 L 340.625,57.8125 L 340.46875,57.71875 L 340.3125,57.71875 L 333.71875,57.71875 L 333.21875,57.71875 z"
         id="path12799" />
      <path
         style="font-size:14.26249504px;font-style:normal;font-weight:normal;fill:#576bbf;fill-opacity:1;stroke:#ffffff;stroke-width:5;stroke-linecap:round;stroke-linejoin:round;stroke-miterlimit:4;stroke-dasharray:none;stroke-opacity:0.5;font-family:Bitstream Vera Sans"
         d="M 301.5625,57.6875 C 298.424,57.687545 295.58639,58.228753 293.0625,59.34375 C 290.54577,60.455708 288.41962,62.037607 286.6875,64.0625 C 284.95695,66.085738 283.61724,68.525611 282.6875,71.375 C 281.78814,74.131585 281.37431,77.213933 281.34375,80.59375 L 281.3125,80.59375 L 281.3125,80.9375 C 281.31254,84.407912 281.78932,87.58378 282.75,90.4375 C 283.70948,93.287418 285.08672,95.727292 286.875,97.75 C 288.66135,99.770436 290.79463,101.32588 293.28125,102.4375 C 295.77503,103.5523 298.53492,104.125 301.5625,104.125 C 304.7012,104.125 307.53961,103.58509 310.0625,102.5 C 312.58117,101.41675 314.73674,99.838414 316.46875,97.8125 C 318.19843,95.789342 319.50695,93.349341 320.4375,90.5 C 321.36968,87.645728 321.84376,84.461566 321.84375,80.9375 C 321.84375,77.413824 321.36818,74.230562 320.40625,71.375 C 319.44595,68.524299 318.06958,66.08525 316.28125,64.0625 C 314.49495,62.042103 312.36164,60.455415 309.875,59.34375 C 307.38127,58.228995 304.5901,57.687546 301.5625,57.6875 z M 301.65625,65.6875 C 304.8338,65.687536 307.00214,66.889175 308.40625,69.375 C 309.82391,71.884828 310.56251,75.545972 310.5625,80.34375 C 310.56251,83.458393 310.35499,86.028703 309.9375,88.0625 C 309.51889,90.101947 308.90391,91.724002 308.125,92.90625 C 307.34039,94.097238 306.41615,94.904244 305.34375,95.375 C 304.24778,95.856133 302.98527,96.093755 301.5,96.09375 C 298.32287,96.093756 296.15396,94.925622 294.75,92.46875 C 293.33321,89.989324 292.56255,86.329046 292.5625,81.53125 C 292.56253,78.416647 292.80092,75.845065 293.21875,73.78125 C 293.63757,71.712924 294.25255,70.087043 295.03125,68.90625 C 295.81684,67.715138 296.70972,66.908286 297.78125,66.4375 C 298.87633,65.95646 300.171,65.687539 301.65625,65.6875 z"
         id="path12801" />
    </g>
    <g
       id="g12790"
       transform="translate(-41.602556,13.750001)">
      <path
         id="text1964"
         d="M 125.84375,45.5625 L 125.84375,46.0625 L 125.84375,102.375 L 125.84375,102.875 L 126.34375,102.875 L 135.71875,102.875 L 136.21875,102.875 L 136.21875,102.375 L 136.21875,77.0625 L 151.40625,77.0625 L 151.90625,77.0625 L 151.90625,76.5625 L 151.90625,69 L 151.90625,68.5 L 151.40625,68.5 L 136.21875,68.5 L 136.21875,54.21875 L 154.96875,54.21875 L 155.40625,54.21875 L 155.46875,53.78125 L 156.625,46.15625 L 156.6875,45.5625 L 156.125,45.5625 L 126.34375,45.5625 L 125.84375,45.5625 z M 171.5625,57.6875 L 171.4375,58.03125 L 155.09375,102.1875 L 154.84375,102.875 L 155.5625,102.875 L 165.09375,102.875 L 165.4375,102.875 L 165.5625,102.53125 L 169.1875,92.28125 L 183.53125,92.28125 L 187.21875,102.53125 L 187.34375,102.875 L 187.6875,102.875 L 197.53125,102.875 L 198.25,102.875 L 198,102.1875 L 182.40625,58.03125 L 182.28125,57.6875 L 181.90625,57.6875 L 171.90625,57.6875 L 171.5625,57.6875 z M 204.1875,57.84375 L 204.1875,58.34375 L 204.1875,102.375 L 204.1875,102.875 L 204.6875,102.875 L 214.03125,102.875 L 214.53125,102.875 L 214.53125,102.375 L 214.53125,80.5 L 229.15625,102.625 L 229.28125,102.875 L 229.5625,102.875 L 241.6875,102.875 L 242.6875,102.875 L 242.09375,102.0625 L 224.90625,78.6875 L 240.625,58.65625 L 241.25,57.84375 L 240.21875,57.84375 L 228.84375,57.84375 L 228.5625,57.84375 L 228.4375,58.0625 L 214.53125,77.46875 L 214.53125,58.34375 L 214.53125,57.84375 L 214.03125,57.84375 L 204.6875,57.84375 L 204.1875,57.84375 z M 243.1875,57.84375 L 243.1875,58.34375 L 243.1875,65.75 L 243.1875,66.25 L 243.6875,66.25 L 255.3125,66.25 L 255.3125,102.375 L 255.3125,102.875 L 255.8125,102.875 L 265,102.875 L 265.5,102.875 L 265.5,102.375 L 265.5,66.25 L 276.96875,66.25 L 277.375,66.25 L 277.4375,65.84375 L 279,58.46875 L 279.125,57.84375 L 278.5,57.84375 L 243.6875,57.84375 L 243.1875,57.84375 z M 176.53125,67.875 L 181.25,84.28125 L 171.6875,84.28125 L 176.53125,67.875 z"
         style="font-size:81.34132385px;font-style:normal;font-weight:bold;fill:#000000;fill-opacity:1;stroke:#ffffff;stroke-width:1.5;stroke-linecap:round;stroke-linejoin:round;stroke-miterlimit:4;stroke-dasharray:none;stroke-opacity:0.75;font-family:MetaMedium-Caps" />
      <path
         id="text2855"
         d="M 333.21875,57.71875 L 333.21875,58.21875 L 333.21875,94.34375 L 326.46875,94.34375 L 325.96875,94.34375 L 325.96875,94.84375 L 325.96875,102.46875 L 325.96875,102.96875 L 326.46875,102.96875 L 351.625,102.96875 L 352.125,102.96875 L 352.125,102.46875 L 352.125,94.84375 L 352.125,94.34375 L 351.625,94.34375 L 343.3125,94.34375 L 343.3125,69.96875 C 344.88066,70.918343 346.44048,71.79159 347.96875,72.53125 C 349.74847,73.392655 351.60483,74.222618 353.5,74.96875 L 353.9375,75.125 L 354.125,74.6875 L 356.4375,69.75 L 356.59375,69.375 L 356.28125,69.125 L 340.625,57.8125 L 340.46875,57.71875 L 340.3125,57.71875 L 333.71875,57.71875 L 333.21875,57.71875 z"
         style="font-size:14.26249504px;font-style:normal;font-weight:normal;fill:#576bbf;fill-opacity:1;stroke:#ffffff;stroke-width:1.5;stroke-linecap:round;stroke-linejoin:round;stroke-miterlimit:4;stroke-dasharray:none;stroke-opacity:0.75;font-family:Bitstream Vera Sans" />
      <path
         id="text2859"
         d="M 301.5625,57.6875 C 298.424,57.687545 295.58639,58.228753 293.0625,59.34375 C 290.54577,60.455708 288.41962,62.037607 286.6875,64.0625 C 284.95695,66.085738 283.61724,68.525611 282.6875,71.375 C 281.78814,74.131585 281.37431,77.213933 281.34375,80.59375 L 281.3125,80.59375 L 281.3125,80.9375 C 281.31254,84.407912 281.78932,87.58378 282.75,90.4375 C 283.70948,93.287418 285.08672,95.727292 286.875,97.75 C 288.66135,99.770436 290.79463,101.32588 293.28125,102.4375 C 295.77503,103.5523 298.53492,104.125 301.5625,104.125 C 304.7012,104.125 307.53961,103.58509 310.0625,102.5 C 312.58117,101.41675 314.73674,99.838414 316.46875,97.8125 C 318.19843,95.789342 319.50695,93.349341 320.4375,90.5 C 321.36968,87.645728 321.84376,84.461566 321.84375,80.9375 C 321.84375,77.413824 321.36818,74.230562 320.40625,71.375 C 319.44595,68.524299 318.06958,66.08525 316.28125,64.0625 C 314.49495,62.042103 312.36164,60.455415 309.875,59.34375 C 307.38127,58.228995 304.5901,57.687546 301.5625,57.6875 z M 301.65625,65.6875 C 304.8338,65.687536 307.00214,66.889175 308.40625,69.375 C 309.82391,71.884828 310.56251,75.545972 310.5625,80.34375 C 310.56251,83.458393 310.35499,86.028703 309.9375,88.0625 C 309.51889,90.101947 308.90391,91.724002 308.125,92.90625 C 307.34039,94.097238 306.41615,94.904244 305.34375,95.375 C 304.24778,95.856133 302.98527,96.093755 301.5,96.09375 C 298.32287,96.093756 296.15396,94.925622 294.75,92.46875 C 293.33321,89.989324 292.56255,86.329046 292.5625,81.53125 C 292.56253,78.416647 292.80092,75.845065 293.21875,73.78125 C 293.63757,71.712924 294.25255,70.087043 295.03125,68.90625 C 295.81684,67.715138 296.70972,66.908286 297.78125,66.4375 C 298.87633,65.95646 300.171,65.687539 301.65625,65.6875 z"
         style="font-size:14.26249504px;font-style:normal;font-weight:normal;fill:#576bbf;fill-opacity:1;stroke:#ffffff;stroke-width:1.5;stroke-linecap:round;stroke-linejoin:round;stroke-miterlimit:4;stroke-dasharray:none;stroke-opacity:0.75;font-family:Bitstream Vera Sans" />
    </g>
    <g
       transform="translate(-41.602556,13.750001)"
       id="g15470"
       style="stroke:none">
      <path
         style="font-size:81.34132385px;font-style:normal;font-weight:bold;fill:#000000;fill-opacity:1;stroke:none;stroke-width:1.5;stroke-linecap:round;stroke-linejoin:round;stroke-miterlimit:4;stroke-dasharray:none;stroke-opacity:0.75;font-family:MetaMedium-Caps"
         d="M 125.84375,45.5625 L 125.84375,46.0625 L 125.84375,102.375 L 125.84375,102.875 L 126.34375,102.875 L 135.71875,102.875 L 136.21875,102.875 L 136.21875,102.375 L 136.21875,77.0625 L 151.40625,77.0625 L 151.90625,77.0625 L 151.90625,76.5625 L 151.90625,69 L 151.90625,68.5 L 151.40625,68.5 L 136.21875,68.5 L 136.21875,54.21875 L 154.96875,54.21875 L 155.40625,54.21875 L 155.46875,53.78125 L 156.625,46.15625 L 156.6875,45.5625 L 156.125,45.5625 L 126.34375,45.5625 L 125.84375,45.5625 z M 171.5625,57.6875 L 171.4375,58.03125 L 155.09375,102.1875 L 154.84375,102.875 L 155.5625,102.875 L 165.09375,102.875 L 165.4375,102.875 L 165.5625,102.53125 L 169.1875,92.28125 L 183.53125,92.28125 L 187.21875,102.53125 L 187.34375,102.875 L 187.6875,102.875 L 197.53125,102.875 L 198.25,102.875 L 198,102.1875 L 182.40625,58.03125 L 182.28125,57.6875 L 181.90625,57.6875 L 171.90625,57.6875 L 171.5625,57.6875 z M 204.1875,57.84375 L 204.1875,58.34375 L 204.1875,102.375 L 204.1875,102.875 L 204.6875,102.875 L 214.03125,102.875 L 214.53125,102.875 L 214.53125,102.375 L 214.53125,80.5 L 229.15625,102.625 L 229.28125,102.875 L 229.5625,102.875 L 241.6875,102.875 L 242.6875,102.875 L 242.09375,102.0625 L 224.90625,78.6875 L 240.625,58.65625 L 241.25,57.84375 L 240.21875,57.84375 L 228.84375,57.84375 L 228.5625,57.84375 L 228.4375,58.0625 L 214.53125,77.46875 L 214.53125,58.34375 L 214.53125,57.84375 L 214.03125,57.84375 L 204.6875,57.84375 L 204.1875,57.84375 z M 243.1875,57.84375 L 243.1875,58.34375 L 243.1875,65.75 L 243.1875,66.25 L 243.6875,66.25 L 255.3125,66.25 L 255.3125,102.375 L 255.3125,102.875 L 255.8125,102.875 L 265,102.875 L 265.5,102.875 L 265.5,102.375 L 265.5,66.25 L 276.96875,66.25 L 277.375,66.25 L 277.4375,65.84375 L 279,58.46875 L 279.125,57.84375 L 278.5,57.84375 L 243.6875,57.84375 L 243.1875,57.84375 z M 176.53125,67.875 L 181.25,84.28125 L 171.6875,84.28125 L 176.53125,67.875 z"
         id="path15472" />
      <path
         style="font-size:14.26249504px;font-style:normal;font-weight:normal;fill:#576bbf;fill-opacity:1;stroke:none;stroke-width:1.5;stroke-linecap:round;stroke-linejoin:round;stroke-miterlimit:4;stroke-dasharray:none;stroke-opacity:0.75;font-family:Bitstream Vera Sans"
         d="M 333.21875,57.71875 L 333.21875,58.21875 L 333.21875,94.34375 L 326.46875,94.34375 L 325.96875,94.34375 L 325.96875,94.84375 L 325.96875,102.46875 L 325.96875,102.96875 L 326.46875,102.96875 L 351.625,102.96875 L 352.125,102.96875 L 352.125,102.46875 L 352.125,94.84375 L 352.125,94.34375 L 351.625,94.34375 L 343.3125,94.34375 L 343.3125,69.96875 C 344.88066,70.918343 346.44048,71.79159 347.96875,72.53125 C 349.74847,73.392655 351.60483,74.222618 353.5,74.96875 L 353.9375,75.125 L 354.125,74.6875 L 356.4375,69.75 L 356.59375,69.375 L 356.28125,69.125 L 340.625,57.8125 L 340.46875,57.71875 L 340.3125,57.71875 L 333.71875,57.71875 L 333.21875,57.71875 z"
         id="path15474" />
      <path
         style="font-size:14.26249504px;font-style:normal;font-weight:normal;fill:#576bbf;fill-opacity:1;stroke:none;stroke-width:1.5;stroke-linecap:round;stroke-linejoin:round;stroke-miterlimit:4;stroke-dasharray:none;stroke-opacity:0.75;font-family:Bitstream Vera Sans"
         d="M 301.5625,57.6875 C 298.424,57.687545 295.58639,58.228753 293.0625,59.34375 C 290.54577,60.455708 288.41962,62.037607 286.6875,64.0625 C 284.95695,66.085738 283.61724,68.525611 282.6875,71.375 C 281.78814,74.131585 281.37431,77.213933 281.34375,80.59375 L 281.3125,80.59375 L 281.3125,80.9375 C 281.31254,84.407912 281.78932,87.58378 282.75,90.4375 C 283.70948,93.287418 285.08672,95.727292 286.875,97.75 C 288.66135,99.770436 290.79463,101.32588 293.28125,102.4375 C 295.77503,103.5523 298.53492,104.125 301.5625,104.125 C 304.7012,104.125 307.53961,103.58509 310.0625,102.5 C 312.58117,101.41675 314.73674,99.838414 316.46875,97.8125 C 318.19843,95.789342 319.50695,93.349341 320.4375,90.5 C 321.36968,87.645728 321.84376,84.461566 321.84375,80.9375 C 321.84375,77.413824 321.36818,74.230562 320.40625,71.375 C 319.44595,68.524299 318.06958,66.08525 316.28125,64.0625 C 314.49495,62.042103 312.36164,60.455415 309.875,59.34375 C 307.38127,58.228995 304.5901,57.687546 301.5625,57.6875 z M 301.65625,65.6875 C 304.8338,65.687536 307.00214,66.889175 308.40625,69.375 C 309.82391,71.884828 310.56251,75.545972 310.5625,80.34375 C 310.56251,83.458393 310.35499,86.028703 309.9375,88.0625 C 309.51889,90.101947 308.90391,91.724002 308.125,92.90625 C 307.34039,94.097238 306.41615,94.904244 305.34375,95.375 C 304.24778,95.856133 302.98527,96.093755 301.5,96.09375 C 298.32287,96.093756 296.15396,94.925622 294.75,92.46875 C 293.33321,89.989324 292.56255,86.329046 292.5625,81.53125 C 292.56253,78.416647 292.80092,75.845065 293.21875,73.78125 C 293.63757,71.712924 294.25255,70.087043 295.03125,68.90625 C 295.81684,67.715138 296.70972,66.908286 297.78125,66.4375 C 298.87633,65.95646 300.171,65.687539 301.65625,65.6875 z"
         id="path15476" />
    </g>
    <path
       id="path3285"
       d="M 176.67468,160.15383 C 182.24603,160.15392 186.86038,161.50128 190.17468,164.43508 C 193.49274,167.37254 195.14334,171.68475 195.14343,176.77883 C 195.14335,181.87304 193.4872,186.16302 190.17468,189.12258 C 186.86174,192.08251 182.24903,193.46639 176.67468,193.46633 C 170.71066,193.49678 165.55362,193.46899 159.6938,193.47265 C 159.70822,182.51576 159.70773,171.2877 159.6938,160.15727 L 176.67468,160.15383 z M 136.64343,144.52883 L 136.64343,245.49758 L 159.70593,245.49758 C 159.69876,233.42448 159.69992,221.14515 159.6938,209.08701 L 179.54968,209.09133 C 192.61307,209.09137 202.37235,206.19269 209.04968,200.65383 C 215.72962,195.11274 219.04958,187.3619 219.04968,176.77883 C 219.04958,166.24463 215.73163,158.50922 209.04968,152.96633 C 202.37236,147.4276 192.61308,144.52893 179.54968,144.52883 L 136.64343,144.52883 z M 82.92468,144.52883 L 82.92468,245.49758 L 105.98718,245.49758 L 105.98718,144.52883 L 82.92468,144.52883 z M 276.45593,142.62258 C 264.09593,142.62268 254.88988,145.35999 248.61218,150.59133 C 242.33022,155.82637 239.20591,163.16254 239.20593,173.18508 C 239.20592,181.14126 241.46975,187.16566 245.92468,191.68508 C 250.37679,196.20178 257.65509,199.67201 267.92468,201.87258 C 267.9351,201.8725 267.94551,201.8725 267.95593,201.87258 L 278.42468,204.21633 C 284.92726,205.65078 289.36311,207.16022 292.04968,209.40383 C 294.64615,211.57242 295.95585,214.8143 295.95593,218.52883 C 295.95585,222.75773 293.91232,226.38916 290.29968,228.65383 C 286.68096,230.92226 281.8031,231.9351 275.67468,231.93508 C 269.65515,231.9351 263.43462,230.97297 257.01843,229.12258 C 251.5473,227.54479 245.90189,225.20827 240.14343,222.34133 L 240.14343,240.59133 C 246.30697,242.80132 252.46155,244.52378 258.61218,245.68508 C 265.19667,246.92831 271.73889,247.52883 278.26843,247.52883 C 292.11085,247.52883 302.13889,244.75039 308.48718,239.52883 C 314.8365,234.30629 318.04958,226.39907 318.04968,215.21633 C 318.04959,206.7762 315.74973,200.63222 311.26843,196.27883 C 306.79606,191.93437 298.82981,188.42539 287.36218,186.12258 L 275.83093,183.77883 C 270.21595,182.62712 266.25013,181.31153 263.67468,179.37258 C 261.1303,177.45727 259.76838,174.52335 259.76843,171.21633 C 259.76839,166.91639 261.77371,163.26923 265.39343,161.18508 C 269.00949,159.10318 274.08482,158.24767 280.73718,158.24758 C 285.79159,158.24767 291.1223,158.93521 296.73718,160.27883 C 301.44467,161.4055 306.26215,163.06638 311.14343,165.09133 L 311.14343,147.40383 C 305.23718,145.88597 299.49044,144.69154 293.95593,143.90383 C 287.9492,143.04914 282.12125,142.62269 276.45593,142.62258 z"
       style="font-size:12px;font-style:normal;font-weight:normal;fill:#576bbf;fill-opacity:1;stroke:#ffffff;stroke-width:1.5;stroke-linecap:round;stroke-linejoin:round;stroke-miterlimit:4;stroke-dasharray:none;stroke-opacity:1;font-family:Bitstream Vera Sans"
       sodipodi:nodetypes="ccsscccccsccccssssccccscsccccccccssscccccccccccsssccc" />
  </g>
</svg>
