<?xml version="1.0" encoding="UTF-8" standalone="no"?>
<!-- Created with Inkscape (http://www.inkscape.org/) -->
<svg
   xmlns:dc="http://purl.org/dc/elements/1.1/"
   xmlns:cc="http://web.resource.org/cc/"
   xmlns:rdf="http://www.w3.org/1999/02/22-rdf-syntax-ns#"
   xmlns:svg="http://www.w3.org/2000/svg"
   xmlns="http://www.w3.org/2000/svg"
   xmlns:xlink="http://www.w3.org/1999/xlink"
   xmlns:sodipodi="http://sodipodi.sourceforge.net/DTD/sodipodi-0.dtd"
   xmlns:inkscape="http://www.inkscape.org/namespaces/inkscape"
   width="250"
   height="250"
   id="svg2"
   sodipodi:version="0.32"
   inkscape:version="0.44"
   version="1.0"
   sodipodi:docbase="D:\icons"
   sodipodi:docname="FaktorIpsIconvg.svg"
   inkscape:export-filename="D:\icons\FaktorIpsAbout.png"
   inkscape:export-xdpi="90"
   inkscape:export-ydpi="90">
  <defs
     id="defs4">
    <linearGradient
       inkscape:collect="always"
       id="linearGradient22014">
      <stop
         style="stop-color:white;stop-opacity:1;"
         offset="0"
         id="stop22016" />
      <stop
         style="stop-color:white;stop-opacity:0;"
         offset="1"
         id="stop22018" />
    </linearGradient>
    <linearGradient
       id="linearGradient21092">
      <stop
         style="stop-color:white;stop-opacity:1;"
         offset="0"
         id="stop21094" />
      <stop
         style="stop-color:white;stop-opacity:0;"
         offset="1"
         id="stop21096" />
    </linearGradient>
    <linearGradient
       id="linearGradient4756">
      <stop
         style="stop-color:#e3e6f5;stop-opacity:0;"
         offset="0"
         id="stop4758" />
      <stop
         style="stop-color:#3c50a0;stop-opacity:0.76774192;"
         offset="1"
         id="stop4762" />
    </linearGradient>
    <linearGradient
       id="linearGradient4740">
      <stop
         id="stop4742"
         offset="0"
         style="stop-color:#e3e6f5;stop-opacity:0;" />
      <stop
         style="stop-color:#acb6e0;stop-opacity:0;"
         offset="0.5321101"
         id="stop4746" />
      <stop
         id="stop4744"
         offset="1"
         style="stop-color:#3c50a0;stop-opacity:0.76774192;" />
    </linearGradient>
    <linearGradient
       id="linearGradient4669">
      <stop
         style="stop-color:#e3e6f5;stop-opacity:1;"
         offset="0"
         id="stop4671" />
      <stop
         style="stop-color:#7586cb;stop-opacity:1;"
         offset="1"
         id="stop4673" />
    </linearGradient>
    <linearGradient
       id="linearGradient4661">
      <stop
         style="stop-color:#e8eaf6;stop-opacity:1;"
         offset="0"
         id="stop4663" />
      <stop
         style="stop-color:#a0abdb;stop-opacity:1;"
         offset="1"
         id="stop4665" />
    </linearGradient>
    <radialGradient
       inkscape:collect="always"
       xlink:href="#linearGradient4669"
       id="radialGradient16539"
       gradientUnits="userSpaceOnUse"
       cx="213.65384"
       cy="112.82052"
       fx="213.65384"
       fy="112.82052"
       r="113.67308" />
    <radialGradient
       inkscape:collect="always"
       xlink:href="#linearGradient4740"
       id="radialGradient16541"
       gradientUnits="userSpaceOnUse"
       cx="241.15384"
       cy="150.54488"
       fx="241.15384"
       fy="150.54488"
       r="113.67308" />
    <linearGradient
       inkscape:collect="always"
       xlink:href="#linearGradient21092"
       id="linearGradient21098"
       x1="160"
       y1="127.5"
       x2="163.46794"
       y2="90.21154"
       gradientUnits="userSpaceOnUse"
       gradientTransform="translate(0.499999,4.66e-3)" />
    <linearGradient
       inkscape:collect="always"
       xlink:href="#linearGradient21092"
       id="linearGradient21102"
       gradientUnits="userSpaceOnUse"
       x1="160"
       y1="127.5"
       x2="163.46794"
       y2="90.21154"
       gradientTransform="matrix(0.996979,0,0,-1,0.983388,255.0378)" />
    <linearGradient
       inkscape:collect="always"
       xlink:href="#linearGradient21092"
       id="linearGradient21106"
       gradientUnits="userSpaceOnUse"
       gradientTransform="matrix(0.487915,0,0,-1,82.43354,255.0378)"
       x1="160"
       y1="127.5"
       x2="163.46794"
       y2="90.21154" />
    <linearGradient
       inkscape:collect="always"
       xlink:href="#linearGradient21092"
       id="linearGradient21121"
       gradientUnits="userSpaceOnUse"
       gradientTransform="translate(0.499999,4.66e-3)"
       x1="160"
       y1="127.5"
       x2="163.46794"
       y2="90.21154" />
    <linearGradient
       inkscape:collect="always"
       xlink:href="#linearGradient21092"
       id="linearGradient21123"
       gradientUnits="userSpaceOnUse"
       gradientTransform="matrix(0.996979,0,0,-1,0.983388,255.0378)"
       x1="160"
       y1="127.5"
       x2="163.46794"
       y2="90.21154" />
    <linearGradient
       inkscape:collect="always"
       xlink:href="#linearGradient21092"
       id="linearGradient21125"
       gradientUnits="userSpaceOnUse"
       gradientTransform="matrix(0.487915,0,0,-1,82.43354,255.0378)"
       x1="160"
       y1="127.5"
       x2="163.46794"
       y2="90.21154" />
    <radialGradient
       inkscape:collect="always"
       xlink:href="#linearGradient22014"
       id="radialGradient22020"
       cx="160.41667"
       cy="127.6282"
       fx="160.41667"
       fy="127.6282"
       r="42.307693"
       gradientTransform="matrix(1,0,0,0.2,0,102.1026)"
       gradientUnits="userSpaceOnUse" />
    <linearGradient
       inkscape:collect="always"
       xlink:href="#linearGradient21092"
       id="linearGradient22053"
       gradientUnits="userSpaceOnUse"
       gradientTransform="translate(0.499999,4.66e-3)"
       x1="160"
       y1="127.5"
       x2="163.46794"
       y2="90.21154" />
    <linearGradient
       inkscape:collect="always"
       xlink:href="#linearGradient21092"
       id="linearGradient22055"
       gradientUnits="userSpaceOnUse"
       gradientTransform="matrix(0.996979,0,0,-1,0.983388,255.0378)"
       x1="160"
       y1="127.5"
       x2="163.46794"
       y2="90.21154" />
    <linearGradient
       inkscape:collect="always"
       xlink:href="#linearGradient21092"
       id="linearGradient22057"
       gradientUnits="userSpaceOnUse"
       gradientTransform="matrix(0.487915,0,0,-1,82.43354,255.0378)"
       x1="160"
       y1="127.5"
       x2="163.46794"
       y2="90.21154" />
    <linearGradient
       inkscape:collect="always"
       xlink:href="#linearGradient21092"
       id="linearGradient22059"
       gradientUnits="userSpaceOnUse"
       gradientTransform="translate(0.499999,4.66e-3)"
       x1="160"
       y1="127.5"
       x2="163.46794"
       y2="90.21154" />
    <linearGradient
       inkscape:collect="always"
       xlink:href="#linearGradient21092"
       id="linearGradient22061"
       gradientUnits="userSpaceOnUse"
       gradientTransform="matrix(0.996979,0,0,-1,0.983388,255.0378)"
       x1="160"
       y1="127.5"
       x2="163.46794"
       y2="90.21154" />
    <linearGradient
       inkscape:collect="always"
       xlink:href="#linearGradient21092"
       id="linearGradient22063"
       gradientUnits="userSpaceOnUse"
       gradientTransform="matrix(0.487915,0,0,-1,82.43354,255.0378)"
       x1="160"
       y1="127.5"
       x2="163.46794"
       y2="90.21154" />
    <radialGradient
       inkscape:collect="always"
       xlink:href="#linearGradient22014"
       id="radialGradient22065"
       gradientUnits="userSpaceOnUse"
       gradientTransform="matrix(1,0,0,0.2,0,102.1026)"
       cx="160.41667"
       cy="127.6282"
       fx="160.41667"
       fy="127.6282"
       r="42.307693" />
    <linearGradient
       inkscape:collect="always"
       xlink:href="#linearGradient21092"
       id="linearGradient22131"
       gradientUnits="userSpaceOnUse"
       gradientTransform="translate(0.499999,4.66e-3)"
       x1="160"
       y1="127.5"
       x2="163.46794"
       y2="90.21154" />
    <linearGradient
       inkscape:collect="always"
       xlink:href="#linearGradient21092"
       id="linearGradient22133"
       gradientUnits="userSpaceOnUse"
       gradientTransform="matrix(0.996979,0,0,-1,0.983388,255.0378)"
       x1="160"
       y1="127.5"
       x2="163.46794"
       y2="90.21154" />
    <linearGradient
       inkscape:collect="always"
       xlink:href="#linearGradient21092"
       id="linearGradient22135"
       gradientUnits="userSpaceOnUse"
       gradientTransform="matrix(0.487915,0,0,-1,82.43354,255.0378)"
       x1="160"
       y1="127.5"
       x2="163.46794"
       y2="90.21154" />
    <linearGradient
       inkscape:collect="always"
       xlink:href="#linearGradient21092"
       id="linearGradient22137"
       gradientUnits="userSpaceOnUse"
       gradientTransform="translate(0.499999,4.66e-3)"
       x1="160"
       y1="127.5"
       x2="163.46794"
       y2="90.21154" />
    <linearGradient
       inkscape:collect="always"
       xlink:href="#linearGradient21092"
       id="linearGradient22139"
       gradientUnits="userSpaceOnUse"
       gradientTransform="matrix(0.996979,0,0,-1,0.983388,255.0378)"
       x1="160"
       y1="127.5"
       x2="163.46794"
       y2="90.21154" />
    <linearGradient
       inkscape:collect="always"
       xlink:href="#linearGradient21092"
       id="linearGradient22141"
       gradientUnits="userSpaceOnUse"
       gradientTransform="matrix(0.487915,0,0,-1,82.43354,255.0378)"
       x1="160"
       y1="127.5"
       x2="163.46794"
       y2="90.21154" />
    <radialGradient
       inkscape:collect="always"
       xlink:href="#linearGradient22014"
       id="radialGradient22143"
       gradientUnits="userSpaceOnUse"
       gradientTransform="matrix(1,0,0,0.2,0,102.1026)"
       cx="160.41667"
       cy="127.6282"
       fx="160.41667"
       fy="127.6282"
       r="42.307693" />
    <linearGradient
       inkscape:collect="always"
       xlink:href="#linearGradient21092"
       id="linearGradient22145"
       gradientUnits="userSpaceOnUse"
       gradientTransform="translate(0.499999,4.66e-3)"
       x1="160"
       y1="127.5"
       x2="163.46794"
       y2="90.21154" />
    <linearGradient
       inkscape:collect="always"
       xlink:href="#linearGradient21092"
       id="linearGradient22147"
       gradientUnits="userSpaceOnUse"
       gradientTransform="matrix(0.996979,0,0,-1,0.983388,255.0378)"
       x1="160"
       y1="127.5"
       x2="163.46794"
       y2="90.21154" />
    <linearGradient
       inkscape:collect="always"
       xlink:href="#linearGradient21092"
       id="linearGradient22149"
       gradientUnits="userSpaceOnUse"
       gradientTransform="matrix(0.487915,0,0,-1,82.43354,255.0378)"
       x1="160"
       y1="127.5"
       x2="163.46794"
       y2="90.21154" />
    <linearGradient
       inkscape:collect="always"
       xlink:href="#linearGradient21092"
       id="linearGradient22151"
       gradientUnits="userSpaceOnUse"
       gradientTransform="translate(0.499999,4.66e-3)"
       x1="160"
       y1="127.5"
       x2="163.46794"
       y2="90.21154" />
    <linearGradient
       inkscape:collect="always"
       xlink:href="#linearGradient21092"
       id="linearGradient22153"
       gradientUnits="userSpaceOnUse"
       gradientTransform="matrix(0.996979,0,0,-1,0.983388,255.0378)"
       x1="160"
       y1="127.5"
       x2="163.46794"
       y2="90.21154" />
    <linearGradient
       inkscape:collect="always"
       xlink:href="#linearGradient21092"
       id="linearGradient22155"
       gradientUnits="userSpaceOnUse"
       gradientTransform="matrix(0.487915,0,0,-1,82.43354,255.0378)"
       x1="160"
       y1="127.5"
       x2="163.46794"
       y2="90.21154" />
    <radialGradient
       inkscape:collect="always"
       xlink:href="#linearGradient22014"
       id="radialGradient22157"
       gradientUnits="userSpaceOnUse"
       gradientTransform="matrix(1,0,0,0.2,0,102.1026)"
       cx="160.41667"
       cy="127.6282"
       fx="160.41667"
       fy="127.6282"
       r="42.307693" />
    <radialGradient
       inkscape:collect="always"
       xlink:href="#linearGradient4669"
       id="radialGradient24904"
       gradientUnits="userSpaceOnUse"
       cx="213.65384"
       cy="112.82052"
       fx="213.65384"
       fy="112.82052"
       r="113.67308" />
    <radialGradient
       inkscape:collect="always"
       xlink:href="#linearGradient4740"
       id="radialGradient24906"
       gradientUnits="userSpaceOnUse"
       cx="241.15384"
       cy="150.54488"
       fx="241.15384"
       fy="150.54488"
       r="113.67308" />
    <radialGradient
       inkscape:collect="always"
       xlink:href="#linearGradient4669"
       id="radialGradient25043"
       gradientUnits="userSpaceOnUse"
       cx="213.65384"
       cy="112.82052"
       fx="213.65384"
       fy="112.82052"
       r="113.67308" />
    <radialGradient
       inkscape:collect="always"
       xlink:href="#linearGradient4740"
       id="radialGradient25045"
       gradientUnits="userSpaceOnUse"
       cx="241.15384"
       cy="150.54488"
       fx="241.15384"
       fy="150.54488"
       r="113.67308" />
    <radialGradient
       inkscape:collect="always"
       xlink:href="#linearGradient4669"
       id="radialGradient25047"
       gradientUnits="userSpaceOnUse"
       cx="213.65384"
       cy="112.82052"
       fx="213.65384"
       fy="112.82052"
       r="113.67308" />
    <radialGradient
       inkscape:collect="always"
       xlink:href="#linearGradient4740"
       id="radialGradient25049"
       gradientUnits="userSpaceOnUse"
       cx="241.15384"
       cy="150.54488"
       fx="241.15384"
       fy="150.54488"
       r="113.67308" />
    <linearGradient
       inkscape:collect="always"
       xlink:href="#linearGradient21092"
       id="linearGradient25051"
       gradientUnits="userSpaceOnUse"
       gradientTransform="translate(0.499999,4.66e-3)"
       x1="160"
       y1="127.5"
       x2="163.46794"
       y2="90.21154" />
    <linearGradient
       inkscape:collect="always"
       xlink:href="#linearGradient21092"
       id="linearGradient25053"
       gradientUnits="userSpaceOnUse"
       gradientTransform="matrix(0.996979,0,0,-1,0.983388,255.0378)"
       x1="160"
       y1="127.5"
       x2="163.46794"
       y2="90.21154" />
    <linearGradient
       inkscape:collect="always"
       xlink:href="#linearGradient21092"
       id="linearGradient25055"
       gradientUnits="userSpaceOnUse"
       gradientTransform="matrix(0.487915,0,0,-1,82.43354,255.0378)"
       x1="160"
       y1="127.5"
       x2="163.46794"
       y2="90.21154" />
    <linearGradient
       inkscape:collect="always"
       xlink:href="#linearGradient21092"
       id="linearGradient25057"
       gradientUnits="userSpaceOnUse"
       gradientTransform="translate(0.499999,4.66e-3)"
       x1="160"
       y1="127.5"
       x2="163.46794"
       y2="90.21154" />
    <linearGradient
       inkscape:collect="always"
       xlink:href="#linearGradient21092"
       id="linearGradient25059"
       gradientUnits="userSpaceOnUse"
       gradientTransform="matrix(0.996979,0,0,-1,0.983388,255.0378)"
       x1="160"
       y1="127.5"
       x2="163.46794"
       y2="90.21154" />
    <linearGradient
       inkscape:collect="always"
       xlink:href="#linearGradient21092"
       id="linearGradient25061"
       gradientUnits="userSpaceOnUse"
       gradientTransform="matrix(0.487915,0,0,-1,82.43354,255.0378)"
       x1="160"
       y1="127.5"
       x2="163.46794"
       y2="90.21154" />
    <radialGradient
       inkscape:collect="always"
       xlink:href="#linearGradient22014"
       id="radialGradient25063"
       gradientUnits="userSpaceOnUse"
       gradientTransform="matrix(1,0,0,0.2,0,102.1026)"
       cx="160.41667"
       cy="127.6282"
       fx="160.41667"
       fy="127.6282"
       r="42.307693" />
    <linearGradient
       inkscape:collect="always"
       xlink:href="#linearGradient21092"
       id="linearGradient25065"
       gradientUnits="userSpaceOnUse"
       gradientTransform="translate(0.499999,4.66e-3)"
       x1="160"
       y1="127.5"
       x2="163.46794"
       y2="90.21154" />
    <linearGradient
       inkscape:collect="always"
       xlink:href="#linearGradient21092"
       id="linearGradient25067"
       gradientUnits="userSpaceOnUse"
       gradientTransform="matrix(0.996979,0,0,-1,0.983388,255.0378)"
       x1="160"
       y1="127.5"
       x2="163.46794"
       y2="90.21154" />
    <linearGradient
       inkscape:collect="always"
       xlink:href="#linearGradient21092"
       id="linearGradient25069"
       gradientUnits="userSpaceOnUse"
       gradientTransform="matrix(0.487915,0,0,-1,82.43354,255.0378)"
       x1="160"
       y1="127.5"
       x2="163.46794"
       y2="90.21154" />
    <linearGradient
       inkscape:collect="always"
       xlink:href="#linearGradient21092"
       id="linearGradient25071"
       gradientUnits="userSpaceOnUse"
       gradientTransform="translate(0.499999,4.66e-3)"
       x1="160"
       y1="127.5"
       x2="163.46794"
       y2="90.21154" />
    <linearGradient
       inkscape:collect="always"
       xlink:href="#linearGradient21092"
       id="linearGradient25073"
       gradientUnits="userSpaceOnUse"
       gradientTransform="matrix(0.996979,0,0,-1,0.983388,255.0378)"
       x1="160"
       y1="127.5"
       x2="163.46794"
       y2="90.21154" />
    <linearGradient
       inkscape:collect="always"
       xlink:href="#linearGradient21092"
       id="linearGradient25075"
       gradientUnits="userSpaceOnUse"
       gradientTransform="matrix(0.487915,0,0,-1,82.43354,255.0378)"
       x1="160"
       y1="127.5"
       x2="163.46794"
       y2="90.21154" />
    <radialGradient
       inkscape:collect="always"
       xlink:href="#linearGradient22014"
       id="radialGradient25077"
       gradientUnits="userSpaceOnUse"
       gradientTransform="matrix(1,0,0,0.2,0,102.1026)"
       cx="160.41667"
       cy="127.6282"
       fx="160.41667"
       fy="127.6282"
       r="42.307693" />
    <linearGradient
       inkscape:collect="always"
       xlink:href="#linearGradient21092"
       id="linearGradient25079"
       gradientUnits="userSpaceOnUse"
       gradientTransform="translate(0.499999,4.66e-3)"
       x1="160"
       y1="127.5"
       x2="163.46794"
       y2="90.21154" />
    <linearGradient
       inkscape:collect="always"
       xlink:href="#linearGradient21092"
       id="linearGradient25081"
       gradientUnits="userSpaceOnUse"
       gradientTransform="matrix(0.996979,0,0,-1,0.983388,255.0378)"
       x1="160"
       y1="127.5"
       x2="163.46794"
       y2="90.21154" />
    <linearGradient
       inkscape:collect="always"
       xlink:href="#linearGradient21092"
       id="linearGradient25083"
       gradientUnits="userSpaceOnUse"
       gradientTransform="matrix(0.487915,0,0,-1,82.43354,255.0378)"
       x1="160"
       y1="127.5"
       x2="163.46794"
       y2="90.21154" />
    <linearGradient
       inkscape:collect="always"
       xlink:href="#linearGradient21092"
       id="linearGradient25085"
       gradientUnits="userSpaceOnUse"
       gradientTransform="translate(0.499999,4.66e-3)"
       x1="160"
       y1="127.5"
       x2="163.46794"
       y2="90.21154" />
    <linearGradient
       inkscape:collect="always"
       xlink:href="#linearGradient21092"
       id="linearGradient25087"
       gradientUnits="userSpaceOnUse"
       gradientTransform="matrix(0.996979,0,0,-1,0.983388,255.0378)"
       x1="160"
       y1="127.5"
       x2="163.46794"
       y2="90.21154" />
    <linearGradient
       inkscape:collect="always"
       xlink:href="#linearGradient21092"
       id="linearGradient25089"
       gradientUnits="userSpaceOnUse"
       gradientTransform="matrix(0.487915,0,0,-1,82.43354,255.0378)"
       x1="160"
       y1="127.5"
       x2="163.46794"
       y2="90.21154" />
    <radialGradient
       inkscape:collect="always"
       xlink:href="#linearGradient22014"
       id="radialGradient25091"
       gradientUnits="userSpaceOnUse"
       gradientTransform="matrix(1,0,0,0.2,0,102.1026)"
       cx="160.41667"
       cy="127.6282"
       fx="160.41667"
       fy="127.6282"
       r="42.307693" />
    <linearGradient
       inkscape:collect="always"
       xlink:href="#linearGradient21092"
       id="linearGradient25093"
       gradientUnits="userSpaceOnUse"
       gradientTransform="translate(0.499999,4.66e-3)"
       x1="160"
       y1="127.5"
       x2="163.46794"
       y2="90.21154" />
    <linearGradient
       inkscape:collect="always"
       xlink:href="#linearGradient21092"
       id="linearGradient25095"
       gradientUnits="userSpaceOnUse"
       gradientTransform="matrix(0.996979,0,0,-1,0.983388,255.0378)"
       x1="160"
       y1="127.5"
       x2="163.46794"
       y2="90.21154" />
    <linearGradient
       inkscape:collect="always"
       xlink:href="#linearGradient21092"
       id="linearGradient25097"
       gradientUnits="userSpaceOnUse"
       gradientTransform="matrix(0.487915,0,0,-1,82.43354,255.0378)"
       x1="160"
       y1="127.5"
       x2="163.46794"
       y2="90.21154" />
    <linearGradient
       inkscape:collect="always"
       xlink:href="#linearGradient21092"
       id="linearGradient25099"
       gradientUnits="userSpaceOnUse"
       gradientTransform="translate(0.499999,4.66e-3)"
       x1="160"
       y1="127.5"
       x2="163.46794"
       y2="90.21154" />
    <linearGradient
       inkscape:collect="always"
       xlink:href="#linearGradient21092"
       id="linearGradient25101"
       gradientUnits="userSpaceOnUse"
       gradientTransform="matrix(0.996979,0,0,-1,0.983388,255.0378)"
       x1="160"
       y1="127.5"
       x2="163.46794"
       y2="90.21154" />
    <linearGradient
       inkscape:collect="always"
       xlink:href="#linearGradient21092"
       id="linearGradient25103"
       gradientUnits="userSpaceOnUse"
       gradientTransform="matrix(0.487915,0,0,-1,82.43354,255.0378)"
       x1="160"
       y1="127.5"
       x2="163.46794"
       y2="90.21154" />
    <radialGradient
       inkscape:collect="always"
       xlink:href="#linearGradient22014"
       id="radialGradient25105"
       gradientUnits="userSpaceOnUse"
       gradientTransform="matrix(1,0,0,0.2,0,102.1026)"
       cx="160.41667"
       cy="127.6282"
       fx="160.41667"
       fy="127.6282"
       r="42.307693" />
  </defs>
  <sodipodi:namedview
     id="base"
     pagecolor="#ffffff"
     bordercolor="#666666"
     borderopacity="1.0"
     inkscape:pageopacity="0.0"
     inkscape:pageshadow="2"
     inkscape:zoom="3.5226332"
     inkscape:cx="167.49994"
     inkscape:cy="110.24586"
     inkscape:document-units="px"
     inkscape:current-layer="layer1"
     width="250px"
     height="250px"
     inkscape:window-width="1920"
     inkscape:window-height="1131"
     inkscape:window-x="-4"
     inkscape:window-y="-4"
     showguides="true"
     inkscape:guide-bbox="true"
     borderlayer="true">
    <sodipodi:guide
       orientation="horizontal"
       position="78"
       id="guide20186" />
    <sodipodi:guide
       orientation="vertical"
       position="78"
       id="guide20188" />
    <sodipodi:guide
       orientation="vertical"
       position="322"
       id="guide20190" />
    <sodipodi:guide
       orientation="horizontal"
       position="202.49534"
       id="guide20192" />
    <sodipodi:guide
       orientation="vertical"
       position="160.5"
       id="guide20194" />
    <sodipodi:guide
       orientation="horizontal"
       position="211.5"
       id="guide20196" />
    <sodipodi:guide
       orientation="horizontal"
       position="193.51249"
       id="guide20198" />
    <sodipodi:guide
       orientation="vertical"
       position="11"
       id="guide20200" />
    <sodipodi:guide
       orientation="vertical"
       position="490.5"
       id="guide20202" />
  </sodipodi:namedview>
  <metadata
     id="metadata7">
    <rdf:RDF>
      <cc:Work
         rdf:about="">
        <dc:format>image/svg+xml</dc:format>
        <dc:type
           rdf:resource="http://purl.org/dc/dcmitype/StillImage" />
      </cc:Work>
    </rdf:RDF>
  </metadata>
  <g
     inkscape:label="Ebene 1"
     inkscape:groupmode="layer"
     id="layer1">
    <text
       xml:space="preserve"
       style="font-size:11.33818817px;font-style:normal;font-weight:normal;fill:#576bbf;fill-opacity:1;stroke:white;stroke-width:3.77939606;stroke-linecap:round;stroke-linejoin:round;stroke-miterlimit:4;stroke-dasharray:none;stroke-opacity:0.75;font-family:Bitstream Vera Sans"
       x="-5.934267"
       y="210.05661"
       id="text2863"><tspan
         sodipodi:role="line"
         id="tspan2865"
         x="-5.934267"
         y="210.05661"
         style="font-size:136.05825806px;font-weight:bold;fill:#576bbf;fill-opacity:1;stroke:white;stroke-width:3.77939606;stroke-linecap:round;stroke-linejoin:round;stroke-miterlimit:4;stroke-dasharray:none;stroke-opacity:0.75">IPS</tspan></text>
    <g
       id="g16535"
       transform="matrix(0.944849,0,0,0.944849,-109.8677,-16.46487)"
       style="stroke:white;stroke-width:5;stroke-linecap:round;stroke-linejoin:round;stroke-miterlimit:4;stroke-dasharray:none;stroke-opacity:0.33000004">
      <path
         d="M 354.32692 150.54488 A 113.17308 113.17308 0 1 1  127.98076,150.54488 A 113.17308 113.17308 0 1 1  354.32692 150.54488 z"
         sodipodi:ry="113.17308"
         sodipodi:rx="113.17308"
         sodipodi:cy="150.54488"
         sodipodi:cx="241.15384"
         id="path3774"
         style="opacity:1;fill:url(#radialGradient25043);fill-opacity:1;fill-rule:nonzero;stroke:white;stroke-width:5;stroke-linecap:round;stroke-linejoin:round;stroke-miterlimit:4;stroke-dasharray:none;stroke-opacity:0.33000004"
         sodipodi:type="arc" />
      <path
         sodipodi:type="arc"
         style="opacity:1;fill:url(#radialGradient25045);fill-opacity:1;fill-rule:nonzero;stroke:white;stroke-width:5;stroke-linecap:round;stroke-linejoin:round;stroke-miterlimit:4;stroke-dasharray:none;stroke-opacity:0.33000004"
         id="path4748"
         sodipodi:cx="241.15384"
         sodipodi:cy="150.54488"
         sodipodi:rx="113.17308"
         sodipodi:ry="113.17308"
         d="M 354.32692 150.54488 A 113.17308 113.17308 0 1 1  127.98076,150.54488 A 113.17308 113.17308 0 1 1  354.32692 150.54488 z" />
    </g>
    <g
       style="stroke:#576bbf;stroke-width:1;stroke-linecap:round;stroke-linejoin:round;stroke-miterlimit:4;stroke-dasharray:none;stroke-opacity:0.5"
       transform="matrix(0.944849,0,0,0.944849,-109.8677,-16.46487)"
       id="g17428">
      <path
         sodipodi:type="arc"
         style="opacity:1;fill:url(#radialGradient25047);fill-opacity:1;fill-rule:nonzero;stroke:#576bbf;stroke-width:1;stroke-linecap:round;stroke-linejoin:round;stroke-miterlimit:4;stroke-dasharray:none;stroke-opacity:0.5"
         id="path17430"
         sodipodi:cx="241.15384"
         sodipodi:cy="150.54488"
         sodipodi:rx="113.17308"
         sodipodi:ry="113.17308"
         d="M 354.32692 150.54488 A 113.17308 113.17308 0 1 1  127.98076,150.54488 A 113.17308 113.17308 0 1 1  354.32692 150.54488 z" />
      <path
         d="M 354.32692 150.54488 A 113.17308 113.17308 0 1 1  127.98076,150.54488 A 113.17308 113.17308 0 1 1  354.32692 150.54488 z"
         sodipodi:ry="113.17308"
         sodipodi:rx="113.17308"
         sodipodi:cy="150.54488"
         sodipodi:cx="241.15384"
         id="path17432"
         style="opacity:1;fill:url(#radialGradient25049);fill-opacity:1;fill-rule:nonzero;stroke:#576bbf;stroke-width:1;stroke-linecap:round;stroke-linejoin:round;stroke-miterlimit:4;stroke-dasharray:none;stroke-opacity:0.5"
         sodipodi:type="arc" />
    </g>
    <path
       style="font-size:12px;font-style:normal;font-weight:normal;opacity:0.09899998;fill:black;fill-opacity:1;stroke:black;stroke-width:7.55879211;stroke-linecap:round;stroke-linejoin:round;stroke-miterlimit:4;stroke-opacity:0.5;font-family:Bitstream Vera Sans"
       d="M 196.96442,106.73874 C 184.1645,106.73885 173.52968,109.60989 165.81393,116.0396 C 158.08618,122.47949 154.20999,132.0518 154.21,143.17448 C 154.20999,152.18238 157.02169,160.16465 162.74317,165.96896 C 168.45349,171.76211 176.77646,175.39817 187.33877,177.66147 L 197.17111,179.87596 C 202.79597,181.11678 206.6525,183.01314 206.85581,183.18293 C 207.64601,183.8429 207.83015,184.03406 207.83018,186.01748 C 207.83016,188.0219 207.80603,188.09241 206.02907,189.20634 C 204.44369,190.20016 201.15914,191.12559 196.22626,191.12557 C 191.33319,191.12559 186.1385,190.34175 180.66578,188.76344 C 175.18511,187.1829 169.45856,184.82615 163.42228,181.61802 C 161.7614,180.73691 159.57688,180.72004 157.87129,181.73613 C 156.16567,182.75224 155.11325,184.51885 155.0958,186.57848 C 155.09576,186.58833 155.09576,186.59816 155.0958,186.60801 L 155.0958,208.22143 C 155.08588,210.56272 156.54274,212.66516 158.72756,213.50668 C 158.74716,213.51669 158.76685,213.52654 158.78662,213.5362 C 165.4122,215.99187 172.03788,217.83168 178.6875,219.08719 C 185.35541,220.34618 192.02674,220.97689 198.67696,220.97689 C 212.75647,220.9769 224.05822,218.248 232.01241,211.70556 C 239.98946,205.14418 243.82292,194.96813 243.82303,182.88766 C 243.82293,173.48588 241.02124,165.3016 235.1127,159.5617 C 229.2126,153.83033 220.37262,150.31622 208.77503,147.9873 L 197.87974,145.77281 C 193.10723,144.7939 189.87143,143.32577 189.43516,142.99732 C 188.61564,142.38042 188.75602,142.76004 188.75605,141.31431 C 188.75604,139.1233 188.67966,139.3192 190.29143,138.39118 C 191.66375,137.60108 195.44203,136.61967 201.00956,136.61959 C 205.11078,136.61966 209.54556,137.15159 214.35555,138.3026 C 219.15741,139.45185 224.16235,141.19066 229.3255,143.49927 C 231.11274,144.2936 233.10463,144.11361 234.69933,143.0859 C 236.29405,142.0582 237.28337,140.22991 237.29766,138.36165 C 237.2977,138.35181 237.2977,138.34197 237.29766,138.33213 L 237.29766,117.33876 C 237.30937,114.79621 235.58557,112.55188 233.13442,111.87636 C 233.12463,111.86646 233.11479,111.85662 233.1049,111.84683 C 226.75677,110.15716 220.56962,108.86339 214.56223,108.00838 C 208.55488,107.1536 202.69263,106.73884 196.96442,106.73874 z M 11.803549,108.53986 C 11.734394,108.5478 11.665473,108.55764 11.596863,108.56938 C 8.7424232,108.8837 6.5308671,111.36682 6.5478262,114.23848 L 6.5478262,213.38857 C 6.5481304,216.47446 9.1310509,219.05735 12.21692,219.05766 L 37.786892,219.05766 C 40.872825,219.05738 43.455683,216.47447 43.455986,213.38857 L 43.455986,114.20895 C 43.455683,111.12306 40.872787,108.54017 37.786892,108.53986 L 12.423606,108.53986 C 12.354766,108.53609 12.285825,108.54111 12.21692,108.53986 C 12.079109,108.53735 11.941229,108.53232 11.803549,108.53986 z M 62.559651,108.53986 C 62.490498,108.5478 62.42158,108.55764 62.352966,108.56938 C 59.498529,108.8837 57.286978,111.36682 57.303929,114.23848 L 57.303929,213.38857 C 57.30424,216.47445 59.887155,219.05735 62.973023,219.05766 L 88.542999,219.05766 C 91.628942,219.05738 94.21179,216.47447 94.212093,213.38857 L 94.212093,184.65926 L 105.40265,184.65926 C 118.86836,184.65929 130.02996,181.65413 138.11804,174.94503 C 146.21992,168.22442 150.28286,158.22779 150.28298,146.57003 C 150.28287,134.95116 146.22029,124.94563 138.11804,118.22456 C 130.02526,111.51172 118.86257,108.53996 105.40265,108.53986 L 63.179708,108.53986 C 63.110867,108.53609 63.04193,108.54111 62.973023,108.53986 C 62.835216,108.53735 62.697335,108.53232 62.559651,108.53986 z M 94.212093,138.42071 L 102.68621,138.42071 C 106.75369,138.42077 109.01018,139.32626 110.42216,140.57614 C 111.87357,141.86106 112.57755,143.24598 112.5776,146.57003 C 112.57755,149.89751 111.90338,151.27006 110.42216,152.59344 C 108.99309,153.87024 106.72915,154.77844 102.68621,154.77841 L 94.212093,154.77841 L 94.212093,138.42071 z "
       id="path23103" />
    <path
       style="font-size:81.34132385px;font-style:normal;font-weight:bold;opacity:0.09917357;fill:black;fill-opacity:1;stroke:#020202;stroke-width:4.72424507;stroke-linecap:round;stroke-linejoin:round;stroke-miterlimit:4;stroke-opacity:0.5;font-family:MetaMedium-Caps"
       d="M 12.453132,31.551323 C 11.241647,31.673178 10.321232,32.695866 10.327222,33.913446 L 10.327222,34.38587 L 10.327222,87.592679 L 10.327222,88.065103 C 10.327354,89.369619 11.384839,90.427094 12.689345,90.427226 L 13.161769,90.427226 L 22.019729,90.427226 L 22.492153,90.427226 C 23.796659,90.427094 24.854139,89.369619 24.854271,88.065103 L 24.854271,87.592679 L 24.854271,66.038312 L 36.842043,66.038312 L 37.314467,66.038312 C 38.618973,66.038182 39.676457,64.9807 39.67659,63.676189 L 39.67659,63.203765 L 39.67659,56.058344 L 39.67659,55.58592 C 39.676457,54.281409 38.618973,53.223928 37.314467,53.223797 L 36.842043,53.223797 L 24.854271,53.223797 L 24.854271,44.454418 L 40.208067,44.454418 L 40.621439,44.454418 C 41.797766,44.450784 42.792191,43.582236 42.954034,42.417087 L 43.013088,42.003716 L 44.105569,34.828768 C 44.116426,34.789659 44.126271,34.750278 44.135096,34.710662 L 44.194149,34.149658 C 44.261044,33.483391 44.054056,32.814489 43.603618,32.319013 C 43.15319,31.823536 42.501631,31.54804 41.832026,31.551323 L 41.300549,31.551323 L 13.161769,31.551323 L 12.689345,31.551323 C 12.610658,31.547384 12.531819,31.547384 12.453132,31.551323 z M 55.650443,43.007618 C 54.744408,43.104093 53.974621,43.713029 53.672165,44.572524 L 53.554059,44.897316 L 38.111683,86.588777 C 38.111617,86.598622 38.111617,86.608458 38.111683,86.618303 L 37.875471,87.267887 C 37.616696,87.989959 37.730475,88.795217 38.170736,89.423324 C 38.611008,90.051431 39.322923,90.424183 40.089961,90.427226 L 40.769071,90.427226 L 49.774663,90.427226 L 50.099455,90.427226 C 51.093313,90.423352 51.978457,89.797852 52.313945,88.86232 L 52.432051,88.537528 L 55.296125,80.417732 L 65.541831,80.417732 L 68.464957,88.537528 L 68.583064,88.86232 C 68.918551,89.797852 69.803695,90.423352 70.797553,90.427226 L 71.122345,90.427226 L 80.423203,90.427226 L 81.102313,90.427226 C 81.869351,90.424183 82.581276,90.051431 83.021537,89.423324 C 83.46179,88.795217 83.575578,87.989959 83.316803,87.267887 L 83.08059,86.618303 L 68.346851,44.897316 L 68.228745,44.572524 C 67.893258,43.636995 67.008114,43.011491 66.014255,43.007618 L 65.659937,43.007618 L 56.211447,43.007618 L 55.886655,43.007618 C 55.807968,43.003679 55.72913,43.003679 55.650443,43.007618 z M 178.71703,43.007618 C 175.48008,43.007664 172.46584,43.575422 169.74096,44.779209 C 167.05535,45.96578 164.72351,47.680771 162.86128,49.857773 C 161.00784,52.024662 159.60167,54.613838 158.63898,57.564198 C 157.74305,60.310263 157.34722,63.303143 157.28076,66.48121 C 157.24102,66.655563 157.22122,66.833864 157.22171,67.012688 L 157.22171,67.337479 C 157.22174,70.832834 157.69667,74.106651 158.69804,77.081234 C 159.69261,80.035417 161.15259,82.621205 163.06796,84.787658 C 164.97544,86.945108 167.27867,88.627232 169.91812,89.807169 C 172.59198,91.002478 175.55854,91.608287 178.71703,91.608287 C 181.9535,91.608287 184.97987,91.033176 187.69309,89.866222 C 190.38851,88.706949 192.73054,87.006561 194.6023,84.817185 C 196.46377,82.639856 197.83651,80.045858 198.79507,77.11076 C 199.76339,74.145758 200.24188,70.879046 200.24187,67.337479 C 200.24186,63.795612 199.76877,60.512836 198.76554,57.534671 C 197.77034,54.580387 196.31108,51.994794 194.39561,49.828246 C 192.49616,47.679883 190.19995,45.965915 187.54546,44.779209 C 184.8499,43.574238 181.85925,43.007665 178.71703,43.007618 z M 208.39119,43.037144 C 207.1797,43.158998 206.25929,44.181686 206.26528,45.399267 L 206.26528,45.871691 L 206.26528,77.642238 L 202.24967,77.642238 L 201.77725,77.642238 C 200.47274,77.64237 199.41526,78.699855 199.41512,80.00436 L 199.41512,80.476785 L 199.41512,87.681258 L 199.41512,88.153683 C 199.41526,89.458198 200.47274,90.515673 201.77725,90.515805 L 202.24967,90.515805 L 226.01853,90.515805 L 226.49095,90.515805 C 227.79546,90.515673 228.85294,89.458198 228.85308,88.153683 L 228.85308,87.681258 L 228.85308,80.476785 L 228.85308,80.00436 C 228.85294,78.699855 227.79546,77.64237 226.49095,77.642238 L 226.01853,77.642238 L 220.52659,77.642238 L 220.52659,60.959749 C 220.86347,61.133639 221.19368,61.357739 221.5305,61.520753 C 223.25628,62.356059 225.07686,63.151774 226.93385,63.882875 C 226.9534,63.892992 226.97308,63.902835 226.9929,63.912402 L 227.40628,64.060034 C 228.5797,64.493015 229.88725,63.936337 230.38845,62.790394 L 230.56561,62.377022 L 232.69152,57.770883 C 232.71187,57.741804 232.73156,57.71227 232.75058,57.682304 L 232.89821,57.327985 C 233.29878,56.356913 233.01002,55.237988 232.18957,54.582018 L 231.89431,54.345806 C 231.86557,54.315501 231.83603,54.285965 231.80573,54.257226 L 217.01294,43.568622 C 216.95569,43.52661 216.89658,43.487201 216.83578,43.450516 L 216.68814,43.361936 C 216.32122,43.146643 215.90297,43.03443 215.47756,43.037144 L 215.32992,43.037144 L 209.09983,43.037144 L 208.6274,43.037144 C 208.54871,43.033205 208.46988,43.033205 208.39119,43.037144 z M 86.476142,43.15525 C 85.264656,43.277104 84.344241,44.299792 84.350231,45.517373 L 84.350231,45.989797 L 84.350231,87.592679 L 84.350231,88.065103 C 84.350364,89.369619 85.407848,90.427094 86.712354,90.427226 L 87.184778,90.427226 L 96.013211,90.427226 L 96.485636,90.427226 C 97.790141,90.427094 98.847626,89.369619 98.847758,88.065103 L 98.847758,87.592679 L 98.847758,74.778164 L 108.17814,88.891846 L 108.20767,88.950899 L 108.29625,89.128058 C 108.70037,89.929971 109.52419,90.433424 110.42216,90.427226 L 110.6879,90.427226 L 122.14419,90.427226 L 123.08904,90.427226 C 123.97845,90.429966 124.7802,89.919804 125.18542,89.128058 C 125.59065,88.336313 125.53066,87.397199 125.00826,86.677356 L 124.44726,85.909667 C 124.43742,85.90961 124.42758,85.90961 124.41773,85.909667 L 109.2411,65.270622 L 121.19934,50.034932 L 121.19934,52.987585 L 121.19934,53.46001 C 121.19947,54.76452 122.25696,55.822002 123.56146,55.822132 L 124.03389,55.822132 L 132.65564,55.822132 L 132.65564,87.592679 L 132.65564,88.065103 C 132.65577,89.369619 133.71325,90.427094 135.01776,90.427226 L 135.49018,90.427226 L 144.17098,90.427226 L 144.64341,90.427226 C 145.94791,90.427094 147.0054,89.369619 147.00553,88.065103 L 147.00553,87.592679 L 147.00553,55.822132 L 155.47965,55.822132 L 155.86349,55.822132 C 157.03013,55.820648 158.021,54.967754 158.19609,53.814328 L 158.22561,53.578116 L 158.25514,53.46001 L 158.25514,53.430483 L 159.70194,46.609854 C 159.70201,46.600012 159.70201,46.590169 159.70194,46.580328 L 159.82005,45.989797 C 159.96143,45.296765 159.79365,44.589997 159.34762,44.041046 C 158.9016,43.492095 158.22427,43.158726 157.51698,43.15525 L 156.92645,43.15525 L 124.03389,43.15525 L 123.56146,43.15525 C 123.24761,43.152913 122.93646,43.213139 122.64614,43.332409 C 122.35583,43.213139 122.04467,43.152913 121.73082,43.15525 L 120.75644,43.15525 L 110.00879,43.15525 L 109.74305,43.15525 C 108.90213,43.158266 108.12621,43.608074 107.70572,44.336312 L 98.847758,56.707928 L 98.847758,45.989797 L 98.847758,45.517373 C 98.847626,44.212862 97.790141,43.155381 96.485636,43.15525 L 96.013211,43.15525 L 87.184778,43.15525 L 86.712354,43.15525 C 86.633667,43.151311 86.554829,43.151311 86.476142,43.15525 z M 178.8056,55.290655 C 181.2124,55.290682 182.14165,55.83837 183.11648,57.564198 C 184.14496,59.38503 184.85855,62.485732 184.85854,66.776475 C 184.85854,69.614427 184.6737,71.90845 184.32707,73.597103 C 183.97355,75.319383 183.44342,76.581824 182.93932,77.346972 C 182.39711,78.170002 181.90575,78.5771 181.34489,78.823299 C 180.6586,79.124583 179.80938,79.295724 178.65797,79.295724 C 176.23504,79.295733 175.28418,78.743233 174.31757,77.051707 C 173.29268,75.258138 172.57555,72.178743 172.57551,67.898483 C 172.57553,65.076181 172.78278,62.795565 173.13651,61.048328 C 173.49074,59.29892 174.02246,58.029838 174.52426,57.268932 C 175.08352,56.420961 175.54426,56.032015 176.08916,55.792606 C 176.79296,55.483442 177.68736,55.290684 178.8056,55.290655 z M 60.551847,63.469504 L 61.910068,68.134696 L 59.1641,68.134696 L 60.551847,63.469504 z "
       id="path22163" />
    <g
       id="g22067"
       transform="matrix(0.944849,0,0,0.944849,-69.89334,-23.79351)">
      <g
         style="opacity:0.5"
         id="g22022">
        <g
           id="g21108">
          <path
             sodipodi:nodetypes="cccc"
             id="rect20204"
             d="M 160.5,118.50466 L 491.5,127.50466 L 160.5,127.50466 L 160.5,118.50466 z "
             style="fill:url(#linearGradient25051);fill-opacity:1;fill-rule:nonzero;stroke:none;stroke-width:1;stroke-linecap:round;stroke-linejoin:round;stroke-miterlimit:4;stroke-opacity:0.5" />
          <path
             style="opacity:0.5;fill:url(#linearGradient25053);fill-opacity:1;fill-rule:nonzero;stroke:none;stroke-width:1;stroke-linecap:round;stroke-linejoin:round;stroke-miterlimit:4;stroke-opacity:0.5"
             d="M 160.5,136.53781 L 490.5,127.53781 L 160.5,127.53781 L 160.5,136.53781 z "
             id="path21100"
             sodipodi:nodetypes="cccc" />
          <path
             sodipodi:nodetypes="cccc"
             id="path21104"
             d="M 160.5,136.53781 L 322,127.53781 L 160.5,127.53781 L 160.5,136.53781 z "
             style="opacity:0.5;fill:url(#linearGradient25055);fill-opacity:1;fill-rule:nonzero;stroke:none;stroke-width:1;stroke-linecap:round;stroke-linejoin:round;stroke-miterlimit:4;stroke-opacity:0.5" />
        </g>
        <g
           id="g21113"
           transform="matrix(-0.451662,0,0,-1,232.9918,255.0424)">
          <path
             style="fill:url(#linearGradient25057);fill-opacity:1;fill-rule:nonzero;stroke:none;stroke-width:1;stroke-linecap:round;stroke-linejoin:round;stroke-miterlimit:4;stroke-opacity:0.5"
             d="M 160.5,118.50466 L 491.5,127.50466 L 160.5,127.50466 L 160.5,118.50466 z "
             id="path21115"
             sodipodi:nodetypes="cccc" />
          <path
             sodipodi:nodetypes="cccc"
             id="path21117"
             d="M 160.5,136.53781 L 490.5,127.53781 L 160.5,127.53781 L 160.5,136.53781 z "
             style="opacity:0.5;fill:url(#linearGradient25059);fill-opacity:1;fill-rule:nonzero;stroke:none;stroke-width:1;stroke-linecap:round;stroke-linejoin:round;stroke-miterlimit:4;stroke-opacity:0.5" />
          <path
             style="opacity:0.5;fill:url(#linearGradient25061);fill-opacity:1;fill-rule:nonzero;stroke:none;stroke-width:1;stroke-linecap:round;stroke-linejoin:round;stroke-miterlimit:4;stroke-opacity:0.5"
             d="M 160.5,136.53781 L 322,127.53781 L 160.5,127.53781 L 160.5,136.53781 z "
             id="path21119"
             sodipodi:nodetypes="cccc" />
        </g>
        <path
           sodipodi:type="arc"
           style="opacity:1;fill:url(#radialGradient25063);fill-opacity:1;fill-rule:nonzero;stroke:none;stroke-width:1;stroke-linecap:round;stroke-linejoin:round;stroke-miterlimit:4;stroke-dasharray:none;stroke-opacity:0.5"
           id="path21127"
           sodipodi:cx="160.41667"
           sodipodi:cy="127.6282"
           sodipodi:rx="42.307693"
           sodipodi:ry="8.4615383"
           d="M 202.72437 127.6282 A 42.307693 8.4615383 0 1 1  118.10898,127.6282 A 42.307693 8.4615383 0 1 1  202.72437 127.6282 z" />
      </g>
      <g
         transform="matrix(1,0,0,-0.491678,0,190.2205)"
         id="g22033"
         style="opacity:0.5">
        <g
           id="g22035">
          <path
             style="fill:url(#linearGradient25065);fill-opacity:1;fill-rule:nonzero;stroke:none;stroke-width:1;stroke-linecap:round;stroke-linejoin:round;stroke-miterlimit:4;stroke-opacity:0.5"
             d="M 160.5,118.50466 L 491.5,127.50466 L 160.5,127.50466 L 160.5,118.50466 z "
             id="path22037"
             sodipodi:nodetypes="cccc" />
          <path
             sodipodi:nodetypes="cccc"
             id="path22039"
             d="M 160.5,136.53781 L 490.5,127.53781 L 160.5,127.53781 L 160.5,136.53781 z "
             style="opacity:0.5;fill:url(#linearGradient25067);fill-opacity:1;fill-rule:nonzero;stroke:none;stroke-width:1;stroke-linecap:round;stroke-linejoin:round;stroke-miterlimit:4;stroke-opacity:0.5" />
          <path
             style="opacity:0.5;fill:url(#linearGradient25069);fill-opacity:1;fill-rule:nonzero;stroke:none;stroke-width:1;stroke-linecap:round;stroke-linejoin:round;stroke-miterlimit:4;stroke-opacity:0.5"
             d="M 160.5,136.53781 L 322,127.53781 L 160.5,127.53781 L 160.5,136.53781 z "
             id="path22041"
             sodipodi:nodetypes="cccc" />
        </g>
        <g
           transform="matrix(-0.451662,0,0,-1,232.9918,255.0424)"
           id="g22043">
          <path
             sodipodi:nodetypes="cccc"
             id="path22045"
             d="M 160.5,118.50466 L 491.5,127.50466 L 160.5,127.50466 L 160.5,118.50466 z "
             style="fill:url(#linearGradient25071);fill-opacity:1;fill-rule:nonzero;stroke:none;stroke-width:1;stroke-linecap:round;stroke-linejoin:round;stroke-miterlimit:4;stroke-opacity:0.5" />
          <path
             style="opacity:0.5;fill:url(#linearGradient25073);fill-opacity:1;fill-rule:nonzero;stroke:none;stroke-width:1;stroke-linecap:round;stroke-linejoin:round;stroke-miterlimit:4;stroke-opacity:0.5"
             d="M 160.5,136.53781 L 490.5,127.53781 L 160.5,127.53781 L 160.5,136.53781 z "
             id="path22047"
             sodipodi:nodetypes="cccc" />
          <path
             sodipodi:nodetypes="cccc"
             id="path22049"
             d="M 160.5,136.53781 L 322,127.53781 L 160.5,127.53781 L 160.5,136.53781 z "
             style="opacity:0.5;fill:url(#linearGradient25075);fill-opacity:1;fill-rule:nonzero;stroke:none;stroke-width:1;stroke-linecap:round;stroke-linejoin:round;stroke-miterlimit:4;stroke-opacity:0.5" />
        </g>
        <path
           d="M 202.72437 127.6282 A 42.307693 8.4615383 0 1 1  118.10898,127.6282 A 42.307693 8.4615383 0 1 1  202.72437 127.6282 z"
           sodipodi:ry="8.4615383"
           sodipodi:rx="42.307693"
           sodipodi:cy="127.6282"
           sodipodi:cx="160.41667"
           id="path22051"
           style="opacity:1;fill:url(#radialGradient25077);fill-opacity:1;fill-rule:nonzero;stroke:none;stroke-width:1;stroke-linecap:round;stroke-linejoin:round;stroke-miterlimit:4;stroke-dasharray:none;stroke-opacity:0.5"
           sodipodi:type="arc" />
      </g>
    </g>
    <g
       id="g22089"
       transform="matrix(0,0.552987,-0.552987,0,152.2217,7.925373)"
       style="opacity:0.5">
      <g
         id="g22091"
         style="opacity:0.5">
        <g
           id="g22093">
          <path
             style="fill:url(#linearGradient25079);fill-opacity:1;fill-rule:nonzero;stroke:none;stroke-width:1;stroke-linecap:round;stroke-linejoin:round;stroke-miterlimit:4;stroke-opacity:0.5"
             d="M 160.5,118.50466 L 491.5,127.50466 L 160.5,127.50466 L 160.5,118.50466 z "
             id="path22095"
             sodipodi:nodetypes="cccc" />
          <path
             sodipodi:nodetypes="cccc"
             id="path22097"
             d="M 160.5,136.53781 L 490.5,127.53781 L 160.5,127.53781 L 160.5,136.53781 z "
             style="opacity:0.5;fill:url(#linearGradient25081);fill-opacity:1;fill-rule:nonzero;stroke:none;stroke-width:1;stroke-linecap:round;stroke-linejoin:round;stroke-miterlimit:4;stroke-opacity:0.5" />
          <path
             style="opacity:0.5;fill:url(#linearGradient25083);fill-opacity:1;fill-rule:nonzero;stroke:none;stroke-width:1;stroke-linecap:round;stroke-linejoin:round;stroke-miterlimit:4;stroke-opacity:0.5"
             d="M 160.5,136.53781 L 322,127.53781 L 160.5,127.53781 L 160.5,136.53781 z "
             id="path22099"
             sodipodi:nodetypes="cccc" />
        </g>
        <g
           transform="matrix(-0.451662,0,0,-1,232.9918,255.0424)"
           id="g22101">
          <path
             sodipodi:nodetypes="cccc"
             id="path22103"
             d="M 160.5,118.50466 L 491.5,127.50466 L 160.5,127.50466 L 160.5,118.50466 z "
             style="fill:url(#linearGradient25085);fill-opacity:1;fill-rule:nonzero;stroke:none;stroke-width:1;stroke-linecap:round;stroke-linejoin:round;stroke-miterlimit:4;stroke-opacity:0.5" />
          <path
             style="opacity:0.5;fill:url(#linearGradient25087);fill-opacity:1;fill-rule:nonzero;stroke:none;stroke-width:1;stroke-linecap:round;stroke-linejoin:round;stroke-miterlimit:4;stroke-opacity:0.5"
             d="M 160.5,136.53781 L 490.5,127.53781 L 160.5,127.53781 L 160.5,136.53781 z "
             id="path22105"
             sodipodi:nodetypes="cccc" />
          <path
             sodipodi:nodetypes="cccc"
             id="path22107"
             d="M 160.5,136.53781 L 322,127.53781 L 160.5,127.53781 L 160.5,136.53781 z "
             style="opacity:0.5;fill:url(#linearGradient25089);fill-opacity:1;fill-rule:nonzero;stroke:none;stroke-width:1;stroke-linecap:round;stroke-linejoin:round;stroke-miterlimit:4;stroke-opacity:0.5" />
        </g>
        <path
           d="M 202.72437 127.6282 A 42.307693 8.4615383 0 1 1  118.10898,127.6282 A 42.307693 8.4615383 0 1 1  202.72437 127.6282 z"
           sodipodi:ry="8.4615383"
           sodipodi:rx="42.307693"
           sodipodi:cy="127.6282"
           sodipodi:cx="160.41667"
           id="path22109"
           style="opacity:1;fill:url(#radialGradient25091);fill-opacity:1;fill-rule:nonzero;stroke:none;stroke-width:1;stroke-linecap:round;stroke-linejoin:round;stroke-miterlimit:4;stroke-dasharray:none;stroke-opacity:0.5"
           sodipodi:type="arc" />
      </g>
      <g
         style="opacity:0.5"
         id="g22111"
         transform="matrix(1,0,0,-0.491678,0,190.2205)">
        <g
           id="g22113">
          <path
             sodipodi:nodetypes="cccc"
             id="path22115"
             d="M 160.5,118.50466 L 491.5,127.50466 L 160.5,127.50466 L 160.5,118.50466 z "
             style="fill:url(#linearGradient25093);fill-opacity:1;fill-rule:nonzero;stroke:none;stroke-width:1;stroke-linecap:round;stroke-linejoin:round;stroke-miterlimit:4;stroke-opacity:0.5" />
          <path
             style="opacity:0.5;fill:url(#linearGradient25095);fill-opacity:1;fill-rule:nonzero;stroke:none;stroke-width:1;stroke-linecap:round;stroke-linejoin:round;stroke-miterlimit:4;stroke-opacity:0.5"
             d="M 160.5,136.53781 L 490.5,127.53781 L 160.5,127.53781 L 160.5,136.53781 z "
             id="path22117"
             sodipodi:nodetypes="cccc" />
          <path
             sodipodi:nodetypes="cccc"
             id="path22119"
             d="M 160.5,136.53781 L 322,127.53781 L 160.5,127.53781 L 160.5,136.53781 z "
             style="opacity:0.5;fill:url(#linearGradient25097);fill-opacity:1;fill-rule:nonzero;stroke:none;stroke-width:1;stroke-linecap:round;stroke-linejoin:round;stroke-miterlimit:4;stroke-opacity:0.5" />
        </g>
        <g
           id="g22121"
           transform="matrix(-0.451662,0,0,-1,232.9918,255.0424)">
          <path
             style="fill:url(#linearGradient25099);fill-opacity:1;fill-rule:nonzero;stroke:none;stroke-width:1;stroke-linecap:round;stroke-linejoin:round;stroke-miterlimit:4;stroke-opacity:0.5"
             d="M 160.5,118.50466 L 491.5,127.50466 L 160.5,127.50466 L 160.5,118.50466 z "
             id="path22123"
             sodipodi:nodetypes="cccc" />
          <path
             sodipodi:nodetypes="cccc"
             id="path22125"
             d="M 160.5,136.53781 L 490.5,127.53781 L 160.5,127.53781 L 160.5,136.53781 z "
             style="opacity:0.5;fill:url(#linearGradient25101);fill-opacity:1;fill-rule:nonzero;stroke:none;stroke-width:1;stroke-linecap:round;stroke-linejoin:round;stroke-miterlimit:4;stroke-opacity:0.5" />
          <path
             style="opacity:0.5;fill:url(#linearGradient25103);fill-opacity:1;fill-rule:nonzero;stroke:none;stroke-width:1;stroke-linecap:round;stroke-linejoin:round;stroke-miterlimit:4;stroke-opacity:0.5"
             d="M 160.5,136.53781 L 322,127.53781 L 160.5,127.53781 L 160.5,136.53781 z "
             id="path22127"
             sodipodi:nodetypes="cccc" />
        </g>
        <path
           sodipodi:type="arc"
           style="opacity:1;fill:url(#radialGradient25105);fill-opacity:1;fill-rule:nonzero;stroke:none;stroke-width:1;stroke-linecap:round;stroke-linejoin:round;stroke-miterlimit:4;stroke-dasharray:none;stroke-opacity:0.5"
           id="path22129"
           sodipodi:cx="160.41667"
           sodipodi:cy="127.6282"
           sodipodi:rx="42.307693"
           sodipodi:ry="8.4615383"
           d="M 202.72437 127.6282 A 42.307693 8.4615383 0 1 1  118.10898,127.6282 A 42.307693 8.4615383 0 1 1  202.72437 127.6282 z" />
      </g>
    </g>
    <path
       style="font-size:12px;font-style:normal;font-weight:normal;fill:white;fill-opacity:0.75;stroke:white;stroke-width:7.559;stroke-linecap:round;stroke-linejoin:round;stroke-miterlimit:4;stroke-dasharray:none;stroke-opacity:0.75;font-family:Bitstream Vera Sans"
       d="M 191.31583,107.18389 C 179.07761,107.184 169.41043,109.91243 162.58651,115.59896 C 155.76653,121.28236 152.34079,129.55694 152.34081,139.84024 C 152.3408,148.09014 154.8227,154.94675 159.78149,159.97733 C 164.74287,165.01068 172.34871,168.46389 182.4874,170.63641 L 192.34926,172.8509 C 198.25201,174.15302 202.1363,175.70901 203.62839,176.95509 C 205.20537,178.27219 205.96093,179.99239 205.96099,182.68324 C 205.96093,185.59682 204.90958,187.48043 202.38828,189.06097 C 199.87248,190.63802 195.94815,191.57074 190.57767,191.57072 C 185.28127,191.57074 179.74672,190.72297 173.98376,189.06097 C 168.21654,187.39779 162.23709,184.93402 156.0021,181.62028 C 155.41884,181.31086 154.71639,181.32826 154.14917,181.66618 C 153.58195,182.0041 153.2322,182.61354 153.2266,183.27377 L 153.2266,204.88719 C 153.22328,205.67175 153.70505,206.37678 154.43719,206.65878 C 160.86504,209.04114 167.3054,210.81627 173.74754,212.03261 C 180.193,213.24959 186.6194,213.86325 193.02837,213.86325 C 206.61171,213.86325 216.99327,211.18844 223.97217,205.44819 C 230.94976,199.70888 234.39494,190.86662 234.39504,179.55342 C 234.39494,170.87518 231.90276,163.86581 226.83625,158.9439 C 221.76095,154.01376 213.60927,150.59716 202.38828,148.34388 L 191.49299,146.15892 C 186.4344,145.12133 183.02131,143.81031 181.51302,142.67479 C 179.97521,141.51718 179.32802,140.17034 179.32806,137.98007 C 179.32803,134.95664 180.32689,133.17647 182.75313,131.7795 C 185.18267,130.38072 189.42235,129.50603 195.36096,129.50595 C 199.79748,129.50603 204.53401,130.09653 209.59275,131.30707 C 214.64801,132.51697 219.85928,134.31692 225.21229,136.71043 C 225.79455,136.96921 226.46801,136.91717 227.0036,136.57201 C 227.53919,136.22685 227.8648,135.63505 227.86967,134.99789 L 227.86967,114.00452 C 227.8736,113.15093 227.30485,112.40067 226.48193,112.17388 C 220.25974,110.51773 214.2207,109.25498 208.38216,108.42401 C 202.54216,107.59304 196.85813,107.184 191.31583,107.18389 z M 6.3616372,108.98501 C 5.3994786,109.09096 4.6729086,109.90675 4.6786249,110.87471 L 4.6786249,210.05433 C 4.6787289,211.09793 5.5247183,211.94392 6.5683229,211.94403 L 32.138299,211.94403 C 33.181904,211.94392 34.027893,211.09793 34.027997,210.05433 L 34.027997,110.87471 C 34.027893,109.83111 33.181904,108.98512 32.138299,108.98501 L 6.5683229,108.98501 C 6.4994812,108.98124 6.4304789,108.98124 6.3616372,108.98501 L 6.3616372,108.98501 z M 57.117744,108.98501 C 56.155586,109.09096 55.429016,109.90675 55.434732,110.87471 L 55.434732,210.05433 C 55.434836,211.09793 56.280826,211.94392 57.32443,211.94403 L 82.894406,211.94403 C 83.938011,211.94392 84.784,211.09793 84.784104,210.05433 L 84.784104,177.54562 L 99.754056,177.54562 C 112.65617,177.54566 122.84878,174.65966 130.04828,168.68766 C 137.24495,162.71793 140.85488,154.0527 140.85499,143.23579 C 140.85489,132.46154 137.24304,123.78174 130.04828,117.81345 C 122.84879,111.84158 112.65616,108.98512 99.754056,108.98501 L 57.32443,108.98501 C 57.255588,108.98124 57.186586,108.98124 57.117744,108.98501 L 57.117744,108.98501 z M 191.31583,110.96329 C 196.6687,110.96339 202.17523,111.36633 207.85069,112.17388 C 213.07996,112.91815 218.50976,114.0467 224.09028,115.48085 L 224.09028,132.19287 C 219.47821,130.27959 214.92641,128.71031 210.47855,127.64578 C 205.17333,126.37626 200.13662,125.72664 195.36096,125.72656 C 189.07549,125.72664 184.28007,126.53497 180.86344,128.50205 C 177.44335,130.47126 175.54862,133.91727 175.54866,137.98007 C 175.54861,141.1047 176.83542,143.87681 179.23948,145.68649 C 181.67289,147.51851 185.41999,148.76154 190.7253,149.84973 L 201.62059,152.06422 C 212.45577,154.24003 219.98267,157.55549 224.20838,161.66034 C 228.44254,165.77364 230.61556,171.57877 230.61564,179.55342 C 230.61555,190.11942 227.57967,197.59055 221.58052,202.52506 C 215.58235,207.45865 206.10736,210.08386 193.02837,210.08386 C 186.85894,210.08386 180.67753,209.51646 174.45618,208.34179 C 168.64476,207.24454 162.82961,205.61707 157.006,203.52897 L 157.006,186.28547 C 162.44687,188.9943 167.78093,191.20196 172.95033,192.69273 C 179.01266,194.44107 184.89012,195.35014 190.57767,195.35012 C 196.3681,195.35014 200.97694,194.39316 204.39608,192.24983 C 207.80948,190.11006 209.74031,186.67891 209.74038,182.68324 C 209.74031,179.17357 208.50284,176.11048 206.04957,174.06149 C 203.51117,171.94162 199.31996,170.51542 193.176,169.16008 L 183.28461,166.94559 C 183.27477,166.94552 183.26493,166.94552 183.25509,166.94559 C 173.55187,164.86639 166.67498,161.58754 162.46841,157.31994 C 158.25917,153.04978 156.12019,147.35763 156.1202,139.84024 C 156.12018,130.37045 159.07219,123.43888 165.00769,118.49256 C 170.93917,113.54973 179.6375,110.96339 191.31583,110.96329 z M 8.4580209,112.76441 L 30.248601,112.76441 L 30.248601,208.16463 L 8.4580209,208.16463 L 8.4580209,112.76441 z M 59.214128,112.76441 L 99.754056,112.76441 C 112.097,112.7645 121.31804,115.50331 127.6271,120.73657 C 133.94053,125.97377 137.0755,133.28256 137.07559,143.23579 C 137.0755,153.23519 133.93864,160.55857 127.6271,165.79406 C 121.31803,171.02745 112.09699,173.76626 99.754056,173.76622 L 82.894406,173.76622 C 81.850802,173.76633 81.004812,174.61232 81.004708,175.65592 L 81.004708,208.16463 L 59.214128,208.16463 L 59.214128,112.76441 z M 82.687721,127.52767 C 81.725562,127.63362 80.998992,128.44941 81.004708,129.41737 L 81.004708,157.11326 C 81.004812,158.15686 81.850802,159.00285 82.894406,159.00296 L 97.037615,159.00296 C 102.30453,159.00301 106.66285,157.69546 109.79308,154.89877 C 112.92291,152.10243 114.48772,148.04905 114.48779,143.23579 C 114.48771,138.42265 112.92814,134.34827 109.79308,131.57281 C 106.66156,128.80081 102.3017,127.52776 97.037615,127.52767 L 82.894406,127.52767 C 82.825565,127.5239 82.756562,127.5239 82.687721,127.52767 z M 84.784104,131.30707 L 97.037615,131.30707 C 101.69432,131.30715 105.01135,132.39622 107.28332,134.40736 C 109.55148,136.41535 110.70833,139.19111 110.7084,143.23579 C 110.70833,147.28061 109.55669,150.03309 107.28332,152.06422 C 105.01008,154.09523 101.69148,155.22361 97.037615,155.22356 L 84.784104,155.22356 L 84.784104,131.30707 z "
       id="text13688" />
    <text
       id="text14581"
       y="210.05661"
       x="-5.934267"
       style="font-size:11.33818817px;font-style:normal;font-weight:normal;fill:#576bbf;fill-opacity:1;stroke:none;stroke-width:4;stroke-linecap:round;stroke-linejoin:round;stroke-miterlimit:4;stroke-dasharray:none;stroke-opacity:0.75;font-family:Bitstream Vera Sans"
       xml:space="preserve"><tspan
         style="font-size:136.05825806px;font-weight:bold;fill:#576bbf;fill-opacity:1;stroke:none;stroke-width:4;stroke-linecap:round;stroke-linejoin:round;stroke-miterlimit:4;stroke-dasharray:none;stroke-opacity:0.75"
         y="210.05661"
         x="-5.934267"
         id="tspan14583"
         sodipodi:role="line">IPS</tspan></text>
    <g
       id="g12790"
       transform="matrix(0.944849,0,0,0.944849,-109.2015,-10.80183)">
      <path
         id="text1964"
         d="M 125.84375,45.5625 L 125.84375,46.0625 L 125.84375,102.375 L 125.84375,102.875 L 126.34375,102.875 L 135.71875,102.875 L 136.21875,102.875 L 136.21875,102.375 L 136.21875,77.0625 L 151.40625,77.0625 L 151.90625,77.0625 L 151.90625,76.5625 L 151.90625,69 L 151.90625,68.5 L 151.40625,68.5 L 136.21875,68.5 L 136.21875,54.21875 L 154.96875,54.21875 L 155.40625,54.21875 L 155.46875,53.78125 L 156.625,46.15625 L 156.6875,45.5625 L 156.125,45.5625 L 126.34375,45.5625 L 125.84375,45.5625 z M 171.5625,57.6875 L 171.4375,58.03125 L 155.09375,102.1875 L 154.84375,102.875 L 155.5625,102.875 L 165.09375,102.875 L 165.4375,102.875 L 165.5625,102.53125 L 169.1875,92.28125 L 183.53125,92.28125 L 187.21875,102.53125 L 187.34375,102.875 L 187.6875,102.875 L 197.53125,102.875 L 198.25,102.875 L 198,102.1875 L 182.40625,58.03125 L 182.28125,57.6875 L 181.90625,57.6875 L 171.90625,57.6875 L 171.5625,57.6875 z M 204.1875,57.84375 L 204.1875,58.34375 L 204.1875,102.375 L 204.1875,102.875 L 204.6875,102.875 L 214.03125,102.875 L 214.53125,102.875 L 214.53125,102.375 L 214.53125,80.5 L 229.15625,102.625 L 229.28125,102.875 L 229.5625,102.875 L 241.6875,102.875 L 242.6875,102.875 L 242.09375,102.0625 L 224.90625,78.6875 L 240.625,58.65625 L 241.25,57.84375 L 240.21875,57.84375 L 228.84375,57.84375 L 228.5625,57.84375 L 228.4375,58.0625 L 214.53125,77.46875 L 214.53125,58.34375 L 214.53125,57.84375 L 214.03125,57.84375 L 204.6875,57.84375 L 204.1875,57.84375 z M 243.1875,57.84375 L 243.1875,58.34375 L 243.1875,65.75 L 243.1875,66.25 L 243.6875,66.25 L 255.3125,66.25 L 255.3125,102.375 L 255.3125,102.875 L 255.8125,102.875 L 265,102.875 L 265.5,102.875 L 265.5,102.375 L 265.5,66.25 L 276.96875,66.25 L 277.375,66.25 L 277.4375,65.84375 L 279,58.46875 L 279.125,57.84375 L 278.5,57.84375 L 243.6875,57.84375 L 243.1875,57.84375 z M 176.53125,67.875 L 181.25,84.28125 L 171.6875,84.28125 L 176.53125,67.875 z "
         style="font-size:81.34132385px;font-style:normal;font-weight:bold;fill:black;fill-opacity:1;stroke:white;stroke-width:1.5;stroke-linecap:round;stroke-linejoin:round;stroke-miterlimit:4;stroke-dasharray:none;stroke-opacity:0.75;font-family:MetaMedium-Caps" />
      <path
         id="text2855"
         d="M 333.21875,57.71875 L 333.21875,58.21875 L 333.21875,94.34375 L 326.46875,94.34375 L 325.96875,94.34375 L 325.96875,94.84375 L 325.96875,102.46875 L 325.96875,102.96875 L 326.46875,102.96875 L 351.625,102.96875 L 352.125,102.96875 L 352.125,102.46875 L 352.125,94.84375 L 352.125,94.34375 L 351.625,94.34375 L 343.3125,94.34375 L 343.3125,69.96875 C 344.88066,70.918343 346.44048,71.79159 347.96875,72.53125 C 349.74847,73.392655 351.60483,74.222618 353.5,74.96875 L 353.9375,75.125 L 354.125,74.6875 L 356.4375,69.75 L 356.59375,69.375 L 356.28125,69.125 L 340.625,57.8125 L 340.46875,57.71875 L 340.3125,57.71875 L 333.71875,57.71875 L 333.21875,57.71875 z "
         style="font-size:14.26249504px;font-style:normal;font-weight:normal;fill:#576bbf;fill-opacity:1;stroke:white;stroke-width:1.5;stroke-linecap:round;stroke-linejoin:round;stroke-miterlimit:4;stroke-dasharray:none;stroke-opacity:0.75;font-family:Bitstream Vera Sans" />
      <path
         id="text2859"
         d="M 301.5625,57.6875 C 298.424,57.687545 295.58639,58.228753 293.0625,59.34375 C 290.54577,60.455708 288.41962,62.037607 286.6875,64.0625 C 284.95695,66.085738 283.61724,68.525611 282.6875,71.375 C 281.78814,74.131585 281.37431,77.213933 281.34375,80.59375 L 281.3125,80.59375 L 281.3125,80.9375 C 281.31254,84.407912 281.78932,87.58378 282.75,90.4375 C 283.70948,93.287418 285.08672,95.727292 286.875,97.75 C 288.66135,99.770436 290.79463,101.32588 293.28125,102.4375 C 295.77503,103.5523 298.53492,104.125 301.5625,104.125 C 304.7012,104.125 307.53961,103.58509 310.0625,102.5 C 312.58117,101.41675 314.73674,99.838414 316.46875,97.8125 C 318.19843,95.789342 319.50695,93.349341 320.4375,90.5 C 321.36968,87.645728 321.84376,84.461566 321.84375,80.9375 C 321.84375,77.413824 321.36818,74.230562 320.40625,71.375 C 319.44595,68.524299 318.06958,66.08525 316.28125,64.0625 C 314.49495,62.042103 312.36164,60.455415 309.875,59.34375 C 307.38127,58.228995 304.5901,57.687546 301.5625,57.6875 z M 301.65625,65.6875 C 304.8338,65.687536 307.00214,66.889175 308.40625,69.375 C 309.82391,71.884828 310.56251,75.545972 310.5625,80.34375 C 310.56251,83.458393 310.35499,86.028703 309.9375,88.0625 C 309.51889,90.101947 308.90391,91.724002 308.125,92.90625 C 307.34039,94.097238 306.41615,94.904244 305.34375,95.375 C 304.24778,95.856133 302.98527,96.093755 301.5,96.09375 C 298.32287,96.093756 296.15396,94.925622 294.75,92.46875 C 293.33321,89.989324 292.56255,86.329046 292.5625,81.53125 C 292.56253,78.416647 292.80092,75.845065 293.21875,73.78125 C 293.63757,71.712924 294.25255,70.087043 295.03125,68.90625 C 295.81684,67.715138 296.70972,66.908286 297.78125,66.4375 C 298.87633,65.95646 300.171,65.687539 301.65625,65.6875 z "
         style="font-size:14.26249504px;font-style:normal;font-weight:normal;fill:#576bbf;fill-opacity:1;stroke:white;stroke-width:1.5;stroke-linecap:round;stroke-linejoin:round;stroke-miterlimit:4;stroke-dasharray:none;stroke-opacity:0.75;font-family:Bitstream Vera Sans" />
    </g>
    <g
       transform="matrix(0.944849,0,0,0.944849,-109.2015,-10.80183)"
       id="g12795"
       style="stroke:white;stroke-width:7.40859121;stroke-linecap:round;stroke-linejoin:round;stroke-miterlimit:4;stroke-dasharray:none;stroke-opacity:0.75">
      <path
         style="font-size:81.34132385px;font-style:normal;font-weight:bold;fill:black;fill-opacity:1;stroke:white;stroke-width:7.40859121;stroke-linecap:round;stroke-linejoin:round;stroke-miterlimit:4;stroke-dasharray:none;stroke-opacity:0.75;font-family:MetaMedium-Caps"
         d="M 125.84375,45.5625 L 125.84375,46.0625 L 125.84375,102.375 L 125.84375,102.875 L 126.34375,102.875 L 135.71875,102.875 L 136.21875,102.875 L 136.21875,102.375 L 136.21875,77.0625 L 151.40625,77.0625 L 151.90625,77.0625 L 151.90625,76.5625 L 151.90625,69 L 151.90625,68.5 L 151.40625,68.5 L 136.21875,68.5 L 136.21875,54.21875 L 154.96875,54.21875 L 155.40625,54.21875 L 155.46875,53.78125 L 156.625,46.15625 L 156.6875,45.5625 L 156.125,45.5625 L 126.34375,45.5625 L 125.84375,45.5625 z M 171.5625,57.6875 L 171.4375,58.03125 L 155.09375,102.1875 L 154.84375,102.875 L 155.5625,102.875 L 165.09375,102.875 L 165.4375,102.875 L 165.5625,102.53125 L 169.1875,92.28125 L 183.53125,92.28125 L 187.21875,102.53125 L 187.34375,102.875 L 187.6875,102.875 L 197.53125,102.875 L 198.25,102.875 L 198,102.1875 L 182.40625,58.03125 L 182.28125,57.6875 L 181.90625,57.6875 L 171.90625,57.6875 L 171.5625,57.6875 z M 204.1875,57.84375 L 204.1875,58.34375 L 204.1875,102.375 L 204.1875,102.875 L 204.6875,102.875 L 214.03125,102.875 L 214.53125,102.875 L 214.53125,102.375 L 214.53125,80.5 L 229.15625,102.625 L 229.28125,102.875 L 229.5625,102.875 L 241.6875,102.875 L 242.6875,102.875 L 242.09375,102.0625 L 224.90625,78.6875 L 240.625,58.65625 L 241.25,57.84375 L 240.21875,57.84375 L 228.84375,57.84375 L 228.5625,57.84375 L 228.4375,58.0625 L 214.53125,77.46875 L 214.53125,58.34375 L 214.53125,57.84375 L 214.03125,57.84375 L 204.6875,57.84375 L 204.1875,57.84375 z M 243.1875,57.84375 L 243.1875,58.34375 L 243.1875,65.75 L 243.1875,66.25 L 243.6875,66.25 L 255.3125,66.25 L 255.3125,102.375 L 255.3125,102.875 L 255.8125,102.875 L 265,102.875 L 265.5,102.875 L 265.5,102.375 L 265.5,66.25 L 276.96875,66.25 L 277.375,66.25 L 277.4375,65.84375 L 279,58.46875 L 279.125,57.84375 L 278.5,57.84375 L 243.6875,57.84375 L 243.1875,57.84375 z M 176.53125,67.875 L 181.25,84.28125 L 171.6875,84.28125 L 176.53125,67.875 z "
         id="path12797" />
      <path
         style="font-size:14.26249504px;font-style:normal;font-weight:normal;fill:#576bbf;fill-opacity:1;stroke:white;stroke-width:7.40859121;stroke-linecap:round;stroke-linejoin:round;stroke-miterlimit:4;stroke-dasharray:none;stroke-opacity:0.75;font-family:Bitstream Vera Sans"
         d="M 333.21875,57.71875 L 333.21875,58.21875 L 333.21875,94.34375 L 326.46875,94.34375 L 325.96875,94.34375 L 325.96875,94.84375 L 325.96875,102.46875 L 325.96875,102.96875 L 326.46875,102.96875 L 351.625,102.96875 L 352.125,102.96875 L 352.125,102.46875 L 352.125,94.84375 L 352.125,94.34375 L 351.625,94.34375 L 343.3125,94.34375 L 343.3125,69.96875 C 344.88066,70.918343 346.44048,71.79159 347.96875,72.53125 C 349.74847,73.392655 351.60483,74.222618 353.5,74.96875 L 353.9375,75.125 L 354.125,74.6875 L 356.4375,69.75 L 356.59375,69.375 L 356.28125,69.125 L 340.625,57.8125 L 340.46875,57.71875 L 340.3125,57.71875 L 333.71875,57.71875 L 333.21875,57.71875 z "
         id="path12799" />
      <path
         style="font-size:14.26249504px;font-style:normal;font-weight:normal;fill:#576bbf;fill-opacity:1;stroke:white;stroke-width:7.40859121;stroke-linecap:round;stroke-linejoin:round;stroke-miterlimit:4;stroke-dasharray:none;stroke-opacity:0.75;font-family:Bitstream Vera Sans"
         d="M 301.5625,57.6875 C 298.424,57.687545 295.58639,58.228753 293.0625,59.34375 C 290.54577,60.455708 288.41962,62.037607 286.6875,64.0625 C 284.95695,66.085738 283.61724,68.525611 282.6875,71.375 C 281.78814,74.131585 281.37431,77.213933 281.34375,80.59375 L 281.3125,80.59375 L 281.3125,80.9375 C 281.31254,84.407912 281.78932,87.58378 282.75,90.4375 C 283.70948,93.287418 285.08672,95.727292 286.875,97.75 C 288.66135,99.770436 290.79463,101.32588 293.28125,102.4375 C 295.77503,103.5523 298.53492,104.125 301.5625,104.125 C 304.7012,104.125 307.53961,103.58509 310.0625,102.5 C 312.58117,101.41675 314.73674,99.838414 316.46875,97.8125 C 318.19843,95.789342 319.50695,93.349341 320.4375,90.5 C 321.36968,87.645728 321.84376,84.461566 321.84375,80.9375 C 321.84375,77.413824 321.36818,74.230562 320.40625,71.375 C 319.44595,68.524299 318.06958,66.08525 316.28125,64.0625 C 314.49495,62.042103 312.36164,60.455415 309.875,59.34375 C 307.38127,58.228995 304.5901,57.687546 301.5625,57.6875 z M 301.65625,65.6875 C 304.8338,65.687536 307.00214,66.889175 308.40625,69.375 C 309.82391,71.884828 310.56251,75.545972 310.5625,80.34375 C 310.56251,83.458393 310.35499,86.028703 309.9375,88.0625 C 309.51889,90.101947 308.90391,91.724002 308.125,92.90625 C 307.34039,94.097238 306.41615,94.904244 305.34375,95.375 C 304.24778,95.856133 302.98527,96.093755 301.5,96.09375 C 298.32287,96.093756 296.15396,94.925622 294.75,92.46875 C 293.33321,89.989324 292.56255,86.329046 292.5625,81.53125 C 292.56253,78.416647 292.80092,75.845065 293.21875,73.78125 C 293.63757,71.712924 294.25255,70.087043 295.03125,68.90625 C 295.81684,67.715138 296.70972,66.908286 297.78125,66.4375 C 298.87633,65.95646 300.171,65.687539 301.65625,65.6875 z "
         id="path12801" />
    </g>
    <g
       transform="matrix(0.944849,0,0,0.944849,-109.2015,-10.80183)"
       id="g15470"
       style="stroke:none">
      <path
         style="font-size:81.34132385px;font-style:normal;font-weight:bold;fill:black;fill-opacity:1;stroke:none;stroke-width:1.5;stroke-linecap:round;stroke-linejoin:round;stroke-miterlimit:4;stroke-dasharray:none;stroke-opacity:0.75;font-family:MetaMedium-Caps"
         d="M 125.84375,45.5625 L 125.84375,46.0625 L 125.84375,102.375 L 125.84375,102.875 L 126.34375,102.875 L 135.71875,102.875 L 136.21875,102.875 L 136.21875,102.375 L 136.21875,77.0625 L 151.40625,77.0625 L 151.90625,77.0625 L 151.90625,76.5625 L 151.90625,69 L 151.90625,68.5 L 151.40625,68.5 L 136.21875,68.5 L 136.21875,54.21875 L 154.96875,54.21875 L 155.40625,54.21875 L 155.46875,53.78125 L 156.625,46.15625 L 156.6875,45.5625 L 156.125,45.5625 L 126.34375,45.5625 L 125.84375,45.5625 z M 171.5625,57.6875 L 171.4375,58.03125 L 155.09375,102.1875 L 154.84375,102.875 L 155.5625,102.875 L 165.09375,102.875 L 165.4375,102.875 L 165.5625,102.53125 L 169.1875,92.28125 L 183.53125,92.28125 L 187.21875,102.53125 L 187.34375,102.875 L 187.6875,102.875 L 197.53125,102.875 L 198.25,102.875 L 198,102.1875 L 182.40625,58.03125 L 182.28125,57.6875 L 181.90625,57.6875 L 171.90625,57.6875 L 171.5625,57.6875 z M 204.1875,57.84375 L 204.1875,58.34375 L 204.1875,102.375 L 204.1875,102.875 L 204.6875,102.875 L 214.03125,102.875 L 214.53125,102.875 L 214.53125,102.375 L 214.53125,80.5 L 229.15625,102.625 L 229.28125,102.875 L 229.5625,102.875 L 241.6875,102.875 L 242.6875,102.875 L 242.09375,102.0625 L 224.90625,78.6875 L 240.625,58.65625 L 241.25,57.84375 L 240.21875,57.84375 L 228.84375,57.84375 L 228.5625,57.84375 L 228.4375,58.0625 L 214.53125,77.46875 L 214.53125,58.34375 L 214.53125,57.84375 L 214.03125,57.84375 L 204.6875,57.84375 L 204.1875,57.84375 z M 243.1875,57.84375 L 243.1875,58.34375 L 243.1875,65.75 L 243.1875,66.25 L 243.6875,66.25 L 255.3125,66.25 L 255.3125,102.375 L 255.3125,102.875 L 255.8125,102.875 L 265,102.875 L 265.5,102.875 L 265.5,102.375 L 265.5,66.25 L 276.96875,66.25 L 277.375,66.25 L 277.4375,65.84375 L 279,58.46875 L 279.125,57.84375 L 278.5,57.84375 L 243.6875,57.84375 L 243.1875,57.84375 z M 176.53125,67.875 L 181.25,84.28125 L 171.6875,84.28125 L 176.53125,67.875 z "
         id="path15472" />
      <path
         style="font-size:14.26249504px;font-style:normal;font-weight:normal;fill:#576bbf;fill-opacity:1;stroke:none;stroke-width:1.5;stroke-linecap:round;stroke-linejoin:round;stroke-miterlimit:4;stroke-dasharray:none;stroke-opacity:0.75;font-family:Bitstream Vera Sans"
         d="M 333.21875,57.71875 L 333.21875,58.21875 L 333.21875,94.34375 L 326.46875,94.34375 L 325.96875,94.34375 L 325.96875,94.84375 L 325.96875,102.46875 L 325.96875,102.96875 L 326.46875,102.96875 L 351.625,102.96875 L 352.125,102.96875 L 352.125,102.46875 L 352.125,94.84375 L 352.125,94.34375 L 351.625,94.34375 L 343.3125,94.34375 L 343.3125,69.96875 C 344.88066,70.918343 346.44048,71.79159 347.96875,72.53125 C 349.74847,73.392655 351.60483,74.222618 353.5,74.96875 L 353.9375,75.125 L 354.125,74.6875 L 356.4375,69.75 L 356.59375,69.375 L 356.28125,69.125 L 340.625,57.8125 L 340.46875,57.71875 L 340.3125,57.71875 L 333.71875,57.71875 L 333.21875,57.71875 z "
         id="path15474" />
      <path
         style="font-size:14.26249504px;font-style:normal;font-weight:normal;fill:#576bbf;fill-opacity:1;stroke:none;stroke-width:1.5;stroke-linecap:round;stroke-linejoin:round;stroke-miterlimit:4;stroke-dasharray:none;stroke-opacity:0.75;font-family:Bitstream Vera Sans"
         d="M 301.5625,57.6875 C 298.424,57.687545 295.58639,58.228753 293.0625,59.34375 C 290.54577,60.455708 288.41962,62.037607 286.6875,64.0625 C 284.95695,66.085738 283.61724,68.525611 282.6875,71.375 C 281.78814,74.131585 281.37431,77.213933 281.34375,80.59375 L 281.3125,80.59375 L 281.3125,80.9375 C 281.31254,84.407912 281.78932,87.58378 282.75,90.4375 C 283.70948,93.287418 285.08672,95.727292 286.875,97.75 C 288.66135,99.770436 290.79463,101.32588 293.28125,102.4375 C 295.77503,103.5523 298.53492,104.125 301.5625,104.125 C 304.7012,104.125 307.53961,103.58509 310.0625,102.5 C 312.58117,101.41675 314.73674,99.838414 316.46875,97.8125 C 318.19843,95.789342 319.50695,93.349341 320.4375,90.5 C 321.36968,87.645728 321.84376,84.461566 321.84375,80.9375 C 321.84375,77.413824 321.36818,74.230562 320.40625,71.375 C 319.44595,68.524299 318.06958,66.08525 316.28125,64.0625 C 314.49495,62.042103 312.36164,60.455415 309.875,59.34375 C 307.38127,58.228995 304.5901,57.687546 301.5625,57.6875 z M 301.65625,65.6875 C 304.8338,65.687536 307.00214,66.889175 308.40625,69.375 C 309.82391,71.884828 310.56251,75.545972 310.5625,80.34375 C 310.56251,83.458393 310.35499,86.028703 309.9375,88.0625 C 309.51889,90.101947 308.90391,91.724002 308.125,92.90625 C 307.34039,94.097238 306.41615,94.904244 305.34375,95.375 C 304.24778,95.856133 302.98527,96.093755 301.5,96.09375 C 298.32287,96.093756 296.15396,94.925622 294.75,92.46875 C 293.33321,89.989324 292.56255,86.329046 292.5625,81.53125 C 292.56253,78.416647 292.80092,75.845065 293.21875,73.78125 C 293.63757,71.712924 294.25255,70.087043 295.03125,68.90625 C 295.81684,67.715138 296.70972,66.908286 297.78125,66.4375 C 298.87633,65.95646 300.171,65.687539 301.65625,65.6875 z "
         id="path15476" />
    </g>
  </g>
</svg>
