<?xml version="1.0" encoding="UTF-8" standalone="no"?>
<!-- Created with Inkscape (http://www.inkscape.org/) -->
<svg
   xmlns:dc="http://purl.org/dc/elements/1.1/"
   xmlns:cc="http://web.resource.org/cc/"
   xmlns:rdf="http://www.w3.org/1999/02/22-rdf-syntax-ns#"
   xmlns:svg="http://www.w3.org/2000/svg"
   xmlns="http://www.w3.org/2000/svg"
   xmlns:xlink="http://www.w3.org/1999/xlink"
   xmlns:sodipodi="http://sodipodi.sourceforge.net/DTD/sodipodi-0.dtd"
   xmlns:inkscape="http://www.inkscape.org/namespaces/inkscape"
   width="440"
   height="320"
   id="svg2"
   sodipodi:version="0.32"
   inkscape:version="0.44"
   version="1.0"
   sodipodi:docbase="D:\workspace\org.faktorips.doc\icons"
   sodipodi:docname="FaktorIpsLogo.svg"
   inkscape:export-filename="D:\workspace\org.faktorips.doc\icons\FaktorIpsLogo.png"
   inkscape:export-xdpi="22.5"
   inkscape:export-ydpi="22.5">
  <defs
     id="defs4">
    <linearGradient
       inkscape:collect="always"
       id="linearGradient22014">
      <stop
         style="stop-color:white;stop-opacity:1;"
         offset="0"
         id="stop22016" />
      <stop
         style="stop-color:white;stop-opacity:0;"
         offset="1"
         id="stop22018" />
    </linearGradient>
    <linearGradient
       id="linearGradient21092">
      <stop
         style="stop-color:white;stop-opacity:1;"
         offset="0"
         id="stop21094" />
      <stop
         style="stop-color:white;stop-opacity:0;"
         offset="1"
         id="stop21096" />
    </linearGradient>
    <linearGradient
       id="linearGradient4756">
      <stop
         style="stop-color:#e3e6f5;stop-opacity:0;"
         offset="0"
         id="stop4758" />
      <stop
         style="stop-color:#3c50a0;stop-opacity:0.76774192;"
         offset="1"
         id="stop4762" />
    </linearGradient>
    <linearGradient
       id="linearGradient4740">
      <stop
         id="stop4742"
         offset="0"
         style="stop-color:#e3e6f5;stop-opacity:0;" />
      <stop
         style="stop-color:#acb6e0;stop-opacity:0;"
         offset="0.5321101"
         id="stop4746" />
      <stop
         id="stop4744"
         offset="1"
         style="stop-color:#3c50a0;stop-opacity:0.76774192;" />
    </linearGradient>
    <linearGradient
       id="linearGradient4669">
      <stop
         style="stop-color:#e3e6f5;stop-opacity:1;"
         offset="0"
         id="stop4671" />
      <stop
         style="stop-color:#7586cb;stop-opacity:1;"
         offset="1"
         id="stop4673" />
    </linearGradient>
    <linearGradient
       id="linearGradient4661">
      <stop
         style="stop-color:#e8eaf6;stop-opacity:1;"
         offset="0"
         id="stop4663" />
      <stop
         style="stop-color:#a0abdb;stop-opacity:1;"
         offset="1"
         id="stop4665" />
    </linearGradient>
    <radialGradient
       inkscape:collect="always"
       xlink:href="#linearGradient4669"
       id="radialGradient16539"
       gradientUnits="userSpaceOnUse"
       cx="213.65384"
       cy="112.82052"
       fx="213.65384"
       fy="112.82052"
       r="113.67308" />
    <radialGradient
       inkscape:collect="always"
       xlink:href="#linearGradient4740"
       id="radialGradient16541"
       gradientUnits="userSpaceOnUse"
       cx="241.15384"
       cy="150.54488"
       fx="241.15384"
       fy="150.54488"
       r="113.67308" />
    <linearGradient
       inkscape:collect="always"
       xlink:href="#linearGradient21092"
       id="linearGradient21098"
       x1="160"
       y1="127.5"
       x2="163.46794"
       y2="90.21154"
       gradientUnits="userSpaceOnUse"
       gradientTransform="translate(0.499999,4.66e-3)" />
    <linearGradient
       inkscape:collect="always"
       xlink:href="#linearGradient21092"
       id="linearGradient21102"
       gradientUnits="userSpaceOnUse"
       x1="160"
       y1="127.5"
       x2="163.46794"
       y2="90.21154"
       gradientTransform="matrix(0.996979,0,0,-1,0.983388,255.0378)" />
    <linearGradient
       inkscape:collect="always"
       xlink:href="#linearGradient21092"
       id="linearGradient21106"
       gradientUnits="userSpaceOnUse"
       gradientTransform="matrix(0.487915,0,0,-1,82.43354,255.0378)"
       x1="160"
       y1="127.5"
       x2="163.46794"
       y2="90.21154" />
    <linearGradient
       inkscape:collect="always"
       xlink:href="#linearGradient21092"
       id="linearGradient21121"
       gradientUnits="userSpaceOnUse"
       gradientTransform="translate(0.499999,4.66e-3)"
       x1="160"
       y1="127.5"
       x2="163.46794"
       y2="90.21154" />
    <linearGradient
       inkscape:collect="always"
       xlink:href="#linearGradient21092"
       id="linearGradient21123"
       gradientUnits="userSpaceOnUse"
       gradientTransform="matrix(0.996979,0,0,-1,0.983388,255.0378)"
       x1="160"
       y1="127.5"
       x2="163.46794"
       y2="90.21154" />
    <linearGradient
       inkscape:collect="always"
       xlink:href="#linearGradient21092"
       id="linearGradient21125"
       gradientUnits="userSpaceOnUse"
       gradientTransform="matrix(0.487915,0,0,-1,82.43354,255.0378)"
       x1="160"
       y1="127.5"
       x2="163.46794"
       y2="90.21154" />
    <radialGradient
       inkscape:collect="always"
       xlink:href="#linearGradient22014"
       id="radialGradient22020"
       cx="160.41667"
       cy="127.6282"
       fx="160.41667"
       fy="127.6282"
       r="42.307693"
       gradientTransform="matrix(1,0,0,0.2,0,102.1026)"
       gradientUnits="userSpaceOnUse" />
    <linearGradient
       inkscape:collect="always"
       xlink:href="#linearGradient21092"
       id="linearGradient22053"
       gradientUnits="userSpaceOnUse"
       gradientTransform="translate(0.499999,4.66e-3)"
       x1="160"
       y1="127.5"
       x2="163.46794"
       y2="90.21154" />
    <linearGradient
       inkscape:collect="always"
       xlink:href="#linearGradient21092"
       id="linearGradient22055"
       gradientUnits="userSpaceOnUse"
       gradientTransform="matrix(0.996979,0,0,-1,0.983388,255.0378)"
       x1="160"
       y1="127.5"
       x2="163.46794"
       y2="90.21154" />
    <linearGradient
       inkscape:collect="always"
       xlink:href="#linearGradient21092"
       id="linearGradient22057"
       gradientUnits="userSpaceOnUse"
       gradientTransform="matrix(0.487915,0,0,-1,82.43354,255.0378)"
       x1="160"
       y1="127.5"
       x2="163.46794"
       y2="90.21154" />
    <linearGradient
       inkscape:collect="always"
       xlink:href="#linearGradient21092"
       id="linearGradient22059"
       gradientUnits="userSpaceOnUse"
       gradientTransform="translate(0.499999,4.66e-3)"
       x1="160"
       y1="127.5"
       x2="163.46794"
       y2="90.21154" />
    <linearGradient
       inkscape:collect="always"
       xlink:href="#linearGradient21092"
       id="linearGradient22061"
       gradientUnits="userSpaceOnUse"
       gradientTransform="matrix(0.996979,0,0,-1,0.983388,255.0378)"
       x1="160"
       y1="127.5"
       x2="163.46794"
       y2="90.21154" />
    <linearGradient
       inkscape:collect="always"
       xlink:href="#linearGradient21092"
       id="linearGradient22063"
       gradientUnits="userSpaceOnUse"
       gradientTransform="matrix(0.487915,0,0,-1,82.43354,255.0378)"
       x1="160"
       y1="127.5"
       x2="163.46794"
       y2="90.21154" />
    <radialGradient
       inkscape:collect="always"
       xlink:href="#linearGradient22014"
       id="radialGradient22065"
       gradientUnits="userSpaceOnUse"
       gradientTransform="matrix(1,0,0,0.2,0,102.1026)"
       cx="160.41667"
       cy="127.6282"
       fx="160.41667"
       fy="127.6282"
       r="42.307693" />
    <linearGradient
       inkscape:collect="always"
       xlink:href="#linearGradient21092"
       id="linearGradient22131"
       gradientUnits="userSpaceOnUse"
       gradientTransform="translate(0.499999,4.66e-3)"
       x1="160"
       y1="127.5"
       x2="163.46794"
       y2="90.21154" />
    <linearGradient
       inkscape:collect="always"
       xlink:href="#linearGradient21092"
       id="linearGradient22133"
       gradientUnits="userSpaceOnUse"
       gradientTransform="matrix(0.996979,0,0,-1,0.983388,255.0378)"
       x1="160"
       y1="127.5"
       x2="163.46794"
       y2="90.21154" />
    <linearGradient
       inkscape:collect="always"
       xlink:href="#linearGradient21092"
       id="linearGradient22135"
       gradientUnits="userSpaceOnUse"
       gradientTransform="matrix(0.487915,0,0,-1,82.43354,255.0378)"
       x1="160"
       y1="127.5"
       x2="163.46794"
       y2="90.21154" />
    <linearGradient
       inkscape:collect="always"
       xlink:href="#linearGradient21092"
       id="linearGradient22137"
       gradientUnits="userSpaceOnUse"
       gradientTransform="translate(0.499999,4.66e-3)"
       x1="160"
       y1="127.5"
       x2="163.46794"
       y2="90.21154" />
    <linearGradient
       inkscape:collect="always"
       xlink:href="#linearGradient21092"
       id="linearGradient22139"
       gradientUnits="userSpaceOnUse"
       gradientTransform="matrix(0.996979,0,0,-1,0.983388,255.0378)"
       x1="160"
       y1="127.5"
       x2="163.46794"
       y2="90.21154" />
    <linearGradient
       inkscape:collect="always"
       xlink:href="#linearGradient21092"
       id="linearGradient22141"
       gradientUnits="userSpaceOnUse"
       gradientTransform="matrix(0.487915,0,0,-1,82.43354,255.0378)"
       x1="160"
       y1="127.5"
       x2="163.46794"
       y2="90.21154" />
    <radialGradient
       inkscape:collect="always"
       xlink:href="#linearGradient22014"
       id="radialGradient22143"
       gradientUnits="userSpaceOnUse"
       gradientTransform="matrix(1,0,0,0.2,0,102.1026)"
       cx="160.41667"
       cy="127.6282"
       fx="160.41667"
       fy="127.6282"
       r="42.307693" />
    <linearGradient
       inkscape:collect="always"
       xlink:href="#linearGradient21092"
       id="linearGradient22145"
       gradientUnits="userSpaceOnUse"
       gradientTransform="translate(0.499999,4.66e-3)"
       x1="160"
       y1="127.5"
       x2="163.46794"
       y2="90.21154" />
    <linearGradient
       inkscape:collect="always"
       xlink:href="#linearGradient21092"
       id="linearGradient22147"
       gradientUnits="userSpaceOnUse"
       gradientTransform="matrix(0.996979,0,0,-1,0.983388,255.0378)"
       x1="160"
       y1="127.5"
       x2="163.46794"
       y2="90.21154" />
    <linearGradient
       inkscape:collect="always"
       xlink:href="#linearGradient21092"
       id="linearGradient22149"
       gradientUnits="userSpaceOnUse"
       gradientTransform="matrix(0.487915,0,0,-1,82.43354,255.0378)"
       x1="160"
       y1="127.5"
       x2="163.46794"
       y2="90.21154" />
    <linearGradient
       inkscape:collect="always"
       xlink:href="#linearGradient21092"
       id="linearGradient22151"
       gradientUnits="userSpaceOnUse"
       gradientTransform="translate(0.499999,4.66e-3)"
       x1="160"
       y1="127.5"
       x2="163.46794"
       y2="90.21154" />
    <linearGradient
       inkscape:collect="always"
       xlink:href="#linearGradient21092"
       id="linearGradient22153"
       gradientUnits="userSpaceOnUse"
       gradientTransform="matrix(0.996979,0,0,-1,0.983388,255.0378)"
       x1="160"
       y1="127.5"
       x2="163.46794"
       y2="90.21154" />
    <linearGradient
       inkscape:collect="always"
       xlink:href="#linearGradient21092"
       id="linearGradient22155"
       gradientUnits="userSpaceOnUse"
       gradientTransform="matrix(0.487915,0,0,-1,82.43354,255.0378)"
       x1="160"
       y1="127.5"
       x2="163.46794"
       y2="90.21154" />
    <radialGradient
       inkscape:collect="always"
       xlink:href="#linearGradient22014"
       id="radialGradient22157"
       gradientUnits="userSpaceOnUse"
       gradientTransform="matrix(1,0,0,0.2,0,102.1026)"
       cx="160.41667"
       cy="127.6282"
       fx="160.41667"
       fy="127.6282"
       r="42.307693" />
    <radialGradient
       inkscape:collect="always"
       xlink:href="#linearGradient4669"
       id="radialGradient3182"
       gradientUnits="userSpaceOnUse"
       cx="213.65384"
       cy="112.82052"
       fx="213.65384"
       fy="112.82052"
       r="113.67308" />
    <radialGradient
       inkscape:collect="always"
       xlink:href="#linearGradient4740"
       id="radialGradient3184"
       gradientUnits="userSpaceOnUse"
       cx="241.15384"
       cy="150.54488"
       fx="241.15384"
       fy="150.54488"
       r="113.67308" />
  </defs>
  <sodipodi:namedview
     id="base"
     pagecolor="#ffffff"
     bordercolor="#666666"
     borderopacity="1.0"
     inkscape:pageopacity="0.0"
     inkscape:pageshadow="2"
     inkscape:zoom="2.8363636"
     inkscape:cx="249.99791"
     inkscape:cy="157.28424"
     inkscape:document-units="px"
     inkscape:current-layer="layer1"
     width="440px"
     height="320px"
     inkscape:window-width="1920"
     inkscape:window-height="1131"
     inkscape:window-x="-4"
     inkscape:window-y="-4"
     showguides="true"
     inkscape:guide-bbox="true"
     borderlayer="true">
    <sodipodi:guide
       orientation="horizontal"
       position="59.230769"
       id="guide20186" />
    <sodipodi:guide
       orientation="vertical"
       position="78"
       id="guide20188" />
    <sodipodi:guide
       orientation="vertical"
       position="322"
       id="guide20190" />
    <sodipodi:guide
       orientation="horizontal"
       position="202.49534"
       id="guide20192" />
    <sodipodi:guide
       orientation="vertical"
       position="160.5"
       id="guide20194" />
    <sodipodi:guide
       orientation="horizontal"
       position="211.5"
       id="guide20196" />
    <sodipodi:guide
       orientation="horizontal"
       position="193.51249"
       id="guide20198" />
    <sodipodi:guide
       orientation="vertical"
       position="11"
       id="guide20200" />
    <sodipodi:guide
       orientation="vertical"
       position="490.5"
       id="guide20202" />
  </sodipodi:namedview>
  <metadata
     id="metadata7">
    <rdf:RDF>
      <cc:Work
         rdf:about="">
        <dc:format>image/svg+xml</dc:format>
        <dc:type
           rdf:resource="http://purl.org/dc/dcmitype/StillImage" />
      </cc:Work>
    </rdf:RDF>
  </metadata>
  <g
     inkscape:label="Ebene 1"
     inkscape:groupmode="layer"
     id="layer1">
    <rect
       style="fill:white;fill-opacity:1;stroke:white;stroke-width:35.26841736;stroke-miterlimit:4;stroke-dasharray:none;stroke-opacity:1"
       id="rect12628"
       width="550.6098"
       height="364.09412"
       x="-43.865791"
       y="-16.870779" />
    <image
       xlink:href="D:\icons\splashbg.jpg"
       sodipodi:absref="D:\icons\splashbg.jpg"
       width="551.06903"
       height="363.70554"
       id="image18403"
       x="-43.479527"
       y="-16.868244" />
    <g
       id="g16535"
       transform="matrix(1.102138,0,0,1.102138,-90.10613,-8.322145)"
       style="stroke:white;stroke-width:5;stroke-linecap:round;stroke-linejoin:round;stroke-miterlimit:4;stroke-dasharray:none;stroke-opacity:0.33000004">
      <path
         d="M 354.32692 150.54488 A 113.17308 113.17308 0 1 1  127.98076,150.54488 A 113.17308 113.17308 0 1 1  354.32692 150.54488 z"
         sodipodi:ry="113.17308"
         sodipodi:rx="113.17308"
         sodipodi:cy="150.54488"
         sodipodi:cx="241.15384"
         id="path3774"
         style="opacity:1;fill:url(#radialGradient3182);fill-opacity:1;fill-rule:nonzero;stroke:white;stroke-width:5;stroke-linecap:round;stroke-linejoin:round;stroke-miterlimit:4;stroke-dasharray:none;stroke-opacity:0.33000004"
         sodipodi:type="arc" />
      <path
         sodipodi:type="arc"
         style="opacity:1;fill:url(#radialGradient3184);fill-opacity:1;fill-rule:nonzero;stroke:white;stroke-width:5;stroke-linecap:round;stroke-linejoin:round;stroke-miterlimit:4;stroke-dasharray:none;stroke-opacity:0.33000004"
         id="path4748"
         sodipodi:cx="241.15384"
         sodipodi:cy="150.54488"
         sodipodi:rx="113.17308"
         sodipodi:ry="113.17308"
         d="M 354.32692 150.54488 A 113.17308 113.17308 0 1 1  127.98076,150.54488 A 113.17308 113.17308 0 1 1  354.32692 150.54488 z" />
    </g>
    <g
       style="stroke:#576bbf;stroke-width:1;stroke-linecap:round;stroke-linejoin:round;stroke-miterlimit:4;stroke-dasharray:none;stroke-opacity:0.5"
       transform="matrix(1.102138,0,0,1.102138,-90.10613,-8.322145)"
       id="g17428">
      <path
         sodipodi:type="arc"
         style="opacity:1;fill:url(#radialGradient16539);fill-opacity:1;fill-rule:nonzero;stroke:#576bbf;stroke-width:1;stroke-linecap:round;stroke-linejoin:round;stroke-miterlimit:4;stroke-dasharray:none;stroke-opacity:0.5"
         id="path17430"
         sodipodi:cx="241.15384"
         sodipodi:cy="150.54488"
         sodipodi:rx="113.17308"
         sodipodi:ry="113.17308"
         d="M 354.32692 150.54488 A 113.17308 113.17308 0 1 1  127.98076,150.54488 A 113.17308 113.17308 0 1 1  354.32692 150.54488 z" />
      <path
         d="M 354.32692 150.54488 A 113.17308 113.17308 0 1 1  127.98076,150.54488 A 113.17308 113.17308 0 1 1  354.32692 150.54488 z"
         sodipodi:ry="113.17308"
         sodipodi:rx="113.17308"
         sodipodi:cy="150.54488"
         sodipodi:cx="241.15384"
         id="path17432"
         style="opacity:1;fill:url(#radialGradient16541);fill-opacity:1;fill-rule:nonzero;stroke:#576bbf;stroke-width:1;stroke-linecap:round;stroke-linejoin:round;stroke-miterlimit:4;stroke-dasharray:none;stroke-opacity:0.5"
         sodipodi:type="arc" />
    </g>
    <path
       style="font-size:12px;font-style:normal;font-weight:normal;opacity:0.09899998;fill:black;fill-opacity:1;stroke:black;stroke-width:8.81710434;stroke-linecap:round;stroke-linejoin:round;stroke-miterlimit:4;stroke-opacity:0.5;font-family:Bitstream Vera Sans"
       d="M 267.80435,135.39118 C 252.87362,135.39131 240.46843,138.74029 231.46824,146.24035 C 222.45405,153.75229 217.93259,164.9181 217.93261,177.89237 C 217.9326,188.39982 221.21235,197.7109 227.88629,204.48145 C 234.54721,211.23899 244.2557,215.48034 256.57632,218.12041 L 268.04545,220.70355 C 274.60668,222.15093 279.1052,224.36298 279.34236,224.56103 C 280.2641,225.33086 280.4789,225.55385 280.47894,227.86744 C 280.47891,230.20554 280.45077,230.28779 278.37799,231.58716 C 276.52869,232.74642 272.69737,233.8259 266.94331,233.82588 C 261.23569,233.82591 255.17624,232.91158 248.79247,231.07053 C 242.39944,229.22688 235.71959,226.4778 228.67845,222.73561 C 226.74108,221.70783 224.19291,221.68814 222.20339,222.87338 C 220.21383,224.05864 218.98622,226.11934 218.96586,228.52184 C 218.96582,228.53332 218.96582,228.5448 218.96586,228.55628 L 218.96586,253.76769 C 218.95429,256.49873 220.65368,258.95116 223.2022,259.93277 C 223.22506,259.94446 223.24803,259.95594 223.27109,259.96721 C 230.99963,262.83167 238.72829,264.97775 246.48487,266.44228 C 254.26279,267.91085 262.0447,268.64655 269.80198,268.64655 C 286.2253,268.64656 299.40846,265.46338 308.68678,257.83182 C 317.99177,250.17817 322.46339,238.30811 322.46351,224.21661 C 322.4634,213.24971 319.19531,203.70299 312.30318,197.00758 C 305.42089,190.3221 295.10932,186.22299 281.58108,183.50639 L 268.87205,180.92325 C 263.30505,179.78138 259.53059,178.06885 259.02169,177.68572 C 258.06575,176.96613 258.2295,177.40894 258.22953,175.72254 C 258.22952,173.16679 258.14043,173.39531 260.0205,172.3128 C 261.62128,171.39117 266.02853,170.24638 272.52288,170.24629 C 277.30683,170.24637 282.47987,170.86685 288.09058,172.20947 C 293.69181,173.55004 299.52992,175.5783 305.55258,178.27123 C 307.63734,179.19779 309.96082,178.98784 311.82099,177.78905 C 313.68119,176.59026 314.83519,174.45763 314.85187,172.27836 C 314.85191,172.26687 314.85191,172.2554 314.85187,172.24392 L 314.85187,147.75579 C 314.86553,144.78998 312.85476,142.17202 309.99557,141.38405 C 309.98416,141.37251 309.97267,141.36103 309.96113,141.34961 C 302.55623,139.37866 295.33911,137.86952 288.33167,136.87217 C 281.32428,135.8751 274.48614,135.3913 267.80435,135.39118 z M 51.819747,137.49213 C 51.739081,137.50138 51.658687,137.51287 51.578655,137.52657 C 48.249036,137.89321 45.669322,140.78969 45.689105,144.1394 L 45.689105,259.79501 C 45.68946,263.3946 48.702359,266.40747 52.301933,266.40783 L 82.128538,266.40783 C 85.728187,266.4075 88.741013,263.39461 88.741366,259.79501 L 88.741366,144.10495 C 88.741013,140.50535 85.728142,137.49249 82.128538,137.49213 L 52.543026,137.49213 C 52.462726,137.48773 52.382308,137.49359 52.301933,137.49213 C 52.141181,137.48919 51.980348,137.48333 51.819747,137.49213 z M 111.02522,137.49213 C 110.94455,137.50138 110.86416,137.51287 110.78413,137.52657 C 107.45451,137.89321 104.8748,140.78969 104.89458,144.1394 L 104.89458,259.79501 C 104.89494,263.39459 107.90783,266.40747 111.5074,266.40783 L 141.33401,266.40783 C 144.93367,266.4075 147.94649,263.39461 147.94684,259.79501 L 147.94684,226.28312 L 161.00029,226.28312 C 176.70764,226.28316 189.72731,222.77773 199.16182,214.95176 C 208.61241,207.11238 213.35171,195.45161 213.35185,181.85318 C 213.35172,168.30011 208.61284,156.62897 199.16182,148.78904 C 189.72183,140.95871 176.70089,137.49225 161.00029,137.49213 L 111.7485,137.49213 C 111.6682,137.48773 111.58778,137.49359 111.5074,137.49213 C 111.34666,137.48919 111.18582,137.48333 111.02522,137.49213 z M 147.94684,172.34724 L 157.83164,172.34724 C 162.57624,172.34732 165.20836,173.40354 166.8554,174.86149 C 168.54843,176.36031 169.3696,177.97577 169.36965,181.85318 C 169.3696,185.73458 168.5832,187.33562 166.8554,188.87931 C 165.18844,190.36865 162.54761,191.42805 157.83164,191.42801 L 147.94684,191.42801 L 147.94684,172.34724 z "
       id="path23103" />
    <path
       style="font-size:81.34132385px;font-style:normal;font-weight:bold;opacity:0.09917357;fill:black;fill-opacity:1;stroke:#020202;stroke-width:5.51069021;stroke-linecap:round;stroke-linejoin:round;stroke-miterlimit:4;stroke-opacity:0.5;font-family:MetaMedium-Caps"
       d="M 52.577467,47.687309 C 51.164306,47.829449 50.090669,49.022384 50.097657,50.442654 L 50.097657,50.993723 L 50.097657,113.05787 L 50.097657,113.60894 C 50.097811,115.13062 51.331335,116.36413 52.853002,116.36428 L 53.404071,116.36428 L 63.736615,116.36428 L 64.287684,116.36428 C 65.809351,116.36413 67.042869,115.13062 67.043023,113.60894 L 67.043023,113.05787 L 67.043023,87.915347 L 81.0264,87.915347 L 81.577469,87.915347 C 83.099135,87.915195 84.332659,86.681674 84.332814,85.160002 L 84.332814,84.608933 L 84.332814,76.274014 L 84.332814,75.722945 C 84.332659,74.201273 83.099135,72.967752 81.577469,72.9676 L 81.0264,72.9676 L 67.043023,72.9676 L 67.043023,62.738382 L 84.952766,62.738382 L 85.434952,62.738382 C 86.807102,62.734143 87.96707,61.721008 88.155855,60.361897 L 88.224739,59.879711 L 89.499086,51.510351 C 89.511749,51.464731 89.523233,51.418794 89.533527,51.372583 L 89.602411,50.718189 C 89.680442,49.941009 89.438997,49.160754 88.913575,48.582796 C 88.388164,48.004837 87.62814,47.683479 86.847066,47.687309 L 86.227113,47.687309 L 53.404071,47.687309 L 52.853002,47.687309 C 52.761216,47.682714 52.669253,47.682714 52.577467,47.687309 z M 102.96584,61.050733 C 101.90897,61.163269 101.01104,61.873574 100.65823,62.876149 L 100.52047,63.255009 L 82.507398,111.88685 C 82.50732,111.89833 82.50732,111.90981 82.507398,111.92129 L 82.231863,112.67901 C 81.930009,113.52129 82.062729,114.46059 82.576281,115.19326 C 83.089844,115.92593 83.920272,116.36073 84.814999,116.36428 L 85.607161,116.36428 L 96.111914,116.36428 L 96.490774,116.36428 C 97.65008,116.35976 98.682574,115.63014 99.07391,114.53887 L 99.211677,114.16001 L 102.55253,104.68851 L 114.50384,104.68851 L 117.91358,114.16001 L 118.05135,114.53887 C 118.44268,115.63014 119.47518,116.35976 120.63448,116.36428 L 121.01334,116.36428 L 131.86252,116.36428 L 132.65468,116.36428 C 133.5494,116.36073 134.37984,115.92593 134.8934,115.19326 C 135.40694,114.46059 135.53967,113.52129 135.23781,112.67901 L 134.96228,111.92129 L 117.77581,63.255009 L 117.63805,62.876149 C 117.24671,61.784882 116.21422,61.055252 115.05491,61.050733 L 114.64161,61.050733 L 103.62023,61.050733 L 103.24137,61.050733 C 103.14958,61.046138 103.05762,61.046138 102.96584,61.050733 z M 246.51931,61.050733 C 242.74351,61.050787 239.22749,61.713059 236.049,63.117242 C 232.91632,64.501341 230.1963,66.501826 228.02406,69.041233 C 225.86208,71.568845 224.22183,74.589041 223.09888,78.030547 C 222.0538,81.23375 221.59208,84.724855 221.51456,88.431974 C 221.4682,88.635352 221.4451,88.843335 221.44567,89.051927 L 221.44567,89.430787 C 221.44571,93.508013 221.99969,97.326822 223.16776,100.79658 C 224.32791,104.24255 226.03093,107.25879 228.26515,109.7859 C 230.49017,112.3025 233.17682,114.26464 236.25565,115.64101 C 239.37464,117.0353 242.83503,117.74196 246.51931,117.74196 C 250.29456,117.74196 253.82473,117.07111 256.98962,115.70989 C 260.13375,114.35763 262.86566,112.37418 265.04901,109.82034 C 267.22036,107.28055 268.82162,104.25473 269.93975,100.83103 C 271.06927,97.37244 271.6274,93.561919 271.62739,89.430787 C 271.62738,85.299305 271.07554,81.470045 269.9053,77.996105 C 268.74443,74.550021 267.04225,71.534004 264.80791,69.006792 C 262.59226,66.50079 259.9138,64.501498 256.81741,63.117242 C 253.67312,61.711678 250.18463,61.050788 246.51931,61.050733 z M 281.13333,61.085175 C 279.72017,61.227313 278.64654,62.420248 278.65352,63.84052 L 278.65352,64.391589 L 278.65352,101.45098 L 273.96944,101.45098 L 273.41837,101.45098 C 271.8967,101.45113 270.66318,102.68466 270.66302,104.20632 L 270.66302,104.75739 L 270.66302,113.1612 L 270.66302,113.71226 C 270.66318,115.23394 271.8967,116.46745 273.41837,116.46761 L 273.96944,116.46761 L 301.6951,116.46761 L 302.24617,116.46761 C 303.76783,116.46745 305.00136,115.23394 305.00151,113.71226 L 305.00151,113.1612 L 305.00151,104.75739 L 305.00151,104.20632 C 305.00136,102.68466 303.76783,101.45113 302.24617,101.45098 L 301.6951,101.45098 L 295.28892,101.45098 L 295.28892,81.991355 C 295.68188,82.194193 296.06705,82.455599 296.45994,82.64575 C 298.47302,83.620109 300.59667,84.548287 302.76279,85.401095 C 302.7856,85.412895 302.80855,85.424377 302.83168,85.435537 L 303.31386,85.607746 C 304.68263,86.112805 306.20785,85.463456 306.79249,84.126748 L 306.99914,83.644562 L 309.47895,78.271639 C 309.50268,78.237719 309.52564,78.203269 309.54783,78.168314 L 309.72004,77.755012 C 310.18729,76.622285 309.85047,75.317093 308.89344,74.551924 L 308.54902,74.276389 C 308.51549,74.24104 308.48104,74.206586 308.44569,74.173064 L 291.19034,61.705127 C 291.12357,61.656122 291.05462,61.610153 290.98369,61.56736 L 290.81148,61.464035 C 290.38348,61.212901 289.8956,61.082008 289.39937,61.085175 L 289.22716,61.085175 L 281.95994,61.085175 L 281.40887,61.085175 C 281.31708,61.08058 281.22512,61.08058 281.13333,61.085175 z M 138.92309,61.222942 C 137.50993,61.36508 136.43629,62.558016 136.44328,63.978287 L 136.44328,64.529356 L 136.44328,113.05787 L 136.44328,113.60894 C 136.44343,115.13062 137.67696,116.36413 139.19862,116.36428 L 139.74969,116.36428 L 150.04779,116.36428 L 150.59886,116.36428 C 152.12053,116.36413 153.35405,115.13062 153.35421,113.60894 L 153.35421,113.05787 L 153.35421,98.110123 L 164.23782,114.57331 L 164.27226,114.64219 L 164.37559,114.84884 C 164.84698,115.78425 165.80795,116.37151 166.8554,116.36428 L 167.16537,116.36428 L 180.5288,116.36428 L 181.63094,116.36428 C 182.66841,116.36748 183.60362,115.77239 184.0763,114.84884 C 184.54899,113.9253 184.47901,112.82985 183.86965,111.99017 L 183.21526,111.09469 C 183.20378,111.09462 183.1923,111.09462 183.18082,111.09469 L 165.47773,87.01986 L 179.42666,69.247884 L 179.42666,72.692066 L 179.42666,73.243135 C 179.42681,74.764807 180.66034,75.998328 182.18201,75.99848 L 182.73307,75.99848 L 192.79008,75.99848 L 192.79008,113.05787 L 192.79008,113.60894 C 192.79024,115.13062 194.02376,116.36413 195.54543,116.36428 L 196.0965,116.36428 L 206.22239,116.36428 L 206.77346,116.36428 C 208.29513,116.36413 209.52865,115.13062 209.5288,113.60894 L 209.5288,113.05787 L 209.5288,75.99848 L 219.41361,75.99848 L 219.86135,75.99848 C 221.2222,75.996748 222.37801,75.001874 222.58225,73.656436 L 222.61669,73.380902 L 222.65114,73.243135 L 222.65114,73.208693 L 224.33878,65.252634 C 224.33886,65.241153 224.33886,65.229672 224.33878,65.218192 L 224.47655,64.529356 C 224.64148,63.720954 224.44576,62.896531 223.92548,62.256196 C 223.40521,61.615861 222.61513,61.226997 221.79009,61.222942 L 221.10125,61.222942 L 182.73307,61.222942 L 182.18201,61.222942 C 181.81591,61.220215 181.45295,61.290468 181.11431,61.429593 C 180.77567,61.290468 180.41271,61.220215 180.04661,61.222942 L 178.91003,61.222942 L 166.37321,61.222942 L 166.06324,61.222942 C 165.08233,61.22646 164.17725,61.751147 163.68675,62.600614 L 153.35421,77.031734 L 153.35421,64.529356 L 153.35421,63.978287 C 153.35405,62.456615 152.12053,61.223094 150.59886,61.222942 L 150.04779,61.222942 L 139.74969,61.222942 L 139.19862,61.222942 C 139.10684,61.218347 139.01487,61.218347 138.92309,61.222942 z M 246.62264,75.378527 C 249.43009,75.378559 250.51403,76.017421 251.65114,78.030547 C 252.85083,80.154493 253.68322,83.771369 253.68321,88.776392 C 253.68321,92.086778 253.4676,94.762687 253.06326,96.73245 C 252.65089,98.741438 252.03252,100.21404 251.44449,101.10656 C 250.81202,102.0666 250.23886,102.54147 249.58463,102.82865 C 248.7841,103.18009 247.79352,103.37972 246.45043,103.37972 C 243.62415,103.37973 242.515,102.73526 241.38748,100.76214 C 240.19198,98.669998 239.35547,95.077976 239.35541,90.085181 C 239.35544,86.79305 239.59719,84.13278 240.00981,82.094681 C 240.42301,80.054049 241.04324,78.573702 241.62857,77.686129 C 242.28094,76.696996 242.81838,76.243302 243.45399,75.964038 C 244.27495,75.603407 245.31824,75.378561 246.62264,75.378527 z M 108.68318,84.918909 L 110.2675,90.360716 L 107.06441,90.360716 L 108.68318,84.918909 z "
       id="path22163" />
    <g
       id="g22067"
       transform="matrix(1.102138,0,0,1.102138,-43.47722,-16.87078)">
      <g
         style="opacity:0.5"
         id="g22022">
        <g
           id="g21108">
          <path
             sodipodi:nodetypes="cccc"
             id="rect20204"
             d="M 160.5,118.50466 L 491.5,127.50466 L 160.5,127.50466 L 160.5,118.50466 z "
             style="fill:url(#linearGradient21098);fill-opacity:1;fill-rule:nonzero;stroke:none;stroke-width:1;stroke-linecap:round;stroke-linejoin:round;stroke-miterlimit:4;stroke-opacity:0.5" />
          <path
             style="opacity:0.5;fill:url(#linearGradient21102);fill-opacity:1;fill-rule:nonzero;stroke:none;stroke-width:1;stroke-linecap:round;stroke-linejoin:round;stroke-miterlimit:4;stroke-opacity:0.5"
             d="M 160.5,136.53781 L 490.5,127.53781 L 160.5,127.53781 L 160.5,136.53781 z "
             id="path21100"
             sodipodi:nodetypes="cccc" />
          <path
             sodipodi:nodetypes="cccc"
             id="path21104"
             d="M 160.5,136.53781 L 322,127.53781 L 160.5,127.53781 L 160.5,136.53781 z "
             style="opacity:0.5;fill:url(#linearGradient21106);fill-opacity:1;fill-rule:nonzero;stroke:none;stroke-width:1;stroke-linecap:round;stroke-linejoin:round;stroke-miterlimit:4;stroke-opacity:0.5" />
        </g>
        <g
           id="g21113"
           transform="matrix(-0.451662,0,0,-1,232.9918,255.0424)">
          <path
             style="fill:url(#linearGradient21121);fill-opacity:1;fill-rule:nonzero;stroke:none;stroke-width:1;stroke-linecap:round;stroke-linejoin:round;stroke-miterlimit:4;stroke-opacity:0.5"
             d="M 160.5,118.50466 L 491.5,127.50466 L 160.5,127.50466 L 160.5,118.50466 z "
             id="path21115"
             sodipodi:nodetypes="cccc" />
          <path
             sodipodi:nodetypes="cccc"
             id="path21117"
             d="M 160.5,136.53781 L 490.5,127.53781 L 160.5,127.53781 L 160.5,136.53781 z "
             style="opacity:0.5;fill:url(#linearGradient21123);fill-opacity:1;fill-rule:nonzero;stroke:none;stroke-width:1;stroke-linecap:round;stroke-linejoin:round;stroke-miterlimit:4;stroke-opacity:0.5" />
          <path
             style="opacity:0.5;fill:url(#linearGradient21125);fill-opacity:1;fill-rule:nonzero;stroke:none;stroke-width:1;stroke-linecap:round;stroke-linejoin:round;stroke-miterlimit:4;stroke-opacity:0.5"
             d="M 160.5,136.53781 L 322,127.53781 L 160.5,127.53781 L 160.5,136.53781 z "
             id="path21119"
             sodipodi:nodetypes="cccc" />
        </g>
        <path
           sodipodi:type="arc"
           style="opacity:1;fill:url(#radialGradient22020);fill-opacity:1;fill-rule:nonzero;stroke:none;stroke-width:1;stroke-linecap:round;stroke-linejoin:round;stroke-miterlimit:4;stroke-dasharray:none;stroke-opacity:0.5"
           id="path21127"
           sodipodi:cx="160.41667"
           sodipodi:cy="127.6282"
           sodipodi:rx="42.307693"
           sodipodi:ry="8.4615383"
           d="M 202.72437 127.6282 A 42.307693 8.4615383 0 1 1  118.10898,127.6282 A 42.307693 8.4615383 0 1 1  202.72437 127.6282 z" />
      </g>
      <g
         transform="matrix(1,0,0,-0.491678,0,190.2205)"
         id="g22033"
         style="opacity:0.5">
        <g
           id="g22035">
          <path
             style="fill:url(#linearGradient22053);fill-opacity:1;fill-rule:nonzero;stroke:none;stroke-width:1;stroke-linecap:round;stroke-linejoin:round;stroke-miterlimit:4;stroke-opacity:0.5"
             d="M 160.5,118.50466 L 491.5,127.50466 L 160.5,127.50466 L 160.5,118.50466 z "
             id="path22037"
             sodipodi:nodetypes="cccc" />
          <path
             sodipodi:nodetypes="cccc"
             id="path22039"
             d="M 160.5,136.53781 L 490.5,127.53781 L 160.5,127.53781 L 160.5,136.53781 z "
             style="opacity:0.5;fill:url(#linearGradient22055);fill-opacity:1;fill-rule:nonzero;stroke:none;stroke-width:1;stroke-linecap:round;stroke-linejoin:round;stroke-miterlimit:4;stroke-opacity:0.5" />
          <path
             style="opacity:0.5;fill:url(#linearGradient22057);fill-opacity:1;fill-rule:nonzero;stroke:none;stroke-width:1;stroke-linecap:round;stroke-linejoin:round;stroke-miterlimit:4;stroke-opacity:0.5"
             d="M 160.5,136.53781 L 322,127.53781 L 160.5,127.53781 L 160.5,136.53781 z "
             id="path22041"
             sodipodi:nodetypes="cccc" />
        </g>
        <g
           transform="matrix(-0.451662,0,0,-1,232.9918,255.0424)"
           id="g22043">
          <path
             sodipodi:nodetypes="cccc"
             id="path22045"
             d="M 160.5,118.50466 L 491.5,127.50466 L 160.5,127.50466 L 160.5,118.50466 z "
             style="fill:url(#linearGradient22059);fill-opacity:1;fill-rule:nonzero;stroke:none;stroke-width:1;stroke-linecap:round;stroke-linejoin:round;stroke-miterlimit:4;stroke-opacity:0.5" />
          <path
             style="opacity:0.5;fill:url(#linearGradient22061);fill-opacity:1;fill-rule:nonzero;stroke:none;stroke-width:1;stroke-linecap:round;stroke-linejoin:round;stroke-miterlimit:4;stroke-opacity:0.5"
             d="M 160.5,136.53781 L 490.5,127.53781 L 160.5,127.53781 L 160.5,136.53781 z "
             id="path22047"
             sodipodi:nodetypes="cccc" />
          <path
             sodipodi:nodetypes="cccc"
             id="path22049"
             d="M 160.5,136.53781 L 322,127.53781 L 160.5,127.53781 L 160.5,136.53781 z "
             style="opacity:0.5;fill:url(#linearGradient22063);fill-opacity:1;fill-rule:nonzero;stroke:none;stroke-width:1;stroke-linecap:round;stroke-linejoin:round;stroke-miterlimit:4;stroke-opacity:0.5" />
        </g>
        <path
           d="M 202.72437 127.6282 A 42.307693 8.4615383 0 1 1  118.10898,127.6282 A 42.307693 8.4615383 0 1 1  202.72437 127.6282 z"
           sodipodi:ry="8.4615383"
           sodipodi:rx="42.307693"
           sodipodi:cy="127.6282"
           sodipodi:cx="160.41667"
           id="path22051"
           style="opacity:1;fill:url(#radialGradient22065);fill-opacity:1;fill-rule:nonzero;stroke:none;stroke-width:1;stroke-linecap:round;stroke-linejoin:round;stroke-miterlimit:4;stroke-dasharray:none;stroke-opacity:0.5"
           sodipodi:type="arc" />
      </g>
    </g>
    <g
       id="g22089"
       transform="matrix(0,0.645043,-0.645043,0,215.6133,20.12835)"
       style="opacity:0.5">
      <g
         id="g22091"
         style="opacity:0.5">
        <g
           id="g22093">
          <path
             style="fill:url(#linearGradient22131);fill-opacity:1;fill-rule:nonzero;stroke:none;stroke-width:1;stroke-linecap:round;stroke-linejoin:round;stroke-miterlimit:4;stroke-opacity:0.5"
             d="M 160.5,118.50466 L 491.5,127.50466 L 160.5,127.50466 L 160.5,118.50466 z "
             id="path22095"
             sodipodi:nodetypes="cccc" />
          <path
             sodipodi:nodetypes="cccc"
             id="path22097"
             d="M 160.5,136.53781 L 490.5,127.53781 L 160.5,127.53781 L 160.5,136.53781 z "
             style="opacity:0.5;fill:url(#linearGradient22133);fill-opacity:1;fill-rule:nonzero;stroke:none;stroke-width:1;stroke-linecap:round;stroke-linejoin:round;stroke-miterlimit:4;stroke-opacity:0.5" />
          <path
             style="opacity:0.5;fill:url(#linearGradient22135);fill-opacity:1;fill-rule:nonzero;stroke:none;stroke-width:1;stroke-linecap:round;stroke-linejoin:round;stroke-miterlimit:4;stroke-opacity:0.5"
             d="M 160.5,136.53781 L 322,127.53781 L 160.5,127.53781 L 160.5,136.53781 z "
             id="path22099"
             sodipodi:nodetypes="cccc" />
        </g>
        <g
           transform="matrix(-0.451662,0,0,-1,232.9918,255.0424)"
           id="g22101">
          <path
             sodipodi:nodetypes="cccc"
             id="path22103"
             d="M 160.5,118.50466 L 491.5,127.50466 L 160.5,127.50466 L 160.5,118.50466 z "
             style="fill:url(#linearGradient22137);fill-opacity:1;fill-rule:nonzero;stroke:none;stroke-width:1;stroke-linecap:round;stroke-linejoin:round;stroke-miterlimit:4;stroke-opacity:0.5" />
          <path
             style="opacity:0.5;fill:url(#linearGradient22139);fill-opacity:1;fill-rule:nonzero;stroke:none;stroke-width:1;stroke-linecap:round;stroke-linejoin:round;stroke-miterlimit:4;stroke-opacity:0.5"
             d="M 160.5,136.53781 L 490.5,127.53781 L 160.5,127.53781 L 160.5,136.53781 z "
             id="path22105"
             sodipodi:nodetypes="cccc" />
          <path
             sodipodi:nodetypes="cccc"
             id="path22107"
             d="M 160.5,136.53781 L 322,127.53781 L 160.5,127.53781 L 160.5,136.53781 z "
             style="opacity:0.5;fill:url(#linearGradient22141);fill-opacity:1;fill-rule:nonzero;stroke:none;stroke-width:1;stroke-linecap:round;stroke-linejoin:round;stroke-miterlimit:4;stroke-opacity:0.5" />
        </g>
        <path
           d="M 202.72437 127.6282 A 42.307693 8.4615383 0 1 1  118.10898,127.6282 A 42.307693 8.4615383 0 1 1  202.72437 127.6282 z"
           sodipodi:ry="8.4615383"
           sodipodi:rx="42.307693"
           sodipodi:cy="127.6282"
           sodipodi:cx="160.41667"
           id="path22109"
           style="opacity:1;fill:url(#radialGradient22143);fill-opacity:1;fill-rule:nonzero;stroke:none;stroke-width:1;stroke-linecap:round;stroke-linejoin:round;stroke-miterlimit:4;stroke-dasharray:none;stroke-opacity:0.5"
           sodipodi:type="arc" />
      </g>
      <g
         style="opacity:0.5"
         id="g22111"
         transform="matrix(1,0,0,-0.491678,0,190.2205)">
        <g
           id="g22113">
          <path
             sodipodi:nodetypes="cccc"
             id="path22115"
             d="M 160.5,118.50466 L 491.5,127.50466 L 160.5,127.50466 L 160.5,118.50466 z "
             style="fill:url(#linearGradient22145);fill-opacity:1;fill-rule:nonzero;stroke:none;stroke-width:1;stroke-linecap:round;stroke-linejoin:round;stroke-miterlimit:4;stroke-opacity:0.5" />
          <path
             style="opacity:0.5;fill:url(#linearGradient22147);fill-opacity:1;fill-rule:nonzero;stroke:none;stroke-width:1;stroke-linecap:round;stroke-linejoin:round;stroke-miterlimit:4;stroke-opacity:0.5"
             d="M 160.5,136.53781 L 490.5,127.53781 L 160.5,127.53781 L 160.5,136.53781 z "
             id="path22117"
             sodipodi:nodetypes="cccc" />
          <path
             sodipodi:nodetypes="cccc"
             id="path22119"
             d="M 160.5,136.53781 L 322,127.53781 L 160.5,127.53781 L 160.5,136.53781 z "
             style="opacity:0.5;fill:url(#linearGradient22149);fill-opacity:1;fill-rule:nonzero;stroke:none;stroke-width:1;stroke-linecap:round;stroke-linejoin:round;stroke-miterlimit:4;stroke-opacity:0.5" />
        </g>
        <g
           id="g22121"
           transform="matrix(-0.451662,0,0,-1,232.9918,255.0424)">
          <path
             style="fill:url(#linearGradient22151);fill-opacity:1;fill-rule:nonzero;stroke:none;stroke-width:1;stroke-linecap:round;stroke-linejoin:round;stroke-miterlimit:4;stroke-opacity:0.5"
             d="M 160.5,118.50466 L 491.5,127.50466 L 160.5,127.50466 L 160.5,118.50466 z "
             id="path22123"
             sodipodi:nodetypes="cccc" />
          <path
             sodipodi:nodetypes="cccc"
             id="path22125"
             d="M 160.5,136.53781 L 490.5,127.53781 L 160.5,127.53781 L 160.5,136.53781 z "
             style="opacity:0.5;fill:url(#linearGradient22153);fill-opacity:1;fill-rule:nonzero;stroke:none;stroke-width:1;stroke-linecap:round;stroke-linejoin:round;stroke-miterlimit:4;stroke-opacity:0.5" />
          <path
             style="opacity:0.5;fill:url(#linearGradient22155);fill-opacity:1;fill-rule:nonzero;stroke:none;stroke-width:1;stroke-linecap:round;stroke-linejoin:round;stroke-miterlimit:4;stroke-opacity:0.5"
             d="M 160.5,136.53781 L 322,127.53781 L 160.5,127.53781 L 160.5,136.53781 z "
             id="path22127"
             sodipodi:nodetypes="cccc" />
        </g>
        <path
           sodipodi:type="arc"
           style="opacity:1;fill:url(#radialGradient22157);fill-opacity:1;fill-rule:nonzero;stroke:none;stroke-width:1;stroke-linecap:round;stroke-linejoin:round;stroke-miterlimit:4;stroke-dasharray:none;stroke-opacity:0.5"
           id="path22129"
           sodipodi:cx="160.41667"
           sodipodi:cy="127.6282"
           sodipodi:rx="42.307693"
           sodipodi:ry="8.4615383"
           d="M 202.72437 127.6282 A 42.307693 8.4615383 0 1 1  118.10898,127.6282 A 42.307693 8.4615383 0 1 1  202.72437 127.6282 z" />
      </g>
    </g>
    <g
       id="g16528"
       transform="matrix(1.102138,0,0,1.102138,-90.88328,-8.710736)">
      <path
         id="text13688"
         d="M 319.46875,131.21875 C 306.51618,131.21886 296.28473,134.10655 289.0625,140.125 C 281.84443,146.14014 278.21873,154.89771 278.21875,165.78125 C 278.21874,174.5127 280.84551,181.76953 286.09375,187.09375 C 291.34472,192.4209 299.39452,196.07567 310.125,198.375 L 320.5625,200.71875 C 326.8098,202.09688 330.92081,203.74369 332.5,205.0625 C 334.16903,206.45648 334.96869,208.27709 334.96875,211.125 C 334.96869,214.20865 333.85597,216.20221 331.1875,217.875 C 328.52485,219.54411 324.37146,220.53127 318.6875,220.53125 C 313.08195,220.53127 307.22435,219.63402 301.125,217.875 C 295.02115,216.11474 288.69268,213.50716 282.09375,210 C 281.47645,209.67252 280.733,209.69094 280.13267,210.04858 C 279.53234,210.40622 279.16217,211.05124 279.15625,211.75 L 279.15625,234.625 C 279.15273,235.45536 279.66262,236.20154 280.4375,236.5 C 287.24054,239.02142 294.05683,240.90016 300.875,242.1875 C 307.69668,243.47552 314.49819,244.125 321.28125,244.125 C 335.65745,244.125 346.64499,241.29406 354.03125,235.21875 C 361.41612,229.14444 365.0624,219.78605 365.0625,207.8125 C 365.0624,198.62771 362.42475,191.2092 357.0625,186 C 351.69096,180.78208 343.06346,177.16606 331.1875,174.78125 L 319.65625,172.46875 C 314.30239,171.3706 310.69008,169.98306 309.09375,168.78125 C 307.46618,167.55608 306.78121,166.13062 306.78125,163.8125 C 306.78122,160.6126 307.83838,158.72852 310.40625,157.25 C 312.9776,155.76958 317.46475,154.84383 323.75,154.84375 C 328.44548,154.84383 333.45848,155.4688 338.8125,156.75 C 344.16283,158.03052 349.67829,159.93553 355.34375,162.46875 C 355.96,162.74264 356.67277,162.68756 357.23962,162.32225 C 357.80647,161.95695 358.15109,161.3306 358.15625,160.65625 L 358.15625,138.4375 C 358.1604,137.53408 357.55846,136.74003 356.6875,136.5 C 350.10212,134.74718 343.71058,133.41073 337.53125,132.53125 C 331.35036,131.65178 325.33456,131.21886 319.46875,131.21875 z M 123.71875,133.125 C 122.70043,133.23713 121.93145,134.10054 121.9375,135.125 L 121.9375,240.09375 C 121.93761,241.19827 122.83298,242.09364 123.9375,242.09375 L 151,242.09375 C 152.10452,242.09364 152.99989,241.19827 153,240.09375 L 153,135.125 C 152.99989,134.02048 152.10452,133.12511 151,133.125 L 123.9375,133.125 C 123.86464,133.12101 123.79161,133.12101 123.71875,133.125 L 123.71875,133.125 z M 177.4375,133.125 C 176.41918,133.23713 175.6502,134.10054 175.65625,135.125 L 175.65625,240.09375 C 175.65636,241.19827 176.55173,242.09364 177.65625,242.09375 L 204.71875,242.09375 C 205.82327,242.09364 206.71864,241.19827 206.71875,240.09375 L 206.71875,205.6875 L 222.5625,205.6875 C 236.21771,205.68754 247.00527,202.63309 254.625,196.3125 C 262.24174,189.99432 266.06239,180.8233 266.0625,169.375 C 266.0624,157.97186 262.23972,148.78541 254.625,142.46875 C 247.00528,136.14831 236.2177,133.12511 222.5625,133.125 L 177.65625,133.125 C 177.58339,133.12101 177.51036,133.12101 177.4375,133.125 L 177.4375,133.125 z M 319.46875,135.21875 C 325.13407,135.21886 330.96202,135.64531 336.96875,136.5 C 342.50326,137.28771 348.25,138.48214 354.15625,140 L 354.15625,157.6875 C 349.27497,155.66255 344.45749,154.00167 339.75,152.875 C 334.13512,151.53138 328.80441,150.84384 323.75,150.84375 C 317.09764,150.84384 312.02231,151.69935 308.40625,153.78125 C 304.78653,155.8654 302.78121,159.51256 302.78125,163.8125 C 302.7812,167.11952 304.14312,170.05344 306.6875,171.96875 C 309.26295,173.9077 313.22877,175.22329 318.84375,176.375 L 330.375,178.71875 C 341.84263,181.02156 349.80888,184.53054 354.28125,188.875 C 358.76255,193.22839 361.06241,199.37237 361.0625,207.8125 C 361.0624,218.99524 357.84932,226.90246 351.5,232.125 C 345.15171,237.34656 335.12367,240.125 321.28125,240.125 C 314.75171,240.125 308.20949,239.52448 301.625,238.28125 C 295.47437,237.11995 289.31979,235.39749 283.15625,233.1875 L 283.15625,214.9375 C 288.91471,217.80444 294.56012,220.14096 300.03125,221.71875 C 306.44744,223.56914 312.66797,224.53127 318.6875,224.53125 C 324.81592,224.53127 329.69378,223.51843 333.3125,221.25 C 336.92514,218.98533 338.96867,215.3539 338.96875,211.125 C 338.96867,207.41047 337.65897,204.16859 335.0625,202 C 332.37593,199.75639 327.94008,198.24695 321.4375,196.8125 L 310.96875,194.46875 C 310.95833,194.46867 310.94792,194.46867 310.9375,194.46875 C 300.66791,192.26818 293.38961,188.79795 288.9375,184.28125 C 284.48257,179.76183 282.21874,173.73743 282.21875,165.78125 C 282.21873,155.75871 285.34304,148.42254 291.625,143.1875 C 297.9027,137.95616 307.10875,135.21885 319.46875,135.21875 z M 125.9375,137.125 L 149,137.125 L 149,238.09375 L 125.9375,238.09375 L 125.9375,137.125 z M 179.65625,137.125 L 222.5625,137.125 C 235.6259,137.1251 245.38518,140.02377 252.0625,145.5625 C 258.74445,151.10539 262.0624,158.8408 262.0625,169.375 C 262.0624,179.95807 258.74244,187.70891 252.0625,193.25 C 245.38517,198.78886 235.62589,201.68754 222.5625,201.6875 L 204.71875,201.6875 C 203.61423,201.68761 202.71886,202.58298 202.71875,203.6875 L 202.71875,238.09375 L 179.65625,238.09375 L 179.65625,137.125 z M 204.5,152.75 C 203.48168,152.86213 202.7127,153.72554 202.71875,154.75 L 202.71875,184.0625 C 202.71886,185.16702 203.61423,186.06239 204.71875,186.0625 L 219.6875,186.0625 C 225.26185,186.06256 229.87456,184.67868 233.1875,181.71875 C 236.50002,178.75919 238.15617,174.46921 238.15625,169.375 C 238.15616,164.28092 236.50556,159.96871 233.1875,157.03125 C 229.8732,154.09745 225.25885,152.75009 219.6875,152.75 L 204.71875,152.75 C 204.64589,152.74601 204.57286,152.74601 204.5,152.75 z M 206.71875,156.75 L 219.6875,156.75 C 224.61602,156.75008 228.12666,157.90272 230.53125,160.03125 C 232.9318,162.15645 234.15618,165.09423 234.15625,169.375 C 234.15618,173.65592 232.93732,176.56906 230.53125,178.71875 C 228.12532,180.86831 224.61301,182.06255 219.6875,182.0625 L 206.71875,182.0625 L 206.71875,156.75 z "
         style="font-size:12px;font-style:normal;font-weight:normal;fill:white;fill-opacity:0.75;stroke:white;stroke-width:8;stroke-linecap:round;stroke-linejoin:round;stroke-miterlimit:4;stroke-dasharray:none;stroke-opacity:0.5;font-family:Bitstream Vera Sans" />
      <text
         id="text2863"
         y="240.09616"
         x="110.70513"
         style="font-size:12px;font-style:normal;font-weight:normal;fill:#576bbf;fill-opacity:1;stroke:white;stroke-width:4;stroke-linecap:round;stroke-linejoin:round;stroke-miterlimit:4;stroke-dasharray:none;stroke-opacity:0.75;font-family:Bitstream Vera Sans"
         xml:space="preserve"><tspan
           style="font-size:144px;font-weight:bold;fill:#576bbf;fill-opacity:1;stroke:white;stroke-width:4;stroke-linecap:round;stroke-linejoin:round;stroke-miterlimit:4;stroke-dasharray:none;stroke-opacity:0.75"
           y="240.09616"
           x="110.70513"
           id="tspan2865"
           sodipodi:role="line">IPS</tspan></text>
      <text
         xml:space="preserve"
         style="font-size:12px;font-style:normal;font-weight:normal;fill:#576bbf;fill-opacity:1;stroke:none;stroke-width:4;stroke-linecap:round;stroke-linejoin:round;stroke-miterlimit:4;stroke-dasharray:none;stroke-opacity:0.75;font-family:Bitstream Vera Sans"
         x="110.70513"
         y="240.09616"
         id="text14581"><tspan
           sodipodi:role="line"
           id="tspan14583"
           x="110.70513"
           y="240.09616"
           style="font-size:144px;font-weight:bold;fill:#576bbf;fill-opacity:1;stroke:none;stroke-width:4;stroke-linecap:round;stroke-linejoin:round;stroke-miterlimit:4;stroke-dasharray:none;stroke-opacity:0.75">IPS</tspan></text>
    </g>
    <g
       id="g5254">
      <g
         style="stroke:white;stroke-width:5;stroke-linecap:round;stroke-linejoin:round;stroke-miterlimit:4;stroke-dasharray:none;stroke-opacity:0.5"
         id="g12795"
         transform="matrix(1.102138,0,0,1.102138,-89.32898,-1.71638)">
        <path
           id="path12797"
           d="M 125.84375,45.5625 L 125.84375,46.0625 L 125.84375,102.375 L 125.84375,102.875 L 126.34375,102.875 L 135.71875,102.875 L 136.21875,102.875 L 136.21875,102.375 L 136.21875,77.0625 L 151.40625,77.0625 L 151.90625,77.0625 L 151.90625,76.5625 L 151.90625,69 L 151.90625,68.5 L 151.40625,68.5 L 136.21875,68.5 L 136.21875,54.21875 L 154.96875,54.21875 L 155.40625,54.21875 L 155.46875,53.78125 L 156.625,46.15625 L 156.6875,45.5625 L 156.125,45.5625 L 126.34375,45.5625 L 125.84375,45.5625 z M 171.5625,57.6875 L 171.4375,58.03125 L 155.09375,102.1875 L 154.84375,102.875 L 155.5625,102.875 L 165.09375,102.875 L 165.4375,102.875 L 165.5625,102.53125 L 169.1875,92.28125 L 183.53125,92.28125 L 187.21875,102.53125 L 187.34375,102.875 L 187.6875,102.875 L 197.53125,102.875 L 198.25,102.875 L 198,102.1875 L 182.40625,58.03125 L 182.28125,57.6875 L 181.90625,57.6875 L 171.90625,57.6875 L 171.5625,57.6875 z M 204.1875,57.84375 L 204.1875,58.34375 L 204.1875,102.375 L 204.1875,102.875 L 204.6875,102.875 L 214.03125,102.875 L 214.53125,102.875 L 214.53125,102.375 L 214.53125,80.5 L 229.15625,102.625 L 229.28125,102.875 L 229.5625,102.875 L 241.6875,102.875 L 242.6875,102.875 L 242.09375,102.0625 L 224.90625,78.6875 L 240.625,58.65625 L 241.25,57.84375 L 240.21875,57.84375 L 228.84375,57.84375 L 228.5625,57.84375 L 228.4375,58.0625 L 214.53125,77.46875 L 214.53125,58.34375 L 214.53125,57.84375 L 214.03125,57.84375 L 204.6875,57.84375 L 204.1875,57.84375 z M 243.1875,57.84375 L 243.1875,58.34375 L 243.1875,65.75 L 243.1875,66.25 L 243.6875,66.25 L 255.3125,66.25 L 255.3125,102.375 L 255.3125,102.875 L 255.8125,102.875 L 265,102.875 L 265.5,102.875 L 265.5,102.375 L 265.5,66.25 L 276.96875,66.25 L 277.375,66.25 L 277.4375,65.84375 L 279,58.46875 L 279.125,57.84375 L 278.5,57.84375 L 243.6875,57.84375 L 243.1875,57.84375 z M 176.53125,67.875 L 181.25,84.28125 L 171.6875,84.28125 L 176.53125,67.875 z "
           style="font-size:81.34132385px;font-style:normal;font-weight:bold;fill:black;fill-opacity:1;stroke:white;stroke-width:5;stroke-linecap:round;stroke-linejoin:round;stroke-miterlimit:4;stroke-dasharray:none;stroke-opacity:0.5;font-family:MetaMedium-Caps" />
        <path
           id="path12799"
           d="M 333.21875,57.71875 L 333.21875,58.21875 L 333.21875,94.34375 L 326.46875,94.34375 L 325.96875,94.34375 L 325.96875,94.84375 L 325.96875,102.46875 L 325.96875,102.96875 L 326.46875,102.96875 L 351.625,102.96875 L 352.125,102.96875 L 352.125,102.46875 L 352.125,94.84375 L 352.125,94.34375 L 351.625,94.34375 L 343.3125,94.34375 L 343.3125,69.96875 C 344.88066,70.918343 346.44048,71.79159 347.96875,72.53125 C 349.74847,73.392655 351.60483,74.222618 353.5,74.96875 L 353.9375,75.125 L 354.125,74.6875 L 356.4375,69.75 L 356.59375,69.375 L 356.28125,69.125 L 340.625,57.8125 L 340.46875,57.71875 L 340.3125,57.71875 L 333.71875,57.71875 L 333.21875,57.71875 z "
           style="font-size:14.26249504px;font-style:normal;font-weight:normal;fill:#576bbf;fill-opacity:1;stroke:white;stroke-width:5;stroke-linecap:round;stroke-linejoin:round;stroke-miterlimit:4;stroke-dasharray:none;stroke-opacity:0.5;font-family:Bitstream Vera Sans" />
        <path
           id="path12801"
           d="M 301.5625,57.6875 C 298.424,57.687545 295.58639,58.228753 293.0625,59.34375 C 290.54577,60.455708 288.41962,62.037607 286.6875,64.0625 C 284.95695,66.085738 283.61724,68.525611 282.6875,71.375 C 281.78814,74.131585 281.37431,77.213933 281.34375,80.59375 L 281.3125,80.59375 L 281.3125,80.9375 C 281.31254,84.407912 281.78932,87.58378 282.75,90.4375 C 283.70948,93.287418 285.08672,95.727292 286.875,97.75 C 288.66135,99.770436 290.79463,101.32588 293.28125,102.4375 C 295.77503,103.5523 298.53492,104.125 301.5625,104.125 C 304.7012,104.125 307.53961,103.58509 310.0625,102.5 C 312.58117,101.41675 314.73674,99.838414 316.46875,97.8125 C 318.19843,95.789342 319.50695,93.349341 320.4375,90.5 C 321.36968,87.645728 321.84376,84.461566 321.84375,80.9375 C 321.84375,77.413824 321.36818,74.230562 320.40625,71.375 C 319.44595,68.524299 318.06958,66.08525 316.28125,64.0625 C 314.49495,62.042103 312.36164,60.455415 309.875,59.34375 C 307.38127,58.228995 304.5901,57.687546 301.5625,57.6875 z M 301.65625,65.6875 C 304.8338,65.687536 307.00214,66.889175 308.40625,69.375 C 309.82391,71.884828 310.56251,75.545972 310.5625,80.34375 C 310.56251,83.458393 310.35499,86.028703 309.9375,88.0625 C 309.51889,90.101947 308.90391,91.724002 308.125,92.90625 C 307.34039,94.097238 306.41615,94.904244 305.34375,95.375 C 304.24778,95.856133 302.98527,96.093755 301.5,96.09375 C 298.32287,96.093756 296.15396,94.925622 294.75,92.46875 C 293.33321,89.989324 292.56255,86.329046 292.5625,81.53125 C 292.56253,78.416647 292.80092,75.845065 293.21875,73.78125 C 293.63757,71.712924 294.25255,70.087043 295.03125,68.90625 C 295.81684,67.715138 296.70972,66.908286 297.78125,66.4375 C 298.87633,65.95646 300.171,65.687539 301.65625,65.6875 z "
           style="font-size:14.26249504px;font-style:normal;font-weight:normal;fill:#576bbf;fill-opacity:1;stroke:white;stroke-width:5;stroke-linecap:round;stroke-linejoin:round;stroke-miterlimit:4;stroke-dasharray:none;stroke-opacity:0.5;font-family:Bitstream Vera Sans" />
      </g>
      <g
         transform="matrix(1.102138,0,0,1.102138,-89.32898,-1.71638)"
         id="g12790">
        <path
           style="font-size:81.34132385px;font-style:normal;font-weight:bold;fill:black;fill-opacity:1;stroke:white;stroke-width:1.5;stroke-linecap:round;stroke-linejoin:round;stroke-miterlimit:4;stroke-dasharray:none;stroke-opacity:0.75;font-family:MetaMedium-Caps"
           d="M 125.84375,45.5625 L 125.84375,46.0625 L 125.84375,102.375 L 125.84375,102.875 L 126.34375,102.875 L 135.71875,102.875 L 136.21875,102.875 L 136.21875,102.375 L 136.21875,77.0625 L 151.40625,77.0625 L 151.90625,77.0625 L 151.90625,76.5625 L 151.90625,69 L 151.90625,68.5 L 151.40625,68.5 L 136.21875,68.5 L 136.21875,54.21875 L 154.96875,54.21875 L 155.40625,54.21875 L 155.46875,53.78125 L 156.625,46.15625 L 156.6875,45.5625 L 156.125,45.5625 L 126.34375,45.5625 L 125.84375,45.5625 z M 171.5625,57.6875 L 171.4375,58.03125 L 155.09375,102.1875 L 154.84375,102.875 L 155.5625,102.875 L 165.09375,102.875 L 165.4375,102.875 L 165.5625,102.53125 L 169.1875,92.28125 L 183.53125,92.28125 L 187.21875,102.53125 L 187.34375,102.875 L 187.6875,102.875 L 197.53125,102.875 L 198.25,102.875 L 198,102.1875 L 182.40625,58.03125 L 182.28125,57.6875 L 181.90625,57.6875 L 171.90625,57.6875 L 171.5625,57.6875 z M 204.1875,57.84375 L 204.1875,58.34375 L 204.1875,102.375 L 204.1875,102.875 L 204.6875,102.875 L 214.03125,102.875 L 214.53125,102.875 L 214.53125,102.375 L 214.53125,80.5 L 229.15625,102.625 L 229.28125,102.875 L 229.5625,102.875 L 241.6875,102.875 L 242.6875,102.875 L 242.09375,102.0625 L 224.90625,78.6875 L 240.625,58.65625 L 241.25,57.84375 L 240.21875,57.84375 L 228.84375,57.84375 L 228.5625,57.84375 L 228.4375,58.0625 L 214.53125,77.46875 L 214.53125,58.34375 L 214.53125,57.84375 L 214.03125,57.84375 L 204.6875,57.84375 L 204.1875,57.84375 z M 243.1875,57.84375 L 243.1875,58.34375 L 243.1875,65.75 L 243.1875,66.25 L 243.6875,66.25 L 255.3125,66.25 L 255.3125,102.375 L 255.3125,102.875 L 255.8125,102.875 L 265,102.875 L 265.5,102.875 L 265.5,102.375 L 265.5,66.25 L 276.96875,66.25 L 277.375,66.25 L 277.4375,65.84375 L 279,58.46875 L 279.125,57.84375 L 278.5,57.84375 L 243.6875,57.84375 L 243.1875,57.84375 z M 176.53125,67.875 L 181.25,84.28125 L 171.6875,84.28125 L 176.53125,67.875 z "
           id="text1964" />
        <path
           style="font-size:14.26249504px;font-style:normal;font-weight:normal;fill:#576bbf;fill-opacity:1;stroke:white;stroke-width:1.5;stroke-linecap:round;stroke-linejoin:round;stroke-miterlimit:4;stroke-dasharray:none;stroke-opacity:0.75;font-family:Bitstream Vera Sans"
           d="M 333.21875,57.71875 L 333.21875,58.21875 L 333.21875,94.34375 L 326.46875,94.34375 L 325.96875,94.34375 L 325.96875,94.84375 L 325.96875,102.46875 L 325.96875,102.96875 L 326.46875,102.96875 L 351.625,102.96875 L 352.125,102.96875 L 352.125,102.46875 L 352.125,94.84375 L 352.125,94.34375 L 351.625,94.34375 L 343.3125,94.34375 L 343.3125,69.96875 C 344.88066,70.918343 346.44048,71.79159 347.96875,72.53125 C 349.74847,73.392655 351.60483,74.222618 353.5,74.96875 L 353.9375,75.125 L 354.125,74.6875 L 356.4375,69.75 L 356.59375,69.375 L 356.28125,69.125 L 340.625,57.8125 L 340.46875,57.71875 L 340.3125,57.71875 L 333.71875,57.71875 L 333.21875,57.71875 z "
           id="text2855" />
        <path
           style="font-size:14.26249504px;font-style:normal;font-weight:normal;fill:#576bbf;fill-opacity:1;stroke:white;stroke-width:1.5;stroke-linecap:round;stroke-linejoin:round;stroke-miterlimit:4;stroke-dasharray:none;stroke-opacity:0.75;font-family:Bitstream Vera Sans"
           d="M 301.5625,57.6875 C 298.424,57.687545 295.58639,58.228753 293.0625,59.34375 C 290.54577,60.455708 288.41962,62.037607 286.6875,64.0625 C 284.95695,66.085738 283.61724,68.525611 282.6875,71.375 C 281.78814,74.131585 281.37431,77.213933 281.34375,80.59375 L 281.3125,80.59375 L 281.3125,80.9375 C 281.31254,84.407912 281.78932,87.58378 282.75,90.4375 C 283.70948,93.287418 285.08672,95.727292 286.875,97.75 C 288.66135,99.770436 290.79463,101.32588 293.28125,102.4375 C 295.77503,103.5523 298.53492,104.125 301.5625,104.125 C 304.7012,104.125 307.53961,103.58509 310.0625,102.5 C 312.58117,101.41675 314.73674,99.838414 316.46875,97.8125 C 318.19843,95.789342 319.50695,93.349341 320.4375,90.5 C 321.36968,87.645728 321.84376,84.461566 321.84375,80.9375 C 321.84375,77.413824 321.36818,74.230562 320.40625,71.375 C 319.44595,68.524299 318.06958,66.08525 316.28125,64.0625 C 314.49495,62.042103 312.36164,60.455415 309.875,59.34375 C 307.38127,58.228995 304.5901,57.687546 301.5625,57.6875 z M 301.65625,65.6875 C 304.8338,65.687536 307.00214,66.889175 308.40625,69.375 C 309.82391,71.884828 310.56251,75.545972 310.5625,80.34375 C 310.56251,83.458393 310.35499,86.028703 309.9375,88.0625 C 309.51889,90.101947 308.90391,91.724002 308.125,92.90625 C 307.34039,94.097238 306.41615,94.904244 305.34375,95.375 C 304.24778,95.856133 302.98527,96.093755 301.5,96.09375 C 298.32287,96.093756 296.15396,94.925622 294.75,92.46875 C 293.33321,89.989324 292.56255,86.329046 292.5625,81.53125 C 292.56253,78.416647 292.80092,75.845065 293.21875,73.78125 C 293.63757,71.712924 294.25255,70.087043 295.03125,68.90625 C 295.81684,67.715138 296.70972,66.908286 297.78125,66.4375 C 298.87633,65.95646 300.171,65.687539 301.65625,65.6875 z "
           id="text2859" />
      </g>
      <path
         style="font-size:81.34132385px;font-style:normal;font-weight:bold;fill:black;fill-opacity:1;stroke:white;stroke-width:1.5;stroke-linecap:round;stroke-linejoin:round;stroke-miterlimit:4;stroke-dasharray:none;stroke-opacity:1;font-family:MetaMedium-Caps"
         d="M 49.368199,48.499783 L 49.368199,49.050852 L 49.368199,111.115 L 49.368199,111.66607 L 49.919268,111.66607 L 60.251812,111.66607 L 60.802881,111.66607 L 60.802881,111.115 L 60.802881,83.21713 L 77.541602,83.21713 L 78.092671,83.21713 L 78.092671,82.666061 L 78.092671,74.331142 L 78.092671,73.780073 L 77.541602,73.780073 L 60.802881,73.780073 L 60.802881,58.040165 L 81.467968,58.040165 L 81.950154,58.040165 L 82.019037,57.557979 L 83.293384,49.154177 L 83.362268,48.499783 L 82.742315,48.499783 L 49.919268,48.499783 L 49.368199,48.499783 z M 99.756571,61.863206 L 99.618803,62.242066 L 81.605735,110.90835 L 81.330201,111.66607 L 82.122363,111.66607 L 92.627115,111.66607 L 93.005975,111.66607 L 93.143743,111.28721 L 97.138993,99.990292 L 112.94778,99.990292 L 117.01192,111.28721 L 117.14969,111.66607 L 117.52855,111.66607 L 128.37772,111.66607 L 129.16988,111.66607 L 128.89434,110.90835 L 111.70788,62.242066 L 111.57011,61.863206 L 111.15681,61.863206 L 100.13543,61.863206 L 99.756571,61.863206 z M 135.71382,62.035415 L 135.71382,62.586484 L 135.71382,111.115 L 135.71382,111.66607 L 136.26489,111.66607 L 146.56299,111.66607 L 147.11406,111.66607 L 147.11406,111.115 L 147.11406,87.005729 L 163.23283,111.39053 L 163.3706,111.66607 L 163.68057,111.66607 L 177.044,111.66607 L 178.14614,111.66607 L 177.49174,110.77058 L 158.54874,85.008104 L 175.87298,62.930902 L 176.56181,62.035415 L 175.42523,62.035415 L 162.88841,62.035415 L 162.57844,62.035415 L 162.44067,62.276508 L 147.11406,83.664873 L 147.11406,62.586484 L 147.11406,62.035415 L 146.56299,62.035415 L 136.26489,62.035415 L 135.71382,62.035415 z M 178.6972,62.035415 L 178.6972,62.586484 L 178.6972,70.749194 L 178.6972,71.300263 L 179.24827,71.300263 L 192.06063,71.300263 L 192.06063,111.115 L 192.06063,111.66607 L 192.6117,111.66607 L 202.73759,111.66607 L 203.28866,111.66607 L 203.28866,111.115 L 203.28866,71.300263 L 215.9288,71.300263 L 216.37655,71.300263 L 216.44543,70.852519 L 218.16752,62.724251 L 218.30529,62.035415 L 217.61645,62.035415 L 179.24827,62.035415 L 178.6972,62.035415 z M 105.23282,73.091237 L 110.43353,91.173188 L 99.894338,91.173188 L 105.23282,73.091237 z "
         id="path15472" />
      <path
         style="font-size:14.26249504px;font-style:normal;font-weight:normal;fill:#576bbf;fill-opacity:1;stroke:white;stroke-width:1.5;stroke-linecap:round;stroke-linejoin:round;stroke-miterlimit:4;stroke-dasharray:none;stroke-opacity:1;font-family:Bitstream Vera Sans"
         d="M 277.92407,61.897648 L 277.92407,62.448717 L 277.92407,102.26345 L 270.48464,102.26345 L 269.93357,102.26345 L 269.93357,102.81452 L 269.93357,111.21832 L 269.93357,111.76939 L 270.48464,111.76939 L 298.21029,111.76939 L 298.76136,111.76939 L 298.76136,111.21832 L 298.76136,102.81452 L 298.76136,102.26345 L 298.21029,102.26345 L 289.04877,102.26345 L 289.04877,75.398838 C 290.7771,76.445421 292.49624,77.407859 294.1806,78.223067 C 296.1421,79.172454 298.18806,80.087188 300.2768,80.909528 L 300.75899,81.081737 L 300.96564,80.599552 L 303.51433,75.157746 L 303.68654,74.744444 L 303.34212,74.468909 L 286.08678,62.000973 L 285.91457,61.897648 L 285.74236,61.897648 L 278.47514,61.897648 L 277.92407,61.897648 z "
         id="path15474" />
      <path
         style="font-size:14.26249504px;font-style:normal;font-weight:normal;fill:#576bbf;fill-opacity:1;stroke:white;stroke-width:1.5;stroke-linecap:round;stroke-linejoin:round;stroke-miterlimit:4;stroke-dasharray:none;stroke-opacity:1;font-family:Bitstream Vera Sans"
         d="M 243.03451,61.863206 C 239.57545,61.863255 236.44801,62.459741 233.66634,63.688622 C 230.89255,64.914153 228.54924,66.657624 226.64021,68.889336 C 224.7329,71.119223 223.25636,73.8083 222.23166,76.94872 C 221.24044,79.986857 220.78434,83.38403 220.75066,87.109054 L 220.71622,87.109054 L 220.71622,87.487914 C 220.71626,91.312787 221.24174,94.813032 222.30054,97.958225 C 223.35802,101.09923 224.87593,103.78831 226.84686,106.01761 C 228.81566,108.24441 231.16683,109.95872 233.90743,111.18388 C 236.65592,112.41254 239.6977,113.04374 243.03451,113.04374 C 246.49379,113.04374 249.62211,112.44868 252.40268,111.25277 C 255.17861,110.05887 257.55434,108.31933 259.46326,106.08649 C 261.3696,103.85669 262.81177,101.16748 263.83737,98.027109 C 264.86476,94.881307 265.38726,91.371921 265.38725,87.487914 C 265.38725,83.604337 264.8631,80.095943 263.80292,76.94872 C 262.74454,73.806854 261.22759,71.118685 259.2566,68.889336 C 257.28786,66.662579 254.93665,64.91383 252.19603,63.688622 C 249.4476,62.460008 246.37134,61.863257 243.03451,61.863206 z M 243.13784,70.68031 C 246.63993,70.68035 249.02974,72.004722 250.57727,74.744444 C 252.13972,77.510621 252.95376,81.545706 252.95375,86.83352 C 252.95376,90.266286 252.72505,93.099123 252.26492,95.340648 C 251.80355,97.5884 251.12576,99.376128 250.26729,100.67913 C 249.40254,101.99176 248.3839,102.88119 247.20197,103.40003 C 245.99406,103.93031 244.6026,104.1922 242.96563,104.19219 C 239.46399,104.1922 237.07355,102.90476 235.5262,100.19694 C 233.9647,97.464274 233.11532,93.430142 233.11527,88.142309 C 233.1153,84.709586 233.37804,81.875348 233.83855,79.600739 C 234.30014,77.321159 234.97794,75.529213 235.83617,74.227817 C 236.702,72.915047 237.68608,72.025785 238.86705,71.506913 C 240.07398,70.976741 241.50089,70.680353 243.13784,70.68031 z "
         id="path15476" />
    </g>
  </g>
</svg>
