<?xml version="1.0" encoding="UTF-8" standalone="no"?>
<!-- Created with Inkscape (http://www.inkscape.org/) -->
<svg
   xmlns:dc="http://purl.org/dc/elements/1.1/"
   xmlns:cc="http://web.resource.org/cc/"
   xmlns:rdf="http://www.w3.org/1999/02/22-rdf-syntax-ns#"
   xmlns:svg="http://www.w3.org/2000/svg"
   xmlns="http://www.w3.org/2000/svg"
   xmlns:xlink="http://www.w3.org/1999/xlink"
   xmlns:sodipodi="http://sodipodi.sourceforge.net/DTD/sodipodi-0.dtd"
   xmlns:inkscape="http://www.inkscape.org/namespaces/inkscape"
   width="250"
   height="250"
   id="svg2"
   sodipodi:version="0.32"
   inkscape:version="0.44"
   version="1.0"
   sodipodi:docbase="D:\icons"
   sodipodi:docname="FaktorIpsIcon_tiny.svg"
   inkscape:export-filename="D:\icons\FaktorIpsIcon_tiny.png"
   inkscape:export-xdpi="90"
   inkscape:export-ydpi="90">
  <defs
     id="defs4">
    <linearGradient
       inkscape:collect="always"
       id="linearGradient22014">
      <stop
         style="stop-color:white;stop-opacity:1;"
         offset="0"
         id="stop22016" />
      <stop
         style="stop-color:white;stop-opacity:0;"
         offset="1"
         id="stop22018" />
    </linearGradient>
    <linearGradient
       id="linearGradient21092">
      <stop
         style="stop-color:white;stop-opacity:1;"
         offset="0"
         id="stop21094" />
      <stop
         style="stop-color:white;stop-opacity:0;"
         offset="1"
         id="stop21096" />
    </linearGradient>
    <linearGradient
       id="linearGradient4740">
      <stop
         id="stop4742"
         offset="0"
         style="stop-color:#e3e6f5;stop-opacity:0;" />
      <stop
         style="stop-color:#acb6e0;stop-opacity:0;"
         offset="0.5321101"
         id="stop4746" />
      <stop
         id="stop4744"
         offset="1"
         style="stop-color:#3c50a0;stop-opacity:0.76774192;" />
    </linearGradient>
    <linearGradient
       id="linearGradient4669">
      <stop
         style="stop-color:#e3e6f5;stop-opacity:1;"
         offset="0"
         id="stop4671" />
      <stop
         style="stop-color:#7586cb;stop-opacity:1;"
         offset="1"
         id="stop4673" />
    </linearGradient>
    <radialGradient
       inkscape:collect="always"
       xlink:href="#linearGradient4669"
       id="radialGradient25043"
       gradientUnits="userSpaceOnUse"
       cx="213.65384"
       cy="112.82052"
       fx="213.65384"
       fy="112.82052"
       r="113.67308" />
    <radialGradient
       inkscape:collect="always"
       xlink:href="#linearGradient4740"
       id="radialGradient25045"
       gradientUnits="userSpaceOnUse"
       cx="241.15384"
       cy="150.54488"
       fx="241.15384"
       fy="150.54488"
       r="113.67308" />
    <radialGradient
       inkscape:collect="always"
       xlink:href="#linearGradient4669"
       id="radialGradient25047"
       gradientUnits="userSpaceOnUse"
       cx="213.65384"
       cy="112.82052"
       fx="213.65384"
       fy="112.82052"
       r="113.67308" />
    <radialGradient
       inkscape:collect="always"
       xlink:href="#linearGradient4740"
       id="radialGradient25049"
       gradientUnits="userSpaceOnUse"
       cx="241.15384"
       cy="150.54488"
       fx="241.15384"
       fy="150.54488"
       r="113.67308" />
    <linearGradient
       inkscape:collect="always"
       xlink:href="#linearGradient21092"
       id="linearGradient25051"
       gradientUnits="userSpaceOnUse"
       gradientTransform="translate(0.499999,4.66e-3)"
       x1="160"
       y1="127.5"
       x2="163.46794"
       y2="90.21154" />
    <linearGradient
       inkscape:collect="always"
       xlink:href="#linearGradient21092"
       id="linearGradient25053"
       gradientUnits="userSpaceOnUse"
       gradientTransform="matrix(0.996979,0,0,-1,0.983388,255.0378)"
       x1="160"
       y1="127.5"
       x2="163.46794"
       y2="90.21154" />
    <linearGradient
       inkscape:collect="always"
       xlink:href="#linearGradient21092"
       id="linearGradient25055"
       gradientUnits="userSpaceOnUse"
       gradientTransform="matrix(0.487915,0,0,-1,82.43354,255.0378)"
       x1="160"
       y1="127.5"
       x2="163.46794"
       y2="90.21154" />
    <linearGradient
       inkscape:collect="always"
       xlink:href="#linearGradient21092"
       id="linearGradient25057"
       gradientUnits="userSpaceOnUse"
       gradientTransform="translate(0.499999,4.66e-3)"
       x1="160"
       y1="127.5"
       x2="163.46794"
       y2="90.21154" />
    <linearGradient
       inkscape:collect="always"
       xlink:href="#linearGradient21092"
       id="linearGradient25059"
       gradientUnits="userSpaceOnUse"
       gradientTransform="matrix(0.996979,0,0,-1,0.983388,255.0378)"
       x1="160"
       y1="127.5"
       x2="163.46794"
       y2="90.21154" />
    <linearGradient
       inkscape:collect="always"
       xlink:href="#linearGradient21092"
       id="linearGradient25061"
       gradientUnits="userSpaceOnUse"
       gradientTransform="matrix(0.487915,0,0,-1,82.43354,255.0378)"
       x1="160"
       y1="127.5"
       x2="163.46794"
       y2="90.21154" />
    <radialGradient
       inkscape:collect="always"
       xlink:href="#linearGradient22014"
       id="radialGradient25063"
       gradientUnits="userSpaceOnUse"
       gradientTransform="matrix(1,0,0,0.2,0,102.1026)"
       cx="160.41667"
       cy="127.6282"
       fx="160.41667"
       fy="127.6282"
       r="42.307693" />
    <linearGradient
       inkscape:collect="always"
       xlink:href="#linearGradient21092"
       id="linearGradient25065"
       gradientUnits="userSpaceOnUse"
       gradientTransform="translate(0.499999,4.66e-3)"
       x1="160"
       y1="127.5"
       x2="163.46794"
       y2="90.21154" />
    <linearGradient
       inkscape:collect="always"
       xlink:href="#linearGradient21092"
       id="linearGradient25067"
       gradientUnits="userSpaceOnUse"
       gradientTransform="matrix(0.996979,0,0,-1,0.983388,255.0378)"
       x1="160"
       y1="127.5"
       x2="163.46794"
       y2="90.21154" />
    <linearGradient
       inkscape:collect="always"
       xlink:href="#linearGradient21092"
       id="linearGradient25069"
       gradientUnits="userSpaceOnUse"
       gradientTransform="matrix(0.487915,0,0,-1,82.43354,255.0378)"
       x1="160"
       y1="127.5"
       x2="163.46794"
       y2="90.21154" />
    <linearGradient
       inkscape:collect="always"
       xlink:href="#linearGradient21092"
       id="linearGradient25071"
       gradientUnits="userSpaceOnUse"
       gradientTransform="translate(0.499999,4.66e-3)"
       x1="160"
       y1="127.5"
       x2="163.46794"
       y2="90.21154" />
    <linearGradient
       inkscape:collect="always"
       xlink:href="#linearGradient21092"
       id="linearGradient25073"
       gradientUnits="userSpaceOnUse"
       gradientTransform="matrix(0.996979,0,0,-1,0.983388,255.0378)"
       x1="160"
       y1="127.5"
       x2="163.46794"
       y2="90.21154" />
    <linearGradient
       inkscape:collect="always"
       xlink:href="#linearGradient21092"
       id="linearGradient25075"
       gradientUnits="userSpaceOnUse"
       gradientTransform="matrix(0.487915,0,0,-1,82.43354,255.0378)"
       x1="160"
       y1="127.5"
       x2="163.46794"
       y2="90.21154" />
    <radialGradient
       inkscape:collect="always"
       xlink:href="#linearGradient22014"
       id="radialGradient25077"
       gradientUnits="userSpaceOnUse"
       gradientTransform="matrix(1,0,0,0.2,0,102.1026)"
       cx="160.41667"
       cy="127.6282"
       fx="160.41667"
       fy="127.6282"
       r="42.307693" />
    <linearGradient
       inkscape:collect="always"
       xlink:href="#linearGradient21092"
       id="linearGradient25079"
       gradientUnits="userSpaceOnUse"
       gradientTransform="translate(0.499999,4.66e-3)"
       x1="160"
       y1="127.5"
       x2="163.46794"
       y2="90.21154" />
    <linearGradient
       inkscape:collect="always"
       xlink:href="#linearGradient21092"
       id="linearGradient25081"
       gradientUnits="userSpaceOnUse"
       gradientTransform="matrix(0.996979,0,0,-1,0.983388,255.0378)"
       x1="160"
       y1="127.5"
       x2="163.46794"
       y2="90.21154" />
    <linearGradient
       inkscape:collect="always"
       xlink:href="#linearGradient21092"
       id="linearGradient25083"
       gradientUnits="userSpaceOnUse"
       gradientTransform="matrix(0.487915,0,0,-1,82.43354,255.0378)"
       x1="160"
       y1="127.5"
       x2="163.46794"
       y2="90.21154" />
    <linearGradient
       inkscape:collect="always"
       xlink:href="#linearGradient21092"
       id="linearGradient25085"
       gradientUnits="userSpaceOnUse"
       gradientTransform="translate(0.499999,4.66e-3)"
       x1="160"
       y1="127.5"
       x2="163.46794"
       y2="90.21154" />
    <linearGradient
       inkscape:collect="always"
       xlink:href="#linearGradient21092"
       id="linearGradient25087"
       gradientUnits="userSpaceOnUse"
       gradientTransform="matrix(0.996979,0,0,-1,0.983388,255.0378)"
       x1="160"
       y1="127.5"
       x2="163.46794"
       y2="90.21154" />
    <linearGradient
       inkscape:collect="always"
       xlink:href="#linearGradient21092"
       id="linearGradient25089"
       gradientUnits="userSpaceOnUse"
       gradientTransform="matrix(0.487915,0,0,-1,82.43354,255.0378)"
       x1="160"
       y1="127.5"
       x2="163.46794"
       y2="90.21154" />
    <radialGradient
       inkscape:collect="always"
       xlink:href="#linearGradient22014"
       id="radialGradient25091"
       gradientUnits="userSpaceOnUse"
       gradientTransform="matrix(1,0,0,0.2,0,102.1026)"
       cx="160.41667"
       cy="127.6282"
       fx="160.41667"
       fy="127.6282"
       r="42.307693" />
    <linearGradient
       inkscape:collect="always"
       xlink:href="#linearGradient21092"
       id="linearGradient25093"
       gradientUnits="userSpaceOnUse"
       gradientTransform="translate(0.499999,4.66e-3)"
       x1="160"
       y1="127.5"
       x2="163.46794"
       y2="90.21154" />
    <linearGradient
       inkscape:collect="always"
       xlink:href="#linearGradient21092"
       id="linearGradient25095"
       gradientUnits="userSpaceOnUse"
       gradientTransform="matrix(0.996979,0,0,-1,0.983388,255.0378)"
       x1="160"
       y1="127.5"
       x2="163.46794"
       y2="90.21154" />
    <linearGradient
       inkscape:collect="always"
       xlink:href="#linearGradient21092"
       id="linearGradient25097"
       gradientUnits="userSpaceOnUse"
       gradientTransform="matrix(0.487915,0,0,-1,82.43354,255.0378)"
       x1="160"
       y1="127.5"
       x2="163.46794"
       y2="90.21154" />
    <linearGradient
       inkscape:collect="always"
       xlink:href="#linearGradient21092"
       id="linearGradient25099"
       gradientUnits="userSpaceOnUse"
       gradientTransform="translate(0.499999,4.66e-3)"
       x1="160"
       y1="127.5"
       x2="163.46794"
       y2="90.21154" />
    <linearGradient
       inkscape:collect="always"
       xlink:href="#linearGradient21092"
       id="linearGradient25101"
       gradientUnits="userSpaceOnUse"
       gradientTransform="matrix(0.996979,0,0,-1,0.983388,255.0378)"
       x1="160"
       y1="127.5"
       x2="163.46794"
       y2="90.21154" />
    <linearGradient
       inkscape:collect="always"
       xlink:href="#linearGradient21092"
       id="linearGradient25103"
       gradientUnits="userSpaceOnUse"
       gradientTransform="matrix(0.487915,0,0,-1,82.43354,255.0378)"
       x1="160"
       y1="127.5"
       x2="163.46794"
       y2="90.21154" />
    <radialGradient
       inkscape:collect="always"
       xlink:href="#linearGradient22014"
       id="radialGradient25105"
       gradientUnits="userSpaceOnUse"
       gradientTransform="matrix(1,0,0,0.2,0,102.1026)"
       cx="160.41667"
       cy="127.6282"
       fx="160.41667"
       fy="127.6282"
       r="42.307693" />
  </defs>
  <sodipodi:namedview
     id="base"
     pagecolor="#ffffff"
     bordercolor="#666666"
     borderopacity="1.0"
     inkscape:pageopacity="0.0"
     inkscape:pageshadow="2"
     inkscape:zoom="3.5226332"
     inkscape:cx="167.49994"
     inkscape:cy="110.24586"
     inkscape:document-units="px"
     inkscape:current-layer="layer1"
     width="250px"
     height="250px"
     inkscape:window-width="1920"
     inkscape:window-height="1131"
     inkscape:window-x="-4"
     inkscape:window-y="-4"
     showguides="true"
     inkscape:guide-bbox="true"
     borderlayer="true">
    <sodipodi:guide
       orientation="horizontal"
       position="78"
       id="guide20186" />
    <sodipodi:guide
       orientation="vertical"
       position="78"
       id="guide20188" />
    <sodipodi:guide
       orientation="vertical"
       position="322"
       id="guide20190" />
    <sodipodi:guide
       orientation="horizontal"
       position="202.49534"
       id="guide20192" />
    <sodipodi:guide
       orientation="vertical"
       position="160.5"
       id="guide20194" />
    <sodipodi:guide
       orientation="horizontal"
       position="211.5"
       id="guide20196" />
    <sodipodi:guide
       orientation="horizontal"
       position="193.51249"
       id="guide20198" />
    <sodipodi:guide
       orientation="vertical"
       position="11"
       id="guide20200" />
    <sodipodi:guide
       orientation="vertical"
       position="490.5"
       id="guide20202" />
  </sodipodi:namedview>
  <metadata
     id="metadata7">
    <rdf:RDF>
      <cc:Work
         rdf:about="">
        <dc:format>image/svg+xml</dc:format>
        <dc:type
           rdf:resource="http://purl.org/dc/dcmitype/StillImage" />
      </cc:Work>
    </rdf:RDF>
  </metadata>
  <g
     inkscape:label="Ebene 1"
     inkscape:groupmode="layer"
     id="layer1">
    <text
       xml:space="preserve"
       style="font-size:11.33818817px;font-style:normal;font-weight:normal;fill:#576bbf;fill-opacity:1;stroke:white;stroke-width:3.77939606;stroke-linecap:round;stroke-linejoin:round;stroke-miterlimit:4;stroke-dasharray:none;stroke-opacity:0.75;font-family:Bitstream Vera Sans"
       x="0.065732956"
       y="210.05661"
       id="text2863"><tspan
         sodipodi:role="line"
         id="tspan2865"
         x="0.065732956"
         y="210.05661"
         style="font-size:136.05825806px;font-weight:bold;fill:#576bbf;fill-opacity:1;stroke:white;stroke-width:3.77939606;stroke-linecap:round;stroke-linejoin:round;stroke-miterlimit:4;stroke-dasharray:none;stroke-opacity:0.75">IPS</tspan></text>
    <g
       id="g16535"
       transform="matrix(0.944849,0,0,0.944849,-103.8677,-16.46487)"
       style="stroke:white;stroke-width:5;stroke-linecap:round;stroke-linejoin:round;stroke-miterlimit:4;stroke-dasharray:none;stroke-opacity:0.33000004">
      <path
         d="M 354.32692 150.54488 A 113.17308 113.17308 0 1 1  127.98076,150.54488 A 113.17308 113.17308 0 1 1  354.32692 150.54488 z"
         sodipodi:ry="113.17308"
         sodipodi:rx="113.17308"
         sodipodi:cy="150.54488"
         sodipodi:cx="241.15384"
         id="path3774"
         style="opacity:1;fill:url(#radialGradient25043);fill-opacity:1;fill-rule:nonzero;stroke:white;stroke-width:5;stroke-linecap:round;stroke-linejoin:round;stroke-miterlimit:4;stroke-dasharray:none;stroke-opacity:0.33000004"
         sodipodi:type="arc" />
      <path
         sodipodi:type="arc"
         style="opacity:1;fill:url(#radialGradient25045);fill-opacity:1;fill-rule:nonzero;stroke:white;stroke-width:5;stroke-linecap:round;stroke-linejoin:round;stroke-miterlimit:4;stroke-dasharray:none;stroke-opacity:0.33000004"
         id="path4748"
         sodipodi:cx="241.15384"
         sodipodi:cy="150.54488"
         sodipodi:rx="113.17308"
         sodipodi:ry="113.17308"
         d="M 354.32692 150.54488 A 113.17308 113.17308 0 1 1  127.98076,150.54488 A 113.17308 113.17308 0 1 1  354.32692 150.54488 z" />
    </g>
    <g
       style="stroke:#576bbf;stroke-width:1;stroke-linecap:round;stroke-linejoin:round;stroke-miterlimit:4;stroke-dasharray:none;stroke-opacity:0.5"
       transform="matrix(0.944849,0,0,0.944849,-103.8677,-16.46487)"
       id="g17428">
      <path
         sodipodi:type="arc"
         style="opacity:1;fill:url(#radialGradient25047);fill-opacity:1;fill-rule:nonzero;stroke:#576bbf;stroke-width:1;stroke-linecap:round;stroke-linejoin:round;stroke-miterlimit:4;stroke-dasharray:none;stroke-opacity:0.5"
         id="path17430"
         sodipodi:cx="241.15384"
         sodipodi:cy="150.54488"
         sodipodi:rx="113.17308"
         sodipodi:ry="113.17308"
         d="M 354.32692 150.54488 A 113.17308 113.17308 0 1 1  127.98076,150.54488 A 113.17308 113.17308 0 1 1  354.32692 150.54488 z" />
      <path
         d="M 354.32692 150.54488 A 113.17308 113.17308 0 1 1  127.98076,150.54488 A 113.17308 113.17308 0 1 1  354.32692 150.54488 z"
         sodipodi:ry="113.17308"
         sodipodi:rx="113.17308"
         sodipodi:cy="150.54488"
         sodipodi:cx="241.15384"
         id="path17432"
         style="opacity:1;fill:url(#radialGradient25049);fill-opacity:1;fill-rule:nonzero;stroke:#576bbf;stroke-width:1;stroke-linecap:round;stroke-linejoin:round;stroke-miterlimit:4;stroke-dasharray:none;stroke-opacity:0.5"
         sodipodi:type="arc" />
    </g>
    <path
       style="font-size:12px;font-style:normal;font-weight:normal;opacity:0.09899998;fill:black;fill-opacity:1;stroke:black;stroke-width:7.55879211;stroke-linecap:round;stroke-linejoin:round;stroke-miterlimit:4;stroke-opacity:0.5;font-family:Bitstream Vera Sans"
       d="M 202.96442,106.73874 C 190.1645,106.73885 179.52968,109.60989 171.81393,116.0396 C 164.08618,122.47949 160.20999,132.0518 160.21,143.17448 C 160.20999,152.18238 163.02169,160.16465 168.74317,165.96896 C 174.45349,171.76211 182.77646,175.39817 193.33877,177.66147 L 203.17111,179.87596 C 208.79597,181.11678 212.6525,183.01314 212.85581,183.18293 C 213.64601,183.8429 213.83015,184.03406 213.83018,186.01748 C 213.83016,188.0219 213.80603,188.09241 212.02907,189.20634 C 210.44369,190.20016 207.15914,191.12559 202.22626,191.12557 C 197.33319,191.12559 192.1385,190.34175 186.66578,188.76344 C 181.18511,187.1829 175.45856,184.82615 169.42228,181.61802 C 167.7614,180.73691 165.57688,180.72004 163.87129,181.73613 C 162.16567,182.75224 161.11325,184.51885 161.0958,186.57848 C 161.09576,186.58833 161.09576,186.59816 161.0958,186.60801 L 161.0958,208.22143 C 161.08588,210.56272 162.54274,212.66516 164.72756,213.50668 C 164.74716,213.51669 164.76685,213.52654 164.78662,213.5362 C 171.4122,215.99187 178.03788,217.83168 184.6875,219.08719 C 191.35541,220.34618 198.02674,220.97689 204.67696,220.97689 C 218.75647,220.9769 230.05822,218.248 238.01241,211.70556 C 245.98946,205.14418 249.82292,194.96813 249.82303,182.88766 C 249.82293,173.48588 247.02124,165.3016 241.1127,159.5617 C 235.2126,153.83033 226.37262,150.31622 214.77503,147.9873 L 203.87974,145.77281 C 199.10723,144.7939 195.87143,143.32577 195.43516,142.99732 C 194.61564,142.38042 194.75602,142.76004 194.75605,141.31431 C 194.75604,139.1233 194.67966,139.3192 196.29143,138.39118 C 197.66375,137.60108 201.44203,136.61967 207.00956,136.61959 C 211.11078,136.61966 215.54556,137.15159 220.35555,138.3026 C 225.15741,139.45185 230.16235,141.19066 235.3255,143.49927 C 237.11274,144.2936 239.10463,144.11361 240.69933,143.0859 C 242.29405,142.0582 243.28337,140.22991 243.29766,138.36165 C 243.2977,138.35181 243.2977,138.34197 243.29766,138.33213 L 243.29766,117.33876 C 243.30937,114.79621 241.58557,112.55188 239.13442,111.87636 C 239.12463,111.86646 239.11479,111.85662 239.1049,111.84683 C 232.75677,110.15716 226.56962,108.86339 220.56223,108.00838 C 214.55488,107.1536 208.69263,106.73884 202.96442,106.73874 z M 17.803549,108.53986 C 17.734394,108.5478 17.665473,108.55764 17.596863,108.56938 C 14.742423,108.8837 12.530867,111.36682 12.547826,114.23848 L 12.547826,213.38857 C 12.54813,216.47446 15.131051,219.05735 18.21692,219.05766 L 43.786892,219.05766 C 46.872825,219.05738 49.455683,216.47447 49.455986,213.38857 L 49.455986,114.20895 C 49.455683,111.12306 46.872787,108.54017 43.786892,108.53986 L 18.423606,108.53986 C 18.354766,108.53609 18.285825,108.54111 18.21692,108.53986 C 18.079109,108.53735 17.941229,108.53232 17.803549,108.53986 z M 68.559651,108.53986 C 68.490498,108.5478 68.42158,108.55764 68.352966,108.56938 C 65.498529,108.8837 63.286978,111.36682 63.303929,114.23848 L 63.303929,213.38857 C 63.30424,216.47445 65.887155,219.05735 68.973023,219.05766 L 94.542999,219.05766 C 97.628942,219.05738 100.21179,216.47447 100.21209,213.38857 L 100.21209,184.65926 L 111.40265,184.65926 C 124.86836,184.65929 136.02996,181.65413 144.11804,174.94503 C 152.21992,168.22442 156.28286,158.22779 156.28298,146.57003 C 156.28287,134.95116 152.22029,124.94563 144.11804,118.22456 C 136.02526,111.51172 124.86257,108.53996 111.40265,108.53986 L 69.179708,108.53986 C 69.110867,108.53609 69.04193,108.54111 68.973023,108.53986 C 68.835216,108.53735 68.697335,108.53232 68.559651,108.53986 z M 100.21209,138.42071 L 108.68621,138.42071 C 112.75369,138.42077 115.01018,139.32626 116.42216,140.57614 C 117.87357,141.86106 118.57755,143.24598 118.5776,146.57003 C 118.57755,149.89751 117.90338,151.27006 116.42216,152.59344 C 114.99309,153.87024 112.72915,154.77844 108.68621,154.77841 L 100.21209,154.77841 L 100.21209,138.42071 z "
       id="path23103" />
    <path
       style="font-size:81.34132385px;font-style:normal;font-weight:bold;opacity:0.09917357;fill:black;fill-opacity:1;stroke:#020202;stroke-width:4.72424507;stroke-linecap:round;stroke-linejoin:round;stroke-miterlimit:4;stroke-opacity:0.5;font-family:MetaMedium-Caps"
       d="M 18.453132,31.551323 C 17.241647,31.673178 16.321232,32.695866 16.327222,33.913446 L 16.327222,34.38587 L 16.327222,87.592679 L 16.327222,88.065103 C 16.327354,89.369619 17.384839,90.427094 18.689345,90.427226 L 19.161769,90.427226 L 28.019729,90.427226 L 28.492153,90.427226 C 29.796659,90.427094 30.854139,89.369619 30.854271,88.065103 L 30.854271,87.592679 L 30.854271,66.038312 L 42.842043,66.038312 L 43.314467,66.038312 C 44.618973,66.038182 45.676457,64.9807 45.67659,63.676189 L 45.67659,63.203765 L 45.67659,56.058344 L 45.67659,55.58592 C 45.676457,54.281409 44.618973,53.223928 43.314467,53.223797 L 42.842043,53.223797 L 30.854271,53.223797 L 30.854271,44.454418 L 46.208067,44.454418 L 46.621439,44.454418 C 47.797766,44.450784 48.792191,43.582236 48.954034,42.417087 L 49.013088,42.003716 L 50.105569,34.828768 C 50.116426,34.789659 50.126271,34.750278 50.135096,34.710662 L 50.194149,34.149658 C 50.261044,33.483391 50.054056,32.814489 49.603618,32.319013 C 49.15319,31.823536 48.501631,31.54804 47.832026,31.551323 L 47.300549,31.551323 L 19.161769,31.551323 L 18.689345,31.551323 C 18.610658,31.547384 18.531819,31.547384 18.453132,31.551323 z M 61.650443,43.007618 C 60.744408,43.104093 59.974621,43.713029 59.672165,44.572524 L 59.554059,44.897316 L 44.111683,86.588777 C 44.111617,86.598622 44.111617,86.608458 44.111683,86.618303 L 43.875471,87.267887 C 43.616696,87.989959 43.730475,88.795217 44.170736,89.423324 C 44.611008,90.051431 45.322923,90.424183 46.089961,90.427226 L 46.769071,90.427226 L 55.774663,90.427226 L 56.099455,90.427226 C 57.093313,90.423352 57.978457,89.797852 58.313945,88.86232 L 58.432051,88.537528 L 61.296125,80.417732 L 71.541831,80.417732 L 74.464957,88.537528 L 74.583064,88.86232 C 74.918551,89.797852 75.803695,90.423352 76.797553,90.427226 L 77.122345,90.427226 L 86.423203,90.427226 L 87.102313,90.427226 C 87.869351,90.424183 88.581276,90.051431 89.021537,89.423324 C 89.46179,88.795217 89.575578,87.989959 89.316803,87.267887 L 89.08059,86.618303 L 74.346851,44.897316 L 74.228745,44.572524 C 73.893258,43.636995 73.008114,43.011491 72.014255,43.007618 L 71.659937,43.007618 L 62.211447,43.007618 L 61.886655,43.007618 C 61.807968,43.003679 61.72913,43.003679 61.650443,43.007618 z M 184.71703,43.007618 C 181.48008,43.007664 178.46584,43.575422 175.74096,44.779209 C 173.05535,45.96578 170.72351,47.680771 168.86128,49.857773 C 167.00784,52.024662 165.60167,54.613838 164.63898,57.564198 C 163.74305,60.310263 163.34722,63.303143 163.28076,66.48121 C 163.24102,66.655563 163.22122,66.833864 163.22171,67.012688 L 163.22171,67.337479 C 163.22174,70.832834 163.69667,74.106651 164.69804,77.081234 C 165.69261,80.035417 167.15259,82.621205 169.06796,84.787658 C 170.97544,86.945108 173.27867,88.627232 175.91812,89.807169 C 178.59198,91.002478 181.55854,91.608287 184.71703,91.608287 C 187.9535,91.608287 190.97987,91.033176 193.69309,89.866222 C 196.38851,88.706949 198.73054,87.006561 200.6023,84.817185 C 202.46377,82.639856 203.83651,80.045858 204.79507,77.11076 C 205.76339,74.145758 206.24188,70.879046 206.24187,67.337479 C 206.24186,63.795612 205.76877,60.512836 204.76554,57.534671 C 203.77034,54.580387 202.31108,51.994794 200.39561,49.828246 C 198.49616,47.679883 196.19995,45.965915 193.54546,44.779209 C 190.8499,43.574238 187.85925,43.007665 184.71703,43.007618 z M 214.39119,43.037144 C 213.1797,43.158998 212.25929,44.181686 212.26528,45.399267 L 212.26528,45.871691 L 212.26528,77.642238 L 208.24967,77.642238 L 207.77725,77.642238 C 206.47274,77.64237 205.41526,78.699855 205.41512,80.00436 L 205.41512,80.476785 L 205.41512,87.681258 L 205.41512,88.153683 C 205.41526,89.458198 206.47274,90.515673 207.77725,90.515805 L 208.24967,90.515805 L 232.01853,90.515805 L 232.49095,90.515805 C 233.79546,90.515673 234.85294,89.458198 234.85308,88.153683 L 234.85308,87.681258 L 234.85308,80.476785 L 234.85308,80.00436 C 234.85294,78.699855 233.79546,77.64237 232.49095,77.642238 L 232.01853,77.642238 L 226.52659,77.642238 L 226.52659,60.959749 C 226.86347,61.133639 227.19368,61.357739 227.5305,61.520753 C 229.25628,62.356059 231.07686,63.151774 232.93385,63.882875 C 232.9534,63.892992 232.97308,63.902835 232.9929,63.912402 L 233.40628,64.060034 C 234.5797,64.493015 235.88725,63.936337 236.38845,62.790394 L 236.56561,62.377022 L 238.69152,57.770883 C 238.71187,57.741804 238.73156,57.71227 238.75058,57.682304 L 238.89821,57.327985 C 239.29878,56.356913 239.01002,55.237988 238.18957,54.582018 L 237.89431,54.345806 C 237.86557,54.315501 237.83603,54.285965 237.80573,54.257226 L 223.01294,43.568622 C 222.95569,43.52661 222.89658,43.487201 222.83578,43.450516 L 222.68814,43.361936 C 222.32122,43.146643 221.90297,43.03443 221.47756,43.037144 L 221.32992,43.037144 L 215.09983,43.037144 L 214.6274,43.037144 C 214.54871,43.033205 214.46988,43.033205 214.39119,43.037144 z M 92.476142,43.15525 C 91.264656,43.277104 90.344241,44.299792 90.350231,45.517373 L 90.350231,45.989797 L 90.350231,87.592679 L 90.350231,88.065103 C 90.350364,89.369619 91.407848,90.427094 92.712354,90.427226 L 93.184778,90.427226 L 102.01321,90.427226 L 102.48564,90.427226 C 103.79014,90.427094 104.84763,89.369619 104.84776,88.065103 L 104.84776,87.592679 L 104.84776,74.778164 L 114.17814,88.891846 L 114.20767,88.950899 L 114.29625,89.128058 C 114.70037,89.929971 115.52419,90.433424 116.42216,90.427226 L 116.6879,90.427226 L 128.14419,90.427226 L 129.08904,90.427226 C 129.97845,90.429966 130.7802,89.919804 131.18542,89.128058 C 131.59065,88.336313 131.53066,87.397199 131.00826,86.677356 L 130.44726,85.909667 C 130.43742,85.90961 130.42758,85.90961 130.41773,85.909667 L 115.2411,65.270622 L 127.19934,50.034932 L 127.19934,52.987585 L 127.19934,53.46001 C 127.19947,54.76452 128.25696,55.822002 129.56146,55.822132 L 130.03389,55.822132 L 138.65564,55.822132 L 138.65564,87.592679 L 138.65564,88.065103 C 138.65577,89.369619 139.71325,90.427094 141.01776,90.427226 L 141.49018,90.427226 L 150.17098,90.427226 L 150.64341,90.427226 C 151.94791,90.427094 153.0054,89.369619 153.00553,88.065103 L 153.00553,87.592679 L 153.00553,55.822132 L 161.47965,55.822132 L 161.86349,55.822132 C 163.03013,55.820648 164.021,54.967754 164.19609,53.814328 L 164.22561,53.578116 L 164.25514,53.46001 L 164.25514,53.430483 L 165.70194,46.609854 C 165.70201,46.600012 165.70201,46.590169 165.70194,46.580328 L 165.82005,45.989797 C 165.96143,45.296765 165.79365,44.589997 165.34762,44.041046 C 164.9016,43.492095 164.22427,43.158726 163.51698,43.15525 L 162.92645,43.15525 L 130.03389,43.15525 L 129.56146,43.15525 C 129.24761,43.152913 128.93646,43.213139 128.64614,43.332409 C 128.35583,43.213139 128.04467,43.152913 127.73082,43.15525 L 126.75644,43.15525 L 116.00879,43.15525 L 115.74305,43.15525 C 114.90213,43.158266 114.12621,43.608074 113.70572,44.336312 L 104.84776,56.707928 L 104.84776,45.989797 L 104.84776,45.517373 C 104.84763,44.212862 103.79014,43.155381 102.48564,43.15525 L 102.01321,43.15525 L 93.184778,43.15525 L 92.712354,43.15525 C 92.633667,43.151311 92.554829,43.151311 92.476142,43.15525 z M 184.8056,55.290655 C 187.2124,55.290682 188.14165,55.83837 189.11648,57.564198 C 190.14496,59.38503 190.85855,62.485732 190.85854,66.776475 C 190.85854,69.614427 190.6737,71.90845 190.32707,73.597103 C 189.97355,75.319383 189.44342,76.581824 188.93932,77.346972 C 188.39711,78.170002 187.90575,78.5771 187.34489,78.823299 C 186.6586,79.124583 185.80938,79.295724 184.65797,79.295724 C 182.23504,79.295733 181.28418,78.743233 180.31757,77.051707 C 179.29268,75.258138 178.57555,72.178743 178.57551,67.898483 C 178.57553,65.076181 178.78278,62.795565 179.13651,61.048328 C 179.49074,59.29892 180.02246,58.029838 180.52426,57.268932 C 181.08352,56.420961 181.54426,56.032015 182.08916,55.792606 C 182.79296,55.483442 183.68736,55.290684 184.8056,55.290655 z M 66.551847,63.469504 L 67.910068,68.134696 L 65.1641,68.134696 L 66.551847,63.469504 z "
       id="path22163" />
    <g
       id="g22067"
       transform="matrix(0.944849,0,0,0.944849,-63.89334,-23.79351)">
      <g
         style="opacity:0.5"
         id="g22022">
        <g
           id="g21108">
          <path
             sodipodi:nodetypes="cccc"
             id="rect20204"
             d="M 160.5,118.50466 L 491.5,127.50466 L 160.5,127.50466 L 160.5,118.50466 z "
             style="fill:url(#linearGradient25051);fill-opacity:1;fill-rule:nonzero;stroke:none;stroke-width:1;stroke-linecap:round;stroke-linejoin:round;stroke-miterlimit:4;stroke-opacity:0.5" />
          <path
             style="opacity:0.5;fill:url(#linearGradient25053);fill-opacity:1;fill-rule:nonzero;stroke:none;stroke-width:1;stroke-linecap:round;stroke-linejoin:round;stroke-miterlimit:4;stroke-opacity:0.5"
             d="M 160.5,136.53781 L 490.5,127.53781 L 160.5,127.53781 L 160.5,136.53781 z "
             id="path21100"
             sodipodi:nodetypes="cccc" />
          <path
             sodipodi:nodetypes="cccc"
             id="path21104"
             d="M 160.5,136.53781 L 322,127.53781 L 160.5,127.53781 L 160.5,136.53781 z "
             style="opacity:0.5;fill:url(#linearGradient25055);fill-opacity:1;fill-rule:nonzero;stroke:none;stroke-width:1;stroke-linecap:round;stroke-linejoin:round;stroke-miterlimit:4;stroke-opacity:0.5" />
        </g>
        <g
           id="g21113"
           transform="matrix(-0.451662,0,0,-1,232.9918,255.0424)">
          <path
             style="fill:url(#linearGradient25057);fill-opacity:1;fill-rule:nonzero;stroke:none;stroke-width:1;stroke-linecap:round;stroke-linejoin:round;stroke-miterlimit:4;stroke-opacity:0.5"
             d="M 160.5,118.50466 L 491.5,127.50466 L 160.5,127.50466 L 160.5,118.50466 z "
             id="path21115"
             sodipodi:nodetypes="cccc" />
          <path
             sodipodi:nodetypes="cccc"
             id="path21117"
             d="M 160.5,136.53781 L 490.5,127.53781 L 160.5,127.53781 L 160.5,136.53781 z "
             style="opacity:0.5;fill:url(#linearGradient25059);fill-opacity:1;fill-rule:nonzero;stroke:none;stroke-width:1;stroke-linecap:round;stroke-linejoin:round;stroke-miterlimit:4;stroke-opacity:0.5" />
          <path
             style="opacity:0.5;fill:url(#linearGradient25061);fill-opacity:1;fill-rule:nonzero;stroke:none;stroke-width:1;stroke-linecap:round;stroke-linejoin:round;stroke-miterlimit:4;stroke-opacity:0.5"
             d="M 160.5,136.53781 L 322,127.53781 L 160.5,127.53781 L 160.5,136.53781 z "
             id="path21119"
             sodipodi:nodetypes="cccc" />
        </g>
        <path
           sodipodi:type="arc"
           style="opacity:1;fill:url(#radialGradient25063);fill-opacity:1;fill-rule:nonzero;stroke:none;stroke-width:1;stroke-linecap:round;stroke-linejoin:round;stroke-miterlimit:4;stroke-dasharray:none;stroke-opacity:0.5"
           id="path21127"
           sodipodi:cx="160.41667"
           sodipodi:cy="127.6282"
           sodipodi:rx="42.307693"
           sodipodi:ry="8.4615383"
           d="M 202.72437 127.6282 A 42.307693 8.4615383 0 1 1  118.10898,127.6282 A 42.307693 8.4615383 0 1 1  202.72437 127.6282 z" />
      </g>
      <g
         transform="matrix(1,0,0,-0.491678,0,190.2205)"
         id="g22033"
         style="opacity:0.5">
        <g
           id="g22035">
          <path
             style="fill:url(#linearGradient25065);fill-opacity:1;fill-rule:nonzero;stroke:none;stroke-width:1;stroke-linecap:round;stroke-linejoin:round;stroke-miterlimit:4;stroke-opacity:0.5"
             d="M 160.5,118.50466 L 491.5,127.50466 L 160.5,127.50466 L 160.5,118.50466 z "
             id="path22037"
             sodipodi:nodetypes="cccc" />
          <path
             sodipodi:nodetypes="cccc"
             id="path22039"
             d="M 160.5,136.53781 L 490.5,127.53781 L 160.5,127.53781 L 160.5,136.53781 z "
             style="opacity:0.5;fill:url(#linearGradient25067);fill-opacity:1;fill-rule:nonzero;stroke:none;stroke-width:1;stroke-linecap:round;stroke-linejoin:round;stroke-miterlimit:4;stroke-opacity:0.5" />
          <path
             style="opacity:0.5;fill:url(#linearGradient25069);fill-opacity:1;fill-rule:nonzero;stroke:none;stroke-width:1;stroke-linecap:round;stroke-linejoin:round;stroke-miterlimit:4;stroke-opacity:0.5"
             d="M 160.5,136.53781 L 322,127.53781 L 160.5,127.53781 L 160.5,136.53781 z "
             id="path22041"
             sodipodi:nodetypes="cccc" />
        </g>
        <g
           transform="matrix(-0.451662,0,0,-1,232.9918,255.0424)"
           id="g22043">
          <path
             sodipodi:nodetypes="cccc"
             id="path22045"
             d="M 160.5,118.50466 L 491.5,127.50466 L 160.5,127.50466 L 160.5,118.50466 z "
             style="fill:url(#linearGradient25071);fill-opacity:1;fill-rule:nonzero;stroke:none;stroke-width:1;stroke-linecap:round;stroke-linejoin:round;stroke-miterlimit:4;stroke-opacity:0.5" />
          <path
             style="opacity:0.5;fill:url(#linearGradient25073);fill-opacity:1;fill-rule:nonzero;stroke:none;stroke-width:1;stroke-linecap:round;stroke-linejoin:round;stroke-miterlimit:4;stroke-opacity:0.5"
             d="M 160.5,136.53781 L 490.5,127.53781 L 160.5,127.53781 L 160.5,136.53781 z "
             id="path22047"
             sodipodi:nodetypes="cccc" />
          <path
             sodipodi:nodetypes="cccc"
             id="path22049"
             d="M 160.5,136.53781 L 322,127.53781 L 160.5,127.53781 L 160.5,136.53781 z "
             style="opacity:0.5;fill:url(#linearGradient25075);fill-opacity:1;fill-rule:nonzero;stroke:none;stroke-width:1;stroke-linecap:round;stroke-linejoin:round;stroke-miterlimit:4;stroke-opacity:0.5" />
        </g>
        <path
           d="M 202.72437 127.6282 A 42.307693 8.4615383 0 1 1  118.10898,127.6282 A 42.307693 8.4615383 0 1 1  202.72437 127.6282 z"
           sodipodi:ry="8.4615383"
           sodipodi:rx="42.307693"
           sodipodi:cy="127.6282"
           sodipodi:cx="160.41667"
           id="path22051"
           style="opacity:1;fill:url(#radialGradient25077);fill-opacity:1;fill-rule:nonzero;stroke:none;stroke-width:1;stroke-linecap:round;stroke-linejoin:round;stroke-miterlimit:4;stroke-dasharray:none;stroke-opacity:0.5"
           sodipodi:type="arc" />
      </g>
    </g>
    <g
       id="g22089"
       transform="matrix(0,0.552987,-0.552987,0,158.2217,7.925373)"
       style="opacity:0.5">
      <g
         id="g22091"
         style="opacity:0.5">
        <g
           id="g22093">
          <path
             style="fill:url(#linearGradient25079);fill-opacity:1;fill-rule:nonzero;stroke:none;stroke-width:1;stroke-linecap:round;stroke-linejoin:round;stroke-miterlimit:4;stroke-opacity:0.5"
             d="M 160.5,118.50466 L 491.5,127.50466 L 160.5,127.50466 L 160.5,118.50466 z "
             id="path22095"
             sodipodi:nodetypes="cccc" />
          <path
             sodipodi:nodetypes="cccc"
             id="path22097"
             d="M 160.5,136.53781 L 490.5,127.53781 L 160.5,127.53781 L 160.5,136.53781 z "
             style="opacity:0.5;fill:url(#linearGradient25081);fill-opacity:1;fill-rule:nonzero;stroke:none;stroke-width:1;stroke-linecap:round;stroke-linejoin:round;stroke-miterlimit:4;stroke-opacity:0.5" />
          <path
             style="opacity:0.5;fill:url(#linearGradient25083);fill-opacity:1;fill-rule:nonzero;stroke:none;stroke-width:1;stroke-linecap:round;stroke-linejoin:round;stroke-miterlimit:4;stroke-opacity:0.5"
             d="M 160.5,136.53781 L 322,127.53781 L 160.5,127.53781 L 160.5,136.53781 z "
             id="path22099"
             sodipodi:nodetypes="cccc" />
        </g>
        <g
           transform="matrix(-0.451662,0,0,-1,232.9918,255.0424)"
           id="g22101">
          <path
             sodipodi:nodetypes="cccc"
             id="path22103"
             d="M 160.5,118.50466 L 491.5,127.50466 L 160.5,127.50466 L 160.5,118.50466 z "
             style="fill:url(#linearGradient25085);fill-opacity:1;fill-rule:nonzero;stroke:none;stroke-width:1;stroke-linecap:round;stroke-linejoin:round;stroke-miterlimit:4;stroke-opacity:0.5" />
          <path
             style="opacity:0.5;fill:url(#linearGradient25087);fill-opacity:1;fill-rule:nonzero;stroke:none;stroke-width:1;stroke-linecap:round;stroke-linejoin:round;stroke-miterlimit:4;stroke-opacity:0.5"
             d="M 160.5,136.53781 L 490.5,127.53781 L 160.5,127.53781 L 160.5,136.53781 z "
             id="path22105"
             sodipodi:nodetypes="cccc" />
          <path
             sodipodi:nodetypes="cccc"
             id="path22107"
             d="M 160.5,136.53781 L 322,127.53781 L 160.5,127.53781 L 160.5,136.53781 z "
             style="opacity:0.5;fill:url(#linearGradient25089);fill-opacity:1;fill-rule:nonzero;stroke:none;stroke-width:1;stroke-linecap:round;stroke-linejoin:round;stroke-miterlimit:4;stroke-opacity:0.5" />
        </g>
        <path
           d="M 202.72437 127.6282 A 42.307693 8.4615383 0 1 1  118.10898,127.6282 A 42.307693 8.4615383 0 1 1  202.72437 127.6282 z"
           sodipodi:ry="8.4615383"
           sodipodi:rx="42.307693"
           sodipodi:cy="127.6282"
           sodipodi:cx="160.41667"
           id="path22109"
           style="opacity:1;fill:url(#radialGradient25091);fill-opacity:1;fill-rule:nonzero;stroke:none;stroke-width:1;stroke-linecap:round;stroke-linejoin:round;stroke-miterlimit:4;stroke-dasharray:none;stroke-opacity:0.5"
           sodipodi:type="arc" />
      </g>
      <g
         style="opacity:0.5"
         id="g22111"
         transform="matrix(1,0,0,-0.491678,0,190.2205)">
        <g
           id="g22113">
          <path
             sodipodi:nodetypes="cccc"
             id="path22115"
             d="M 160.5,118.50466 L 491.5,127.50466 L 160.5,127.50466 L 160.5,118.50466 z "
             style="fill:url(#linearGradient25093);fill-opacity:1;fill-rule:nonzero;stroke:none;stroke-width:1;stroke-linecap:round;stroke-linejoin:round;stroke-miterlimit:4;stroke-opacity:0.5" />
          <path
             style="opacity:0.5;fill:url(#linearGradient25095);fill-opacity:1;fill-rule:nonzero;stroke:none;stroke-width:1;stroke-linecap:round;stroke-linejoin:round;stroke-miterlimit:4;stroke-opacity:0.5"
             d="M 160.5,136.53781 L 490.5,127.53781 L 160.5,127.53781 L 160.5,136.53781 z "
             id="path22117"
             sodipodi:nodetypes="cccc" />
          <path
             sodipodi:nodetypes="cccc"
             id="path22119"
             d="M 160.5,136.53781 L 322,127.53781 L 160.5,127.53781 L 160.5,136.53781 z "
             style="opacity:0.5;fill:url(#linearGradient25097);fill-opacity:1;fill-rule:nonzero;stroke:none;stroke-width:1;stroke-linecap:round;stroke-linejoin:round;stroke-miterlimit:4;stroke-opacity:0.5" />
        </g>
        <g
           id="g22121"
           transform="matrix(-0.451662,0,0,-1,232.9918,255.0424)">
          <path
             style="fill:url(#linearGradient25099);fill-opacity:1;fill-rule:nonzero;stroke:none;stroke-width:1;stroke-linecap:round;stroke-linejoin:round;stroke-miterlimit:4;stroke-opacity:0.5"
             d="M 160.5,118.50466 L 491.5,127.50466 L 160.5,127.50466 L 160.5,118.50466 z "
             id="path22123"
             sodipodi:nodetypes="cccc" />
          <path
             sodipodi:nodetypes="cccc"
             id="path22125"
             d="M 160.5,136.53781 L 490.5,127.53781 L 160.5,127.53781 L 160.5,136.53781 z "
             style="opacity:0.5;fill:url(#linearGradient25101);fill-opacity:1;fill-rule:nonzero;stroke:none;stroke-width:1;stroke-linecap:round;stroke-linejoin:round;stroke-miterlimit:4;stroke-opacity:0.5" />
          <path
             style="opacity:0.5;fill:url(#linearGradient25103);fill-opacity:1;fill-rule:nonzero;stroke:none;stroke-width:1;stroke-linecap:round;stroke-linejoin:round;stroke-miterlimit:4;stroke-opacity:0.5"
             d="M 160.5,136.53781 L 322,127.53781 L 160.5,127.53781 L 160.5,136.53781 z "
             id="path22127"
             sodipodi:nodetypes="cccc" />
        </g>
        <path
           sodipodi:type="arc"
           style="opacity:1;fill:url(#radialGradient25105);fill-opacity:1;fill-rule:nonzero;stroke:none;stroke-width:1;stroke-linecap:round;stroke-linejoin:round;stroke-miterlimit:4;stroke-dasharray:none;stroke-opacity:0.5"
           id="path22129"
           sodipodi:cx="160.41667"
           sodipodi:cy="127.6282"
           sodipodi:rx="42.307693"
           sodipodi:ry="8.4615383"
           d="M 202.72437 127.6282 A 42.307693 8.4615383 0 1 1  118.10898,127.6282 A 42.307693 8.4615383 0 1 1  202.72437 127.6282 z" />
      </g>
    </g>
    <path
       style="font-size:12px;font-style:normal;font-weight:normal;fill:white;fill-opacity:0.75;stroke:white;stroke-width:32;stroke-linecap:round;stroke-linejoin:round;stroke-miterlimit:4;stroke-dasharray:none;stroke-opacity:1;font-family:Bitstream Vera Sans"
       d="M 197.31583,107.18389 C 185.07761,107.184 175.41043,109.91243 168.58651,115.59896 C 161.76653,121.28236 158.34079,129.55694 158.34081,139.84024 C 158.3408,148.09014 160.8227,154.94675 165.78149,159.97733 C 170.74287,165.01068 178.34871,168.46389 188.4874,170.63641 L 198.34926,172.8509 C 204.25201,174.15302 208.1363,175.70901 209.62839,176.95509 C 211.20537,178.27219 211.96093,179.99239 211.96099,182.68324 C 211.96093,185.59682 210.90958,187.48043 208.38828,189.06097 C 205.87248,190.63802 201.94815,191.57074 196.57767,191.57072 C 191.28127,191.57074 185.74672,190.72297 179.98376,189.06097 C 174.21654,187.39779 168.23709,184.93402 162.0021,181.62028 C 161.41884,181.31086 160.71639,181.32826 160.14917,181.66618 C 159.58195,182.0041 159.2322,182.61354 159.2266,183.27377 L 159.2266,204.88719 C 159.22328,205.67175 159.70505,206.37678 160.43719,206.65878 C 166.86504,209.04114 173.3054,210.81627 179.74754,212.03261 C 186.193,213.24959 192.6194,213.86325 199.02837,213.86325 C 212.61171,213.86325 222.99327,211.18844 229.97217,205.44819 C 236.94976,199.70888 240.39494,190.86662 240.39504,179.55342 C 240.39494,170.87518 237.90276,163.86581 232.83625,158.9439 C 227.76095,154.01376 219.60927,150.59716 208.38828,148.34388 L 197.49299,146.15892 C 192.4344,145.12133 189.02131,143.81031 187.51302,142.67479 C 185.97521,141.51718 185.32802,140.17034 185.32806,137.98007 C 185.32803,134.95664 186.32689,133.17647 188.75313,131.7795 C 191.18267,130.38072 195.42235,129.50603 201.36096,129.50595 C 205.79748,129.50603 210.53401,130.09653 215.59275,131.30707 C 220.64801,132.51697 225.85928,134.31692 231.21229,136.71043 C 231.79455,136.96921 232.46801,136.91717 233.0036,136.57201 C 233.53919,136.22685 233.8648,135.63505 233.86967,134.99789 L 233.86967,114.00452 C 233.8736,113.15093 233.30485,112.40067 232.48193,112.17388 C 226.25974,110.51773 220.2207,109.25498 214.38216,108.42401 C 208.54216,107.59304 202.85813,107.184 197.31583,107.18389 z M 12.361637,108.98501 C 11.399479,109.09096 10.672909,109.90675 10.678625,110.87471 L 10.678625,210.05433 C 10.678729,211.09793 11.524718,211.94392 12.568323,211.94403 L 38.138299,211.94403 C 39.181904,211.94392 40.027893,211.09793 40.027997,210.05433 L 40.027997,110.87471 C 40.027893,109.83111 39.181904,108.98512 38.138299,108.98501 L 12.568323,108.98501 C 12.499481,108.98124 12.430479,108.98124 12.361637,108.98501 L 12.361637,108.98501 z M 63.117744,108.98501 C 62.155586,109.09096 61.429016,109.90675 61.434732,110.87471 L 61.434732,210.05433 C 61.434836,211.09793 62.280826,211.94392 63.32443,211.94403 L 88.894406,211.94403 C 89.938011,211.94392 90.784,211.09793 90.784104,210.05433 L 90.784104,177.54562 L 105.75406,177.54562 C 118.65617,177.54566 128.84878,174.65966 136.04828,168.68766 C 143.24495,162.71793 146.85488,154.0527 146.85499,143.23579 C 146.85489,132.46154 143.24304,123.78174 136.04828,117.81345 C 128.84879,111.84158 118.65616,108.98512 105.75406,108.98501 L 63.32443,108.98501 C 63.255588,108.98124 63.186586,108.98124 63.117744,108.98501 L 63.117744,108.98501 z M 197.31583,110.96329 C 202.6687,110.96339 208.17523,111.36633 213.85069,112.17388 C 219.07996,112.91815 224.50976,114.0467 230.09028,115.48085 L 230.09028,132.19287 C 225.47821,130.27959 220.92641,128.71031 216.47855,127.64578 C 211.17333,126.37626 206.13662,125.72664 201.36096,125.72656 C 195.07549,125.72664 190.28007,126.53497 186.86344,128.50205 C 183.44335,130.47126 181.54862,133.91727 181.54866,137.98007 C 181.54861,141.1047 182.83542,143.87681 185.23948,145.68649 C 187.67289,147.51851 191.41999,148.76154 196.7253,149.84973 L 207.62059,152.06422 C 218.45577,154.24003 225.98267,157.55549 230.20838,161.66034 C 234.44254,165.77364 236.61556,171.57877 236.61564,179.55342 C 236.61555,190.11942 233.57967,197.59055 227.58052,202.52506 C 221.58235,207.45865 212.10736,210.08386 199.02837,210.08386 C 192.85894,210.08386 186.67753,209.51646 180.45618,208.34179 C 174.64476,207.24454 168.82961,205.61707 163.006,203.52897 L 163.006,186.28547 C 168.44687,188.9943 173.78093,191.20196 178.95033,192.69273 C 185.01266,194.44107 190.89012,195.35014 196.57767,195.35012 C 202.3681,195.35014 206.97694,194.39316 210.39608,192.24983 C 213.80948,190.11006 215.74031,186.67891 215.74038,182.68324 C 215.74031,179.17357 214.50284,176.11048 212.04957,174.06149 C 209.51117,171.94162 205.31996,170.51542 199.176,169.16008 L 189.28461,166.94559 C 189.27477,166.94552 189.26493,166.94552 189.25509,166.94559 C 179.55187,164.86639 172.67498,161.58754 168.46841,157.31994 C 164.25917,153.04978 162.12019,147.35763 162.1202,139.84024 C 162.12018,130.37045 165.07219,123.43888 171.00769,118.49256 C 176.93917,113.54973 185.6375,110.96339 197.31583,110.96329 z M 14.458021,112.76441 L 36.248601,112.76441 L 36.248601,208.16463 L 14.458021,208.16463 L 14.458021,112.76441 z M 65.214128,112.76441 L 105.75406,112.76441 C 118.097,112.7645 127.31804,115.50331 133.6271,120.73657 C 139.94053,125.97377 143.0755,133.28256 143.07559,143.23579 C 143.0755,153.23519 139.93864,160.55857 133.6271,165.79406 C 127.31803,171.02745 118.09699,173.76626 105.75406,173.76622 L 88.894406,173.76622 C 87.850802,173.76633 87.004812,174.61232 87.004708,175.65592 L 87.004708,208.16463 L 65.214128,208.16463 L 65.214128,112.76441 z M 88.687721,127.52767 C 87.725562,127.63362 86.998992,128.44941 87.004708,129.41737 L 87.004708,157.11326 C 87.004812,158.15686 87.850802,159.00285 88.894406,159.00296 L 103.03762,159.00296 C 108.30453,159.00301 112.66285,157.69546 115.79308,154.89877 C 118.92291,152.10243 120.48772,148.04905 120.48779,143.23579 C 120.48771,138.42265 118.92814,134.34827 115.79308,131.57281 C 112.66156,128.80081 108.3017,127.52776 103.03762,127.52767 L 88.894406,127.52767 C 88.825565,127.5239 88.756562,127.5239 88.687721,127.52767 z M 90.784104,131.30707 L 103.03762,131.30707 C 107.69432,131.30715 111.01135,132.39622 113.28332,134.40736 C 115.55148,136.41535 116.70833,139.19111 116.7084,143.23579 C 116.70833,147.28061 115.55669,150.03309 113.28332,152.06422 C 111.01008,154.09523 107.69148,155.22361 103.03762,155.22356 L 90.784104,155.22356 L 90.784104,131.30707 z "
       id="text13688" />
    <text
       id="text14581"
       y="210.05661"
       x="0.065732956"
       style="font-size:11.33818817px;font-style:normal;font-weight:normal;fill:#576bbf;fill-opacity:1;stroke:none;stroke-width:4;stroke-linecap:round;stroke-linejoin:round;stroke-miterlimit:4;stroke-dasharray:none;stroke-opacity:0.75;font-family:Bitstream Vera Sans"
       xml:space="preserve"><tspan
         style="font-size:136.05825806px;font-weight:bold;fill:#576bbf;fill-opacity:1;stroke:none;stroke-width:4;stroke-linecap:round;stroke-linejoin:round;stroke-miterlimit:4;stroke-dasharray:none;stroke-opacity:0.75"
         y="210.05661"
         x="0.065732956"
         id="tspan14583"
         sodipodi:role="line">IPS</tspan></text>
    <g
       id="g12790"
       transform="matrix(0.944849,0,0,0.944849,-103.2015,-10.80183)">
      <path
         id="text1964"
         d="M 125.84375,45.5625 L 125.84375,46.0625 L 125.84375,102.375 L 125.84375,102.875 L 126.34375,102.875 L 135.71875,102.875 L 136.21875,102.875 L 136.21875,102.375 L 136.21875,77.0625 L 151.40625,77.0625 L 151.90625,77.0625 L 151.90625,76.5625 L 151.90625,69 L 151.90625,68.5 L 151.40625,68.5 L 136.21875,68.5 L 136.21875,54.21875 L 154.96875,54.21875 L 155.40625,54.21875 L 155.46875,53.78125 L 156.625,46.15625 L 156.6875,45.5625 L 156.125,45.5625 L 126.34375,45.5625 L 125.84375,45.5625 z M 171.5625,57.6875 L 171.4375,58.03125 L 155.09375,102.1875 L 154.84375,102.875 L 155.5625,102.875 L 165.09375,102.875 L 165.4375,102.875 L 165.5625,102.53125 L 169.1875,92.28125 L 183.53125,92.28125 L 187.21875,102.53125 L 187.34375,102.875 L 187.6875,102.875 L 197.53125,102.875 L 198.25,102.875 L 198,102.1875 L 182.40625,58.03125 L 182.28125,57.6875 L 181.90625,57.6875 L 171.90625,57.6875 L 171.5625,57.6875 z M 204.1875,57.84375 L 204.1875,58.34375 L 204.1875,102.375 L 204.1875,102.875 L 204.6875,102.875 L 214.03125,102.875 L 214.53125,102.875 L 214.53125,102.375 L 214.53125,80.5 L 229.15625,102.625 L 229.28125,102.875 L 229.5625,102.875 L 241.6875,102.875 L 242.6875,102.875 L 242.09375,102.0625 L 224.90625,78.6875 L 240.625,58.65625 L 241.25,57.84375 L 240.21875,57.84375 L 228.84375,57.84375 L 228.5625,57.84375 L 228.4375,58.0625 L 214.53125,77.46875 L 214.53125,58.34375 L 214.53125,57.84375 L 214.03125,57.84375 L 204.6875,57.84375 L 204.1875,57.84375 z M 243.1875,57.84375 L 243.1875,58.34375 L 243.1875,65.75 L 243.1875,66.25 L 243.6875,66.25 L 255.3125,66.25 L 255.3125,102.375 L 255.3125,102.875 L 255.8125,102.875 L 265,102.875 L 265.5,102.875 L 265.5,102.375 L 265.5,66.25 L 276.96875,66.25 L 277.375,66.25 L 277.4375,65.84375 L 279,58.46875 L 279.125,57.84375 L 278.5,57.84375 L 243.6875,57.84375 L 243.1875,57.84375 z M 176.53125,67.875 L 181.25,84.28125 L 171.6875,84.28125 L 176.53125,67.875 z "
         style="font-size:81.34132385px;font-style:normal;font-weight:bold;fill:black;fill-opacity:1;stroke:white;stroke-width:1.5;stroke-linecap:round;stroke-linejoin:round;stroke-miterlimit:4;stroke-dasharray:none;stroke-opacity:0.75;font-family:MetaMedium-Caps" />
      <path
         id="text2855"
         d="M 333.21875,57.71875 L 333.21875,58.21875 L 333.21875,94.34375 L 326.46875,94.34375 L 325.96875,94.34375 L 325.96875,94.84375 L 325.96875,102.46875 L 325.96875,102.96875 L 326.46875,102.96875 L 351.625,102.96875 L 352.125,102.96875 L 352.125,102.46875 L 352.125,94.84375 L 352.125,94.34375 L 351.625,94.34375 L 343.3125,94.34375 L 343.3125,69.96875 C 344.88066,70.918343 346.44048,71.79159 347.96875,72.53125 C 349.74847,73.392655 351.60483,74.222618 353.5,74.96875 L 353.9375,75.125 L 354.125,74.6875 L 356.4375,69.75 L 356.59375,69.375 L 356.28125,69.125 L 340.625,57.8125 L 340.46875,57.71875 L 340.3125,57.71875 L 333.71875,57.71875 L 333.21875,57.71875 z "
         style="font-size:14.26249504px;font-style:normal;font-weight:normal;fill:#576bbf;fill-opacity:1;stroke:white;stroke-width:1.5;stroke-linecap:round;stroke-linejoin:round;stroke-miterlimit:4;stroke-dasharray:none;stroke-opacity:0.75;font-family:Bitstream Vera Sans" />
      <path
         id="text2859"
         d="M 301.5625,57.6875 C 298.424,57.687545 295.58639,58.228753 293.0625,59.34375 C 290.54577,60.455708 288.41962,62.037607 286.6875,64.0625 C 284.95695,66.085738 283.61724,68.525611 282.6875,71.375 C 281.78814,74.131585 281.37431,77.213933 281.34375,80.59375 L 281.3125,80.59375 L 281.3125,80.9375 C 281.31254,84.407912 281.78932,87.58378 282.75,90.4375 C 283.70948,93.287418 285.08672,95.727292 286.875,97.75 C 288.66135,99.770436 290.79463,101.32588 293.28125,102.4375 C 295.77503,103.5523 298.53492,104.125 301.5625,104.125 C 304.7012,104.125 307.53961,103.58509 310.0625,102.5 C 312.58117,101.41675 314.73674,99.838414 316.46875,97.8125 C 318.19843,95.789342 319.50695,93.349341 320.4375,90.5 C 321.36968,87.645728 321.84376,84.461566 321.84375,80.9375 C 321.84375,77.413824 321.36818,74.230562 320.40625,71.375 C 319.44595,68.524299 318.06958,66.08525 316.28125,64.0625 C 314.49495,62.042103 312.36164,60.455415 309.875,59.34375 C 307.38127,58.228995 304.5901,57.687546 301.5625,57.6875 z M 301.65625,65.6875 C 304.8338,65.687536 307.00214,66.889175 308.40625,69.375 C 309.82391,71.884828 310.56251,75.545972 310.5625,80.34375 C 310.56251,83.458393 310.35499,86.028703 309.9375,88.0625 C 309.51889,90.101947 308.90391,91.724002 308.125,92.90625 C 307.34039,94.097238 306.41615,94.904244 305.34375,95.375 C 304.24778,95.856133 302.98527,96.093755 301.5,96.09375 C 298.32287,96.093756 296.15396,94.925622 294.75,92.46875 C 293.33321,89.989324 292.56255,86.329046 292.5625,81.53125 C 292.56253,78.416647 292.80092,75.845065 293.21875,73.78125 C 293.63757,71.712924 294.25255,70.087043 295.03125,68.90625 C 295.81684,67.715138 296.70972,66.908286 297.78125,66.4375 C 298.87633,65.95646 300.171,65.687539 301.65625,65.6875 z "
         style="font-size:14.26249504px;font-style:normal;font-weight:normal;fill:#576bbf;fill-opacity:1;stroke:white;stroke-width:1.5;stroke-linecap:round;stroke-linejoin:round;stroke-miterlimit:4;stroke-dasharray:none;stroke-opacity:0.75;font-family:Bitstream Vera Sans" />
    </g>
    <g
       transform="matrix(0.944849,0,0,0.944849,-103.2015,-10.80183)"
       id="g12795"
       style="stroke:white;stroke-width:33.86784744;stroke-linecap:round;stroke-linejoin:round;stroke-miterlimit:4;stroke-dasharray:none;stroke-opacity:1">
      <path
         style="font-size:81.34132385px;font-style:normal;font-weight:bold;fill:black;fill-opacity:1;stroke:white;stroke-width:33.86784744;stroke-linecap:round;stroke-linejoin:round;stroke-miterlimit:4;stroke-dasharray:none;stroke-opacity:1;font-family:MetaMedium-Caps"
         d="M 125.84375,45.5625 L 125.84375,46.0625 L 125.84375,102.375 L 125.84375,102.875 L 126.34375,102.875 L 135.71875,102.875 L 136.21875,102.875 L 136.21875,102.375 L 136.21875,77.0625 L 151.40625,77.0625 L 151.90625,77.0625 L 151.90625,76.5625 L 151.90625,69 L 151.90625,68.5 L 151.40625,68.5 L 136.21875,68.5 L 136.21875,54.21875 L 154.96875,54.21875 L 155.40625,54.21875 L 155.46875,53.78125 L 156.625,46.15625 L 156.6875,45.5625 L 156.125,45.5625 L 126.34375,45.5625 L 125.84375,45.5625 z M 171.5625,57.6875 L 171.4375,58.03125 L 155.09375,102.1875 L 154.84375,102.875 L 155.5625,102.875 L 165.09375,102.875 L 165.4375,102.875 L 165.5625,102.53125 L 169.1875,92.28125 L 183.53125,92.28125 L 187.21875,102.53125 L 187.34375,102.875 L 187.6875,102.875 L 197.53125,102.875 L 198.25,102.875 L 198,102.1875 L 182.40625,58.03125 L 182.28125,57.6875 L 181.90625,57.6875 L 171.90625,57.6875 L 171.5625,57.6875 z M 204.1875,57.84375 L 204.1875,58.34375 L 204.1875,102.375 L 204.1875,102.875 L 204.6875,102.875 L 214.03125,102.875 L 214.53125,102.875 L 214.53125,102.375 L 214.53125,80.5 L 229.15625,102.625 L 229.28125,102.875 L 229.5625,102.875 L 241.6875,102.875 L 242.6875,102.875 L 242.09375,102.0625 L 224.90625,78.6875 L 240.625,58.65625 L 241.25,57.84375 L 240.21875,57.84375 L 228.84375,57.84375 L 228.5625,57.84375 L 228.4375,58.0625 L 214.53125,77.46875 L 214.53125,58.34375 L 214.53125,57.84375 L 214.03125,57.84375 L 204.6875,57.84375 L 204.1875,57.84375 z M 243.1875,57.84375 L 243.1875,58.34375 L 243.1875,65.75 L 243.1875,66.25 L 243.6875,66.25 L 255.3125,66.25 L 255.3125,102.375 L 255.3125,102.875 L 255.8125,102.875 L 265,102.875 L 265.5,102.875 L 265.5,102.375 L 265.5,66.25 L 276.96875,66.25 L 277.375,66.25 L 277.4375,65.84375 L 279,58.46875 L 279.125,57.84375 L 278.5,57.84375 L 243.6875,57.84375 L 243.1875,57.84375 z M 176.53125,67.875 L 181.25,84.28125 L 171.6875,84.28125 L 176.53125,67.875 z "
         id="path12797" />
      <path
         style="font-size:14.26249504px;font-style:normal;font-weight:normal;fill:#576bbf;fill-opacity:1;stroke:white;stroke-width:33.86784744;stroke-linecap:round;stroke-linejoin:round;stroke-miterlimit:4;stroke-dasharray:none;stroke-opacity:1;font-family:Bitstream Vera Sans"
         d="M 333.21875,57.71875 L 333.21875,58.21875 L 333.21875,94.34375 L 326.46875,94.34375 L 325.96875,94.34375 L 325.96875,94.84375 L 325.96875,102.46875 L 325.96875,102.96875 L 326.46875,102.96875 L 351.625,102.96875 L 352.125,102.96875 L 352.125,102.46875 L 352.125,94.84375 L 352.125,94.34375 L 351.625,94.34375 L 343.3125,94.34375 L 343.3125,69.96875 C 344.88066,70.918343 346.44048,71.79159 347.96875,72.53125 C 349.74847,73.392655 351.60483,74.222618 353.5,74.96875 L 353.9375,75.125 L 354.125,74.6875 L 356.4375,69.75 L 356.59375,69.375 L 356.28125,69.125 L 340.625,57.8125 L 340.46875,57.71875 L 340.3125,57.71875 L 333.71875,57.71875 L 333.21875,57.71875 z "
         id="path12799" />
      <path
         style="font-size:14.26249504px;font-style:normal;font-weight:normal;fill:#576bbf;fill-opacity:1;stroke:white;stroke-width:33.86784744;stroke-linecap:round;stroke-linejoin:round;stroke-miterlimit:4;stroke-dasharray:none;stroke-opacity:1;font-family:Bitstream Vera Sans"
         d="M 301.5625,57.6875 C 298.424,57.687545 295.58639,58.228753 293.0625,59.34375 C 290.54577,60.455708 288.41962,62.037607 286.6875,64.0625 C 284.95695,66.085738 283.61724,68.525611 282.6875,71.375 C 281.78814,74.131585 281.37431,77.213933 281.34375,80.59375 L 281.3125,80.59375 L 281.3125,80.9375 C 281.31254,84.407912 281.78932,87.58378 282.75,90.4375 C 283.70948,93.287418 285.08672,95.727292 286.875,97.75 C 288.66135,99.770436 290.79463,101.32588 293.28125,102.4375 C 295.77503,103.5523 298.53492,104.125 301.5625,104.125 C 304.7012,104.125 307.53961,103.58509 310.0625,102.5 C 312.58117,101.41675 314.73674,99.838414 316.46875,97.8125 C 318.19843,95.789342 319.50695,93.349341 320.4375,90.5 C 321.36968,87.645728 321.84376,84.461566 321.84375,80.9375 C 321.84375,77.413824 321.36818,74.230562 320.40625,71.375 C 319.44595,68.524299 318.06958,66.08525 316.28125,64.0625 C 314.49495,62.042103 312.36164,60.455415 309.875,59.34375 C 307.38127,58.228995 304.5901,57.687546 301.5625,57.6875 z M 301.65625,65.6875 C 304.8338,65.687536 307.00214,66.889175 308.40625,69.375 C 309.82391,71.884828 310.56251,75.545972 310.5625,80.34375 C 310.56251,83.458393 310.35499,86.028703 309.9375,88.0625 C 309.51889,90.101947 308.90391,91.724002 308.125,92.90625 C 307.34039,94.097238 306.41615,94.904244 305.34375,95.375 C 304.24778,95.856133 302.98527,96.093755 301.5,96.09375 C 298.32287,96.093756 296.15396,94.925622 294.75,92.46875 C 293.33321,89.989324 292.56255,86.329046 292.5625,81.53125 C 292.56253,78.416647 292.80092,75.845065 293.21875,73.78125 C 293.63757,71.712924 294.25255,70.087043 295.03125,68.90625 C 295.81684,67.715138 296.70972,66.908286 297.78125,66.4375 C 298.87633,65.95646 300.171,65.687539 301.65625,65.6875 z "
         id="path12801" />
    </g>
    <g
       transform="matrix(0.944849,0,0,0.944849,-103.2015,-10.80183)"
       id="g15470"
       style="stroke:none">
      <path
         style="font-size:81.34132385px;font-style:normal;font-weight:bold;fill:black;fill-opacity:1;stroke:none;stroke-width:1.5;stroke-linecap:round;stroke-linejoin:round;stroke-miterlimit:4;stroke-dasharray:none;stroke-opacity:0.75;font-family:MetaMedium-Caps"
         d="M 125.84375,45.5625 L 125.84375,46.0625 L 125.84375,102.375 L 125.84375,102.875 L 126.34375,102.875 L 135.71875,102.875 L 136.21875,102.875 L 136.21875,102.375 L 136.21875,77.0625 L 151.40625,77.0625 L 151.90625,77.0625 L 151.90625,76.5625 L 151.90625,69 L 151.90625,68.5 L 151.40625,68.5 L 136.21875,68.5 L 136.21875,54.21875 L 154.96875,54.21875 L 155.40625,54.21875 L 155.46875,53.78125 L 156.625,46.15625 L 156.6875,45.5625 L 156.125,45.5625 L 126.34375,45.5625 L 125.84375,45.5625 z M 171.5625,57.6875 L 171.4375,58.03125 L 155.09375,102.1875 L 154.84375,102.875 L 155.5625,102.875 L 165.09375,102.875 L 165.4375,102.875 L 165.5625,102.53125 L 169.1875,92.28125 L 183.53125,92.28125 L 187.21875,102.53125 L 187.34375,102.875 L 187.6875,102.875 L 197.53125,102.875 L 198.25,102.875 L 198,102.1875 L 182.40625,58.03125 L 182.28125,57.6875 L 181.90625,57.6875 L 171.90625,57.6875 L 171.5625,57.6875 z M 204.1875,57.84375 L 204.1875,58.34375 L 204.1875,102.375 L 204.1875,102.875 L 204.6875,102.875 L 214.03125,102.875 L 214.53125,102.875 L 214.53125,102.375 L 214.53125,80.5 L 229.15625,102.625 L 229.28125,102.875 L 229.5625,102.875 L 241.6875,102.875 L 242.6875,102.875 L 242.09375,102.0625 L 224.90625,78.6875 L 240.625,58.65625 L 241.25,57.84375 L 240.21875,57.84375 L 228.84375,57.84375 L 228.5625,57.84375 L 228.4375,58.0625 L 214.53125,77.46875 L 214.53125,58.34375 L 214.53125,57.84375 L 214.03125,57.84375 L 204.6875,57.84375 L 204.1875,57.84375 z M 243.1875,57.84375 L 243.1875,58.34375 L 243.1875,65.75 L 243.1875,66.25 L 243.6875,66.25 L 255.3125,66.25 L 255.3125,102.375 L 255.3125,102.875 L 255.8125,102.875 L 265,102.875 L 265.5,102.875 L 265.5,102.375 L 265.5,66.25 L 276.96875,66.25 L 277.375,66.25 L 277.4375,65.84375 L 279,58.46875 L 279.125,57.84375 L 278.5,57.84375 L 243.6875,57.84375 L 243.1875,57.84375 z M 176.53125,67.875 L 181.25,84.28125 L 171.6875,84.28125 L 176.53125,67.875 z "
         id="path15472" />
      <path
         style="font-size:14.26249504px;font-style:normal;font-weight:normal;fill:#576bbf;fill-opacity:1;stroke:none;stroke-width:1.5;stroke-linecap:round;stroke-linejoin:round;stroke-miterlimit:4;stroke-dasharray:none;stroke-opacity:0.75;font-family:Bitstream Vera Sans"
         d="M 333.21875,57.71875 L 333.21875,58.21875 L 333.21875,94.34375 L 326.46875,94.34375 L 325.96875,94.34375 L 325.96875,94.84375 L 325.96875,102.46875 L 325.96875,102.96875 L 326.46875,102.96875 L 351.625,102.96875 L 352.125,102.96875 L 352.125,102.46875 L 352.125,94.84375 L 352.125,94.34375 L 351.625,94.34375 L 343.3125,94.34375 L 343.3125,69.96875 C 344.88066,70.918343 346.44048,71.79159 347.96875,72.53125 C 349.74847,73.392655 351.60483,74.222618 353.5,74.96875 L 353.9375,75.125 L 354.125,74.6875 L 356.4375,69.75 L 356.59375,69.375 L 356.28125,69.125 L 340.625,57.8125 L 340.46875,57.71875 L 340.3125,57.71875 L 333.71875,57.71875 L 333.21875,57.71875 z "
         id="path15474" />
      <path
         style="font-size:14.26249504px;font-style:normal;font-weight:normal;fill:#576bbf;fill-opacity:1;stroke:none;stroke-width:1.5;stroke-linecap:round;stroke-linejoin:round;stroke-miterlimit:4;stroke-dasharray:none;stroke-opacity:0.75;font-family:Bitstream Vera Sans"
         d="M 301.5625,57.6875 C 298.424,57.687545 295.58639,58.228753 293.0625,59.34375 C 290.54577,60.455708 288.41962,62.037607 286.6875,64.0625 C 284.95695,66.085738 283.61724,68.525611 282.6875,71.375 C 281.78814,74.131585 281.37431,77.213933 281.34375,80.59375 L 281.3125,80.59375 L 281.3125,80.9375 C 281.31254,84.407912 281.78932,87.58378 282.75,90.4375 C 283.70948,93.287418 285.08672,95.727292 286.875,97.75 C 288.66135,99.770436 290.79463,101.32588 293.28125,102.4375 C 295.77503,103.5523 298.53492,104.125 301.5625,104.125 C 304.7012,104.125 307.53961,103.58509 310.0625,102.5 C 312.58117,101.41675 314.73674,99.838414 316.46875,97.8125 C 318.19843,95.789342 319.50695,93.349341 320.4375,90.5 C 321.36968,87.645728 321.84376,84.461566 321.84375,80.9375 C 321.84375,77.413824 321.36818,74.230562 320.40625,71.375 C 319.44595,68.524299 318.06958,66.08525 316.28125,64.0625 C 314.49495,62.042103 312.36164,60.455415 309.875,59.34375 C 307.38127,58.228995 304.5901,57.687546 301.5625,57.6875 z M 301.65625,65.6875 C 304.8338,65.687536 307.00214,66.889175 308.40625,69.375 C 309.82391,71.884828 310.56251,75.545972 310.5625,80.34375 C 310.56251,83.458393 310.35499,86.028703 309.9375,88.0625 C 309.51889,90.101947 308.90391,91.724002 308.125,92.90625 C 307.34039,94.097238 306.41615,94.904244 305.34375,95.375 C 304.24778,95.856133 302.98527,96.093755 301.5,96.09375 C 298.32287,96.093756 296.15396,94.925622 294.75,92.46875 C 293.33321,89.989324 292.56255,86.329046 292.5625,81.53125 C 292.56253,78.416647 292.80092,75.845065 293.21875,73.78125 C 293.63757,71.712924 294.25255,70.087043 295.03125,68.90625 C 295.81684,67.715138 296.70972,66.908286 297.78125,66.4375 C 298.87633,65.95646 300.171,65.687539 301.65625,65.6875 z "
         id="path15476" />
    </g>
  </g>
</svg>
