<?xml version="1.0" encoding="UTF-8" standalone="no"?>
<!-- Created with Inkscape (http://www.inkscape.org/) -->
<svg
   xmlns:dc="http://purl.org/dc/elements/1.1/"
   xmlns:cc="http://web.resource.org/cc/"
   xmlns:rdf="http://www.w3.org/1999/02/22-rdf-syntax-ns#"
   xmlns:svg="http://www.w3.org/2000/svg"
   xmlns="http://www.w3.org/2000/svg"
   xmlns:xlink="http://www.w3.org/1999/xlink"
   xmlns:sodipodi="http://sodipodi.sourceforge.net/DTD/sodipodi-0.dtd"
   xmlns:inkscape="http://www.inkscape.org/namespaces/inkscape"
   width="500"
   height="330"
   id="svg2"
   sodipodi:version="0.32"
   inkscape:version="0.44"
   version="1.0"
   sodipodi:docbase="E:\Ips4to5\workspace\org.faktorips.doc\icons"
   sodipodi:docname="FaktorIpsSplash.svg"
   inkscape:export-filename="D:\faktorips-icons\org.faktorips.devtools.core\splash.bmp"
   inkscape:export-xdpi="90"
   inkscape:export-ydpi="90">
  <defs
     id="defs4">
    <linearGradient
       inkscape:collect="always"
       id="linearGradient22014">
      <stop
         style="stop-color:white;stop-opacity:1;"
         offset="0"
         id="stop22016" />
      <stop
         style="stop-color:white;stop-opacity:0;"
         offset="1"
         id="stop22018" />
    </linearGradient>
    <linearGradient
       id="linearGradient21092">
      <stop
         style="stop-color:white;stop-opacity:1;"
         offset="0"
         id="stop21094" />
      <stop
         style="stop-color:white;stop-opacity:0;"
         offset="1"
         id="stop21096" />
    </linearGradient>
    <linearGradient
       id="linearGradient4756">
      <stop
         style="stop-color:#e3e6f5;stop-opacity:0;"
         offset="0"
         id="stop4758" />
      <stop
         style="stop-color:#3c50a0;stop-opacity:0.76774192;"
         offset="1"
         id="stop4762" />
    </linearGradient>
    <linearGradient
       id="linearGradient4740">
      <stop
         id="stop4742"
         offset="0"
         style="stop-color:#e3e6f5;stop-opacity:0;" />
      <stop
         style="stop-color:#acb6e0;stop-opacity:0;"
         offset="0.5321101"
         id="stop4746" />
      <stop
         id="stop4744"
         offset="1"
         style="stop-color:#3c50a0;stop-opacity:0.76774192;" />
    </linearGradient>
    <linearGradient
       id="linearGradient4669">
      <stop
         style="stop-color:#e3e6f5;stop-opacity:1;"
         offset="0"
         id="stop4671" />
      <stop
         style="stop-color:#7586cb;stop-opacity:1;"
         offset="1"
         id="stop4673" />
    </linearGradient>
    <linearGradient
       id="linearGradient4661">
      <stop
         style="stop-color:#e8eaf6;stop-opacity:1;"
         offset="0"
         id="stop4663" />
      <stop
         style="stop-color:#a0abdb;stop-opacity:1;"
         offset="1"
         id="stop4665" />
    </linearGradient>
    <radialGradient
       inkscape:collect="always"
       xlink:href="#linearGradient4669"
       id="radialGradient16539"
       gradientUnits="userSpaceOnUse"
       cx="213.65384"
       cy="112.82052"
       fx="213.65384"
       fy="112.82052"
       r="113.67308" />
    <radialGradient
       inkscape:collect="always"
       xlink:href="#linearGradient4740"
       id="radialGradient16541"
       gradientUnits="userSpaceOnUse"
       cx="241.15384"
       cy="150.54488"
       fx="241.15384"
       fy="150.54488"
       r="113.67308" />
    <linearGradient
       inkscape:collect="always"
       xlink:href="#linearGradient21092"
       id="linearGradient21098"
       x1="160"
       y1="127.5"
       x2="163.46794"
       y2="90.21154"
       gradientUnits="userSpaceOnUse"
       gradientTransform="translate(0.499999,4.66e-3)" />
    <linearGradient
       inkscape:collect="always"
       xlink:href="#linearGradient21092"
       id="linearGradient21102"
       gradientUnits="userSpaceOnUse"
       x1="160"
       y1="127.5"
       x2="163.46794"
       y2="90.21154"
       gradientTransform="matrix(0.996979,0,0,-1,0.983388,255.0378)" />
    <linearGradient
       inkscape:collect="always"
       xlink:href="#linearGradient21092"
       id="linearGradient21106"
       gradientUnits="userSpaceOnUse"
       gradientTransform="matrix(0.487915,0,0,-1,82.43354,255.0378)"
       x1="160"
       y1="127.5"
       x2="163.46794"
       y2="90.21154" />
    <linearGradient
       inkscape:collect="always"
       xlink:href="#linearGradient21092"
       id="linearGradient21121"
       gradientUnits="userSpaceOnUse"
       gradientTransform="translate(0.499999,4.66e-3)"
       x1="160"
       y1="127.5"
       x2="163.46794"
       y2="90.21154" />
    <linearGradient
       inkscape:collect="always"
       xlink:href="#linearGradient21092"
       id="linearGradient21123"
       gradientUnits="userSpaceOnUse"
       gradientTransform="matrix(0.996979,0,0,-1,0.983388,255.0378)"
       x1="160"
       y1="127.5"
       x2="163.46794"
       y2="90.21154" />
    <linearGradient
       inkscape:collect="always"
       xlink:href="#linearGradient21092"
       id="linearGradient21125"
       gradientUnits="userSpaceOnUse"
       gradientTransform="matrix(0.487915,0,0,-1,82.43354,255.0378)"
       x1="160"
       y1="127.5"
       x2="163.46794"
       y2="90.21154" />
    <radialGradient
       inkscape:collect="always"
       xlink:href="#linearGradient22014"
       id="radialGradient22020"
       cx="160.41667"
       cy="127.6282"
       fx="160.41667"
       fy="127.6282"
       r="42.307693"
       gradientTransform="matrix(1,0,0,0.2,0,102.1026)"
       gradientUnits="userSpaceOnUse" />
    <linearGradient
       inkscape:collect="always"
       xlink:href="#linearGradient21092"
       id="linearGradient22053"
       gradientUnits="userSpaceOnUse"
       gradientTransform="translate(0.499999,4.66e-3)"
       x1="160"
       y1="127.5"
       x2="163.46794"
       y2="90.21154" />
    <linearGradient
       inkscape:collect="always"
       xlink:href="#linearGradient21092"
       id="linearGradient22055"
       gradientUnits="userSpaceOnUse"
       gradientTransform="matrix(0.996979,0,0,-1,0.983388,255.0378)"
       x1="160"
       y1="127.5"
       x2="163.46794"
       y2="90.21154" />
    <linearGradient
       inkscape:collect="always"
       xlink:href="#linearGradient21092"
       id="linearGradient22057"
       gradientUnits="userSpaceOnUse"
       gradientTransform="matrix(0.487915,0,0,-1,82.43354,255.0378)"
       x1="160"
       y1="127.5"
       x2="163.46794"
       y2="90.21154" />
    <linearGradient
       inkscape:collect="always"
       xlink:href="#linearGradient21092"
       id="linearGradient22059"
       gradientUnits="userSpaceOnUse"
       gradientTransform="translate(0.499999,4.66e-3)"
       x1="160"
       y1="127.5"
       x2="163.46794"
       y2="90.21154" />
    <linearGradient
       inkscape:collect="always"
       xlink:href="#linearGradient21092"
       id="linearGradient22061"
       gradientUnits="userSpaceOnUse"
       gradientTransform="matrix(0.996979,0,0,-1,0.983388,255.0378)"
       x1="160"
       y1="127.5"
       x2="163.46794"
       y2="90.21154" />
    <linearGradient
       inkscape:collect="always"
       xlink:href="#linearGradient21092"
       id="linearGradient22063"
       gradientUnits="userSpaceOnUse"
       gradientTransform="matrix(0.487915,0,0,-1,82.43354,255.0378)"
       x1="160"
       y1="127.5"
       x2="163.46794"
       y2="90.21154" />
    <radialGradient
       inkscape:collect="always"
       xlink:href="#linearGradient22014"
       id="radialGradient22065"
       gradientUnits="userSpaceOnUse"
       gradientTransform="matrix(1,0,0,0.2,0,102.1026)"
       cx="160.41667"
       cy="127.6282"
       fx="160.41667"
       fy="127.6282"
       r="42.307693" />
    <linearGradient
       inkscape:collect="always"
       xlink:href="#linearGradient21092"
       id="linearGradient22131"
       gradientUnits="userSpaceOnUse"
       gradientTransform="translate(0.499999,4.66e-3)"
       x1="160"
       y1="127.5"
       x2="163.46794"
       y2="90.21154" />
    <linearGradient
       inkscape:collect="always"
       xlink:href="#linearGradient21092"
       id="linearGradient22133"
       gradientUnits="userSpaceOnUse"
       gradientTransform="matrix(0.996979,0,0,-1,0.983388,255.0378)"
       x1="160"
       y1="127.5"
       x2="163.46794"
       y2="90.21154" />
    <linearGradient
       inkscape:collect="always"
       xlink:href="#linearGradient21092"
       id="linearGradient22135"
       gradientUnits="userSpaceOnUse"
       gradientTransform="matrix(0.487915,0,0,-1,82.43354,255.0378)"
       x1="160"
       y1="127.5"
       x2="163.46794"
       y2="90.21154" />
    <linearGradient
       inkscape:collect="always"
       xlink:href="#linearGradient21092"
       id="linearGradient22137"
       gradientUnits="userSpaceOnUse"
       gradientTransform="translate(0.499999,4.66e-3)"
       x1="160"
       y1="127.5"
       x2="163.46794"
       y2="90.21154" />
    <linearGradient
       inkscape:collect="always"
       xlink:href="#linearGradient21092"
       id="linearGradient22139"
       gradientUnits="userSpaceOnUse"
       gradientTransform="matrix(0.996979,0,0,-1,0.983388,255.0378)"
       x1="160"
       y1="127.5"
       x2="163.46794"
       y2="90.21154" />
    <linearGradient
       inkscape:collect="always"
       xlink:href="#linearGradient21092"
       id="linearGradient22141"
       gradientUnits="userSpaceOnUse"
       gradientTransform="matrix(0.487915,0,0,-1,82.43354,255.0378)"
       x1="160"
       y1="127.5"
       x2="163.46794"
       y2="90.21154" />
    <radialGradient
       inkscape:collect="always"
       xlink:href="#linearGradient22014"
       id="radialGradient22143"
       gradientUnits="userSpaceOnUse"
       gradientTransform="matrix(1,0,0,0.2,0,102.1026)"
       cx="160.41667"
       cy="127.6282"
       fx="160.41667"
       fy="127.6282"
       r="42.307693" />
    <linearGradient
       inkscape:collect="always"
       xlink:href="#linearGradient21092"
       id="linearGradient22145"
       gradientUnits="userSpaceOnUse"
       gradientTransform="translate(0.499999,4.66e-3)"
       x1="160"
       y1="127.5"
       x2="163.46794"
       y2="90.21154" />
    <linearGradient
       inkscape:collect="always"
       xlink:href="#linearGradient21092"
       id="linearGradient22147"
       gradientUnits="userSpaceOnUse"
       gradientTransform="matrix(0.996979,0,0,-1,0.983388,255.0378)"
       x1="160"
       y1="127.5"
       x2="163.46794"
       y2="90.21154" />
    <linearGradient
       inkscape:collect="always"
       xlink:href="#linearGradient21092"
       id="linearGradient22149"
       gradientUnits="userSpaceOnUse"
       gradientTransform="matrix(0.487915,0,0,-1,82.43354,255.0378)"
       x1="160"
       y1="127.5"
       x2="163.46794"
       y2="90.21154" />
    <linearGradient
       inkscape:collect="always"
       xlink:href="#linearGradient21092"
       id="linearGradient22151"
       gradientUnits="userSpaceOnUse"
       gradientTransform="translate(0.499999,4.66e-3)"
       x1="160"
       y1="127.5"
       x2="163.46794"
       y2="90.21154" />
    <linearGradient
       inkscape:collect="always"
       xlink:href="#linearGradient21092"
       id="linearGradient22153"
       gradientUnits="userSpaceOnUse"
       gradientTransform="matrix(0.996979,0,0,-1,0.983388,255.0378)"
       x1="160"
       y1="127.5"
       x2="163.46794"
       y2="90.21154" />
    <linearGradient
       inkscape:collect="always"
       xlink:href="#linearGradient21092"
       id="linearGradient22155"
       gradientUnits="userSpaceOnUse"
       gradientTransform="matrix(0.487915,0,0,-1,82.43354,255.0378)"
       x1="160"
       y1="127.5"
       x2="163.46794"
       y2="90.21154" />
    <radialGradient
       inkscape:collect="always"
       xlink:href="#linearGradient22014"
       id="radialGradient22157"
       gradientUnits="userSpaceOnUse"
       gradientTransform="matrix(1,0,0,0.2,0,102.1026)"
       cx="160.41667"
       cy="127.6282"
       fx="160.41667"
       fy="127.6282"
       r="42.307693" />
  </defs>
  <sodipodi:namedview
     id="base"
     pagecolor="#ffffff"
     bordercolor="#666666"
     borderopacity="1.0"
     inkscape:pageopacity="0.0"
     inkscape:pageshadow="2"
     inkscape:zoom="2.8363636"
     inkscape:cx="249.99791"
     inkscape:cy="165"
     inkscape:document-units="px"
     inkscape:current-layer="layer1"
     width="500px"
     height="330px"
     inkscape:window-width="1920"
     inkscape:window-height="1131"
     inkscape:window-x="-4"
     inkscape:window-y="-4"
     showguides="true"
     inkscape:guide-bbox="true"
     borderlayer="true">
    <sodipodi:guide
       orientation="horizontal"
       position="78"
       id="guide20186" />
    <sodipodi:guide
       orientation="vertical"
       position="78"
       id="guide20188" />
    <sodipodi:guide
       orientation="vertical"
       position="322"
       id="guide20190" />
    <sodipodi:guide
       orientation="horizontal"
       position="202.49534"
       id="guide20192" />
    <sodipodi:guide
       orientation="vertical"
       position="160.5"
       id="guide20194" />
    <sodipodi:guide
       orientation="horizontal"
       position="211.5"
       id="guide20196" />
    <sodipodi:guide
       orientation="horizontal"
       position="193.51249"
       id="guide20198" />
    <sodipodi:guide
       orientation="vertical"
       position="11"
       id="guide20200" />
    <sodipodi:guide
       orientation="vertical"
       position="490.5"
       id="guide20202" />
  </sodipodi:namedview>
  <metadata
     id="metadata7">
    <rdf:RDF>
      <cc:Work
         rdf:about="">
        <dc:format>image/svg+xml</dc:format>
        <dc:type
           rdf:resource="http://purl.org/dc/dcmitype/StillImage" />
      </cc:Work>
    </rdf:RDF>
  </metadata>
  <g
     inkscape:label="Ebene 1"
     inkscape:groupmode="layer"
     id="layer1">
    <rect
       style="fill:white;fill-opacity:1;stroke:white;stroke-width:32;stroke-miterlimit:4;stroke-dasharray:none;stroke-opacity:1"
       id="rect12628"
       width="499.58334"
       height="330.35257"
       x="-0.3525641"
       y="5.6843419e-014" />
    <image
       xlink:href="D:\icons\splashbg.jpg"
       sodipodi:absref="D:\icons\splashbg.jpg"
       width="500"
       height="330"
       id="image18403"
       x="-0.0020940709"
       y="0.0023006205" />
    <g
       id="g16535"
       transform="translate(-42.30769,7.75641)"
       style="stroke:white;stroke-opacity:0.33000001;stroke-linejoin:round;stroke-linecap:round;stroke-width:5;stroke-miterlimit:4;stroke-dasharray:none">
      <path
         d="M 354.32692 150.54488 A 113.17308 113.17308 0 1 1  127.98076,150.54488 A 113.17308 113.17308 0 1 1  354.32692 150.54488 z"
         sodipodi:ry="113.17308"
         sodipodi:rx="113.17308"
         sodipodi:cy="150.54488"
         sodipodi:cx="241.15384"
         id="path3774"
         style="opacity:1;fill:url(#radialGradient16539);fill-opacity:1;fill-rule:nonzero;stroke:white;stroke-opacity:0.33000001;stroke-linejoin:round;stroke-linecap:round;stroke-width:5;stroke-miterlimit:4;stroke-dasharray:none"
         sodipodi:type="arc" />
      <path
         sodipodi:type="arc"
         style="opacity:1;fill:url(#radialGradient16541);fill-opacity:1;fill-rule:nonzero;stroke:white;stroke-opacity:0.33000001;stroke-linejoin:round;stroke-linecap:round;stroke-width:5;stroke-miterlimit:4;stroke-dasharray:none"
         id="path4748"
         sodipodi:cx="241.15384"
         sodipodi:cy="150.54488"
         sodipodi:rx="113.17308"
         sodipodi:ry="113.17308"
         d="M 354.32692 150.54488 A 113.17308 113.17308 0 1 1  127.98076,150.54488 A 113.17308 113.17308 0 1 1  354.32692 150.54488 z" />
    </g>
    <g
       style="stroke:#576bbf;stroke-opacity:0.5;stroke-linejoin:round;stroke-linecap:round;stroke-width:1;stroke-miterlimit:4;stroke-dasharray:none"
       transform="translate(-42.30769,7.75641)"
       id="g17428">
      <path
         sodipodi:type="arc"
         style="opacity:1;fill:url(#radialGradient16539);fill-opacity:1;fill-rule:nonzero;stroke:#576bbf;stroke-opacity:0.5;stroke-linejoin:round;stroke-linecap:round;stroke-width:1;stroke-miterlimit:4;stroke-dasharray:none"
         id="path17430"
         sodipodi:cx="241.15384"
         sodipodi:cy="150.54488"
         sodipodi:rx="113.17308"
         sodipodi:ry="113.17308"
         d="M 354.32692 150.54488 A 113.17308 113.17308 0 1 1  127.98076,150.54488 A 113.17308 113.17308 0 1 1  354.32692 150.54488 z" />
      <path
         d="M 354.32692 150.54488 A 113.17308 113.17308 0 1 1  127.98076,150.54488 A 113.17308 113.17308 0 1 1  354.32692 150.54488 z"
         sodipodi:ry="113.17308"
         sodipodi:rx="113.17308"
         sodipodi:cy="150.54488"
         sodipodi:cx="241.15384"
         id="path17432"
         style="opacity:1;fill:url(#radialGradient16541);fill-opacity:1;fill-rule:nonzero;stroke:#576bbf;stroke-opacity:0.5;stroke-linejoin:round;stroke-linecap:round;stroke-width:1;stroke-miterlimit:4;stroke-dasharray:none"
         sodipodi:type="arc" />
    </g>
    <text
       xml:space="preserve"
       style="font-size:12px;font-style:normal;font-weight:normal;fill:black;fill-opacity:1;stroke:none;stroke-width:1px;stroke-linecap:butt;stroke-linejoin:miter;stroke-opacity:1;font-family:Bitstream Vera Sans"
       x="71"
       y="300"
       id="text19291"><tspan
         sodipodi:role="line"
         id="tspan19293"
         x="71"
         y="300"
         style="font-size:12px;font-family:MetaMedium-Caps">Copyright (c) 2005-2008 Faktor Zehn AG and others. All rights reserved.</tspan><tspan
         sodipodi:role="line"
         x="71"
         y="315"
         id="tspan19295"
         style="font-size:12px;font-family:MetaMedium-Caps">Visit http://www.faktorzehn.org or http://www.faktorips.org</tspan></text>
    <text
       xml:space="preserve"
       style="font-size:12px;font-style:normal;font-variant:normal;font-weight:normal;font-stretch:normal;text-align:end;line-height:125%;writing-mode:lr-tb;text-anchor:end;fill:black;fill-opacity:1;stroke:none;stroke-width:1px;stroke-linecap:butt;stroke-linejoin:miter;stroke-opacity:1;font-family:Bitstream Vera Sans"
       x="491.30273"
       y="252"
       id="text19297"
       sodipodi:linespacing="125%"><tspan
         sodipodi:role="line"
         id="tspan2582"
         x="491.30273"
         y="252">Version 2.1.0</tspan></text>
    <path
       style="font-size:12px;font-style:normal;font-weight:normal;opacity:0.09899998;fill:black;fill-opacity:1;stroke:black;stroke-width:8;stroke-linecap:round;stroke-linejoin:round;stroke-miterlimit:4;stroke-opacity:0.5;font-family:Bitstream Vera Sans"
       d="M 282.43429,138.15144 C 268.88723,138.15156 257.63166,141.19018 249.46554,147.99519 C 241.28672,154.81098 237.18427,164.94203 237.18429,176.71394 C 237.18428,186.24763 240.16009,194.69583 246.21554,200.83894 C 252.25917,206.97024 261.06795,210.81853 272.24679,213.21394 L 282.65304,215.55769 C 288.60623,216.87094 292.68786,218.87799 292.90304,219.05769 C 293.73936,219.75618 293.93425,219.9585 293.93429,222.05769 C 293.93426,224.17911 293.90873,224.25374 292.02804,225.43269 C 290.35012,226.48452 286.87386,227.46396 281.65304,227.46394 C 276.47436,227.46397 270.97646,226.63437 265.18429,224.96394 C 259.38372,223.29114 253.32291,220.79683 246.93429,217.40144 C 245.17646,216.4689 242.86443,216.45104 241.05929,217.52644 C 239.25411,218.60186 238.14026,220.47159 238.12179,222.65144 C 238.12175,222.66186 238.12175,222.67227 238.12179,222.68269 L 238.12179,245.55769 C 238.11129,248.03564 239.65319,250.2608 241.96554,251.15144 C 241.98628,251.16204 242.00712,251.17246 242.02804,251.18269 C 249.04036,253.78169 256.05278,255.72889 263.09054,257.05769 C 270.14766,258.39017 277.2084,259.05769 284.24679,259.05769 C 299.14812,259.0577 311.10956,256.16951 319.52804,249.24519 C 327.97071,242.30082 332.02793,231.53079 332.02804,218.74519 C 332.02794,208.79462 329.06271,200.13262 322.80929,194.05769 C 316.5648,187.99177 307.20883,184.27254 294.93429,181.80769 L 283.40304,179.46394 C 278.35195,178.42789 274.92728,176.87406 274.46554,176.52644 C 273.59819,175.87353 273.74676,176.27531 273.74679,174.74519 C 273.74678,172.42629 273.66595,172.63363 275.37179,171.65144 C 276.82422,170.81522 280.82304,169.77652 286.71554,169.77644 C 291.05615,169.77651 295.74979,170.33949 300.84054,171.55769 C 305.92269,172.77402 311.21977,174.61432 316.68429,177.05769 C 318.57585,177.89838 320.68401,177.70789 322.37179,176.62019 C 324.0596,175.5325 325.10666,173.5975 325.12179,171.62019 C 325.12183,171.60977 325.12183,171.59936 325.12179,171.58894 L 325.12179,149.37019 C 325.13418,146.67923 323.30976,144.30389 320.71554,143.58894 C 320.70518,143.57847 320.69476,143.56805 320.68429,143.55769 C 313.96562,141.76939 307.41733,140.40011 301.05929,139.49519 C 294.70129,138.59052 288.49686,138.15155 282.43429,138.15144 z M 86.465545,140.05769 C 86.392354,140.06609 86.31941,140.07651 86.246795,140.08894 C 83.225741,140.4216 80.885096,143.04966 80.903045,146.08894 L 80.903045,251.02644 C 80.903367,254.29245 83.637053,257.02611 86.903045,257.02644 L 113.96554,257.02644 C 117.2316,257.02614 119.96522,254.29246 119.96554,251.02644 L 119.96554,146.05769 C 119.96522,142.79167 117.23156,140.05802 113.96554,140.05769 L 87.121795,140.05769 C 87.048937,140.0537 86.975972,140.05902 86.903045,140.05769 C 86.75719,140.05503 86.611262,140.04971 86.465545,140.05769 z M 140.18429,140.05769 C 140.1111,140.06609 140.03816,140.07651 139.96554,140.08894 C 136.94449,140.4216 134.60385,143.04966 134.62179,146.08894 L 134.62179,251.02644 C 134.62212,254.29244 137.3558,257.02611 140.62179,257.02644 L 167.68429,257.02644 C 170.95036,257.02614 173.68397,254.29246 173.68429,251.02644 L 173.68429,220.62019 L 185.52804,220.62019 C 199.77975,220.62023 211.59285,217.43965 220.15304,210.33894 C 228.72782,203.22605 233.02792,192.64592 233.02804,180.30769 C 233.02793,168.01062 228.72821,157.42107 220.15304,150.30769 C 211.58788,143.20302 199.77362,140.0578 185.52804,140.05769 L 140.84054,140.05769 C 140.76768,140.0537 140.69472,140.05902 140.62179,140.05769 C 140.47594,140.05503 140.33001,140.04971 140.18429,140.05769 z M 173.68429,171.68269 L 182.65304,171.68269 C 186.95794,171.68276 189.34614,172.6411 190.84054,173.96394 C 192.37667,175.32386 193.12174,176.78961 193.12179,180.30769 C 193.12174,183.82939 192.40822,185.28206 190.84054,186.68269 C 189.32806,188.03401 186.93197,188.99523 182.65304,188.99519 L 173.68429,188.99519 L 173.68429,171.68269 z "
       id="path23103" />
    <path
       style="font-size:81.34132385px;font-style:normal;font-weight:bold;opacity:0.09917357;fill:black;fill-opacity:1;stroke:#020202;stroke-width:5;stroke-linecap:round;stroke-linejoin:round;stroke-miterlimit:4;stroke-opacity:0.5;font-family:MetaMedium-Caps"
       d="M 87.153045,58.575321 C 85.870845,58.704288 84.896705,59.786671 84.903045,61.075321 L 84.903045,61.575321 L 84.903045,117.88782 L 84.903045,118.38782 C 84.903185,119.76848 86.022395,120.88768 87.403045,120.88782 L 87.903045,120.88782 L 97.278045,120.88782 L 97.778045,120.88782 C 99.158695,120.88768 100.2779,119.76848 100.27804,118.38782 L 100.27804,117.88782 L 100.27804,95.075321 L 112.96554,95.075321 L 113.46554,95.075321 C 114.84619,95.075183 115.9654,93.955976 115.96554,92.575321 L 115.96554,92.075321 L 115.96554,84.512821 L 115.96554,84.012821 C 115.9654,82.632166 114.84619,81.512959 113.46554,81.512821 L 112.96554,81.512821 L 100.27804,81.512821 L 100.27804,72.231571 L 116.52804,72.231571 L 116.96554,72.231571 C 118.21053,72.227725 119.263,71.30848 119.43429,70.075321 L 119.49679,69.637821 L 120.65304,62.044071 C 120.66453,62.002679 120.67495,61.960999 120.68429,61.919071 L 120.74679,61.325321 C 120.81759,60.620164 120.59852,59.912218 120.12179,59.387821 C 119.64507,58.863423 118.95548,58.571846 118.24679,58.575321 L 117.68429,58.575321 L 87.903045,58.575321 L 87.403045,58.575321 C 87.319765,58.571152 87.236325,58.571152 87.153045,58.575321 z M 132.87179,70.700321 C 131.91287,70.802428 131.09815,71.446907 130.77804,72.356571 L 130.65304,72.700321 L 114.30929,116.82532 C 114.30922,116.83574 114.30922,116.84615 114.30929,116.85657 L 114.05929,117.54407 C 113.78541,118.30829 113.90583,119.16055 114.37179,119.82532 C 114.83776,120.49009 115.59123,120.8846 116.40304,120.88782 L 117.12179,120.88782 L 126.65304,120.88782 L 126.99679,120.88782 C 128.04866,120.88372 128.98547,120.22171 129.34054,119.23157 L 129.46554,118.88782 L 132.49679,110.29407 L 143.34054,110.29407 L 146.43429,118.88782 L 146.55929,119.23157 C 146.91436,120.22171 147.85117,120.88372 148.90304,120.88782 L 149.24679,120.88782 L 159.09054,120.88782 L 159.80929,120.88782 C 160.6211,120.8846 161.37458,120.49009 161.84054,119.82532 C 162.30649,119.16055 162.42692,118.30829 162.15304,117.54407 L 161.90304,116.85657 L 146.30929,72.700321 L 146.18429,72.356571 C 145.82922,71.366435 144.89241,70.704421 143.84054,70.700321 L 143.46554,70.700321 L 133.46554,70.700321 L 133.12179,70.700321 C 133.03851,70.696152 132.95507,70.696152 132.87179,70.700321 z M 263.12179,70.700321 C 259.6959,70.70037 256.50572,71.301268 253.62179,72.575321 C 250.77942,73.831152 248.31147,75.646247 246.34054,77.950321 C 244.37892,80.243692 242.89067,82.983999 241.87179,86.106571 C 240.92356,89.012925 240.50463,92.1805 240.43429,95.544071 C 240.39223,95.728601 240.37127,95.91731 240.37179,96.106571 L 240.37179,96.450321 C 240.37182,100.1497 240.87447,103.61461 241.93429,106.76282 C 242.98692,109.88944 244.53212,112.62616 246.55929,114.91907 C 248.57811,117.20245 251.01578,118.98276 253.80929,120.23157 C 256.63923,121.49665 259.77894,122.13782 263.12179,122.13782 C 266.54718,122.13782 269.7502,121.52914 272.62179,120.29407 C 275.47454,119.06713 277.95328,117.26749 279.93429,114.95032 C 281.90442,112.6459 283.35728,109.90049 284.37179,106.79407 C 285.39664,103.656 285.90305,100.19861 285.90304,96.450321 C 285.90303,92.701714 285.40233,89.227322 284.34054,86.075321 C 283.28725,82.948595 281.74281,80.21208 279.71554,77.919071 C 277.70522,75.645307 275.27498,73.831295 272.46554,72.575321 C 269.61264,71.300015 266.44743,70.700371 263.12179,70.700321 z M 294.52804,70.731571 C 293.24584,70.860537 292.2717,71.94292 292.27804,73.231571 L 292.27804,73.731571 L 292.27804,107.35657 L 288.02804,107.35657 L 287.52804,107.35657 C 286.14739,107.35671 285.02818,108.47592 285.02804,109.85657 L 285.02804,110.35657 L 285.02804,117.98157 L 285.02804,118.48157 C 285.02818,119.86223 286.14739,120.98143 287.52804,120.98157 L 288.02804,120.98157 L 313.18429,120.98157 L 313.68429,120.98157 C 315.06494,120.98143 316.18415,119.86223 316.18429,118.48157 L 316.18429,117.98157 L 316.18429,110.35657 L 316.18429,109.85657 C 316.18415,108.47592 315.06494,107.35671 313.68429,107.35657 L 313.18429,107.35657 L 307.37179,107.35657 L 307.37179,89.700321 C 307.72833,89.884361 308.07781,90.121542 308.43429,90.294071 C 310.26081,91.178134 312.18766,92.020295 314.15304,92.794071 C 314.17373,92.804778 314.19456,92.815196 314.21554,92.825321 L 314.65304,92.981571 C 315.89496,93.439825 317.27883,92.850653 317.80929,91.637821 L 317.99679,91.200321 L 320.24679,86.325321 C 320.26832,86.294544 320.28916,86.263287 320.30929,86.231571 L 320.46554,85.856571 C 320.88949,84.828817 320.58388,83.64458 319.71554,82.950321 L 319.40304,82.700321 C 319.37262,82.668248 319.34136,82.636987 319.30929,82.606571 L 303.65304,71.294071 C 303.59245,71.249607 303.52989,71.207898 303.46554,71.169071 L 303.30929,71.075321 C 302.92095,70.847461 302.47828,70.728698 302.02804,70.731571 L 301.87179,70.731571 L 295.27804,70.731571 L 294.77804,70.731571 C 294.69476,70.727402 294.61132,70.727402 294.52804,70.731571 z M 165.49679,70.856571 C 164.21459,70.985537 163.24045,72.06792 163.24679,73.356571 L 163.24679,73.856571 L 163.24679,117.88782 L 163.24679,118.38782 C 163.24693,119.76848 164.36614,120.88768 165.74679,120.88782 L 166.24679,120.88782 L 175.59054,120.88782 L 176.09054,120.88782 C 177.47119,120.88768 178.5904,119.76848 178.59054,118.38782 L 178.59054,117.88782 L 178.59054,104.32532 L 188.46554,119.26282 L 188.49679,119.32532 L 188.59054,119.51282 C 189.01825,120.36154 189.89016,120.89438 190.84054,120.88782 L 191.12179,120.88782 L 203.24679,120.88782 L 204.24679,120.88782 C 205.18812,120.89072 206.03666,120.35078 206.46554,119.51282 C 206.89442,118.67486 206.83093,117.68093 206.27804,116.91907 L 205.68429,116.10657 C 205.67387,116.10651 205.66346,116.10651 205.65304,116.10657 L 189.59054,94.262821 L 202.24679,78.137821 L 202.24679,81.262821 L 202.24679,81.762821 C 202.24693,83.143476 203.36614,84.262683 204.74679,84.262821 L 205.24679,84.262821 L 214.37179,84.262821 L 214.37179,117.88782 L 214.37179,118.38782 C 214.37193,119.76848 215.49114,120.88768 216.87179,120.88782 L 217.37179,120.88782 L 226.55929,120.88782 L 227.05929,120.88782 C 228.43994,120.88768 229.55915,119.76848 229.55929,118.38782 L 229.55929,117.88782 L 229.55929,84.262821 L 238.52804,84.262821 L 238.93429,84.262821 C 240.16903,84.26125 241.21773,83.358573 241.40304,82.137821 L 241.43429,81.887821 L 241.46554,81.762821 L 241.46554,81.731571 L 242.99679,74.512821 C 242.99686,74.502404 242.99686,74.491987 242.99679,74.481571 L 243.12179,73.856571 C 243.27143,73.123086 243.09385,72.375064 242.62179,71.794071 C 242.14973,71.213077 241.43287,70.86025 240.68429,70.856571 L 240.05929,70.856571 L 205.24679,70.856571 L 204.74679,70.856571 C 204.41462,70.854097 204.0853,70.917839 203.77804,71.044071 C 203.47078,70.917839 203.14146,70.854097 202.80929,70.856571 L 201.77804,70.856571 L 190.40304,70.856571 L 190.12179,70.856571 C 189.23179,70.859763 188.41058,71.335826 187.96554,72.106571 L 178.59054,85.200321 L 178.59054,73.856571 L 178.59054,73.356571 C 178.5904,71.975916 177.47119,70.856709 176.09054,70.856571 L 175.59054,70.856571 L 166.24679,70.856571 L 165.74679,70.856571 C 165.66351,70.852402 165.58007,70.852402 165.49679,70.856571 z M 263.21554,83.700321 C 265.76282,83.70035 266.74631,84.280007 267.77804,86.106571 C 268.86655,88.033686 269.6218,91.315376 269.62179,95.856571 C 269.62179,98.860174 269.42616,101.2881 269.05929,103.07532 C 268.68514,104.89813 268.12407,106.23426 267.59054,107.04407 C 267.01668,107.91514 266.49664,108.346 265.90304,108.60657 C 265.17669,108.92544 264.27791,109.10657 263.05929,109.10657 C 260.49493,109.10658 259.48857,108.52183 258.46554,106.73157 C 257.38083,104.83331 256.62184,101.57417 256.62179,97.044071 C 256.62181,94.05703 256.84116,91.643294 257.21554,89.794071 C 257.59045,87.94255 258.1532,86.599391 258.68429,85.794071 C 259.2762,84.896604 259.76383,84.484955 260.34054,84.231571 C 261.08542,83.904361 262.03202,83.700352 263.21554,83.700321 z M 138.05929,92.356571 L 139.49679,97.294071 L 136.59054,97.294071 L 138.05929,92.356571 z "
       id="path22163" />
    <g
       id="g22067">
      <g
         style="opacity:0.5"
         id="g22022">
        <g
           id="g21108">
          <path
             sodipodi:nodetypes="cccc"
             id="rect20204"
             d="M 160.5,118.50466 L 491.5,127.50466 L 160.5,127.50466 L 160.5,118.50466 z "
             style="fill:url(#linearGradient21098);fill-opacity:1;fill-rule:nonzero;stroke:none;stroke-width:1;stroke-linecap:round;stroke-linejoin:round;stroke-miterlimit:4;stroke-opacity:0.5" />
          <path
             style="fill:url(#linearGradient21102);fill-opacity:1;fill-rule:nonzero;stroke:none;stroke-width:1;stroke-linecap:round;stroke-linejoin:round;stroke-miterlimit:4;stroke-opacity:0.5;opacity:0.5"
             d="M 160.5,136.53781 L 490.5,127.53781 L 160.5,127.53781 L 160.5,136.53781 z "
             id="path21100"
             sodipodi:nodetypes="cccc" />
          <path
             sodipodi:nodetypes="cccc"
             id="path21104"
             d="M 160.5,136.53781 L 322,127.53781 L 160.5,127.53781 L 160.5,136.53781 z "
             style="opacity:0.5;fill:url(#linearGradient21106);fill-opacity:1;fill-rule:nonzero;stroke:none;stroke-width:1;stroke-linecap:round;stroke-linejoin:round;stroke-miterlimit:4;stroke-opacity:0.5" />
        </g>
        <g
           id="g21113"
           transform="matrix(-0.451662,0,0,-1,232.9918,255.0424)">
          <path
             style="fill:url(#linearGradient21121);fill-opacity:1;fill-rule:nonzero;stroke:none;stroke-width:1;stroke-linecap:round;stroke-linejoin:round;stroke-miterlimit:4;stroke-opacity:0.5"
             d="M 160.5,118.50466 L 491.5,127.50466 L 160.5,127.50466 L 160.5,118.50466 z "
             id="path21115"
             sodipodi:nodetypes="cccc" />
          <path
             sodipodi:nodetypes="cccc"
             id="path21117"
             d="M 160.5,136.53781 L 490.5,127.53781 L 160.5,127.53781 L 160.5,136.53781 z "
             style="opacity:0.5;fill:url(#linearGradient21123);fill-opacity:1;fill-rule:nonzero;stroke:none;stroke-width:1;stroke-linecap:round;stroke-linejoin:round;stroke-miterlimit:4;stroke-opacity:0.5" />
          <path
             style="opacity:0.5;fill:url(#linearGradient21125);fill-opacity:1;fill-rule:nonzero;stroke:none;stroke-width:1;stroke-linecap:round;stroke-linejoin:round;stroke-miterlimit:4;stroke-opacity:0.5"
             d="M 160.5,136.53781 L 322,127.53781 L 160.5,127.53781 L 160.5,136.53781 z "
             id="path21119"
             sodipodi:nodetypes="cccc" />
        </g>
        <path
           sodipodi:type="arc"
           style="opacity:1;fill:url(#radialGradient22020);fill-opacity:1.0;fill-rule:nonzero;stroke:none;stroke-width:1;stroke-linecap:round;stroke-linejoin:round;stroke-miterlimit:4;stroke-dasharray:none;stroke-opacity:0.5"
           id="path21127"
           sodipodi:cx="160.41667"
           sodipodi:cy="127.6282"
           sodipodi:rx="42.307693"
           sodipodi:ry="8.4615383"
           d="M 202.72437 127.6282 A 42.307693 8.4615383 0 1 1  118.10898,127.6282 A 42.307693 8.4615383 0 1 1  202.72437 127.6282 z" />
      </g>
      <g
         transform="matrix(1,0,0,-0.491678,0,190.2205)"
         id="g22033"
         style="opacity:0.5">
        <g
           id="g22035">
          <path
             style="fill:url(#linearGradient22053);fill-opacity:1;fill-rule:nonzero;stroke:none;stroke-width:1;stroke-linecap:round;stroke-linejoin:round;stroke-miterlimit:4;stroke-opacity:0.5"
             d="M 160.5,118.50466 L 491.5,127.50466 L 160.5,127.50466 L 160.5,118.50466 z "
             id="path22037"
             sodipodi:nodetypes="cccc" />
          <path
             sodipodi:nodetypes="cccc"
             id="path22039"
             d="M 160.5,136.53781 L 490.5,127.53781 L 160.5,127.53781 L 160.5,136.53781 z "
             style="opacity:0.5;fill:url(#linearGradient22055);fill-opacity:1;fill-rule:nonzero;stroke:none;stroke-width:1;stroke-linecap:round;stroke-linejoin:round;stroke-miterlimit:4;stroke-opacity:0.5" />
          <path
             style="opacity:0.5;fill:url(#linearGradient22057);fill-opacity:1;fill-rule:nonzero;stroke:none;stroke-width:1;stroke-linecap:round;stroke-linejoin:round;stroke-miterlimit:4;stroke-opacity:0.5"
             d="M 160.5,136.53781 L 322,127.53781 L 160.5,127.53781 L 160.5,136.53781 z "
             id="path22041"
             sodipodi:nodetypes="cccc" />
        </g>
        <g
           transform="matrix(-0.451662,0,0,-1,232.9918,255.0424)"
           id="g22043">
          <path
             sodipodi:nodetypes="cccc"
             id="path22045"
             d="M 160.5,118.50466 L 491.5,127.50466 L 160.5,127.50466 L 160.5,118.50466 z "
             style="fill:url(#linearGradient22059);fill-opacity:1;fill-rule:nonzero;stroke:none;stroke-width:1;stroke-linecap:round;stroke-linejoin:round;stroke-miterlimit:4;stroke-opacity:0.5" />
          <path
             style="opacity:0.5;fill:url(#linearGradient22061);fill-opacity:1;fill-rule:nonzero;stroke:none;stroke-width:1;stroke-linecap:round;stroke-linejoin:round;stroke-miterlimit:4;stroke-opacity:0.5"
             d="M 160.5,136.53781 L 490.5,127.53781 L 160.5,127.53781 L 160.5,136.53781 z "
             id="path22047"
             sodipodi:nodetypes="cccc" />
          <path
             sodipodi:nodetypes="cccc"
             id="path22049"
             d="M 160.5,136.53781 L 322,127.53781 L 160.5,127.53781 L 160.5,136.53781 z "
             style="opacity:0.5;fill:url(#linearGradient22063);fill-opacity:1;fill-rule:nonzero;stroke:none;stroke-width:1;stroke-linecap:round;stroke-linejoin:round;stroke-miterlimit:4;stroke-opacity:0.5" />
        </g>
        <path
           d="M 202.72437 127.6282 A 42.307693 8.4615383 0 1 1  118.10898,127.6282 A 42.307693 8.4615383 0 1 1  202.72437 127.6282 z"
           sodipodi:ry="8.4615383"
           sodipodi:rx="42.307693"
           sodipodi:cy="127.6282"
           sodipodi:cx="160.41667"
           id="path22051"
           style="opacity:1;fill:url(#radialGradient22065);fill-opacity:1;fill-rule:nonzero;stroke:none;stroke-width:1;stroke-linecap:round;stroke-linejoin:round;stroke-miterlimit:4;stroke-dasharray:none;stroke-opacity:0.5"
           sodipodi:type="arc" />
      </g>
    </g>
    <g
       id="g22089"
       transform="matrix(0,0.585265,-0.585265,0,235.0799,33.57032)"
       style="opacity:0.5">
      <g
         id="g22091"
         style="opacity:0.5">
        <g
           id="g22093">
          <path
             style="fill:url(#linearGradient22131);fill-opacity:1;fill-rule:nonzero;stroke:none;stroke-width:1;stroke-linecap:round;stroke-linejoin:round;stroke-miterlimit:4;stroke-opacity:0.5"
             d="M 160.5,118.50466 L 491.5,127.50466 L 160.5,127.50466 L 160.5,118.50466 z "
             id="path22095"
             sodipodi:nodetypes="cccc" />
          <path
             sodipodi:nodetypes="cccc"
             id="path22097"
             d="M 160.5,136.53781 L 490.5,127.53781 L 160.5,127.53781 L 160.5,136.53781 z "
             style="opacity:0.5;fill:url(#linearGradient22133);fill-opacity:1;fill-rule:nonzero;stroke:none;stroke-width:1;stroke-linecap:round;stroke-linejoin:round;stroke-miterlimit:4;stroke-opacity:0.5" />
          <path
             style="opacity:0.5;fill:url(#linearGradient22135);fill-opacity:1;fill-rule:nonzero;stroke:none;stroke-width:1;stroke-linecap:round;stroke-linejoin:round;stroke-miterlimit:4;stroke-opacity:0.5"
             d="M 160.5,136.53781 L 322,127.53781 L 160.5,127.53781 L 160.5,136.53781 z "
             id="path22099"
             sodipodi:nodetypes="cccc" />
        </g>
        <g
           transform="matrix(-0.451662,0,0,-1,232.9918,255.0424)"
           id="g22101">
          <path
             sodipodi:nodetypes="cccc"
             id="path22103"
             d="M 160.5,118.50466 L 491.5,127.50466 L 160.5,127.50466 L 160.5,118.50466 z "
             style="fill:url(#linearGradient22137);fill-opacity:1;fill-rule:nonzero;stroke:none;stroke-width:1;stroke-linecap:round;stroke-linejoin:round;stroke-miterlimit:4;stroke-opacity:0.5" />
          <path
             style="opacity:0.5;fill:url(#linearGradient22139);fill-opacity:1;fill-rule:nonzero;stroke:none;stroke-width:1;stroke-linecap:round;stroke-linejoin:round;stroke-miterlimit:4;stroke-opacity:0.5"
             d="M 160.5,136.53781 L 490.5,127.53781 L 160.5,127.53781 L 160.5,136.53781 z "
             id="path22105"
             sodipodi:nodetypes="cccc" />
          <path
             sodipodi:nodetypes="cccc"
             id="path22107"
             d="M 160.5,136.53781 L 322,127.53781 L 160.5,127.53781 L 160.5,136.53781 z "
             style="opacity:0.5;fill:url(#linearGradient22141);fill-opacity:1;fill-rule:nonzero;stroke:none;stroke-width:1;stroke-linecap:round;stroke-linejoin:round;stroke-miterlimit:4;stroke-opacity:0.5" />
        </g>
        <path
           d="M 202.72437 127.6282 A 42.307693 8.4615383 0 1 1  118.10898,127.6282 A 42.307693 8.4615383 0 1 1  202.72437 127.6282 z"
           sodipodi:ry="8.4615383"
           sodipodi:rx="42.307693"
           sodipodi:cy="127.6282"
           sodipodi:cx="160.41667"
           id="path22109"
           style="opacity:1;fill:url(#radialGradient22143);fill-opacity:1;fill-rule:nonzero;stroke:none;stroke-width:1;stroke-linecap:round;stroke-linejoin:round;stroke-miterlimit:4;stroke-dasharray:none;stroke-opacity:0.5"
           sodipodi:type="arc" />
      </g>
      <g
         style="opacity:0.5"
         id="g22111"
         transform="matrix(1,0,0,-0.491678,0,190.2205)">
        <g
           id="g22113">
          <path
             sodipodi:nodetypes="cccc"
             id="path22115"
             d="M 160.5,118.50466 L 491.5,127.50466 L 160.5,127.50466 L 160.5,118.50466 z "
             style="fill:url(#linearGradient22145);fill-opacity:1;fill-rule:nonzero;stroke:none;stroke-width:1;stroke-linecap:round;stroke-linejoin:round;stroke-miterlimit:4;stroke-opacity:0.5" />
          <path
             style="opacity:0.5;fill:url(#linearGradient22147);fill-opacity:1;fill-rule:nonzero;stroke:none;stroke-width:1;stroke-linecap:round;stroke-linejoin:round;stroke-miterlimit:4;stroke-opacity:0.5"
             d="M 160.5,136.53781 L 490.5,127.53781 L 160.5,127.53781 L 160.5,136.53781 z "
             id="path22117"
             sodipodi:nodetypes="cccc" />
          <path
             sodipodi:nodetypes="cccc"
             id="path22119"
             d="M 160.5,136.53781 L 322,127.53781 L 160.5,127.53781 L 160.5,136.53781 z "
             style="opacity:0.5;fill:url(#linearGradient22149);fill-opacity:1;fill-rule:nonzero;stroke:none;stroke-width:1;stroke-linecap:round;stroke-linejoin:round;stroke-miterlimit:4;stroke-opacity:0.5" />
        </g>
        <g
           id="g22121"
           transform="matrix(-0.451662,0,0,-1,232.9918,255.0424)">
          <path
             style="fill:url(#linearGradient22151);fill-opacity:1;fill-rule:nonzero;stroke:none;stroke-width:1;stroke-linecap:round;stroke-linejoin:round;stroke-miterlimit:4;stroke-opacity:0.5"
             d="M 160.5,118.50466 L 491.5,127.50466 L 160.5,127.50466 L 160.5,118.50466 z "
             id="path22123"
             sodipodi:nodetypes="cccc" />
          <path
             sodipodi:nodetypes="cccc"
             id="path22125"
             d="M 160.5,136.53781 L 490.5,127.53781 L 160.5,127.53781 L 160.5,136.53781 z "
             style="opacity:0.5;fill:url(#linearGradient22153);fill-opacity:1;fill-rule:nonzero;stroke:none;stroke-width:1;stroke-linecap:round;stroke-linejoin:round;stroke-miterlimit:4;stroke-opacity:0.5" />
          <path
             style="opacity:0.5;fill:url(#linearGradient22155);fill-opacity:1;fill-rule:nonzero;stroke:none;stroke-width:1;stroke-linecap:round;stroke-linejoin:round;stroke-miterlimit:4;stroke-opacity:0.5"
             d="M 160.5,136.53781 L 322,127.53781 L 160.5,127.53781 L 160.5,136.53781 z "
             id="path22127"
             sodipodi:nodetypes="cccc" />
        </g>
        <path
           sodipodi:type="arc"
           style="opacity:1;fill:url(#radialGradient22157);fill-opacity:1;fill-rule:nonzero;stroke:none;stroke-width:1;stroke-linecap:round;stroke-linejoin:round;stroke-miterlimit:4;stroke-dasharray:none;stroke-opacity:0.5"
           id="path22129"
           sodipodi:cx="160.41667"
           sodipodi:cy="127.6282"
           sodipodi:rx="42.307693"
           sodipodi:ry="8.4615383"
           d="M 202.72437 127.6282 A 42.307693 8.4615383 0 1 1  118.10898,127.6282 A 42.307693 8.4615383 0 1 1  202.72437 127.6282 z" />
      </g>
    </g>
    <g
       id="g16528"
       transform="translate(-43.01282,7.403831)">
      <path
         id="text13688"
         d="M 319.46875,131.21875 C 306.51618,131.21886 296.28473,134.10655 289.0625,140.125 C 281.84443,146.14014 278.21873,154.89771 278.21875,165.78125 C 278.21874,174.5127 280.84551,181.76953 286.09375,187.09375 C 291.34472,192.4209 299.39452,196.07567 310.125,198.375 L 320.5625,200.71875 C 326.8098,202.09688 330.92081,203.74369 332.5,205.0625 C 334.16903,206.45648 334.96869,208.27709 334.96875,211.125 C 334.96869,214.20865 333.85597,216.20221 331.1875,217.875 C 328.52485,219.54411 324.37146,220.53127 318.6875,220.53125 C 313.08195,220.53127 307.22435,219.63402 301.125,217.875 C 295.02115,216.11474 288.69268,213.50716 282.09375,210 C 281.47645,209.67252 280.733,209.69094 280.13267,210.04858 C 279.53234,210.40622 279.16217,211.05124 279.15625,211.75 L 279.15625,234.625 C 279.15273,235.45536 279.66262,236.20154 280.4375,236.5 C 287.24054,239.02142 294.05683,240.90016 300.875,242.1875 C 307.69668,243.47552 314.49819,244.125 321.28125,244.125 C 335.65745,244.125 346.64499,241.29406 354.03125,235.21875 C 361.41612,229.14444 365.0624,219.78605 365.0625,207.8125 C 365.0624,198.62771 362.42475,191.2092 357.0625,186 C 351.69096,180.78208 343.06346,177.16606 331.1875,174.78125 L 319.65625,172.46875 C 314.30239,171.3706 310.69008,169.98306 309.09375,168.78125 C 307.46618,167.55608 306.78121,166.13062 306.78125,163.8125 C 306.78122,160.6126 307.83838,158.72852 310.40625,157.25 C 312.9776,155.76958 317.46475,154.84383 323.75,154.84375 C 328.44548,154.84383 333.45848,155.4688 338.8125,156.75 C 344.16283,158.03052 349.67829,159.93553 355.34375,162.46875 C 355.96,162.74264 356.67277,162.68756 357.23962,162.32225 C 357.80647,161.95695 358.15109,161.3306 358.15625,160.65625 L 358.15625,138.4375 C 358.1604,137.53408 357.55846,136.74003 356.6875,136.5 C 350.10212,134.74718 343.71058,133.41073 337.53125,132.53125 C 331.35036,131.65178 325.33456,131.21886 319.46875,131.21875 z M 123.71875,133.125 C 122.70043,133.23713 121.93145,134.10054 121.9375,135.125 L 121.9375,240.09375 C 121.93761,241.19827 122.83298,242.09364 123.9375,242.09375 L 151,242.09375 C 152.10452,242.09364 152.99989,241.19827 153,240.09375 L 153,135.125 C 152.99989,134.02048 152.10452,133.12511 151,133.125 L 123.9375,133.125 C 123.86464,133.12101 123.79161,133.12101 123.71875,133.125 L 123.71875,133.125 z M 177.4375,133.125 C 176.41918,133.23713 175.6502,134.10054 175.65625,135.125 L 175.65625,240.09375 C 175.65636,241.19827 176.55173,242.09364 177.65625,242.09375 L 204.71875,242.09375 C 205.82327,242.09364 206.71864,241.19827 206.71875,240.09375 L 206.71875,205.6875 L 222.5625,205.6875 C 236.21771,205.68754 247.00527,202.63309 254.625,196.3125 C 262.24174,189.99432 266.06239,180.8233 266.0625,169.375 C 266.0624,157.97186 262.23972,148.78541 254.625,142.46875 C 247.00528,136.14831 236.2177,133.12511 222.5625,133.125 L 177.65625,133.125 C 177.58339,133.12101 177.51036,133.12101 177.4375,133.125 L 177.4375,133.125 z M 319.46875,135.21875 C 325.13407,135.21886 330.96202,135.64531 336.96875,136.5 C 342.50326,137.28771 348.25,138.48214 354.15625,140 L 354.15625,157.6875 C 349.27497,155.66255 344.45749,154.00167 339.75,152.875 C 334.13512,151.53138 328.80441,150.84384 323.75,150.84375 C 317.09764,150.84384 312.02231,151.69935 308.40625,153.78125 C 304.78653,155.8654 302.78121,159.51256 302.78125,163.8125 C 302.7812,167.11952 304.14312,170.05344 306.6875,171.96875 C 309.26295,173.9077 313.22877,175.22329 318.84375,176.375 L 330.375,178.71875 C 341.84263,181.02156 349.80888,184.53054 354.28125,188.875 C 358.76255,193.22839 361.06241,199.37237 361.0625,207.8125 C 361.0624,218.99524 357.84932,226.90246 351.5,232.125 C 345.15171,237.34656 335.12367,240.125 321.28125,240.125 C 314.75171,240.125 308.20949,239.52448 301.625,238.28125 C 295.47437,237.11995 289.31979,235.39749 283.15625,233.1875 L 283.15625,214.9375 C 288.91471,217.80444 294.56012,220.14096 300.03125,221.71875 C 306.44744,223.56914 312.66797,224.53127 318.6875,224.53125 C 324.81592,224.53127 329.69378,223.51843 333.3125,221.25 C 336.92514,218.98533 338.96867,215.3539 338.96875,211.125 C 338.96867,207.41047 337.65897,204.16859 335.0625,202 C 332.37593,199.75639 327.94008,198.24695 321.4375,196.8125 L 310.96875,194.46875 C 310.95833,194.46867 310.94792,194.46867 310.9375,194.46875 C 300.66791,192.26818 293.38961,188.79795 288.9375,184.28125 C 284.48257,179.76183 282.21874,173.73743 282.21875,165.78125 C 282.21873,155.75871 285.34304,148.42254 291.625,143.1875 C 297.9027,137.95616 307.10875,135.21885 319.46875,135.21875 z M 125.9375,137.125 L 149,137.125 L 149,238.09375 L 125.9375,238.09375 L 125.9375,137.125 z M 179.65625,137.125 L 222.5625,137.125 C 235.6259,137.1251 245.38518,140.02377 252.0625,145.5625 C 258.74445,151.10539 262.0624,158.8408 262.0625,169.375 C 262.0624,179.95807 258.74244,187.70891 252.0625,193.25 C 245.38517,198.78886 235.62589,201.68754 222.5625,201.6875 L 204.71875,201.6875 C 203.61423,201.68761 202.71886,202.58298 202.71875,203.6875 L 202.71875,238.09375 L 179.65625,238.09375 L 179.65625,137.125 z M 204.5,152.75 C 203.48168,152.86213 202.7127,153.72554 202.71875,154.75 L 202.71875,184.0625 C 202.71886,185.16702 203.61423,186.06239 204.71875,186.0625 L 219.6875,186.0625 C 225.26185,186.06256 229.87456,184.67868 233.1875,181.71875 C 236.50002,178.75919 238.15617,174.46921 238.15625,169.375 C 238.15616,164.28092 236.50556,159.96871 233.1875,157.03125 C 229.8732,154.09745 225.25885,152.75009 219.6875,152.75 L 204.71875,152.75 C 204.64589,152.74601 204.57286,152.74601 204.5,152.75 z M 206.71875,156.75 L 219.6875,156.75 C 224.61602,156.75008 228.12666,157.90272 230.53125,160.03125 C 232.9318,162.15645 234.15618,165.09423 234.15625,169.375 C 234.15618,173.65592 232.93732,176.56906 230.53125,178.71875 C 228.12532,180.86831 224.61301,182.06255 219.6875,182.0625 L 206.71875,182.0625 L 206.71875,156.75 z "
         style="font-size:12px;font-style:normal;font-weight:normal;fill:white;fill-opacity:0.75;stroke:white;stroke-width:8;stroke-linecap:round;stroke-linejoin:round;stroke-miterlimit:4;stroke-dasharray:none;stroke-opacity:0.5;font-family:Bitstream Vera Sans" />
      <text
         id="text2863"
         y="240.09616"
         x="110.70513"
         style="font-size:12px;font-style:normal;font-weight:normal;fill:#576bbf;fill-opacity:1;stroke:white;stroke-width:4;stroke-linecap:round;stroke-linejoin:round;stroke-miterlimit:4;stroke-dasharray:none;stroke-opacity:0.75;font-family:Bitstream Vera Sans"
         xml:space="preserve"><tspan
           style="font-size:144px;font-weight:bold;fill:#576bbf;fill-opacity:1;stroke:white;stroke-width:4;stroke-linecap:round;stroke-linejoin:round;stroke-miterlimit:4;stroke-dasharray:none;stroke-opacity:0.75"
           y="240.09616"
           x="110.70513"
           id="tspan2865"
           sodipodi:role="line">IPS</tspan></text>
      <text
         xml:space="preserve"
         style="font-size:12px;font-style:normal;font-weight:normal;fill:#576bbf;fill-opacity:1;stroke:none;stroke-width:4;stroke-linecap:round;stroke-linejoin:round;stroke-miterlimit:4;stroke-dasharray:none;stroke-opacity:0.75;font-family:Bitstream Vera Sans"
         x="110.70513"
         y="240.09616"
         id="text14581"><tspan
           sodipodi:role="line"
           id="tspan14583"
           x="110.70513"
           y="240.09616"
           style="font-size:144px;font-weight:bold;fill:#576bbf;fill-opacity:1;stroke:none;stroke-width:4;stroke-linecap:round;stroke-linejoin:round;stroke-miterlimit:4;stroke-dasharray:none;stroke-opacity:0.75">IPS</tspan></text>
    </g>
    <g
       id="g16514"
       transform="translate(-41.95512,10.22436)">
      <g
         style="stroke:white;stroke-width:5;stroke-linecap:round;stroke-linejoin:round;stroke-miterlimit:4;stroke-dasharray:none;stroke-opacity:0.5"
         id="g12795"
         transform="translate(0.352564,3.525641)">
        <path
           id="path12797"
           d="M 125.84375,45.5625 L 125.84375,46.0625 L 125.84375,102.375 L 125.84375,102.875 L 126.34375,102.875 L 135.71875,102.875 L 136.21875,102.875 L 136.21875,102.375 L 136.21875,77.0625 L 151.40625,77.0625 L 151.90625,77.0625 L 151.90625,76.5625 L 151.90625,69 L 151.90625,68.5 L 151.40625,68.5 L 136.21875,68.5 L 136.21875,54.21875 L 154.96875,54.21875 L 155.40625,54.21875 L 155.46875,53.78125 L 156.625,46.15625 L 156.6875,45.5625 L 156.125,45.5625 L 126.34375,45.5625 L 125.84375,45.5625 z M 171.5625,57.6875 L 171.4375,58.03125 L 155.09375,102.1875 L 154.84375,102.875 L 155.5625,102.875 L 165.09375,102.875 L 165.4375,102.875 L 165.5625,102.53125 L 169.1875,92.28125 L 183.53125,92.28125 L 187.21875,102.53125 L 187.34375,102.875 L 187.6875,102.875 L 197.53125,102.875 L 198.25,102.875 L 198,102.1875 L 182.40625,58.03125 L 182.28125,57.6875 L 181.90625,57.6875 L 171.90625,57.6875 L 171.5625,57.6875 z M 204.1875,57.84375 L 204.1875,58.34375 L 204.1875,102.375 L 204.1875,102.875 L 204.6875,102.875 L 214.03125,102.875 L 214.53125,102.875 L 214.53125,102.375 L 214.53125,80.5 L 229.15625,102.625 L 229.28125,102.875 L 229.5625,102.875 L 241.6875,102.875 L 242.6875,102.875 L 242.09375,102.0625 L 224.90625,78.6875 L 240.625,58.65625 L 241.25,57.84375 L 240.21875,57.84375 L 228.84375,57.84375 L 228.5625,57.84375 L 228.4375,58.0625 L 214.53125,77.46875 L 214.53125,58.34375 L 214.53125,57.84375 L 214.03125,57.84375 L 204.6875,57.84375 L 204.1875,57.84375 z M 243.1875,57.84375 L 243.1875,58.34375 L 243.1875,65.75 L 243.1875,66.25 L 243.6875,66.25 L 255.3125,66.25 L 255.3125,102.375 L 255.3125,102.875 L 255.8125,102.875 L 265,102.875 L 265.5,102.875 L 265.5,102.375 L 265.5,66.25 L 276.96875,66.25 L 277.375,66.25 L 277.4375,65.84375 L 279,58.46875 L 279.125,57.84375 L 278.5,57.84375 L 243.6875,57.84375 L 243.1875,57.84375 z M 176.53125,67.875 L 181.25,84.28125 L 171.6875,84.28125 L 176.53125,67.875 z "
           style="font-size:81.34132385px;font-style:normal;font-weight:bold;fill:black;fill-opacity:1;stroke:white;stroke-width:5;stroke-linecap:round;stroke-linejoin:round;stroke-miterlimit:4;stroke-dasharray:none;stroke-opacity:0.5;font-family:MetaMedium-Caps" />
        <path
           id="path12799"
           d="M 333.21875,57.71875 L 333.21875,58.21875 L 333.21875,94.34375 L 326.46875,94.34375 L 325.96875,94.34375 L 325.96875,94.84375 L 325.96875,102.46875 L 325.96875,102.96875 L 326.46875,102.96875 L 351.625,102.96875 L 352.125,102.96875 L 352.125,102.46875 L 352.125,94.84375 L 352.125,94.34375 L 351.625,94.34375 L 343.3125,94.34375 L 343.3125,69.96875 C 344.88066,70.918343 346.44048,71.79159 347.96875,72.53125 C 349.74847,73.392655 351.60483,74.222618 353.5,74.96875 L 353.9375,75.125 L 354.125,74.6875 L 356.4375,69.75 L 356.59375,69.375 L 356.28125,69.125 L 340.625,57.8125 L 340.46875,57.71875 L 340.3125,57.71875 L 333.71875,57.71875 L 333.21875,57.71875 z "
           style="font-size:14.26249504px;font-style:normal;font-weight:normal;fill:#576bbf;fill-opacity:1;stroke:white;stroke-width:5;stroke-linecap:round;stroke-linejoin:round;stroke-miterlimit:4;stroke-dasharray:none;stroke-opacity:0.5;font-family:Bitstream Vera Sans" />
        <path
           id="path12801"
           d="M 301.5625,57.6875 C 298.424,57.687545 295.58639,58.228753 293.0625,59.34375 C 290.54577,60.455708 288.41962,62.037607 286.6875,64.0625 C 284.95695,66.085738 283.61724,68.525611 282.6875,71.375 C 281.78814,74.131585 281.37431,77.213933 281.34375,80.59375 L 281.3125,80.59375 L 281.3125,80.9375 C 281.31254,84.407912 281.78932,87.58378 282.75,90.4375 C 283.70948,93.287418 285.08672,95.727292 286.875,97.75 C 288.66135,99.770436 290.79463,101.32588 293.28125,102.4375 C 295.77503,103.5523 298.53492,104.125 301.5625,104.125 C 304.7012,104.125 307.53961,103.58509 310.0625,102.5 C 312.58117,101.41675 314.73674,99.838414 316.46875,97.8125 C 318.19843,95.789342 319.50695,93.349341 320.4375,90.5 C 321.36968,87.645728 321.84376,84.461566 321.84375,80.9375 C 321.84375,77.413824 321.36818,74.230562 320.40625,71.375 C 319.44595,68.524299 318.06958,66.08525 316.28125,64.0625 C 314.49495,62.042103 312.36164,60.455415 309.875,59.34375 C 307.38127,58.228995 304.5901,57.687546 301.5625,57.6875 z M 301.65625,65.6875 C 304.8338,65.687536 307.00214,66.889175 308.40625,69.375 C 309.82391,71.884828 310.56251,75.545972 310.5625,80.34375 C 310.56251,83.458393 310.35499,86.028703 309.9375,88.0625 C 309.51889,90.101947 308.90391,91.724002 308.125,92.90625 C 307.34039,94.097238 306.41615,94.904244 305.34375,95.375 C 304.24778,95.856133 302.98527,96.093755 301.5,96.09375 C 298.32287,96.093756 296.15396,94.925622 294.75,92.46875 C 293.33321,89.989324 292.56255,86.329046 292.5625,81.53125 C 292.56253,78.416647 292.80092,75.845065 293.21875,73.78125 C 293.63757,71.712924 294.25255,70.087043 295.03125,68.90625 C 295.81684,67.715138 296.70972,66.908286 297.78125,66.4375 C 298.87633,65.95646 300.171,65.687539 301.65625,65.6875 z "
           style="font-size:14.26249504px;font-style:normal;font-weight:normal;fill:#576bbf;fill-opacity:1;stroke:white;stroke-width:5;stroke-linecap:round;stroke-linejoin:round;stroke-miterlimit:4;stroke-dasharray:none;stroke-opacity:0.5;font-family:Bitstream Vera Sans" />
      </g>
      <g
         transform="translate(0.352564,3.525641)"
         id="g12790">
        <path
           style="font-size:81.34132385px;font-style:normal;font-weight:bold;fill:black;fill-opacity:1;stroke:white;stroke-width:1.5;stroke-linecap:round;stroke-linejoin:round;stroke-miterlimit:4;stroke-dasharray:none;stroke-opacity:0.75;font-family:MetaMedium-Caps"
           d="M 125.84375,45.5625 L 125.84375,46.0625 L 125.84375,102.375 L 125.84375,102.875 L 126.34375,102.875 L 135.71875,102.875 L 136.21875,102.875 L 136.21875,102.375 L 136.21875,77.0625 L 151.40625,77.0625 L 151.90625,77.0625 L 151.90625,76.5625 L 151.90625,69 L 151.90625,68.5 L 151.40625,68.5 L 136.21875,68.5 L 136.21875,54.21875 L 154.96875,54.21875 L 155.40625,54.21875 L 155.46875,53.78125 L 156.625,46.15625 L 156.6875,45.5625 L 156.125,45.5625 L 126.34375,45.5625 L 125.84375,45.5625 z M 171.5625,57.6875 L 171.4375,58.03125 L 155.09375,102.1875 L 154.84375,102.875 L 155.5625,102.875 L 165.09375,102.875 L 165.4375,102.875 L 165.5625,102.53125 L 169.1875,92.28125 L 183.53125,92.28125 L 187.21875,102.53125 L 187.34375,102.875 L 187.6875,102.875 L 197.53125,102.875 L 198.25,102.875 L 198,102.1875 L 182.40625,58.03125 L 182.28125,57.6875 L 181.90625,57.6875 L 171.90625,57.6875 L 171.5625,57.6875 z M 204.1875,57.84375 L 204.1875,58.34375 L 204.1875,102.375 L 204.1875,102.875 L 204.6875,102.875 L 214.03125,102.875 L 214.53125,102.875 L 214.53125,102.375 L 214.53125,80.5 L 229.15625,102.625 L 229.28125,102.875 L 229.5625,102.875 L 241.6875,102.875 L 242.6875,102.875 L 242.09375,102.0625 L 224.90625,78.6875 L 240.625,58.65625 L 241.25,57.84375 L 240.21875,57.84375 L 228.84375,57.84375 L 228.5625,57.84375 L 228.4375,58.0625 L 214.53125,77.46875 L 214.53125,58.34375 L 214.53125,57.84375 L 214.03125,57.84375 L 204.6875,57.84375 L 204.1875,57.84375 z M 243.1875,57.84375 L 243.1875,58.34375 L 243.1875,65.75 L 243.1875,66.25 L 243.6875,66.25 L 255.3125,66.25 L 255.3125,102.375 L 255.3125,102.875 L 255.8125,102.875 L 265,102.875 L 265.5,102.875 L 265.5,102.375 L 265.5,66.25 L 276.96875,66.25 L 277.375,66.25 L 277.4375,65.84375 L 279,58.46875 L 279.125,57.84375 L 278.5,57.84375 L 243.6875,57.84375 L 243.1875,57.84375 z M 176.53125,67.875 L 181.25,84.28125 L 171.6875,84.28125 L 176.53125,67.875 z "
           id="text1964" />
        <path
           style="font-size:14.26249504px;font-style:normal;font-weight:normal;fill:#576bbf;fill-opacity:1;stroke:white;stroke-width:1.5;stroke-linecap:round;stroke-linejoin:round;stroke-miterlimit:4;stroke-dasharray:none;stroke-opacity:0.75;font-family:Bitstream Vera Sans"
           d="M 333.21875,57.71875 L 333.21875,58.21875 L 333.21875,94.34375 L 326.46875,94.34375 L 325.96875,94.34375 L 325.96875,94.84375 L 325.96875,102.46875 L 325.96875,102.96875 L 326.46875,102.96875 L 351.625,102.96875 L 352.125,102.96875 L 352.125,102.46875 L 352.125,94.84375 L 352.125,94.34375 L 351.625,94.34375 L 343.3125,94.34375 L 343.3125,69.96875 C 344.88066,70.918343 346.44048,71.79159 347.96875,72.53125 C 349.74847,73.392655 351.60483,74.222618 353.5,74.96875 L 353.9375,75.125 L 354.125,74.6875 L 356.4375,69.75 L 356.59375,69.375 L 356.28125,69.125 L 340.625,57.8125 L 340.46875,57.71875 L 340.3125,57.71875 L 333.71875,57.71875 L 333.21875,57.71875 z "
           id="text2855" />
        <path
           style="font-size:14.26249504px;font-style:normal;font-weight:normal;fill:#576bbf;fill-opacity:1;stroke:white;stroke-width:1.5;stroke-linecap:round;stroke-linejoin:round;stroke-miterlimit:4;stroke-dasharray:none;stroke-opacity:0.75;font-family:Bitstream Vera Sans"
           d="M 301.5625,57.6875 C 298.424,57.687545 295.58639,58.228753 293.0625,59.34375 C 290.54577,60.455708 288.41962,62.037607 286.6875,64.0625 C 284.95695,66.085738 283.61724,68.525611 282.6875,71.375 C 281.78814,74.131585 281.37431,77.213933 281.34375,80.59375 L 281.3125,80.59375 L 281.3125,80.9375 C 281.31254,84.407912 281.78932,87.58378 282.75,90.4375 C 283.70948,93.287418 285.08672,95.727292 286.875,97.75 C 288.66135,99.770436 290.79463,101.32588 293.28125,102.4375 C 295.77503,103.5523 298.53492,104.125 301.5625,104.125 C 304.7012,104.125 307.53961,103.58509 310.0625,102.5 C 312.58117,101.41675 314.73674,99.838414 316.46875,97.8125 C 318.19843,95.789342 319.50695,93.349341 320.4375,90.5 C 321.36968,87.645728 321.84376,84.461566 321.84375,80.9375 C 321.84375,77.413824 321.36818,74.230562 320.40625,71.375 C 319.44595,68.524299 318.06958,66.08525 316.28125,64.0625 C 314.49495,62.042103 312.36164,60.455415 309.875,59.34375 C 307.38127,58.228995 304.5901,57.687546 301.5625,57.6875 z M 301.65625,65.6875 C 304.8338,65.687536 307.00214,66.889175 308.40625,69.375 C 309.82391,71.884828 310.56251,75.545972 310.5625,80.34375 C 310.56251,83.458393 310.35499,86.028703 309.9375,88.0625 C 309.51889,90.101947 308.90391,91.724002 308.125,92.90625 C 307.34039,94.097238 306.41615,94.904244 305.34375,95.375 C 304.24778,95.856133 302.98527,96.093755 301.5,96.09375 C 298.32287,96.093756 296.15396,94.925622 294.75,92.46875 C 293.33321,89.989324 292.56255,86.329046 292.5625,81.53125 C 292.56253,78.416647 292.80092,75.845065 293.21875,73.78125 C 293.63757,71.712924 294.25255,70.087043 295.03125,68.90625 C 295.81684,67.715138 296.70972,66.908286 297.78125,66.4375 C 298.87633,65.95646 300.171,65.687539 301.65625,65.6875 z "
           id="text2859" />
      </g>
      <g
         style="stroke:none"
         id="g15470"
         transform="translate(0.352564,3.525641)">
        <path
           id="path15472"
           d="M 125.84375,45.5625 L 125.84375,46.0625 L 125.84375,102.375 L 125.84375,102.875 L 126.34375,102.875 L 135.71875,102.875 L 136.21875,102.875 L 136.21875,102.375 L 136.21875,77.0625 L 151.40625,77.0625 L 151.90625,77.0625 L 151.90625,76.5625 L 151.90625,69 L 151.90625,68.5 L 151.40625,68.5 L 136.21875,68.5 L 136.21875,54.21875 L 154.96875,54.21875 L 155.40625,54.21875 L 155.46875,53.78125 L 156.625,46.15625 L 156.6875,45.5625 L 156.125,45.5625 L 126.34375,45.5625 L 125.84375,45.5625 z M 171.5625,57.6875 L 171.4375,58.03125 L 155.09375,102.1875 L 154.84375,102.875 L 155.5625,102.875 L 165.09375,102.875 L 165.4375,102.875 L 165.5625,102.53125 L 169.1875,92.28125 L 183.53125,92.28125 L 187.21875,102.53125 L 187.34375,102.875 L 187.6875,102.875 L 197.53125,102.875 L 198.25,102.875 L 198,102.1875 L 182.40625,58.03125 L 182.28125,57.6875 L 181.90625,57.6875 L 171.90625,57.6875 L 171.5625,57.6875 z M 204.1875,57.84375 L 204.1875,58.34375 L 204.1875,102.375 L 204.1875,102.875 L 204.6875,102.875 L 214.03125,102.875 L 214.53125,102.875 L 214.53125,102.375 L 214.53125,80.5 L 229.15625,102.625 L 229.28125,102.875 L 229.5625,102.875 L 241.6875,102.875 L 242.6875,102.875 L 242.09375,102.0625 L 224.90625,78.6875 L 240.625,58.65625 L 241.25,57.84375 L 240.21875,57.84375 L 228.84375,57.84375 L 228.5625,57.84375 L 228.4375,58.0625 L 214.53125,77.46875 L 214.53125,58.34375 L 214.53125,57.84375 L 214.03125,57.84375 L 204.6875,57.84375 L 204.1875,57.84375 z M 243.1875,57.84375 L 243.1875,58.34375 L 243.1875,65.75 L 243.1875,66.25 L 243.6875,66.25 L 255.3125,66.25 L 255.3125,102.375 L 255.3125,102.875 L 255.8125,102.875 L 265,102.875 L 265.5,102.875 L 265.5,102.375 L 265.5,66.25 L 276.96875,66.25 L 277.375,66.25 L 277.4375,65.84375 L 279,58.46875 L 279.125,57.84375 L 278.5,57.84375 L 243.6875,57.84375 L 243.1875,57.84375 z M 176.53125,67.875 L 181.25,84.28125 L 171.6875,84.28125 L 176.53125,67.875 z "
           style="font-size:81.34132385px;font-style:normal;font-weight:bold;fill:black;fill-opacity:1;stroke:none;stroke-width:1.5;stroke-linecap:round;stroke-linejoin:round;stroke-miterlimit:4;stroke-dasharray:none;stroke-opacity:0.75;font-family:MetaMedium-Caps" />
        <path
           id="path15474"
           d="M 333.21875,57.71875 L 333.21875,58.21875 L 333.21875,94.34375 L 326.46875,94.34375 L 325.96875,94.34375 L 325.96875,94.84375 L 325.96875,102.46875 L 325.96875,102.96875 L 326.46875,102.96875 L 351.625,102.96875 L 352.125,102.96875 L 352.125,102.46875 L 352.125,94.84375 L 352.125,94.34375 L 351.625,94.34375 L 343.3125,94.34375 L 343.3125,69.96875 C 344.88066,70.918343 346.44048,71.79159 347.96875,72.53125 C 349.74847,73.392655 351.60483,74.222618 353.5,74.96875 L 353.9375,75.125 L 354.125,74.6875 L 356.4375,69.75 L 356.59375,69.375 L 356.28125,69.125 L 340.625,57.8125 L 340.46875,57.71875 L 340.3125,57.71875 L 333.71875,57.71875 L 333.21875,57.71875 z "
           style="font-size:14.26249504px;font-style:normal;font-weight:normal;fill:#576bbf;fill-opacity:1;stroke:none;stroke-width:1.5;stroke-linecap:round;stroke-linejoin:round;stroke-miterlimit:4;stroke-dasharray:none;stroke-opacity:0.75;font-family:Bitstream Vera Sans" />
        <path
           id="path15476"
           d="M 301.5625,57.6875 C 298.424,57.687545 295.58639,58.228753 293.0625,59.34375 C 290.54577,60.455708 288.41962,62.037607 286.6875,64.0625 C 284.95695,66.085738 283.61724,68.525611 282.6875,71.375 C 281.78814,74.131585 281.37431,77.213933 281.34375,80.59375 L 281.3125,80.59375 L 281.3125,80.9375 C 281.31254,84.407912 281.78932,87.58378 282.75,90.4375 C 283.70948,93.287418 285.08672,95.727292 286.875,97.75 C 288.66135,99.770436 290.79463,101.32588 293.28125,102.4375 C 295.77503,103.5523 298.53492,104.125 301.5625,104.125 C 304.7012,104.125 307.53961,103.58509 310.0625,102.5 C 312.58117,101.41675 314.73674,99.838414 316.46875,97.8125 C 318.19843,95.789342 319.50695,93.349341 320.4375,90.5 C 321.36968,87.645728 321.84376,84.461566 321.84375,80.9375 C 321.84375,77.413824 321.36818,74.230562 320.40625,71.375 C 319.44595,68.524299 318.06958,66.08525 316.28125,64.0625 C 314.49495,62.042103 312.36164,60.455415 309.875,59.34375 C 307.38127,58.228995 304.5901,57.687546 301.5625,57.6875 z M 301.65625,65.6875 C 304.8338,65.687536 307.00214,66.889175 308.40625,69.375 C 309.82391,71.884828 310.56251,75.545972 310.5625,80.34375 C 310.56251,83.458393 310.35499,86.028703 309.9375,88.0625 C 309.51889,90.101947 308.90391,91.724002 308.125,92.90625 C 307.34039,94.097238 306.41615,94.904244 305.34375,95.375 C 304.24778,95.856133 302.98527,96.093755 301.5,96.09375 C 298.32287,96.093756 296.15396,94.925622 294.75,92.46875 C 293.33321,89.989324 292.56255,86.329046 292.5625,81.53125 C 292.56253,78.416647 292.80092,75.845065 293.21875,73.78125 C 293.63757,71.712924 294.25255,70.087043 295.03125,68.90625 C 295.81684,67.715138 296.70972,66.908286 297.78125,66.4375 C 298.87633,65.95646 300.171,65.687539 301.65625,65.6875 z "
           style="font-size:14.26249504px;font-style:normal;font-weight:normal;fill:#576bbf;fill-opacity:1;stroke:none;stroke-width:1.5;stroke-linecap:round;stroke-linejoin:round;stroke-miterlimit:4;stroke-dasharray:none;stroke-opacity:0.75;font-family:Bitstream Vera Sans" />
      </g>
    </g>
  </g>
</svg>
